%TF.GenerationSoftware,KiCad,Pcbnew,10.0.1*%
%TF.CreationDate,2026-05-04T07:23:59+02:00*%
%TF.ProjectId,Stiftklavier,53746966-746b-46c6-9176-6965722e6b69,1.0*%
%TF.SameCoordinates,Original*%
%TF.FileFunction,Legend,Bot*%
%TF.FilePolarity,Positive*%
%FSLAX46Y46*%
G04 Gerber Fmt 4.6, Leading zero omitted, Abs format (unit mm)*
G04 Created by KiCad (PCBNEW 10.0.1) date 2026-05-04 07:23:59*
%MOMM*%
%LPD*%
G01*
G04 APERTURE LIST*
%ADD10C,0.000000*%
%ADD11C,0.150000*%
%ADD12C,0.120000*%
G04 APERTURE END LIST*
D10*
G36*
X131832812Y-85000000D02*
G01*
X131369792Y-85000000D01*
X131369792Y-84536978D01*
X131832812Y-84536978D01*
X131832812Y-85000000D01*
G37*
G36*
X131832812Y-85463020D02*
G01*
X131369792Y-85463020D01*
X131369792Y-85000000D01*
X131832812Y-85000000D01*
X131832812Y-85463020D01*
G37*
G36*
X131832812Y-86389061D02*
G01*
X131369792Y-86389061D01*
X131369792Y-85926041D01*
X131832812Y-85926041D01*
X131832812Y-86389061D01*
G37*
G36*
X131832812Y-87315103D02*
G01*
X131369792Y-87315103D01*
X131369792Y-86852082D01*
X131832812Y-86852082D01*
X131832812Y-87315103D01*
G37*
G36*
X131832812Y-87778124D02*
G01*
X131369792Y-87778124D01*
X131369792Y-87315103D01*
X131832812Y-87315103D01*
X131832812Y-87778124D01*
G37*
G36*
X131832812Y-88704166D02*
G01*
X131369792Y-88704166D01*
X131369792Y-88241145D01*
X131832812Y-88241145D01*
X131832812Y-88704166D01*
G37*
G36*
X131832812Y-90093228D02*
G01*
X131369792Y-90093228D01*
X131369792Y-89630207D01*
X131832812Y-89630207D01*
X131832812Y-90093228D01*
G37*
G36*
X131832812Y-91019270D02*
G01*
X131369792Y-91019270D01*
X131369792Y-90556249D01*
X131832812Y-90556249D01*
X131832812Y-91019270D01*
G37*
G36*
X131832812Y-91945312D02*
G01*
X131369792Y-91945312D01*
X131369792Y-91482290D01*
X131832812Y-91482290D01*
X131832812Y-91945312D01*
G37*
G36*
X132295834Y-83147916D02*
G01*
X131832812Y-83147916D01*
X131832812Y-82684895D01*
X132295834Y-82684895D01*
X132295834Y-83147916D01*
G37*
G36*
X132295834Y-83610937D02*
G01*
X131832812Y-83610937D01*
X131832812Y-83147916D01*
X132295834Y-83147916D01*
X132295834Y-83610937D01*
G37*
G36*
X132295834Y-85463020D02*
G01*
X131832812Y-85463020D01*
X131832812Y-85000000D01*
X132295834Y-85000000D01*
X132295834Y-85463020D01*
G37*
G36*
X132295834Y-87315103D02*
G01*
X131832812Y-87315103D01*
X131832812Y-86852082D01*
X132295834Y-86852082D01*
X132295834Y-87315103D01*
G37*
G36*
X132295834Y-88704166D02*
G01*
X131832812Y-88704166D01*
X131832812Y-88241145D01*
X132295834Y-88241145D01*
X132295834Y-88704166D01*
G37*
G36*
X132295834Y-90556249D02*
G01*
X131832812Y-90556249D01*
X131832812Y-90093228D01*
X132295834Y-90093228D01*
X132295834Y-90556249D01*
G37*
G36*
X132295834Y-91482290D02*
G01*
X131832812Y-91482290D01*
X131832812Y-91019270D01*
X132295834Y-91019270D01*
X132295834Y-91482290D01*
G37*
G36*
X133684896Y-81295833D02*
G01*
X132295834Y-81295833D01*
X132295834Y-79906770D01*
X133684896Y-79906770D01*
X133684896Y-81295833D01*
G37*
G36*
X132758854Y-83147916D02*
G01*
X132295834Y-83147916D01*
X132295834Y-82684895D01*
X132758854Y-82684895D01*
X132758854Y-83147916D01*
G37*
G36*
X132758854Y-83610937D02*
G01*
X132295834Y-83610937D01*
X132295834Y-83147916D01*
X132758854Y-83147916D01*
X132758854Y-83610937D01*
G37*
G36*
X132758854Y-85926041D02*
G01*
X132295834Y-85926041D01*
X132295834Y-85463020D01*
X132758854Y-85463020D01*
X132758854Y-85926041D01*
G37*
G36*
X132758854Y-86389061D02*
G01*
X132295834Y-86389061D01*
X132295834Y-85926041D01*
X132758854Y-85926041D01*
X132758854Y-86389061D01*
G37*
G36*
X132758854Y-86852082D02*
G01*
X132295834Y-86852082D01*
X132295834Y-86389061D01*
X132758854Y-86389061D01*
X132758854Y-86852082D01*
G37*
G36*
X132758854Y-87315103D02*
G01*
X132295834Y-87315103D01*
X132295834Y-86852082D01*
X132758854Y-86852082D01*
X132758854Y-87315103D01*
G37*
G36*
X132758854Y-88704166D02*
G01*
X132295834Y-88704166D01*
X132295834Y-88241145D01*
X132758854Y-88241145D01*
X132758854Y-88704166D01*
G37*
G36*
X132758854Y-89630207D02*
G01*
X132295834Y-89630207D01*
X132295834Y-89167186D01*
X132758854Y-89167186D01*
X132758854Y-89630207D01*
G37*
G36*
X132758854Y-91019270D02*
G01*
X132295834Y-91019270D01*
X132295834Y-90556249D01*
X132758854Y-90556249D01*
X132758854Y-91019270D01*
G37*
G36*
X132758854Y-91482290D02*
G01*
X132295834Y-91482290D01*
X132295834Y-91019270D01*
X132758854Y-91019270D01*
X132758854Y-91482290D01*
G37*
G36*
X132758854Y-91945312D02*
G01*
X132295834Y-91945312D01*
X132295834Y-91482290D01*
X132758854Y-91482290D01*
X132758854Y-91945312D01*
G37*
G36*
X132758854Y-92408332D02*
G01*
X132295834Y-92408332D01*
X132295834Y-91945312D01*
X132758854Y-91945312D01*
X132758854Y-92408332D01*
G37*
G36*
X133221875Y-83147916D02*
G01*
X132758854Y-83147916D01*
X132758854Y-82684895D01*
X133221875Y-82684895D01*
X133221875Y-83147916D01*
G37*
G36*
X133221875Y-84536978D02*
G01*
X132758854Y-84536978D01*
X132758854Y-84073958D01*
X133221875Y-84073958D01*
X133221875Y-84536978D01*
G37*
G36*
X133221875Y-85926041D02*
G01*
X132758854Y-85926041D01*
X132758854Y-85463020D01*
X133221875Y-85463020D01*
X133221875Y-85926041D01*
G37*
G36*
X133221875Y-86852082D02*
G01*
X132758854Y-86852082D01*
X132758854Y-86389061D01*
X133221875Y-86389061D01*
X133221875Y-86852082D01*
G37*
G36*
X133221875Y-87778124D02*
G01*
X132758854Y-87778124D01*
X132758854Y-87315103D01*
X133221875Y-87315103D01*
X133221875Y-87778124D01*
G37*
G36*
X133221875Y-89167186D02*
G01*
X132758854Y-89167186D01*
X132758854Y-88704166D01*
X133221875Y-88704166D01*
X133221875Y-89167186D01*
G37*
G36*
X133221875Y-89630207D02*
G01*
X132758854Y-89630207D01*
X132758854Y-89167186D01*
X133221875Y-89167186D01*
X133221875Y-89630207D01*
G37*
G36*
X133221875Y-90556249D02*
G01*
X132758854Y-90556249D01*
X132758854Y-90093228D01*
X133221875Y-90093228D01*
X133221875Y-90556249D01*
G37*
G36*
X133221875Y-91019270D02*
G01*
X132758854Y-91019270D01*
X132758854Y-90556249D01*
X133221875Y-90556249D01*
X133221875Y-91019270D01*
G37*
G36*
X133221875Y-91482290D02*
G01*
X132758854Y-91482290D01*
X132758854Y-91019270D01*
X133221875Y-91019270D01*
X133221875Y-91482290D01*
G37*
G36*
X133221875Y-91945312D02*
G01*
X132758854Y-91945312D01*
X132758854Y-91482290D01*
X133221875Y-91482290D01*
X133221875Y-91945312D01*
G37*
G36*
X133684896Y-83610937D02*
G01*
X133221875Y-83610937D01*
X133221875Y-83147916D01*
X133684896Y-83147916D01*
X133684896Y-83610937D01*
G37*
G36*
X133684896Y-84073958D02*
G01*
X133221875Y-84073958D01*
X133221875Y-83610937D01*
X133684896Y-83610937D01*
X133684896Y-84073958D01*
G37*
G36*
X133684896Y-85463020D02*
G01*
X133221875Y-85463020D01*
X133221875Y-85000000D01*
X133684896Y-85000000D01*
X133684896Y-85463020D01*
G37*
G36*
X133684896Y-85926041D02*
G01*
X133221875Y-85926041D01*
X133221875Y-85463020D01*
X133684896Y-85463020D01*
X133684896Y-85926041D01*
G37*
G36*
X133684896Y-86389061D02*
G01*
X133221875Y-86389061D01*
X133221875Y-85926041D01*
X133684896Y-85926041D01*
X133684896Y-86389061D01*
G37*
G36*
X133684896Y-87315103D02*
G01*
X133221875Y-87315103D01*
X133221875Y-86852082D01*
X133684896Y-86852082D01*
X133684896Y-87315103D01*
G37*
G36*
X133684896Y-87778124D02*
G01*
X133221875Y-87778124D01*
X133221875Y-87315103D01*
X133684896Y-87315103D01*
X133684896Y-87778124D01*
G37*
G36*
X133684896Y-88704166D02*
G01*
X133221875Y-88704166D01*
X133221875Y-88241145D01*
X133684896Y-88241145D01*
X133684896Y-88704166D01*
G37*
G36*
X133684896Y-89167186D02*
G01*
X133221875Y-89167186D01*
X133221875Y-88704166D01*
X133684896Y-88704166D01*
X133684896Y-89167186D01*
G37*
G36*
X133684896Y-89630207D02*
G01*
X133221875Y-89630207D01*
X133221875Y-89167186D01*
X133684896Y-89167186D01*
X133684896Y-89630207D01*
G37*
G36*
X133684896Y-90093228D02*
G01*
X133221875Y-90093228D01*
X133221875Y-89630207D01*
X133684896Y-89630207D01*
X133684896Y-90093228D01*
G37*
G36*
X133684896Y-90556249D02*
G01*
X133221875Y-90556249D01*
X133221875Y-90093228D01*
X133684896Y-90093228D01*
X133684896Y-90556249D01*
G37*
G36*
X133684896Y-91482290D02*
G01*
X133221875Y-91482290D01*
X133221875Y-91019270D01*
X133684896Y-91019270D01*
X133684896Y-91482290D01*
G37*
G36*
X133684896Y-92408332D02*
G01*
X133221875Y-92408332D01*
X133221875Y-91945312D01*
X133684896Y-91945312D01*
X133684896Y-92408332D01*
G37*
G36*
X134147917Y-83610937D02*
G01*
X133684896Y-83610937D01*
X133684896Y-83147916D01*
X134147917Y-83147916D01*
X134147917Y-83610937D01*
G37*
G36*
X134147917Y-85000000D02*
G01*
X133684896Y-85000000D01*
X133684896Y-84536978D01*
X134147917Y-84536978D01*
X134147917Y-85000000D01*
G37*
G36*
X134147917Y-85463020D02*
G01*
X133684896Y-85463020D01*
X133684896Y-85000000D01*
X134147917Y-85000000D01*
X134147917Y-85463020D01*
G37*
G36*
X134147917Y-86389061D02*
G01*
X133684896Y-86389061D01*
X133684896Y-85926041D01*
X134147917Y-85926041D01*
X134147917Y-86389061D01*
G37*
G36*
X134147917Y-86852082D02*
G01*
X133684896Y-86852082D01*
X133684896Y-86389061D01*
X134147917Y-86389061D01*
X134147917Y-86852082D01*
G37*
G36*
X134147917Y-87315103D02*
G01*
X133684896Y-87315103D01*
X133684896Y-86852082D01*
X134147917Y-86852082D01*
X134147917Y-87315103D01*
G37*
G36*
X134147917Y-88704166D02*
G01*
X133684896Y-88704166D01*
X133684896Y-88241145D01*
X134147917Y-88241145D01*
X134147917Y-88704166D01*
G37*
G36*
X134147917Y-90556249D02*
G01*
X133684896Y-90556249D01*
X133684896Y-90093228D01*
X134147917Y-90093228D01*
X134147917Y-90556249D01*
G37*
G36*
X134147917Y-91482290D02*
G01*
X133684896Y-91482290D01*
X133684896Y-91019270D01*
X134147917Y-91019270D01*
X134147917Y-91482290D01*
G37*
G36*
X134147917Y-91945312D02*
G01*
X133684896Y-91945312D01*
X133684896Y-91482290D01*
X134147917Y-91482290D01*
X134147917Y-91945312D01*
G37*
G36*
X134147917Y-92408332D02*
G01*
X133684896Y-92408332D01*
X133684896Y-91945312D01*
X134147917Y-91945312D01*
X134147917Y-92408332D01*
G37*
G36*
X134610938Y-83147916D02*
G01*
X134147917Y-83147916D01*
X134147917Y-82684895D01*
X134610938Y-82684895D01*
X134610938Y-83147916D01*
G37*
G36*
X134610938Y-85000000D02*
G01*
X134147917Y-85000000D01*
X134147917Y-84536978D01*
X134610938Y-84536978D01*
X134610938Y-85000000D01*
G37*
G36*
X134610938Y-85463020D02*
G01*
X134147917Y-85463020D01*
X134147917Y-85000000D01*
X134610938Y-85000000D01*
X134610938Y-85463020D01*
G37*
G36*
X134610938Y-87315103D02*
G01*
X134147917Y-87315103D01*
X134147917Y-86852082D01*
X134610938Y-86852082D01*
X134610938Y-87315103D01*
G37*
G36*
X134610938Y-88241145D02*
G01*
X134147917Y-88241145D01*
X134147917Y-87778124D01*
X134610938Y-87778124D01*
X134610938Y-88241145D01*
G37*
G36*
X134610938Y-88704166D02*
G01*
X134147917Y-88704166D01*
X134147917Y-88241145D01*
X134610938Y-88241145D01*
X134610938Y-88704166D01*
G37*
G36*
X134610938Y-89630207D02*
G01*
X134147917Y-89630207D01*
X134147917Y-89167186D01*
X134610938Y-89167186D01*
X134610938Y-89630207D01*
G37*
G36*
X134610938Y-90556249D02*
G01*
X134147917Y-90556249D01*
X134147917Y-90093228D01*
X134610938Y-90093228D01*
X134610938Y-90556249D01*
G37*
G36*
X134610938Y-91482290D02*
G01*
X134147917Y-91482290D01*
X134147917Y-91019270D01*
X134610938Y-91019270D01*
X134610938Y-91482290D01*
G37*
G36*
X134610938Y-91945312D02*
G01*
X134147917Y-91945312D01*
X134147917Y-91482290D01*
X134610938Y-91482290D01*
X134610938Y-91945312D01*
G37*
G36*
X134610938Y-92408332D02*
G01*
X134147917Y-92408332D01*
X134147917Y-91945312D01*
X134610938Y-91945312D01*
X134610938Y-92408332D01*
G37*
G36*
X135073958Y-83147916D02*
G01*
X134610938Y-83147916D01*
X134610938Y-82684895D01*
X135073958Y-82684895D01*
X135073958Y-83147916D01*
G37*
G36*
X135073958Y-83610937D02*
G01*
X134610938Y-83610937D01*
X134610938Y-83147916D01*
X135073958Y-83147916D01*
X135073958Y-83610937D01*
G37*
G36*
X135073958Y-84536978D02*
G01*
X134610938Y-84536978D01*
X134610938Y-84073958D01*
X135073958Y-84073958D01*
X135073958Y-84536978D01*
G37*
G36*
X135073958Y-85926041D02*
G01*
X134610938Y-85926041D01*
X134610938Y-85463020D01*
X135073958Y-85463020D01*
X135073958Y-85926041D01*
G37*
G36*
X135073958Y-86852082D02*
G01*
X134610938Y-86852082D01*
X134610938Y-86389061D01*
X135073958Y-86389061D01*
X135073958Y-86852082D01*
G37*
G36*
X135073958Y-88704166D02*
G01*
X134610938Y-88704166D01*
X134610938Y-88241145D01*
X135073958Y-88241145D01*
X135073958Y-88704166D01*
G37*
G36*
X135073958Y-90556249D02*
G01*
X134610938Y-90556249D01*
X134610938Y-90093228D01*
X135073958Y-90093228D01*
X135073958Y-90556249D01*
G37*
G36*
X135073958Y-91019270D02*
G01*
X134610938Y-91019270D01*
X134610938Y-90556249D01*
X135073958Y-90556249D01*
X135073958Y-91019270D01*
G37*
G36*
X135073958Y-91482290D02*
G01*
X134610938Y-91482290D01*
X134610938Y-91019270D01*
X135073958Y-91019270D01*
X135073958Y-91482290D01*
G37*
G36*
X135536979Y-81295833D02*
G01*
X135073958Y-81295833D01*
X135073958Y-80832812D01*
X135536979Y-80832812D01*
X135536979Y-81295833D01*
G37*
G36*
X135536979Y-81758853D02*
G01*
X135073958Y-81758853D01*
X135073958Y-81295833D01*
X135536979Y-81295833D01*
X135536979Y-81758853D01*
G37*
G36*
X135536979Y-82221874D02*
G01*
X135073958Y-82221874D01*
X135073958Y-81758853D01*
X135536979Y-81758853D01*
X135536979Y-82221874D01*
G37*
G36*
X135536979Y-82684895D02*
G01*
X135073958Y-82684895D01*
X135073958Y-82221874D01*
X135536979Y-82221874D01*
X135536979Y-82684895D01*
G37*
G36*
X135536979Y-84073958D02*
G01*
X135073958Y-84073958D01*
X135073958Y-83610937D01*
X135536979Y-83610937D01*
X135536979Y-84073958D01*
G37*
G36*
X135536979Y-84536978D02*
G01*
X135073958Y-84536978D01*
X135073958Y-84073958D01*
X135536979Y-84073958D01*
X135536979Y-84536978D01*
G37*
G36*
X135536979Y-85000000D02*
G01*
X135073958Y-85000000D01*
X135073958Y-84536978D01*
X135536979Y-84536978D01*
X135536979Y-85000000D01*
G37*
G36*
X135536979Y-85463020D02*
G01*
X135073958Y-85463020D01*
X135073958Y-85000000D01*
X135536979Y-85000000D01*
X135536979Y-85463020D01*
G37*
G36*
X135536979Y-85926041D02*
G01*
X135073958Y-85926041D01*
X135073958Y-85463020D01*
X135536979Y-85463020D01*
X135536979Y-85926041D01*
G37*
G36*
X135536979Y-88241145D02*
G01*
X135073958Y-88241145D01*
X135073958Y-87778124D01*
X135536979Y-87778124D01*
X135536979Y-88241145D01*
G37*
G36*
X135536979Y-88704166D02*
G01*
X135073958Y-88704166D01*
X135073958Y-88241145D01*
X135536979Y-88241145D01*
X135536979Y-88704166D01*
G37*
G36*
X135536979Y-89167186D02*
G01*
X135073958Y-89167186D01*
X135073958Y-88704166D01*
X135536979Y-88704166D01*
X135536979Y-89167186D01*
G37*
G36*
X135536979Y-89630207D02*
G01*
X135073958Y-89630207D01*
X135073958Y-89167186D01*
X135536979Y-89167186D01*
X135536979Y-89630207D01*
G37*
G36*
X135536979Y-90093228D02*
G01*
X135073958Y-90093228D01*
X135073958Y-89630207D01*
X135536979Y-89630207D01*
X135536979Y-90093228D01*
G37*
G36*
X135536979Y-90556249D02*
G01*
X135073958Y-90556249D01*
X135073958Y-90093228D01*
X135536979Y-90093228D01*
X135536979Y-90556249D01*
G37*
G36*
X135536979Y-91019270D02*
G01*
X135073958Y-91019270D01*
X135073958Y-90556249D01*
X135536979Y-90556249D01*
X135536979Y-91019270D01*
G37*
G36*
X135536979Y-91482290D02*
G01*
X135073958Y-91482290D01*
X135073958Y-91019270D01*
X135536979Y-91019270D01*
X135536979Y-91482290D01*
G37*
G36*
X136000000Y-80369791D02*
G01*
X135536979Y-80369791D01*
X135536979Y-79906770D01*
X136000000Y-79906770D01*
X136000000Y-80369791D01*
G37*
G36*
X136000000Y-81295833D02*
G01*
X135536979Y-81295833D01*
X135536979Y-80832812D01*
X136000000Y-80832812D01*
X136000000Y-81295833D01*
G37*
G36*
X136000000Y-83610937D02*
G01*
X135536979Y-83610937D01*
X135536979Y-83147916D01*
X136000000Y-83147916D01*
X136000000Y-83610937D01*
G37*
G36*
X136000000Y-84536978D02*
G01*
X135536979Y-84536978D01*
X135536979Y-84073958D01*
X136000000Y-84073958D01*
X136000000Y-84536978D01*
G37*
G36*
X136000000Y-85000000D02*
G01*
X135536979Y-85000000D01*
X135536979Y-84536978D01*
X136000000Y-84536978D01*
X136000000Y-85000000D01*
G37*
G36*
X136000000Y-86389061D02*
G01*
X135536979Y-86389061D01*
X135536979Y-85926041D01*
X136000000Y-85926041D01*
X136000000Y-86389061D01*
G37*
G36*
X136000000Y-86852082D02*
G01*
X135536979Y-86852082D01*
X135536979Y-86389061D01*
X136000000Y-86389061D01*
X136000000Y-86852082D01*
G37*
G36*
X136000000Y-87315103D02*
G01*
X135536979Y-87315103D01*
X135536979Y-86852082D01*
X136000000Y-86852082D01*
X136000000Y-87315103D01*
G37*
G36*
X136000000Y-87778124D02*
G01*
X135536979Y-87778124D01*
X135536979Y-87315103D01*
X136000000Y-87315103D01*
X136000000Y-87778124D01*
G37*
G36*
X136000000Y-88704166D02*
G01*
X135536979Y-88704166D01*
X135536979Y-88241145D01*
X136000000Y-88241145D01*
X136000000Y-88704166D01*
G37*
G36*
X136000000Y-89630207D02*
G01*
X135536979Y-89630207D01*
X135536979Y-89167186D01*
X136000000Y-89167186D01*
X136000000Y-89630207D01*
G37*
G36*
X136000000Y-90093228D02*
G01*
X135536979Y-90093228D01*
X135536979Y-89630207D01*
X136000000Y-89630207D01*
X136000000Y-90093228D01*
G37*
G36*
X136000000Y-90556249D02*
G01*
X135536979Y-90556249D01*
X135536979Y-90093228D01*
X136000000Y-90093228D01*
X136000000Y-90556249D01*
G37*
G36*
X136000000Y-91019270D02*
G01*
X135536979Y-91019270D01*
X135536979Y-90556249D01*
X136000000Y-90556249D01*
X136000000Y-91019270D01*
G37*
G36*
X136000000Y-91482290D02*
G01*
X135536979Y-91482290D01*
X135536979Y-91019270D01*
X136000000Y-91019270D01*
X136000000Y-91482290D01*
G37*
G36*
X136000000Y-92408332D02*
G01*
X135536979Y-92408332D01*
X135536979Y-91945312D01*
X136000000Y-91945312D01*
X136000000Y-92408332D01*
G37*
G36*
X136463021Y-79906770D02*
G01*
X136000000Y-79906770D01*
X136000000Y-79443749D01*
X136463021Y-79443749D01*
X136463021Y-79906770D01*
G37*
G36*
X136463021Y-80369791D02*
G01*
X136000000Y-80369791D01*
X136000000Y-79906770D01*
X136463021Y-79906770D01*
X136463021Y-80369791D01*
G37*
G36*
X136463021Y-81295833D02*
G01*
X136000000Y-81295833D01*
X136000000Y-80832812D01*
X136463021Y-80832812D01*
X136463021Y-81295833D01*
G37*
G36*
X136463021Y-81758853D02*
G01*
X136000000Y-81758853D01*
X136000000Y-81295833D01*
X136463021Y-81295833D01*
X136463021Y-81758853D01*
G37*
G36*
X136463021Y-82221874D02*
G01*
X136000000Y-82221874D01*
X136000000Y-81758853D01*
X136463021Y-81758853D01*
X136463021Y-82221874D01*
G37*
G36*
X136463021Y-84536978D02*
G01*
X136000000Y-84536978D01*
X136000000Y-84073958D01*
X136463021Y-84073958D01*
X136463021Y-84536978D01*
G37*
G36*
X136463021Y-85463020D02*
G01*
X136000000Y-85463020D01*
X136000000Y-85000000D01*
X136463021Y-85000000D01*
X136463021Y-85463020D01*
G37*
G36*
X136463021Y-87315103D02*
G01*
X136000000Y-87315103D01*
X136000000Y-86852082D01*
X136463021Y-86852082D01*
X136463021Y-87315103D01*
G37*
G36*
X136463021Y-87778124D02*
G01*
X136000000Y-87778124D01*
X136000000Y-87315103D01*
X136463021Y-87315103D01*
X136463021Y-87778124D01*
G37*
G36*
X136463021Y-89167186D02*
G01*
X136000000Y-89167186D01*
X136000000Y-88704166D01*
X136463021Y-88704166D01*
X136463021Y-89167186D01*
G37*
G36*
X136463021Y-89630207D02*
G01*
X136000000Y-89630207D01*
X136000000Y-89167186D01*
X136463021Y-89167186D01*
X136463021Y-89630207D01*
G37*
G36*
X136463021Y-90093228D02*
G01*
X136000000Y-90093228D01*
X136000000Y-89630207D01*
X136463021Y-89630207D01*
X136463021Y-90093228D01*
G37*
G36*
X136463021Y-92408332D02*
G01*
X136000000Y-92408332D01*
X136000000Y-91945312D01*
X136463021Y-91945312D01*
X136463021Y-92408332D01*
G37*
G36*
X136926042Y-79443749D02*
G01*
X136463021Y-79443749D01*
X136463021Y-78980729D01*
X136926042Y-78980729D01*
X136926042Y-79443749D01*
G37*
G36*
X136926042Y-79906770D02*
G01*
X136463021Y-79906770D01*
X136463021Y-79443749D01*
X136926042Y-79443749D01*
X136926042Y-79906770D01*
G37*
G36*
X136926042Y-80832812D02*
G01*
X136463021Y-80832812D01*
X136463021Y-80369791D01*
X136926042Y-80369791D01*
X136926042Y-80832812D01*
G37*
G36*
X136926042Y-81295833D02*
G01*
X136463021Y-81295833D01*
X136463021Y-80832812D01*
X136926042Y-80832812D01*
X136926042Y-81295833D01*
G37*
G36*
X136926042Y-83147916D02*
G01*
X136463021Y-83147916D01*
X136463021Y-82684895D01*
X136926042Y-82684895D01*
X136926042Y-83147916D01*
G37*
G36*
X136926042Y-85000000D02*
G01*
X136463021Y-85000000D01*
X136463021Y-84536978D01*
X136926042Y-84536978D01*
X136926042Y-85000000D01*
G37*
G36*
X136926042Y-85463020D02*
G01*
X136463021Y-85463020D01*
X136463021Y-85000000D01*
X136926042Y-85000000D01*
X136926042Y-85463020D01*
G37*
G36*
X136926042Y-86852082D02*
G01*
X136463021Y-86852082D01*
X136463021Y-86389061D01*
X136926042Y-86389061D01*
X136926042Y-86852082D01*
G37*
G36*
X136926042Y-87315103D02*
G01*
X136463021Y-87315103D01*
X136463021Y-86852082D01*
X136926042Y-86852082D01*
X136926042Y-87315103D01*
G37*
G36*
X136926042Y-87778124D02*
G01*
X136463021Y-87778124D01*
X136463021Y-87315103D01*
X136926042Y-87315103D01*
X136926042Y-87778124D01*
G37*
G36*
X136926042Y-88704166D02*
G01*
X136463021Y-88704166D01*
X136463021Y-88241145D01*
X136926042Y-88241145D01*
X136926042Y-88704166D01*
G37*
G36*
X136926042Y-89167186D02*
G01*
X136463021Y-89167186D01*
X136463021Y-88704166D01*
X136926042Y-88704166D01*
X136926042Y-89167186D01*
G37*
G36*
X136926042Y-92408332D02*
G01*
X136463021Y-92408332D01*
X136463021Y-91945312D01*
X136926042Y-91945312D01*
X136926042Y-92408332D01*
G37*
G36*
X137389063Y-79906770D02*
G01*
X136926042Y-79906770D01*
X136926042Y-79443749D01*
X137389063Y-79443749D01*
X137389063Y-79906770D01*
G37*
G36*
X137389063Y-80832812D02*
G01*
X136926042Y-80832812D01*
X136926042Y-80369791D01*
X137389063Y-80369791D01*
X137389063Y-80832812D01*
G37*
G36*
X137389063Y-81295833D02*
G01*
X136926042Y-81295833D01*
X136926042Y-80832812D01*
X137389063Y-80832812D01*
X137389063Y-81295833D01*
G37*
G36*
X137389063Y-82221874D02*
G01*
X136926042Y-82221874D01*
X136926042Y-81758853D01*
X137389063Y-81758853D01*
X137389063Y-82221874D01*
G37*
G36*
X137389063Y-82684895D02*
G01*
X136926042Y-82684895D01*
X136926042Y-82221874D01*
X137389063Y-82221874D01*
X137389063Y-82684895D01*
G37*
G36*
X137389063Y-83147916D02*
G01*
X136926042Y-83147916D01*
X136926042Y-82684895D01*
X137389063Y-82684895D01*
X137389063Y-83147916D01*
G37*
G36*
X137389063Y-84536978D02*
G01*
X136926042Y-84536978D01*
X136926042Y-84073958D01*
X137389063Y-84073958D01*
X137389063Y-84536978D01*
G37*
G36*
X137389063Y-85000000D02*
G01*
X136926042Y-85000000D01*
X136926042Y-84536978D01*
X137389063Y-84536978D01*
X137389063Y-85000000D01*
G37*
G36*
X137389063Y-85463020D02*
G01*
X136926042Y-85463020D01*
X136926042Y-85000000D01*
X137389063Y-85000000D01*
X137389063Y-85463020D01*
G37*
G36*
X137389063Y-85926041D02*
G01*
X136926042Y-85926041D01*
X136926042Y-85463020D01*
X137389063Y-85463020D01*
X137389063Y-85926041D01*
G37*
G36*
X137389063Y-86389061D02*
G01*
X136926042Y-86389061D01*
X136926042Y-85926041D01*
X137389063Y-85926041D01*
X137389063Y-86389061D01*
G37*
G36*
X137389063Y-87315103D02*
G01*
X136926042Y-87315103D01*
X136926042Y-86852082D01*
X137389063Y-86852082D01*
X137389063Y-87315103D01*
G37*
G36*
X137389063Y-87778124D02*
G01*
X136926042Y-87778124D01*
X136926042Y-87315103D01*
X137389063Y-87315103D01*
X137389063Y-87778124D01*
G37*
G36*
X137389063Y-88241145D02*
G01*
X136926042Y-88241145D01*
X136926042Y-87778124D01*
X137389063Y-87778124D01*
X137389063Y-88241145D01*
G37*
G36*
X137389063Y-88704166D02*
G01*
X136926042Y-88704166D01*
X136926042Y-88241145D01*
X137389063Y-88241145D01*
X137389063Y-88704166D01*
G37*
G36*
X137389063Y-89630207D02*
G01*
X136926042Y-89630207D01*
X136926042Y-89167186D01*
X137389063Y-89167186D01*
X137389063Y-89630207D01*
G37*
G36*
X137389063Y-91019270D02*
G01*
X136926042Y-91019270D01*
X136926042Y-90556249D01*
X137389063Y-90556249D01*
X137389063Y-91019270D01*
G37*
G36*
X137389063Y-91482290D02*
G01*
X136926042Y-91482290D01*
X136926042Y-91019270D01*
X137389063Y-91019270D01*
X137389063Y-91482290D01*
G37*
G36*
X137852083Y-80832812D02*
G01*
X137389063Y-80832812D01*
X137389063Y-80369791D01*
X137852083Y-80369791D01*
X137852083Y-80832812D01*
G37*
G36*
X137852083Y-83147916D02*
G01*
X137389063Y-83147916D01*
X137389063Y-82684895D01*
X137852083Y-82684895D01*
X137852083Y-83147916D01*
G37*
G36*
X137852083Y-83610937D02*
G01*
X137389063Y-83610937D01*
X137389063Y-83147916D01*
X137852083Y-83147916D01*
X137852083Y-83610937D01*
G37*
G36*
X137852083Y-84073958D02*
G01*
X137389063Y-84073958D01*
X137389063Y-83610937D01*
X137852083Y-83610937D01*
X137852083Y-84073958D01*
G37*
G36*
X137852083Y-84536978D02*
G01*
X137389063Y-84536978D01*
X137389063Y-84073958D01*
X137852083Y-84073958D01*
X137852083Y-84536978D01*
G37*
G36*
X137852083Y-85000000D02*
G01*
X137389063Y-85000000D01*
X137389063Y-84536978D01*
X137852083Y-84536978D01*
X137852083Y-85000000D01*
G37*
G36*
X137852083Y-85463020D02*
G01*
X137389063Y-85463020D01*
X137389063Y-85000000D01*
X137852083Y-85000000D01*
X137852083Y-85463020D01*
G37*
G36*
X137852083Y-85926041D02*
G01*
X137389063Y-85926041D01*
X137389063Y-85463020D01*
X137852083Y-85463020D01*
X137852083Y-85926041D01*
G37*
G36*
X137852083Y-87315103D02*
G01*
X137389063Y-87315103D01*
X137389063Y-86852082D01*
X137852083Y-86852082D01*
X137852083Y-87315103D01*
G37*
G36*
X137852083Y-87778124D02*
G01*
X137389063Y-87778124D01*
X137389063Y-87315103D01*
X137852083Y-87315103D01*
X137852083Y-87778124D01*
G37*
G36*
X137852083Y-88704166D02*
G01*
X137389063Y-88704166D01*
X137389063Y-88241145D01*
X137852083Y-88241145D01*
X137852083Y-88704166D01*
G37*
G36*
X137852083Y-89167186D02*
G01*
X137389063Y-89167186D01*
X137389063Y-88704166D01*
X137852083Y-88704166D01*
X137852083Y-89167186D01*
G37*
G36*
X137852083Y-89630207D02*
G01*
X137389063Y-89630207D01*
X137389063Y-89167186D01*
X137852083Y-89167186D01*
X137852083Y-89630207D01*
G37*
G36*
X137852083Y-90093228D02*
G01*
X137389063Y-90093228D01*
X137389063Y-89630207D01*
X137852083Y-89630207D01*
X137852083Y-90093228D01*
G37*
G36*
X137852083Y-90556249D02*
G01*
X137389063Y-90556249D01*
X137389063Y-90093228D01*
X137852083Y-90093228D01*
X137852083Y-90556249D01*
G37*
G36*
X137852083Y-91482290D02*
G01*
X137389063Y-91482290D01*
X137389063Y-91019270D01*
X137852083Y-91019270D01*
X137852083Y-91482290D01*
G37*
G36*
X137852083Y-91945312D02*
G01*
X137389063Y-91945312D01*
X137389063Y-91482290D01*
X137852083Y-91482290D01*
X137852083Y-91945312D01*
G37*
G36*
X138315104Y-79443749D02*
G01*
X137852083Y-79443749D01*
X137852083Y-78980729D01*
X138315104Y-78980729D01*
X138315104Y-79443749D01*
G37*
G36*
X138315104Y-79906770D02*
G01*
X137852083Y-79906770D01*
X137852083Y-79443749D01*
X138315104Y-79443749D01*
X138315104Y-79906770D01*
G37*
G36*
X138315104Y-82221874D02*
G01*
X137852083Y-82221874D01*
X137852083Y-81758853D01*
X138315104Y-81758853D01*
X138315104Y-82221874D01*
G37*
G36*
X138315104Y-82684895D02*
G01*
X137852083Y-82684895D01*
X137852083Y-82221874D01*
X138315104Y-82221874D01*
X138315104Y-82684895D01*
G37*
G36*
X138315104Y-83147916D02*
G01*
X137852083Y-83147916D01*
X137852083Y-82684895D01*
X138315104Y-82684895D01*
X138315104Y-83147916D01*
G37*
G36*
X138315104Y-84073958D02*
G01*
X137852083Y-84073958D01*
X137852083Y-83610937D01*
X138315104Y-83610937D01*
X138315104Y-84073958D01*
G37*
G36*
X138315104Y-86852082D02*
G01*
X137852083Y-86852082D01*
X137852083Y-86389061D01*
X138315104Y-86389061D01*
X138315104Y-86852082D01*
G37*
G36*
X138315104Y-88241145D02*
G01*
X137852083Y-88241145D01*
X137852083Y-87778124D01*
X138315104Y-87778124D01*
X138315104Y-88241145D01*
G37*
G36*
X138315104Y-88704166D02*
G01*
X137852083Y-88704166D01*
X137852083Y-88241145D01*
X138315104Y-88241145D01*
X138315104Y-88704166D01*
G37*
G36*
X138315104Y-90556249D02*
G01*
X137852083Y-90556249D01*
X137852083Y-90093228D01*
X138315104Y-90093228D01*
X138315104Y-90556249D01*
G37*
G36*
X138315104Y-91945312D02*
G01*
X137852083Y-91945312D01*
X137852083Y-91482290D01*
X138315104Y-91482290D01*
X138315104Y-91945312D01*
G37*
G36*
X138315104Y-92408332D02*
G01*
X137852083Y-92408332D01*
X137852083Y-91945312D01*
X138315104Y-91945312D01*
X138315104Y-92408332D01*
G37*
G36*
X138778124Y-80832812D02*
G01*
X138315104Y-80832812D01*
X138315104Y-80369791D01*
X138778124Y-80369791D01*
X138778124Y-80832812D01*
G37*
G36*
X138778124Y-83147916D02*
G01*
X138315104Y-83147916D01*
X138315104Y-82684895D01*
X138778124Y-82684895D01*
X138778124Y-83147916D01*
G37*
G36*
X138778124Y-84073958D02*
G01*
X138315104Y-84073958D01*
X138315104Y-83610937D01*
X138778124Y-83610937D01*
X138778124Y-84073958D01*
G37*
G36*
X138778124Y-85463020D02*
G01*
X138315104Y-85463020D01*
X138315104Y-85000000D01*
X138778124Y-85000000D01*
X138778124Y-85463020D01*
G37*
G36*
X138778124Y-86852082D02*
G01*
X138315104Y-86852082D01*
X138315104Y-86389061D01*
X138778124Y-86389061D01*
X138778124Y-86852082D01*
G37*
G36*
X138778124Y-87778124D02*
G01*
X138315104Y-87778124D01*
X138315104Y-87315103D01*
X138778124Y-87315103D01*
X138778124Y-87778124D01*
G37*
G36*
X138778124Y-88704166D02*
G01*
X138315104Y-88704166D01*
X138315104Y-88241145D01*
X138778124Y-88241145D01*
X138778124Y-88704166D01*
G37*
G36*
X138778124Y-89630207D02*
G01*
X138315104Y-89630207D01*
X138315104Y-89167186D01*
X138778124Y-89167186D01*
X138778124Y-89630207D01*
G37*
G36*
X138778124Y-90556249D02*
G01*
X138315104Y-90556249D01*
X138315104Y-90093228D01*
X138778124Y-90093228D01*
X138778124Y-90556249D01*
G37*
G36*
X138778124Y-92408332D02*
G01*
X138315104Y-92408332D01*
X138315104Y-91945312D01*
X138778124Y-91945312D01*
X138778124Y-92408332D01*
G37*
G36*
X139241146Y-79906770D02*
G01*
X138778124Y-79906770D01*
X138778124Y-79443749D01*
X139241146Y-79443749D01*
X139241146Y-79906770D01*
G37*
G36*
X139241146Y-80369791D02*
G01*
X138778124Y-80369791D01*
X138778124Y-79906770D01*
X139241146Y-79906770D01*
X139241146Y-80369791D01*
G37*
G36*
X139241146Y-80832812D02*
G01*
X138778124Y-80832812D01*
X138778124Y-80369791D01*
X139241146Y-80369791D01*
X139241146Y-80832812D01*
G37*
G36*
X139241146Y-81295833D02*
G01*
X138778124Y-81295833D01*
X138778124Y-80832812D01*
X139241146Y-80832812D01*
X139241146Y-81295833D01*
G37*
G36*
X139241146Y-81758853D02*
G01*
X138778124Y-81758853D01*
X138778124Y-81295833D01*
X139241146Y-81295833D01*
X139241146Y-81758853D01*
G37*
G36*
X139241146Y-82221874D02*
G01*
X138778124Y-82221874D01*
X138778124Y-81758853D01*
X139241146Y-81758853D01*
X139241146Y-82221874D01*
G37*
G36*
X139241146Y-83147916D02*
G01*
X138778124Y-83147916D01*
X138778124Y-82684895D01*
X139241146Y-82684895D01*
X139241146Y-83147916D01*
G37*
G36*
X139241146Y-84073958D02*
G01*
X138778124Y-84073958D01*
X138778124Y-83610937D01*
X139241146Y-83610937D01*
X139241146Y-84073958D01*
G37*
G36*
X139241146Y-84536978D02*
G01*
X138778124Y-84536978D01*
X138778124Y-84073958D01*
X139241146Y-84073958D01*
X139241146Y-84536978D01*
G37*
G36*
X139241146Y-85463020D02*
G01*
X138778124Y-85463020D01*
X138778124Y-85000000D01*
X139241146Y-85000000D01*
X139241146Y-85463020D01*
G37*
G36*
X139241146Y-86389061D02*
G01*
X138778124Y-86389061D01*
X138778124Y-85926041D01*
X139241146Y-85926041D01*
X139241146Y-86389061D01*
G37*
G36*
X139241146Y-86852082D02*
G01*
X138778124Y-86852082D01*
X138778124Y-86389061D01*
X139241146Y-86389061D01*
X139241146Y-86852082D01*
G37*
G36*
X139241146Y-87778124D02*
G01*
X138778124Y-87778124D01*
X138778124Y-87315103D01*
X139241146Y-87315103D01*
X139241146Y-87778124D01*
G37*
G36*
X139241146Y-88704166D02*
G01*
X138778124Y-88704166D01*
X138778124Y-88241145D01*
X139241146Y-88241145D01*
X139241146Y-88704166D01*
G37*
G36*
X139241146Y-89167186D02*
G01*
X138778124Y-89167186D01*
X138778124Y-88704166D01*
X139241146Y-88704166D01*
X139241146Y-89167186D01*
G37*
G36*
X139241146Y-89630207D02*
G01*
X138778124Y-89630207D01*
X138778124Y-89167186D01*
X139241146Y-89167186D01*
X139241146Y-89630207D01*
G37*
G36*
X139241146Y-91019270D02*
G01*
X138778124Y-91019270D01*
X138778124Y-90556249D01*
X139241146Y-90556249D01*
X139241146Y-91019270D01*
G37*
G36*
X139704166Y-79443749D02*
G01*
X139241146Y-79443749D01*
X139241146Y-78980729D01*
X139704166Y-78980729D01*
X139704166Y-79443749D01*
G37*
G36*
X139704166Y-79906770D02*
G01*
X139241146Y-79906770D01*
X139241146Y-79443749D01*
X139704166Y-79443749D01*
X139704166Y-79906770D01*
G37*
G36*
X139704166Y-83147916D02*
G01*
X139241146Y-83147916D01*
X139241146Y-82684895D01*
X139704166Y-82684895D01*
X139704166Y-83147916D01*
G37*
G36*
X139704166Y-85463020D02*
G01*
X139241146Y-85463020D01*
X139241146Y-85000000D01*
X139704166Y-85000000D01*
X139704166Y-85463020D01*
G37*
G36*
X139704166Y-86389061D02*
G01*
X139241146Y-86389061D01*
X139241146Y-85926041D01*
X139704166Y-85926041D01*
X139704166Y-86389061D01*
G37*
G36*
X139704166Y-86852082D02*
G01*
X139241146Y-86852082D01*
X139241146Y-86389061D01*
X139704166Y-86389061D01*
X139704166Y-86852082D01*
G37*
G36*
X139704166Y-88241145D02*
G01*
X139241146Y-88241145D01*
X139241146Y-87778124D01*
X139704166Y-87778124D01*
X139704166Y-88241145D01*
G37*
G36*
X139704166Y-88704166D02*
G01*
X139241146Y-88704166D01*
X139241146Y-88241145D01*
X139704166Y-88241145D01*
X139704166Y-88704166D01*
G37*
G36*
X139704166Y-90556249D02*
G01*
X139241146Y-90556249D01*
X139241146Y-90093228D01*
X139704166Y-90093228D01*
X139704166Y-90556249D01*
G37*
G36*
X140167187Y-79443749D02*
G01*
X139704166Y-79443749D01*
X139704166Y-78980729D01*
X140167187Y-78980729D01*
X140167187Y-79443749D01*
G37*
G36*
X140167187Y-79906770D02*
G01*
X139704166Y-79906770D01*
X139704166Y-79443749D01*
X140167187Y-79443749D01*
X140167187Y-79906770D01*
G37*
G36*
X140167187Y-80369791D02*
G01*
X139704166Y-80369791D01*
X139704166Y-79906770D01*
X140167187Y-79906770D01*
X140167187Y-80369791D01*
G37*
G36*
X140167187Y-81295833D02*
G01*
X139704166Y-81295833D01*
X139704166Y-80832812D01*
X140167187Y-80832812D01*
X140167187Y-81295833D01*
G37*
G36*
X140167187Y-82221874D02*
G01*
X139704166Y-82221874D01*
X139704166Y-81758853D01*
X140167187Y-81758853D01*
X140167187Y-82221874D01*
G37*
G36*
X140167187Y-83610937D02*
G01*
X139704166Y-83610937D01*
X139704166Y-83147916D01*
X140167187Y-83147916D01*
X140167187Y-83610937D01*
G37*
G36*
X140167187Y-85463020D02*
G01*
X139704166Y-85463020D01*
X139704166Y-85000000D01*
X140167187Y-85000000D01*
X140167187Y-85463020D01*
G37*
G36*
X140167187Y-85926041D02*
G01*
X139704166Y-85926041D01*
X139704166Y-85463020D01*
X140167187Y-85463020D01*
X140167187Y-85926041D01*
G37*
G36*
X140167187Y-87778124D02*
G01*
X139704166Y-87778124D01*
X139704166Y-87315103D01*
X140167187Y-87315103D01*
X140167187Y-87778124D01*
G37*
G36*
X140167187Y-88241145D02*
G01*
X139704166Y-88241145D01*
X139704166Y-87778124D01*
X140167187Y-87778124D01*
X140167187Y-88241145D01*
G37*
G36*
X140167187Y-91019270D02*
G01*
X139704166Y-91019270D01*
X139704166Y-90556249D01*
X140167187Y-90556249D01*
X140167187Y-91019270D01*
G37*
G36*
X140167187Y-92408332D02*
G01*
X139704166Y-92408332D01*
X139704166Y-91945312D01*
X140167187Y-91945312D01*
X140167187Y-92408332D01*
G37*
G36*
X140630208Y-79443749D02*
G01*
X140167187Y-79443749D01*
X140167187Y-78980729D01*
X140630208Y-78980729D01*
X140630208Y-79443749D01*
G37*
G36*
X140630208Y-80369791D02*
G01*
X140167187Y-80369791D01*
X140167187Y-79906770D01*
X140630208Y-79906770D01*
X140630208Y-80369791D01*
G37*
G36*
X140630208Y-80832812D02*
G01*
X140167187Y-80832812D01*
X140167187Y-80369791D01*
X140630208Y-80369791D01*
X140630208Y-80832812D01*
G37*
G36*
X140630208Y-81295833D02*
G01*
X140167187Y-81295833D01*
X140167187Y-80832812D01*
X140630208Y-80832812D01*
X140630208Y-81295833D01*
G37*
G36*
X140630208Y-82684895D02*
G01*
X140167187Y-82684895D01*
X140167187Y-82221874D01*
X140630208Y-82221874D01*
X140630208Y-82684895D01*
G37*
G36*
X140630208Y-83147916D02*
G01*
X140167187Y-83147916D01*
X140167187Y-82684895D01*
X140630208Y-82684895D01*
X140630208Y-83147916D01*
G37*
G36*
X140630208Y-84073958D02*
G01*
X140167187Y-84073958D01*
X140167187Y-83610937D01*
X140630208Y-83610937D01*
X140630208Y-84073958D01*
G37*
G36*
X140630208Y-84536978D02*
G01*
X140167187Y-84536978D01*
X140167187Y-84073958D01*
X140630208Y-84073958D01*
X140630208Y-84536978D01*
G37*
G36*
X140630208Y-85000000D02*
G01*
X140167187Y-85000000D01*
X140167187Y-84536978D01*
X140630208Y-84536978D01*
X140630208Y-85000000D01*
G37*
G36*
X140630208Y-85463020D02*
G01*
X140167187Y-85463020D01*
X140167187Y-85000000D01*
X140630208Y-85000000D01*
X140630208Y-85463020D01*
G37*
G36*
X140630208Y-87315103D02*
G01*
X140167187Y-87315103D01*
X140167187Y-86852082D01*
X140630208Y-86852082D01*
X140630208Y-87315103D01*
G37*
G36*
X140630208Y-88704166D02*
G01*
X140167187Y-88704166D01*
X140167187Y-88241145D01*
X140630208Y-88241145D01*
X140630208Y-88704166D01*
G37*
G36*
X140630208Y-89167186D02*
G01*
X140167187Y-89167186D01*
X140167187Y-88704166D01*
X140630208Y-88704166D01*
X140630208Y-89167186D01*
G37*
G36*
X140630208Y-90093228D02*
G01*
X140167187Y-90093228D01*
X140167187Y-89630207D01*
X140630208Y-89630207D01*
X140630208Y-90093228D01*
G37*
G36*
X140630208Y-91019270D02*
G01*
X140167187Y-91019270D01*
X140167187Y-90556249D01*
X140630208Y-90556249D01*
X140630208Y-91019270D01*
G37*
G36*
X140630208Y-91482290D02*
G01*
X140167187Y-91482290D01*
X140167187Y-91019270D01*
X140630208Y-91019270D01*
X140630208Y-91482290D01*
G37*
G36*
X140630208Y-92408332D02*
G01*
X140167187Y-92408332D01*
X140167187Y-91945312D01*
X140630208Y-91945312D01*
X140630208Y-92408332D01*
G37*
G36*
X141093229Y-79906770D02*
G01*
X140630208Y-79906770D01*
X140630208Y-79443749D01*
X141093229Y-79443749D01*
X141093229Y-79906770D01*
G37*
G36*
X141093229Y-80369791D02*
G01*
X140630208Y-80369791D01*
X140630208Y-79906770D01*
X141093229Y-79906770D01*
X141093229Y-80369791D01*
G37*
G36*
X141093229Y-80832812D02*
G01*
X140630208Y-80832812D01*
X140630208Y-80369791D01*
X141093229Y-80369791D01*
X141093229Y-80832812D01*
G37*
G36*
X141093229Y-82221874D02*
G01*
X140630208Y-82221874D01*
X140630208Y-81758853D01*
X141093229Y-81758853D01*
X141093229Y-82221874D01*
G37*
G36*
X141093229Y-82684895D02*
G01*
X140630208Y-82684895D01*
X140630208Y-82221874D01*
X141093229Y-82221874D01*
X141093229Y-82684895D01*
G37*
G36*
X141093229Y-83147916D02*
G01*
X140630208Y-83147916D01*
X140630208Y-82684895D01*
X141093229Y-82684895D01*
X141093229Y-83147916D01*
G37*
G36*
X141093229Y-83610937D02*
G01*
X140630208Y-83610937D01*
X140630208Y-83147916D01*
X141093229Y-83147916D01*
X141093229Y-83610937D01*
G37*
G36*
X141093229Y-84073958D02*
G01*
X140630208Y-84073958D01*
X140630208Y-83610937D01*
X141093229Y-83610937D01*
X141093229Y-84073958D01*
G37*
G36*
X141093229Y-85926041D02*
G01*
X140630208Y-85926041D01*
X140630208Y-85463020D01*
X141093229Y-85463020D01*
X141093229Y-85926041D01*
G37*
G36*
X141093229Y-86389061D02*
G01*
X140630208Y-86389061D01*
X140630208Y-85926041D01*
X141093229Y-85926041D01*
X141093229Y-86389061D01*
G37*
G36*
X141093229Y-87315103D02*
G01*
X140630208Y-87315103D01*
X140630208Y-86852082D01*
X141093229Y-86852082D01*
X141093229Y-87315103D01*
G37*
G36*
X141093229Y-87778124D02*
G01*
X140630208Y-87778124D01*
X140630208Y-87315103D01*
X141093229Y-87315103D01*
X141093229Y-87778124D01*
G37*
G36*
X141093229Y-88704166D02*
G01*
X140630208Y-88704166D01*
X140630208Y-88241145D01*
X141093229Y-88241145D01*
X141093229Y-88704166D01*
G37*
G36*
X141093229Y-89167186D02*
G01*
X140630208Y-89167186D01*
X140630208Y-88704166D01*
X141093229Y-88704166D01*
X141093229Y-89167186D01*
G37*
G36*
X141093229Y-92408332D02*
G01*
X140630208Y-92408332D01*
X140630208Y-91945312D01*
X141093229Y-91945312D01*
X141093229Y-92408332D01*
G37*
G36*
X141556250Y-83610937D02*
G01*
X141093229Y-83610937D01*
X141093229Y-83147916D01*
X141556250Y-83147916D01*
X141556250Y-83610937D01*
G37*
G36*
X141556250Y-84536978D02*
G01*
X141093229Y-84536978D01*
X141093229Y-84073958D01*
X141556250Y-84073958D01*
X141556250Y-84536978D01*
G37*
G36*
X141556250Y-85000000D02*
G01*
X141093229Y-85000000D01*
X141093229Y-84536978D01*
X141556250Y-84536978D01*
X141556250Y-85000000D01*
G37*
G36*
X141556250Y-85926041D02*
G01*
X141093229Y-85926041D01*
X141093229Y-85463020D01*
X141556250Y-85463020D01*
X141556250Y-85926041D01*
G37*
G36*
X141556250Y-87315103D02*
G01*
X141093229Y-87315103D01*
X141093229Y-86852082D01*
X141556250Y-86852082D01*
X141556250Y-87315103D01*
G37*
G36*
X142019271Y-83147916D02*
G01*
X141556250Y-83147916D01*
X141556250Y-82684895D01*
X142019271Y-82684895D01*
X142019271Y-83147916D01*
G37*
G36*
X142019271Y-84073958D02*
G01*
X141556250Y-84073958D01*
X141556250Y-83610937D01*
X142019271Y-83610937D01*
X142019271Y-84073958D01*
G37*
G36*
X142019271Y-85000000D02*
G01*
X141556250Y-85000000D01*
X141556250Y-84536978D01*
X142019271Y-84536978D01*
X142019271Y-85000000D01*
G37*
G36*
X142019271Y-85926041D02*
G01*
X141556250Y-85926041D01*
X141556250Y-85463020D01*
X142019271Y-85463020D01*
X142019271Y-85926041D01*
G37*
G36*
X142019271Y-86852082D02*
G01*
X141556250Y-86852082D01*
X141556250Y-86389061D01*
X142019271Y-86389061D01*
X142019271Y-86852082D01*
G37*
G36*
X142019271Y-87778124D02*
G01*
X141556250Y-87778124D01*
X141556250Y-87315103D01*
X142019271Y-87315103D01*
X142019271Y-87778124D01*
G37*
G36*
X142019271Y-88704166D02*
G01*
X141556250Y-88704166D01*
X141556250Y-88241145D01*
X142019271Y-88241145D01*
X142019271Y-88704166D01*
G37*
G36*
X142482291Y-84536978D02*
G01*
X142019271Y-84536978D01*
X142019271Y-84073958D01*
X142482291Y-84073958D01*
X142482291Y-84536978D01*
G37*
G36*
X142482291Y-85000000D02*
G01*
X142019271Y-85000000D01*
X142019271Y-84536978D01*
X142482291Y-84536978D01*
X142482291Y-85000000D01*
G37*
G36*
X142482291Y-85926041D02*
G01*
X142019271Y-85926041D01*
X142019271Y-85463020D01*
X142482291Y-85463020D01*
X142482291Y-85926041D01*
G37*
G36*
X142482291Y-87315103D02*
G01*
X142019271Y-87315103D01*
X142019271Y-86852082D01*
X142482291Y-86852082D01*
X142482291Y-87315103D01*
G37*
G36*
X143871354Y-81295833D02*
G01*
X142482291Y-81295833D01*
X142482291Y-79906770D01*
X143871354Y-79906770D01*
X143871354Y-81295833D01*
G37*
G36*
X142945312Y-83610937D02*
G01*
X142482291Y-83610937D01*
X142482291Y-83147916D01*
X142945312Y-83147916D01*
X142945312Y-83610937D01*
G37*
G36*
X142945312Y-84536978D02*
G01*
X142482291Y-84536978D01*
X142482291Y-84073958D01*
X142945312Y-84073958D01*
X142945312Y-84536978D01*
G37*
G36*
X142945312Y-85926041D02*
G01*
X142482291Y-85926041D01*
X142482291Y-85463020D01*
X142945312Y-85463020D01*
X142945312Y-85926041D01*
G37*
G36*
X142945312Y-86389061D02*
G01*
X142482291Y-86389061D01*
X142482291Y-85926041D01*
X142945312Y-85926041D01*
X142945312Y-86389061D01*
G37*
G36*
X142945312Y-86852082D02*
G01*
X142482291Y-86852082D01*
X142482291Y-86389061D01*
X142945312Y-86389061D01*
X142945312Y-86852082D01*
G37*
G36*
X142945312Y-87315103D02*
G01*
X142482291Y-87315103D01*
X142482291Y-86852082D01*
X142945312Y-86852082D01*
X142945312Y-87315103D01*
G37*
G36*
X142945312Y-88241145D02*
G01*
X142482291Y-88241145D01*
X142482291Y-87778124D01*
X142945312Y-87778124D01*
X142945312Y-88241145D01*
G37*
G36*
X142945312Y-88704166D02*
G01*
X142482291Y-88704166D01*
X142482291Y-88241145D01*
X142945312Y-88241145D01*
X142945312Y-88704166D01*
G37*
G36*
X143871354Y-91482290D02*
G01*
X142482291Y-91482290D01*
X142482291Y-90093228D01*
X143871354Y-90093228D01*
X143871354Y-91482290D01*
G37*
G36*
X143408333Y-83610937D02*
G01*
X142945312Y-83610937D01*
X142945312Y-83147916D01*
X143408333Y-83147916D01*
X143408333Y-83610937D01*
G37*
G36*
X143408333Y-84536978D02*
G01*
X142945312Y-84536978D01*
X142945312Y-84073958D01*
X143408333Y-84073958D01*
X143408333Y-84536978D01*
G37*
G36*
X143408333Y-86852082D02*
G01*
X142945312Y-86852082D01*
X142945312Y-86389061D01*
X143408333Y-86389061D01*
X143408333Y-86852082D01*
G37*
G36*
X143408333Y-87315103D02*
G01*
X142945312Y-87315103D01*
X142945312Y-86852082D01*
X143408333Y-86852082D01*
X143408333Y-87315103D01*
G37*
G36*
X143408333Y-87778124D02*
G01*
X142945312Y-87778124D01*
X142945312Y-87315103D01*
X143408333Y-87315103D01*
X143408333Y-87778124D01*
G37*
G36*
X143408333Y-88241145D02*
G01*
X142945312Y-88241145D01*
X142945312Y-87778124D01*
X143408333Y-87778124D01*
X143408333Y-88241145D01*
G37*
G36*
X143871354Y-84073958D02*
G01*
X143408333Y-84073958D01*
X143408333Y-83610937D01*
X143871354Y-83610937D01*
X143871354Y-84073958D01*
G37*
G36*
X143871354Y-84536978D02*
G01*
X143408333Y-84536978D01*
X143408333Y-84073958D01*
X143871354Y-84073958D01*
X143871354Y-84536978D01*
G37*
G36*
X143871354Y-87778124D02*
G01*
X143408333Y-87778124D01*
X143408333Y-87315103D01*
X143871354Y-87315103D01*
X143871354Y-87778124D01*
G37*
G36*
X143871354Y-88241145D02*
G01*
X143408333Y-88241145D01*
X143408333Y-87778124D01*
X143871354Y-87778124D01*
X143871354Y-88241145D01*
G37*
G36*
X143871354Y-88704166D02*
G01*
X143408333Y-88704166D01*
X143408333Y-88241145D01*
X143871354Y-88241145D01*
X143871354Y-88704166D01*
G37*
G36*
X144334375Y-87778124D02*
G01*
X143871354Y-87778124D01*
X143871354Y-87315103D01*
X144334375Y-87315103D01*
X144334375Y-87778124D01*
G37*
G36*
X144797395Y-83147916D02*
G01*
X144334375Y-83147916D01*
X144334375Y-82684895D01*
X144797395Y-82684895D01*
X144797395Y-83147916D01*
G37*
G36*
X144797395Y-83610937D02*
G01*
X144334375Y-83610937D01*
X144334375Y-83147916D01*
X144797395Y-83147916D01*
X144797395Y-83610937D01*
G37*
G36*
X144797395Y-84073958D02*
G01*
X144334375Y-84073958D01*
X144334375Y-83610937D01*
X144797395Y-83610937D01*
X144797395Y-84073958D01*
G37*
G36*
X144797395Y-84536978D02*
G01*
X144334375Y-84536978D01*
X144334375Y-84073958D01*
X144797395Y-84073958D01*
X144797395Y-84536978D01*
G37*
G36*
X144797395Y-85000000D02*
G01*
X144334375Y-85000000D01*
X144334375Y-84536978D01*
X144797395Y-84536978D01*
X144797395Y-85000000D01*
G37*
G36*
X144797395Y-86389061D02*
G01*
X144334375Y-86389061D01*
X144334375Y-85926041D01*
X144797395Y-85926041D01*
X144797395Y-86389061D01*
G37*
G36*
X144797395Y-87315103D02*
G01*
X144334375Y-87315103D01*
X144334375Y-86852082D01*
X144797395Y-86852082D01*
X144797395Y-87315103D01*
G37*
G36*
X144797395Y-87778124D02*
G01*
X144334375Y-87778124D01*
X144334375Y-87315103D01*
X144797395Y-87315103D01*
X144797395Y-87778124D01*
G37*
G36*
X144797395Y-88241145D02*
G01*
X144334375Y-88241145D01*
X144334375Y-87778124D01*
X144797395Y-87778124D01*
X144797395Y-88241145D01*
G37*
G36*
X144797395Y-88704166D02*
G01*
X144334375Y-88704166D01*
X144334375Y-88241145D01*
X144797395Y-88241145D01*
X144797395Y-88704166D01*
G37*
G36*
X134610938Y-82221874D02*
G01*
X134124766Y-82221874D01*
X131855964Y-82221874D01*
X131369792Y-82221874D01*
X131369792Y-81735702D01*
X131369792Y-79466900D01*
X131855964Y-79466900D01*
X131855964Y-81735702D01*
X134124766Y-81735702D01*
X134124766Y-79466900D01*
X131855964Y-79466900D01*
X131369792Y-79466900D01*
X131369792Y-78980729D01*
X131855964Y-78980729D01*
X134124766Y-78980729D01*
X134610938Y-78980729D01*
X134610938Y-79466900D01*
X134610938Y-81735702D01*
X134610938Y-82221874D01*
G37*
G36*
X144797395Y-82221874D02*
G01*
X144311224Y-82221874D01*
X142042422Y-82221874D01*
X141556250Y-82221874D01*
X141556250Y-81735702D01*
X141556250Y-79466900D01*
X142042422Y-79466900D01*
X142042422Y-81735702D01*
X144311224Y-81735702D01*
X144311224Y-79466900D01*
X142042422Y-79466900D01*
X141556250Y-79466900D01*
X141556250Y-78980729D01*
X142042422Y-78980729D01*
X144311224Y-78980729D01*
X144797395Y-78980729D01*
X144797395Y-79466900D01*
X144797395Y-81735702D01*
X144797395Y-82221874D01*
G37*
G36*
X144797395Y-92408332D02*
G01*
X144311224Y-92408332D01*
X142042422Y-92408332D01*
X141556250Y-92408332D01*
X141556250Y-91922160D01*
X141556250Y-89653358D01*
X142042422Y-89653358D01*
X142042422Y-91922160D01*
X144311224Y-91922160D01*
X144311224Y-89653358D01*
X142042422Y-89653358D01*
X141556250Y-89653358D01*
X141556250Y-89167186D01*
X142042422Y-89167186D01*
X144311224Y-89167186D01*
X144797395Y-89167186D01*
X144797395Y-89653358D01*
X144797395Y-91922160D01*
X144797395Y-92408332D01*
G37*
D11*
X127738094Y-84454819D02*
X127166666Y-84454819D01*
X127452380Y-85454819D02*
X127452380Y-84454819D01*
X126833332Y-85454819D02*
X126833332Y-84454819D01*
X126833332Y-84454819D02*
X126452380Y-84454819D01*
X126452380Y-84454819D02*
X126357142Y-84502438D01*
X126357142Y-84502438D02*
X126309523Y-84550057D01*
X126309523Y-84550057D02*
X126261904Y-84645295D01*
X126261904Y-84645295D02*
X126261904Y-84788152D01*
X126261904Y-84788152D02*
X126309523Y-84883390D01*
X126309523Y-84883390D02*
X126357142Y-84931009D01*
X126357142Y-84931009D02*
X126452380Y-84978628D01*
X126452380Y-84978628D02*
X126833332Y-84978628D01*
X125880951Y-84550057D02*
X125833332Y-84502438D01*
X125833332Y-84502438D02*
X125738094Y-84454819D01*
X125738094Y-84454819D02*
X125499999Y-84454819D01*
X125499999Y-84454819D02*
X125404761Y-84502438D01*
X125404761Y-84502438D02*
X125357142Y-84550057D01*
X125357142Y-84550057D02*
X125309523Y-84645295D01*
X125309523Y-84645295D02*
X125309523Y-84740533D01*
X125309523Y-84740533D02*
X125357142Y-84883390D01*
X125357142Y-84883390D02*
X125928570Y-85454819D01*
X125928570Y-85454819D02*
X125309523Y-85454819D01*
X124452380Y-84788152D02*
X124452380Y-85454819D01*
X124690475Y-84407200D02*
X124928570Y-85121485D01*
X124928570Y-85121485D02*
X124309523Y-85121485D01*
X140738094Y-95454819D02*
X140166666Y-95454819D01*
X140452380Y-96454819D02*
X140452380Y-95454819D01*
X139833332Y-96454819D02*
X139833332Y-95454819D01*
X139833332Y-95454819D02*
X139452380Y-95454819D01*
X139452380Y-95454819D02*
X139357142Y-95502438D01*
X139357142Y-95502438D02*
X139309523Y-95550057D01*
X139309523Y-95550057D02*
X139261904Y-95645295D01*
X139261904Y-95645295D02*
X139261904Y-95788152D01*
X139261904Y-95788152D02*
X139309523Y-95883390D01*
X139309523Y-95883390D02*
X139357142Y-95931009D01*
X139357142Y-95931009D02*
X139452380Y-95978628D01*
X139452380Y-95978628D02*
X139833332Y-95978628D01*
X138880951Y-95550057D02*
X138833332Y-95502438D01*
X138833332Y-95502438D02*
X138738094Y-95454819D01*
X138738094Y-95454819D02*
X138499999Y-95454819D01*
X138499999Y-95454819D02*
X138404761Y-95502438D01*
X138404761Y-95502438D02*
X138357142Y-95550057D01*
X138357142Y-95550057D02*
X138309523Y-95645295D01*
X138309523Y-95645295D02*
X138309523Y-95740533D01*
X138309523Y-95740533D02*
X138357142Y-95883390D01*
X138357142Y-95883390D02*
X138928570Y-96454819D01*
X138928570Y-96454819D02*
X138309523Y-96454819D01*
X137928570Y-95550057D02*
X137880951Y-95502438D01*
X137880951Y-95502438D02*
X137785713Y-95454819D01*
X137785713Y-95454819D02*
X137547618Y-95454819D01*
X137547618Y-95454819D02*
X137452380Y-95502438D01*
X137452380Y-95502438D02*
X137404761Y-95550057D01*
X137404761Y-95550057D02*
X137357142Y-95645295D01*
X137357142Y-95645295D02*
X137357142Y-95740533D01*
X137357142Y-95740533D02*
X137404761Y-95883390D01*
X137404761Y-95883390D02*
X137976189Y-96454819D01*
X137976189Y-96454819D02*
X137357142Y-96454819D01*
X117938094Y-91906819D02*
X117366666Y-91906819D01*
X117652380Y-92906819D02*
X117652380Y-91906819D01*
X117033332Y-92906819D02*
X117033332Y-91906819D01*
X117033332Y-91906819D02*
X116652380Y-91906819D01*
X116652380Y-91906819D02*
X116557142Y-91954438D01*
X116557142Y-91954438D02*
X116509523Y-92002057D01*
X116509523Y-92002057D02*
X116461904Y-92097295D01*
X116461904Y-92097295D02*
X116461904Y-92240152D01*
X116461904Y-92240152D02*
X116509523Y-92335390D01*
X116509523Y-92335390D02*
X116557142Y-92383009D01*
X116557142Y-92383009D02*
X116652380Y-92430628D01*
X116652380Y-92430628D02*
X117033332Y-92430628D01*
X116080951Y-92002057D02*
X116033332Y-91954438D01*
X116033332Y-91954438D02*
X115938094Y-91906819D01*
X115938094Y-91906819D02*
X115699999Y-91906819D01*
X115699999Y-91906819D02*
X115604761Y-91954438D01*
X115604761Y-91954438D02*
X115557142Y-92002057D01*
X115557142Y-92002057D02*
X115509523Y-92097295D01*
X115509523Y-92097295D02*
X115509523Y-92192533D01*
X115509523Y-92192533D02*
X115557142Y-92335390D01*
X115557142Y-92335390D02*
X116128570Y-92906819D01*
X116128570Y-92906819D02*
X115509523Y-92906819D01*
X114604761Y-91906819D02*
X115080951Y-91906819D01*
X115080951Y-91906819D02*
X115128570Y-92383009D01*
X115128570Y-92383009D02*
X115080951Y-92335390D01*
X115080951Y-92335390D02*
X114985713Y-92287771D01*
X114985713Y-92287771D02*
X114747618Y-92287771D01*
X114747618Y-92287771D02*
X114652380Y-92335390D01*
X114652380Y-92335390D02*
X114604761Y-92383009D01*
X114604761Y-92383009D02*
X114557142Y-92478247D01*
X114557142Y-92478247D02*
X114557142Y-92716342D01*
X114557142Y-92716342D02*
X114604761Y-92811580D01*
X114604761Y-92811580D02*
X114652380Y-92859200D01*
X114652380Y-92859200D02*
X114747618Y-92906819D01*
X114747618Y-92906819D02*
X114985713Y-92906819D01*
X114985713Y-92906819D02*
X115080951Y-92859200D01*
X115080951Y-92859200D02*
X115128570Y-92811580D01*
X164542857Y-92954819D02*
X165019047Y-92954819D01*
X165019047Y-92954819D02*
X165019047Y-91954819D01*
X164257142Y-92907200D02*
X164114285Y-92954819D01*
X164114285Y-92954819D02*
X163876190Y-92954819D01*
X163876190Y-92954819D02*
X163780952Y-92907200D01*
X163780952Y-92907200D02*
X163733333Y-92859580D01*
X163733333Y-92859580D02*
X163685714Y-92764342D01*
X163685714Y-92764342D02*
X163685714Y-92669104D01*
X163685714Y-92669104D02*
X163733333Y-92573866D01*
X163733333Y-92573866D02*
X163780952Y-92526247D01*
X163780952Y-92526247D02*
X163876190Y-92478628D01*
X163876190Y-92478628D02*
X164066666Y-92431009D01*
X164066666Y-92431009D02*
X164161904Y-92383390D01*
X164161904Y-92383390D02*
X164209523Y-92335771D01*
X164209523Y-92335771D02*
X164257142Y-92240533D01*
X164257142Y-92240533D02*
X164257142Y-92145295D01*
X164257142Y-92145295D02*
X164209523Y-92050057D01*
X164209523Y-92050057D02*
X164161904Y-92002438D01*
X164161904Y-92002438D02*
X164066666Y-91954819D01*
X164066666Y-91954819D02*
X163828571Y-91954819D01*
X163828571Y-91954819D02*
X163685714Y-92002438D01*
X162733333Y-92954819D02*
X163304761Y-92954819D01*
X163019047Y-92954819D02*
X163019047Y-91954819D01*
X163019047Y-91954819D02*
X163114285Y-92097676D01*
X163114285Y-92097676D02*
X163209523Y-92192914D01*
X163209523Y-92192914D02*
X163304761Y-92240533D01*
X156638094Y-85906819D02*
X156066666Y-85906819D01*
X156352380Y-86906819D02*
X156352380Y-85906819D01*
X155733332Y-86906819D02*
X155733332Y-85906819D01*
X155733332Y-85906819D02*
X155352380Y-85906819D01*
X155352380Y-85906819D02*
X155257142Y-85954438D01*
X155257142Y-85954438D02*
X155209523Y-86002057D01*
X155209523Y-86002057D02*
X155161904Y-86097295D01*
X155161904Y-86097295D02*
X155161904Y-86240152D01*
X155161904Y-86240152D02*
X155209523Y-86335390D01*
X155209523Y-86335390D02*
X155257142Y-86383009D01*
X155257142Y-86383009D02*
X155352380Y-86430628D01*
X155352380Y-86430628D02*
X155733332Y-86430628D01*
X154780951Y-86002057D02*
X154733332Y-85954438D01*
X154733332Y-85954438D02*
X154638094Y-85906819D01*
X154638094Y-85906819D02*
X154399999Y-85906819D01*
X154399999Y-85906819D02*
X154304761Y-85954438D01*
X154304761Y-85954438D02*
X154257142Y-86002057D01*
X154257142Y-86002057D02*
X154209523Y-86097295D01*
X154209523Y-86097295D02*
X154209523Y-86192533D01*
X154209523Y-86192533D02*
X154257142Y-86335390D01*
X154257142Y-86335390D02*
X154828570Y-86906819D01*
X154828570Y-86906819D02*
X154209523Y-86906819D01*
X153876189Y-85906819D02*
X153257142Y-85906819D01*
X153257142Y-85906819D02*
X153590475Y-86287771D01*
X153590475Y-86287771D02*
X153447618Y-86287771D01*
X153447618Y-86287771D02*
X153352380Y-86335390D01*
X153352380Y-86335390D02*
X153304761Y-86383009D01*
X153304761Y-86383009D02*
X153257142Y-86478247D01*
X153257142Y-86478247D02*
X153257142Y-86716342D01*
X153257142Y-86716342D02*
X153304761Y-86811580D01*
X153304761Y-86811580D02*
X153352380Y-86859200D01*
X153352380Y-86859200D02*
X153447618Y-86906819D01*
X153447618Y-86906819D02*
X153733332Y-86906819D01*
X153733332Y-86906819D02*
X153828570Y-86859200D01*
X153828570Y-86859200D02*
X153876189Y-86811580D01*
X161495238Y-92954819D02*
X161828571Y-92478628D01*
X162066666Y-92954819D02*
X162066666Y-91954819D01*
X162066666Y-91954819D02*
X161685714Y-91954819D01*
X161685714Y-91954819D02*
X161590476Y-92002438D01*
X161590476Y-92002438D02*
X161542857Y-92050057D01*
X161542857Y-92050057D02*
X161495238Y-92145295D01*
X161495238Y-92145295D02*
X161495238Y-92288152D01*
X161495238Y-92288152D02*
X161542857Y-92383390D01*
X161542857Y-92383390D02*
X161590476Y-92431009D01*
X161590476Y-92431009D02*
X161685714Y-92478628D01*
X161685714Y-92478628D02*
X162066666Y-92478628D01*
X161209523Y-91954819D02*
X160876190Y-92954819D01*
X160876190Y-92954819D02*
X160542857Y-91954819D01*
X160257142Y-92050057D02*
X160209523Y-92002438D01*
X160209523Y-92002438D02*
X160114285Y-91954819D01*
X160114285Y-91954819D02*
X159876190Y-91954819D01*
X159876190Y-91954819D02*
X159780952Y-92002438D01*
X159780952Y-92002438D02*
X159733333Y-92050057D01*
X159733333Y-92050057D02*
X159685714Y-92145295D01*
X159685714Y-92145295D02*
X159685714Y-92240533D01*
X159685714Y-92240533D02*
X159733333Y-92383390D01*
X159733333Y-92383390D02*
X160304761Y-92954819D01*
X160304761Y-92954819D02*
X159685714Y-92954819D01*
X144854819Y-76404761D02*
X144378628Y-76071428D01*
X144854819Y-75833333D02*
X143854819Y-75833333D01*
X143854819Y-75833333D02*
X143854819Y-76214285D01*
X143854819Y-76214285D02*
X143902438Y-76309523D01*
X143902438Y-76309523D02*
X143950057Y-76357142D01*
X143950057Y-76357142D02*
X144045295Y-76404761D01*
X144045295Y-76404761D02*
X144188152Y-76404761D01*
X144188152Y-76404761D02*
X144283390Y-76357142D01*
X144283390Y-76357142D02*
X144331009Y-76309523D01*
X144331009Y-76309523D02*
X144378628Y-76214285D01*
X144378628Y-76214285D02*
X144378628Y-75833333D01*
X143854819Y-76690476D02*
X144854819Y-77023809D01*
X144854819Y-77023809D02*
X143854819Y-77357142D01*
X144854819Y-78214285D02*
X144854819Y-77642857D01*
X144854819Y-77928571D02*
X143854819Y-77928571D01*
X143854819Y-77928571D02*
X143997676Y-77833333D01*
X143997676Y-77833333D02*
X144092914Y-77738095D01*
X144092914Y-77738095D02*
X144140533Y-77642857D01*
X154733333Y-77704819D02*
X154733333Y-78419104D01*
X154733333Y-78419104D02*
X154780952Y-78561961D01*
X154780952Y-78561961D02*
X154876190Y-78657200D01*
X154876190Y-78657200D02*
X155019047Y-78704819D01*
X155019047Y-78704819D02*
X155114285Y-78704819D01*
X153828571Y-78038152D02*
X153828571Y-78704819D01*
X154066666Y-77657200D02*
X154304761Y-78371485D01*
X154304761Y-78371485D02*
X153685714Y-78371485D01*
X150738094Y-88454819D02*
X150166666Y-88454819D01*
X150452380Y-89454819D02*
X150452380Y-88454819D01*
X149833332Y-89454819D02*
X149833332Y-88454819D01*
X149833332Y-88454819D02*
X149452380Y-88454819D01*
X149452380Y-88454819D02*
X149357142Y-88502438D01*
X149357142Y-88502438D02*
X149309523Y-88550057D01*
X149309523Y-88550057D02*
X149261904Y-88645295D01*
X149261904Y-88645295D02*
X149261904Y-88788152D01*
X149261904Y-88788152D02*
X149309523Y-88883390D01*
X149309523Y-88883390D02*
X149357142Y-88931009D01*
X149357142Y-88931009D02*
X149452380Y-88978628D01*
X149452380Y-88978628D02*
X149833332Y-88978628D01*
X148880951Y-88550057D02*
X148833332Y-88502438D01*
X148833332Y-88502438D02*
X148738094Y-88454819D01*
X148738094Y-88454819D02*
X148499999Y-88454819D01*
X148499999Y-88454819D02*
X148404761Y-88502438D01*
X148404761Y-88502438D02*
X148357142Y-88550057D01*
X148357142Y-88550057D02*
X148309523Y-88645295D01*
X148309523Y-88645295D02*
X148309523Y-88740533D01*
X148309523Y-88740533D02*
X148357142Y-88883390D01*
X148357142Y-88883390D02*
X148928570Y-89454819D01*
X148928570Y-89454819D02*
X148309523Y-89454819D01*
X147357142Y-89454819D02*
X147928570Y-89454819D01*
X147642856Y-89454819D02*
X147642856Y-88454819D01*
X147642856Y-88454819D02*
X147738094Y-88597676D01*
X147738094Y-88597676D02*
X147833332Y-88692914D01*
X147833332Y-88692914D02*
X147928570Y-88740533D01*
%TO.C,TP24*%
D12*
X129950000Y-85000000D02*
G75*
G02*
X128050000Y-85000000I-950000J0D01*
G01*
X128050000Y-85000000D02*
G75*
G02*
X129950000Y-85000000I950000J0D01*
G01*
%TO.C,TP22*%
X139950000Y-94000000D02*
G75*
G02*
X138050000Y-94000000I-950000J0D01*
G01*
X138050000Y-94000000D02*
G75*
G02*
X139950000Y-94000000I950000J0D01*
G01*
%TO.C,TP25*%
X117150000Y-94100000D02*
G75*
G02*
X115250000Y-94100000I-950000J0D01*
G01*
X115250000Y-94100000D02*
G75*
G02*
X117150000Y-94100000I950000J0D01*
G01*
%TO.C,LS1*%
X162840000Y-86940000D02*
X164960000Y-86940000D01*
X162840000Y-89000000D02*
X162840000Y-86940000D01*
X162840000Y-89000000D02*
X164960000Y-89000000D01*
X163900000Y-91060000D02*
X164960000Y-91060000D01*
X164960000Y-89000000D02*
X164960000Y-86940000D01*
X164960000Y-91060000D02*
X164960000Y-90000000D01*
%TO.C,BT1*%
X114460758Y-81779184D02*
X117220758Y-81779184D01*
X114460758Y-84429184D02*
X114460758Y-81779184D01*
X114460758Y-84429184D02*
X117220758Y-84429184D01*
X114460758Y-85699184D02*
X114460758Y-87079184D01*
X114460758Y-87079184D02*
X115840758Y-87079184D01*
X117220758Y-84429184D02*
X117220758Y-81779184D01*
%TO.C,TP23*%
X155850000Y-88100000D02*
G75*
G02*
X153950000Y-88100000I-950000J0D01*
G01*
X153950000Y-88100000D02*
G75*
G02*
X155850000Y-88100000I950000J0D01*
G01*
%TO.C,RV2*%
X159840000Y-84940000D02*
X161960000Y-84940000D01*
X159840000Y-89000000D02*
X159840000Y-84940000D01*
X159840000Y-89000000D02*
X161960000Y-89000000D01*
X160900000Y-91060000D02*
X161960000Y-91060000D01*
X161960000Y-89000000D02*
X161960000Y-84940000D01*
X161960000Y-91060000D02*
X161960000Y-90000000D01*
%TO.C,RV1*%
X137340000Y-78060000D02*
X137340000Y-75940000D01*
X141400000Y-75940000D02*
X137340000Y-75940000D01*
X141400000Y-78060000D02*
X137340000Y-78060000D01*
X141400000Y-78060000D02*
X141400000Y-75940000D01*
X143460000Y-75940000D02*
X142400000Y-75940000D01*
X143460000Y-77000000D02*
X143460000Y-75940000D01*
%TO.C,J4*%
X155790000Y-79250000D02*
X155790000Y-79360000D01*
X158010000Y-77140000D02*
X156900000Y-77140000D01*
X158010000Y-78250000D02*
X158010000Y-77140000D01*
X158010000Y-79250000D02*
X155790000Y-79250000D01*
X158010000Y-79250000D02*
X158010000Y-79360000D01*
X158010000Y-79360000D02*
X155790000Y-79360000D01*
%TO.C,Audio_Out1*%
X165840000Y-86940000D02*
X167960000Y-86940000D01*
X165840000Y-89000000D02*
X165840000Y-86940000D01*
X165840000Y-89000000D02*
X167960000Y-89000000D01*
X166900000Y-91060000D02*
X167960000Y-91060000D01*
X167960000Y-89000000D02*
X167960000Y-86940000D01*
X167960000Y-91060000D02*
X167960000Y-90000000D01*
%TO.C,TP21*%
X147450000Y-88400000D02*
G75*
G02*
X145550000Y-88400000I-950000J0D01*
G01*
X145550000Y-88400000D02*
G75*
G02*
X147450000Y-88400000I950000J0D01*
G01*
%TD*%
M02*
