%TF.GenerationSoftware,KiCad,Pcbnew,10.0.1*%
%TF.CreationDate,2026-05-04T07:23:59+02:00*%
%TF.ProjectId,Stiftklavier,53746966-746b-46c6-9176-6965722e6b69,1.0*%
%TF.SameCoordinates,Original*%
%TF.FileFunction,Legend,Top*%
%TF.FilePolarity,Positive*%
%FSLAX46Y46*%
G04 Gerber Fmt 4.6, Leading zero omitted, Abs format (unit mm)*
G04 Created by KiCad (PCBNEW 10.0.1) date 2026-05-04 07:23:59*
%MOMM*%
%LPD*%
G01*
G04 APERTURE LIST*
%ADD10C,0.150000*%
%ADD11C,0.120000*%
G04 APERTURE END LIST*
D10*
X165733333Y-93954819D02*
X165400000Y-93478628D01*
X165161905Y-93954819D02*
X165161905Y-92954819D01*
X165161905Y-92954819D02*
X165542857Y-92954819D01*
X165542857Y-92954819D02*
X165638095Y-93002438D01*
X165638095Y-93002438D02*
X165685714Y-93050057D01*
X165685714Y-93050057D02*
X165733333Y-93145295D01*
X165733333Y-93145295D02*
X165733333Y-93288152D01*
X165733333Y-93288152D02*
X165685714Y-93383390D01*
X165685714Y-93383390D02*
X165638095Y-93431009D01*
X165638095Y-93431009D02*
X165542857Y-93478628D01*
X165542857Y-93478628D02*
X165161905Y-93478628D01*
X166685714Y-93954819D02*
X166114286Y-93954819D01*
X166400000Y-93954819D02*
X166400000Y-92954819D01*
X166400000Y-92954819D02*
X166304762Y-93097676D01*
X166304762Y-93097676D02*
X166209524Y-93192914D01*
X166209524Y-93192914D02*
X166114286Y-93240533D01*
X159354819Y-82738094D02*
X158354819Y-82738094D01*
X158354819Y-82738094D02*
X158354819Y-82499999D01*
X158354819Y-82499999D02*
X158402438Y-82357142D01*
X158402438Y-82357142D02*
X158497676Y-82261904D01*
X158497676Y-82261904D02*
X158592914Y-82214285D01*
X158592914Y-82214285D02*
X158783390Y-82166666D01*
X158783390Y-82166666D02*
X158926247Y-82166666D01*
X158926247Y-82166666D02*
X159116723Y-82214285D01*
X159116723Y-82214285D02*
X159211961Y-82261904D01*
X159211961Y-82261904D02*
X159307200Y-82357142D01*
X159307200Y-82357142D02*
X159354819Y-82499999D01*
X159354819Y-82499999D02*
X159354819Y-82738094D01*
X159354819Y-81214285D02*
X159354819Y-81785713D01*
X159354819Y-81499999D02*
X158354819Y-81499999D01*
X158354819Y-81499999D02*
X158497676Y-81595237D01*
X158497676Y-81595237D02*
X158592914Y-81690475D01*
X158592914Y-81690475D02*
X158640533Y-81785713D01*
X157257142Y-91954819D02*
X156923809Y-91478628D01*
X156685714Y-91954819D02*
X156685714Y-90954819D01*
X156685714Y-90954819D02*
X157066666Y-90954819D01*
X157066666Y-90954819D02*
X157161904Y-91002438D01*
X157161904Y-91002438D02*
X157209523Y-91050057D01*
X157209523Y-91050057D02*
X157257142Y-91145295D01*
X157257142Y-91145295D02*
X157257142Y-91288152D01*
X157257142Y-91288152D02*
X157209523Y-91383390D01*
X157209523Y-91383390D02*
X157161904Y-91431009D01*
X157161904Y-91431009D02*
X157066666Y-91478628D01*
X157066666Y-91478628D02*
X156685714Y-91478628D01*
X157638095Y-91050057D02*
X157685714Y-91002438D01*
X157685714Y-91002438D02*
X157780952Y-90954819D01*
X157780952Y-90954819D02*
X158019047Y-90954819D01*
X158019047Y-90954819D02*
X158114285Y-91002438D01*
X158114285Y-91002438D02*
X158161904Y-91050057D01*
X158161904Y-91050057D02*
X158209523Y-91145295D01*
X158209523Y-91145295D02*
X158209523Y-91240533D01*
X158209523Y-91240533D02*
X158161904Y-91383390D01*
X158161904Y-91383390D02*
X157590476Y-91954819D01*
X157590476Y-91954819D02*
X158209523Y-91954819D01*
X158780952Y-91383390D02*
X158685714Y-91335771D01*
X158685714Y-91335771D02*
X158638095Y-91288152D01*
X158638095Y-91288152D02*
X158590476Y-91192914D01*
X158590476Y-91192914D02*
X158590476Y-91145295D01*
X158590476Y-91145295D02*
X158638095Y-91050057D01*
X158638095Y-91050057D02*
X158685714Y-91002438D01*
X158685714Y-91002438D02*
X158780952Y-90954819D01*
X158780952Y-90954819D02*
X158971428Y-90954819D01*
X158971428Y-90954819D02*
X159066666Y-91002438D01*
X159066666Y-91002438D02*
X159114285Y-91050057D01*
X159114285Y-91050057D02*
X159161904Y-91145295D01*
X159161904Y-91145295D02*
X159161904Y-91192914D01*
X159161904Y-91192914D02*
X159114285Y-91288152D01*
X159114285Y-91288152D02*
X159066666Y-91335771D01*
X159066666Y-91335771D02*
X158971428Y-91383390D01*
X158971428Y-91383390D02*
X158780952Y-91383390D01*
X158780952Y-91383390D02*
X158685714Y-91431009D01*
X158685714Y-91431009D02*
X158638095Y-91478628D01*
X158638095Y-91478628D02*
X158590476Y-91573866D01*
X158590476Y-91573866D02*
X158590476Y-91764342D01*
X158590476Y-91764342D02*
X158638095Y-91859580D01*
X158638095Y-91859580D02*
X158685714Y-91907200D01*
X158685714Y-91907200D02*
X158780952Y-91954819D01*
X158780952Y-91954819D02*
X158971428Y-91954819D01*
X158971428Y-91954819D02*
X159066666Y-91907200D01*
X159066666Y-91907200D02*
X159114285Y-91859580D01*
X159114285Y-91859580D02*
X159161904Y-91764342D01*
X159161904Y-91764342D02*
X159161904Y-91573866D01*
X159161904Y-91573866D02*
X159114285Y-91478628D01*
X159114285Y-91478628D02*
X159066666Y-91431009D01*
X159066666Y-91431009D02*
X158971428Y-91383390D01*
X142759580Y-80666666D02*
X142807200Y-80714285D01*
X142807200Y-80714285D02*
X142854819Y-80857142D01*
X142854819Y-80857142D02*
X142854819Y-80952380D01*
X142854819Y-80952380D02*
X142807200Y-81095237D01*
X142807200Y-81095237D02*
X142711961Y-81190475D01*
X142711961Y-81190475D02*
X142616723Y-81238094D01*
X142616723Y-81238094D02*
X142426247Y-81285713D01*
X142426247Y-81285713D02*
X142283390Y-81285713D01*
X142283390Y-81285713D02*
X142092914Y-81238094D01*
X142092914Y-81238094D02*
X141997676Y-81190475D01*
X141997676Y-81190475D02*
X141902438Y-81095237D01*
X141902438Y-81095237D02*
X141854819Y-80952380D01*
X141854819Y-80952380D02*
X141854819Y-80857142D01*
X141854819Y-80857142D02*
X141902438Y-80714285D01*
X141902438Y-80714285D02*
X141950057Y-80666666D01*
X141950057Y-80285713D02*
X141902438Y-80238094D01*
X141902438Y-80238094D02*
X141854819Y-80142856D01*
X141854819Y-80142856D02*
X141854819Y-79904761D01*
X141854819Y-79904761D02*
X141902438Y-79809523D01*
X141902438Y-79809523D02*
X141950057Y-79761904D01*
X141950057Y-79761904D02*
X142045295Y-79714285D01*
X142045295Y-79714285D02*
X142140533Y-79714285D01*
X142140533Y-79714285D02*
X142283390Y-79761904D01*
X142283390Y-79761904D02*
X142854819Y-80333332D01*
X142854819Y-80333332D02*
X142854819Y-79714285D01*
X164607142Y-83634819D02*
X164273809Y-83158628D01*
X164035714Y-83634819D02*
X164035714Y-82634819D01*
X164035714Y-82634819D02*
X164416666Y-82634819D01*
X164416666Y-82634819D02*
X164511904Y-82682438D01*
X164511904Y-82682438D02*
X164559523Y-82730057D01*
X164559523Y-82730057D02*
X164607142Y-82825295D01*
X164607142Y-82825295D02*
X164607142Y-82968152D01*
X164607142Y-82968152D02*
X164559523Y-83063390D01*
X164559523Y-83063390D02*
X164511904Y-83111009D01*
X164511904Y-83111009D02*
X164416666Y-83158628D01*
X164416666Y-83158628D02*
X164035714Y-83158628D01*
X164940476Y-82634819D02*
X165559523Y-82634819D01*
X165559523Y-82634819D02*
X165226190Y-83015771D01*
X165226190Y-83015771D02*
X165369047Y-83015771D01*
X165369047Y-83015771D02*
X165464285Y-83063390D01*
X165464285Y-83063390D02*
X165511904Y-83111009D01*
X165511904Y-83111009D02*
X165559523Y-83206247D01*
X165559523Y-83206247D02*
X165559523Y-83444342D01*
X165559523Y-83444342D02*
X165511904Y-83539580D01*
X165511904Y-83539580D02*
X165464285Y-83587200D01*
X165464285Y-83587200D02*
X165369047Y-83634819D01*
X165369047Y-83634819D02*
X165083333Y-83634819D01*
X165083333Y-83634819D02*
X164988095Y-83587200D01*
X164988095Y-83587200D02*
X164940476Y-83539580D01*
X166178571Y-82634819D02*
X166273809Y-82634819D01*
X166273809Y-82634819D02*
X166369047Y-82682438D01*
X166369047Y-82682438D02*
X166416666Y-82730057D01*
X166416666Y-82730057D02*
X166464285Y-82825295D01*
X166464285Y-82825295D02*
X166511904Y-83015771D01*
X166511904Y-83015771D02*
X166511904Y-83253866D01*
X166511904Y-83253866D02*
X166464285Y-83444342D01*
X166464285Y-83444342D02*
X166416666Y-83539580D01*
X166416666Y-83539580D02*
X166369047Y-83587200D01*
X166369047Y-83587200D02*
X166273809Y-83634819D01*
X166273809Y-83634819D02*
X166178571Y-83634819D01*
X166178571Y-83634819D02*
X166083333Y-83587200D01*
X166083333Y-83587200D02*
X166035714Y-83539580D01*
X166035714Y-83539580D02*
X165988095Y-83444342D01*
X165988095Y-83444342D02*
X165940476Y-83253866D01*
X165940476Y-83253866D02*
X165940476Y-83015771D01*
X165940476Y-83015771D02*
X165988095Y-82825295D01*
X165988095Y-82825295D02*
X166035714Y-82730057D01*
X166035714Y-82730057D02*
X166083333Y-82682438D01*
X166083333Y-82682438D02*
X166178571Y-82634819D01*
X167733333Y-96454819D02*
X167400000Y-95978628D01*
X167161905Y-96454819D02*
X167161905Y-95454819D01*
X167161905Y-95454819D02*
X167542857Y-95454819D01*
X167542857Y-95454819D02*
X167638095Y-95502438D01*
X167638095Y-95502438D02*
X167685714Y-95550057D01*
X167685714Y-95550057D02*
X167733333Y-95645295D01*
X167733333Y-95645295D02*
X167733333Y-95788152D01*
X167733333Y-95788152D02*
X167685714Y-95883390D01*
X167685714Y-95883390D02*
X167638095Y-95931009D01*
X167638095Y-95931009D02*
X167542857Y-95978628D01*
X167542857Y-95978628D02*
X167161905Y-95978628D01*
X168114286Y-95550057D02*
X168161905Y-95502438D01*
X168161905Y-95502438D02*
X168257143Y-95454819D01*
X168257143Y-95454819D02*
X168495238Y-95454819D01*
X168495238Y-95454819D02*
X168590476Y-95502438D01*
X168590476Y-95502438D02*
X168638095Y-95550057D01*
X168638095Y-95550057D02*
X168685714Y-95645295D01*
X168685714Y-95645295D02*
X168685714Y-95740533D01*
X168685714Y-95740533D02*
X168638095Y-95883390D01*
X168638095Y-95883390D02*
X168066667Y-96454819D01*
X168066667Y-96454819D02*
X168685714Y-96454819D01*
X156733333Y-96454819D02*
X156400000Y-95978628D01*
X156161905Y-96454819D02*
X156161905Y-95454819D01*
X156161905Y-95454819D02*
X156542857Y-95454819D01*
X156542857Y-95454819D02*
X156638095Y-95502438D01*
X156638095Y-95502438D02*
X156685714Y-95550057D01*
X156685714Y-95550057D02*
X156733333Y-95645295D01*
X156733333Y-95645295D02*
X156733333Y-95788152D01*
X156733333Y-95788152D02*
X156685714Y-95883390D01*
X156685714Y-95883390D02*
X156638095Y-95931009D01*
X156638095Y-95931009D02*
X156542857Y-95978628D01*
X156542857Y-95978628D02*
X156161905Y-95978628D01*
X157590476Y-95454819D02*
X157400000Y-95454819D01*
X157400000Y-95454819D02*
X157304762Y-95502438D01*
X157304762Y-95502438D02*
X157257143Y-95550057D01*
X157257143Y-95550057D02*
X157161905Y-95692914D01*
X157161905Y-95692914D02*
X157114286Y-95883390D01*
X157114286Y-95883390D02*
X157114286Y-96264342D01*
X157114286Y-96264342D02*
X157161905Y-96359580D01*
X157161905Y-96359580D02*
X157209524Y-96407200D01*
X157209524Y-96407200D02*
X157304762Y-96454819D01*
X157304762Y-96454819D02*
X157495238Y-96454819D01*
X157495238Y-96454819D02*
X157590476Y-96407200D01*
X157590476Y-96407200D02*
X157638095Y-96359580D01*
X157638095Y-96359580D02*
X157685714Y-96264342D01*
X157685714Y-96264342D02*
X157685714Y-96026247D01*
X157685714Y-96026247D02*
X157638095Y-95931009D01*
X157638095Y-95931009D02*
X157590476Y-95883390D01*
X157590476Y-95883390D02*
X157495238Y-95835771D01*
X157495238Y-95835771D02*
X157304762Y-95835771D01*
X157304762Y-95835771D02*
X157209524Y-95883390D01*
X157209524Y-95883390D02*
X157161905Y-95931009D01*
X157161905Y-95931009D02*
X157114286Y-96026247D01*
X122066667Y-89907200D02*
X122209524Y-89954819D01*
X122209524Y-89954819D02*
X122447619Y-89954819D01*
X122447619Y-89954819D02*
X122542857Y-89907200D01*
X122542857Y-89907200D02*
X122590476Y-89859580D01*
X122590476Y-89859580D02*
X122638095Y-89764342D01*
X122638095Y-89764342D02*
X122638095Y-89669104D01*
X122638095Y-89669104D02*
X122590476Y-89573866D01*
X122590476Y-89573866D02*
X122542857Y-89526247D01*
X122542857Y-89526247D02*
X122447619Y-89478628D01*
X122447619Y-89478628D02*
X122257143Y-89431009D01*
X122257143Y-89431009D02*
X122161905Y-89383390D01*
X122161905Y-89383390D02*
X122114286Y-89335771D01*
X122114286Y-89335771D02*
X122066667Y-89240533D01*
X122066667Y-89240533D02*
X122066667Y-89145295D01*
X122066667Y-89145295D02*
X122114286Y-89050057D01*
X122114286Y-89050057D02*
X122161905Y-89002438D01*
X122161905Y-89002438D02*
X122257143Y-88954819D01*
X122257143Y-88954819D02*
X122495238Y-88954819D01*
X122495238Y-88954819D02*
X122638095Y-89002438D01*
X122971429Y-88954819D02*
X123209524Y-89954819D01*
X123209524Y-89954819D02*
X123400000Y-89240533D01*
X123400000Y-89240533D02*
X123590476Y-89954819D01*
X123590476Y-89954819D02*
X123828572Y-88954819D01*
X124161905Y-89050057D02*
X124209524Y-89002438D01*
X124209524Y-89002438D02*
X124304762Y-88954819D01*
X124304762Y-88954819D02*
X124542857Y-88954819D01*
X124542857Y-88954819D02*
X124638095Y-89002438D01*
X124638095Y-89002438D02*
X124685714Y-89050057D01*
X124685714Y-89050057D02*
X124733333Y-89145295D01*
X124733333Y-89145295D02*
X124733333Y-89240533D01*
X124733333Y-89240533D02*
X124685714Y-89383390D01*
X124685714Y-89383390D02*
X124114286Y-89954819D01*
X124114286Y-89954819D02*
X124733333Y-89954819D01*
X145638095Y-93354819D02*
X145638095Y-94164342D01*
X145638095Y-94164342D02*
X145685714Y-94259580D01*
X145685714Y-94259580D02*
X145733333Y-94307200D01*
X145733333Y-94307200D02*
X145828571Y-94354819D01*
X145828571Y-94354819D02*
X146019047Y-94354819D01*
X146019047Y-94354819D02*
X146114285Y-94307200D01*
X146114285Y-94307200D02*
X146161904Y-94259580D01*
X146161904Y-94259580D02*
X146209523Y-94164342D01*
X146209523Y-94164342D02*
X146209523Y-93354819D01*
X147209523Y-94354819D02*
X146638095Y-94354819D01*
X146923809Y-94354819D02*
X146923809Y-93354819D01*
X146923809Y-93354819D02*
X146828571Y-93497676D01*
X146828571Y-93497676D02*
X146733333Y-93592914D01*
X146733333Y-93592914D02*
X146638095Y-93640533D01*
X151233333Y-96454819D02*
X150900000Y-95978628D01*
X150661905Y-96454819D02*
X150661905Y-95454819D01*
X150661905Y-95454819D02*
X151042857Y-95454819D01*
X151042857Y-95454819D02*
X151138095Y-95502438D01*
X151138095Y-95502438D02*
X151185714Y-95550057D01*
X151185714Y-95550057D02*
X151233333Y-95645295D01*
X151233333Y-95645295D02*
X151233333Y-95788152D01*
X151233333Y-95788152D02*
X151185714Y-95883390D01*
X151185714Y-95883390D02*
X151138095Y-95931009D01*
X151138095Y-95931009D02*
X151042857Y-95978628D01*
X151042857Y-95978628D02*
X150661905Y-95978628D01*
X151804762Y-95883390D02*
X151709524Y-95835771D01*
X151709524Y-95835771D02*
X151661905Y-95788152D01*
X151661905Y-95788152D02*
X151614286Y-95692914D01*
X151614286Y-95692914D02*
X151614286Y-95645295D01*
X151614286Y-95645295D02*
X151661905Y-95550057D01*
X151661905Y-95550057D02*
X151709524Y-95502438D01*
X151709524Y-95502438D02*
X151804762Y-95454819D01*
X151804762Y-95454819D02*
X151995238Y-95454819D01*
X151995238Y-95454819D02*
X152090476Y-95502438D01*
X152090476Y-95502438D02*
X152138095Y-95550057D01*
X152138095Y-95550057D02*
X152185714Y-95645295D01*
X152185714Y-95645295D02*
X152185714Y-95692914D01*
X152185714Y-95692914D02*
X152138095Y-95788152D01*
X152138095Y-95788152D02*
X152090476Y-95835771D01*
X152090476Y-95835771D02*
X151995238Y-95883390D01*
X151995238Y-95883390D02*
X151804762Y-95883390D01*
X151804762Y-95883390D02*
X151709524Y-95931009D01*
X151709524Y-95931009D02*
X151661905Y-95978628D01*
X151661905Y-95978628D02*
X151614286Y-96073866D01*
X151614286Y-96073866D02*
X151614286Y-96264342D01*
X151614286Y-96264342D02*
X151661905Y-96359580D01*
X151661905Y-96359580D02*
X151709524Y-96407200D01*
X151709524Y-96407200D02*
X151804762Y-96454819D01*
X151804762Y-96454819D02*
X151995238Y-96454819D01*
X151995238Y-96454819D02*
X152090476Y-96407200D01*
X152090476Y-96407200D02*
X152138095Y-96359580D01*
X152138095Y-96359580D02*
X152185714Y-96264342D01*
X152185714Y-96264342D02*
X152185714Y-96073866D01*
X152185714Y-96073866D02*
X152138095Y-95978628D01*
X152138095Y-95978628D02*
X152090476Y-95931009D01*
X152090476Y-95931009D02*
X151995238Y-95883390D01*
X134321428Y-96408557D02*
X134021428Y-95979985D01*
X133807142Y-96408557D02*
X133807142Y-95508557D01*
X133807142Y-95508557D02*
X134149999Y-95508557D01*
X134149999Y-95508557D02*
X134235714Y-95551414D01*
X134235714Y-95551414D02*
X134278571Y-95594271D01*
X134278571Y-95594271D02*
X134321428Y-95679985D01*
X134321428Y-95679985D02*
X134321428Y-95808557D01*
X134321428Y-95808557D02*
X134278571Y-95894271D01*
X134278571Y-95894271D02*
X134235714Y-95937128D01*
X134235714Y-95937128D02*
X134149999Y-95979985D01*
X134149999Y-95979985D02*
X133807142Y-95979985D01*
X135178571Y-96408557D02*
X134664285Y-96408557D01*
X134921428Y-96408557D02*
X134921428Y-95508557D01*
X134921428Y-95508557D02*
X134835714Y-95637128D01*
X134835714Y-95637128D02*
X134749999Y-95722842D01*
X134749999Y-95722842D02*
X134664285Y-95765700D01*
X135950000Y-95808557D02*
X135950000Y-96408557D01*
X135735714Y-95465700D02*
X135521428Y-96108557D01*
X135521428Y-96108557D02*
X136078571Y-96108557D01*
X128821428Y-96408557D02*
X128521428Y-95979985D01*
X128307142Y-96408557D02*
X128307142Y-95508557D01*
X128307142Y-95508557D02*
X128649999Y-95508557D01*
X128649999Y-95508557D02*
X128735714Y-95551414D01*
X128735714Y-95551414D02*
X128778571Y-95594271D01*
X128778571Y-95594271D02*
X128821428Y-95679985D01*
X128821428Y-95679985D02*
X128821428Y-95808557D01*
X128821428Y-95808557D02*
X128778571Y-95894271D01*
X128778571Y-95894271D02*
X128735714Y-95937128D01*
X128735714Y-95937128D02*
X128649999Y-95979985D01*
X128649999Y-95979985D02*
X128307142Y-95979985D01*
X129678571Y-96408557D02*
X129164285Y-96408557D01*
X129421428Y-96408557D02*
X129421428Y-95508557D01*
X129421428Y-95508557D02*
X129335714Y-95637128D01*
X129335714Y-95637128D02*
X129249999Y-95722842D01*
X129249999Y-95722842D02*
X129164285Y-95765700D01*
X130450000Y-95508557D02*
X130278571Y-95508557D01*
X130278571Y-95508557D02*
X130192857Y-95551414D01*
X130192857Y-95551414D02*
X130150000Y-95594271D01*
X130150000Y-95594271D02*
X130064285Y-95722842D01*
X130064285Y-95722842D02*
X130021428Y-95894271D01*
X130021428Y-95894271D02*
X130021428Y-96237128D01*
X130021428Y-96237128D02*
X130064285Y-96322842D01*
X130064285Y-96322842D02*
X130107142Y-96365700D01*
X130107142Y-96365700D02*
X130192857Y-96408557D01*
X130192857Y-96408557D02*
X130364285Y-96408557D01*
X130364285Y-96408557D02*
X130450000Y-96365700D01*
X130450000Y-96365700D02*
X130492857Y-96322842D01*
X130492857Y-96322842D02*
X130535714Y-96237128D01*
X130535714Y-96237128D02*
X130535714Y-96022842D01*
X130535714Y-96022842D02*
X130492857Y-95937128D01*
X130492857Y-95937128D02*
X130450000Y-95894271D01*
X130450000Y-95894271D02*
X130364285Y-95851414D01*
X130364285Y-95851414D02*
X130192857Y-95851414D01*
X130192857Y-95851414D02*
X130107142Y-95894271D01*
X130107142Y-95894271D02*
X130064285Y-95937128D01*
X130064285Y-95937128D02*
X130021428Y-96022842D01*
X126321428Y-96408557D02*
X126021428Y-95979985D01*
X125807142Y-96408557D02*
X125807142Y-95508557D01*
X125807142Y-95508557D02*
X126149999Y-95508557D01*
X126149999Y-95508557D02*
X126235714Y-95551414D01*
X126235714Y-95551414D02*
X126278571Y-95594271D01*
X126278571Y-95594271D02*
X126321428Y-95679985D01*
X126321428Y-95679985D02*
X126321428Y-95808557D01*
X126321428Y-95808557D02*
X126278571Y-95894271D01*
X126278571Y-95894271D02*
X126235714Y-95937128D01*
X126235714Y-95937128D02*
X126149999Y-95979985D01*
X126149999Y-95979985D02*
X125807142Y-95979985D01*
X127178571Y-96408557D02*
X126664285Y-96408557D01*
X126921428Y-96408557D02*
X126921428Y-95508557D01*
X126921428Y-95508557D02*
X126835714Y-95637128D01*
X126835714Y-95637128D02*
X126749999Y-95722842D01*
X126749999Y-95722842D02*
X126664285Y-95765700D01*
X127478571Y-95508557D02*
X128078571Y-95508557D01*
X128078571Y-95508557D02*
X127692857Y-96408557D01*
X164733333Y-96454819D02*
X164400000Y-95978628D01*
X164161905Y-96454819D02*
X164161905Y-95454819D01*
X164161905Y-95454819D02*
X164542857Y-95454819D01*
X164542857Y-95454819D02*
X164638095Y-95502438D01*
X164638095Y-95502438D02*
X164685714Y-95550057D01*
X164685714Y-95550057D02*
X164733333Y-95645295D01*
X164733333Y-95645295D02*
X164733333Y-95788152D01*
X164733333Y-95788152D02*
X164685714Y-95883390D01*
X164685714Y-95883390D02*
X164638095Y-95931009D01*
X164638095Y-95931009D02*
X164542857Y-95978628D01*
X164542857Y-95978628D02*
X164161905Y-95978628D01*
X165066667Y-95454819D02*
X165685714Y-95454819D01*
X165685714Y-95454819D02*
X165352381Y-95835771D01*
X165352381Y-95835771D02*
X165495238Y-95835771D01*
X165495238Y-95835771D02*
X165590476Y-95883390D01*
X165590476Y-95883390D02*
X165638095Y-95931009D01*
X165638095Y-95931009D02*
X165685714Y-96026247D01*
X165685714Y-96026247D02*
X165685714Y-96264342D01*
X165685714Y-96264342D02*
X165638095Y-96359580D01*
X165638095Y-96359580D02*
X165590476Y-96407200D01*
X165590476Y-96407200D02*
X165495238Y-96454819D01*
X165495238Y-96454819D02*
X165209524Y-96454819D01*
X165209524Y-96454819D02*
X165114286Y-96407200D01*
X165114286Y-96407200D02*
X165066667Y-96359580D01*
X147257142Y-85954819D02*
X146923809Y-85478628D01*
X146685714Y-85954819D02*
X146685714Y-84954819D01*
X146685714Y-84954819D02*
X147066666Y-84954819D01*
X147066666Y-84954819D02*
X147161904Y-85002438D01*
X147161904Y-85002438D02*
X147209523Y-85050057D01*
X147209523Y-85050057D02*
X147257142Y-85145295D01*
X147257142Y-85145295D02*
X147257142Y-85288152D01*
X147257142Y-85288152D02*
X147209523Y-85383390D01*
X147209523Y-85383390D02*
X147161904Y-85431009D01*
X147161904Y-85431009D02*
X147066666Y-85478628D01*
X147066666Y-85478628D02*
X146685714Y-85478628D01*
X147638095Y-85050057D02*
X147685714Y-85002438D01*
X147685714Y-85002438D02*
X147780952Y-84954819D01*
X147780952Y-84954819D02*
X148019047Y-84954819D01*
X148019047Y-84954819D02*
X148114285Y-85002438D01*
X148114285Y-85002438D02*
X148161904Y-85050057D01*
X148161904Y-85050057D02*
X148209523Y-85145295D01*
X148209523Y-85145295D02*
X148209523Y-85240533D01*
X148209523Y-85240533D02*
X148161904Y-85383390D01*
X148161904Y-85383390D02*
X147590476Y-85954819D01*
X147590476Y-85954819D02*
X148209523Y-85954819D01*
X149161904Y-85954819D02*
X148590476Y-85954819D01*
X148876190Y-85954819D02*
X148876190Y-84954819D01*
X148876190Y-84954819D02*
X148780952Y-85097676D01*
X148780952Y-85097676D02*
X148685714Y-85192914D01*
X148685714Y-85192914D02*
X148590476Y-85240533D01*
X122066667Y-76507200D02*
X122209524Y-76554819D01*
X122209524Y-76554819D02*
X122447619Y-76554819D01*
X122447619Y-76554819D02*
X122542857Y-76507200D01*
X122542857Y-76507200D02*
X122590476Y-76459580D01*
X122590476Y-76459580D02*
X122638095Y-76364342D01*
X122638095Y-76364342D02*
X122638095Y-76269104D01*
X122638095Y-76269104D02*
X122590476Y-76173866D01*
X122590476Y-76173866D02*
X122542857Y-76126247D01*
X122542857Y-76126247D02*
X122447619Y-76078628D01*
X122447619Y-76078628D02*
X122257143Y-76031009D01*
X122257143Y-76031009D02*
X122161905Y-75983390D01*
X122161905Y-75983390D02*
X122114286Y-75935771D01*
X122114286Y-75935771D02*
X122066667Y-75840533D01*
X122066667Y-75840533D02*
X122066667Y-75745295D01*
X122066667Y-75745295D02*
X122114286Y-75650057D01*
X122114286Y-75650057D02*
X122161905Y-75602438D01*
X122161905Y-75602438D02*
X122257143Y-75554819D01*
X122257143Y-75554819D02*
X122495238Y-75554819D01*
X122495238Y-75554819D02*
X122638095Y-75602438D01*
X122971429Y-75554819D02*
X123209524Y-76554819D01*
X123209524Y-76554819D02*
X123400000Y-75840533D01*
X123400000Y-75840533D02*
X123590476Y-76554819D01*
X123590476Y-76554819D02*
X123828572Y-75554819D01*
X124733333Y-76554819D02*
X124161905Y-76554819D01*
X124447619Y-76554819D02*
X124447619Y-75554819D01*
X124447619Y-75554819D02*
X124352381Y-75697676D01*
X124352381Y-75697676D02*
X124257143Y-75792914D01*
X124257143Y-75792914D02*
X124161905Y-75840533D01*
X145354819Y-81142857D02*
X144878628Y-81476190D01*
X145354819Y-81714285D02*
X144354819Y-81714285D01*
X144354819Y-81714285D02*
X144354819Y-81333333D01*
X144354819Y-81333333D02*
X144402438Y-81238095D01*
X144402438Y-81238095D02*
X144450057Y-81190476D01*
X144450057Y-81190476D02*
X144545295Y-81142857D01*
X144545295Y-81142857D02*
X144688152Y-81142857D01*
X144688152Y-81142857D02*
X144783390Y-81190476D01*
X144783390Y-81190476D02*
X144831009Y-81238095D01*
X144831009Y-81238095D02*
X144878628Y-81333333D01*
X144878628Y-81333333D02*
X144878628Y-81714285D01*
X144450057Y-80761904D02*
X144402438Y-80714285D01*
X144402438Y-80714285D02*
X144354819Y-80619047D01*
X144354819Y-80619047D02*
X144354819Y-80380952D01*
X144354819Y-80380952D02*
X144402438Y-80285714D01*
X144402438Y-80285714D02*
X144450057Y-80238095D01*
X144450057Y-80238095D02*
X144545295Y-80190476D01*
X144545295Y-80190476D02*
X144640533Y-80190476D01*
X144640533Y-80190476D02*
X144783390Y-80238095D01*
X144783390Y-80238095D02*
X145354819Y-80809523D01*
X145354819Y-80809523D02*
X145354819Y-80190476D01*
X144354819Y-79857142D02*
X144354819Y-79190476D01*
X144354819Y-79190476D02*
X145354819Y-79619047D01*
X136821428Y-96408557D02*
X136521428Y-95979985D01*
X136307142Y-96408557D02*
X136307142Y-95508557D01*
X136307142Y-95508557D02*
X136649999Y-95508557D01*
X136649999Y-95508557D02*
X136735714Y-95551414D01*
X136735714Y-95551414D02*
X136778571Y-95594271D01*
X136778571Y-95594271D02*
X136821428Y-95679985D01*
X136821428Y-95679985D02*
X136821428Y-95808557D01*
X136821428Y-95808557D02*
X136778571Y-95894271D01*
X136778571Y-95894271D02*
X136735714Y-95937128D01*
X136735714Y-95937128D02*
X136649999Y-95979985D01*
X136649999Y-95979985D02*
X136307142Y-95979985D01*
X137678571Y-96408557D02*
X137164285Y-96408557D01*
X137421428Y-96408557D02*
X137421428Y-95508557D01*
X137421428Y-95508557D02*
X137335714Y-95637128D01*
X137335714Y-95637128D02*
X137249999Y-95722842D01*
X137249999Y-95722842D02*
X137164285Y-95765700D01*
X137978571Y-95508557D02*
X138535714Y-95508557D01*
X138535714Y-95508557D02*
X138235714Y-95851414D01*
X138235714Y-95851414D02*
X138364285Y-95851414D01*
X138364285Y-95851414D02*
X138450000Y-95894271D01*
X138450000Y-95894271D02*
X138492857Y-95937128D01*
X138492857Y-95937128D02*
X138535714Y-96022842D01*
X138535714Y-96022842D02*
X138535714Y-96237128D01*
X138535714Y-96237128D02*
X138492857Y-96322842D01*
X138492857Y-96322842D02*
X138450000Y-96365700D01*
X138450000Y-96365700D02*
X138364285Y-96408557D01*
X138364285Y-96408557D02*
X138107142Y-96408557D01*
X138107142Y-96408557D02*
X138021428Y-96365700D01*
X138021428Y-96365700D02*
X137978571Y-96322842D01*
X152233333Y-94859580D02*
X152185714Y-94907200D01*
X152185714Y-94907200D02*
X152042857Y-94954819D01*
X152042857Y-94954819D02*
X151947619Y-94954819D01*
X151947619Y-94954819D02*
X151804762Y-94907200D01*
X151804762Y-94907200D02*
X151709524Y-94811961D01*
X151709524Y-94811961D02*
X151661905Y-94716723D01*
X151661905Y-94716723D02*
X151614286Y-94526247D01*
X151614286Y-94526247D02*
X151614286Y-94383390D01*
X151614286Y-94383390D02*
X151661905Y-94192914D01*
X151661905Y-94192914D02*
X151709524Y-94097676D01*
X151709524Y-94097676D02*
X151804762Y-94002438D01*
X151804762Y-94002438D02*
X151947619Y-93954819D01*
X151947619Y-93954819D02*
X152042857Y-93954819D01*
X152042857Y-93954819D02*
X152185714Y-94002438D01*
X152185714Y-94002438D02*
X152233333Y-94050057D01*
X153090476Y-93954819D02*
X152900000Y-93954819D01*
X152900000Y-93954819D02*
X152804762Y-94002438D01*
X152804762Y-94002438D02*
X152757143Y-94050057D01*
X152757143Y-94050057D02*
X152661905Y-94192914D01*
X152661905Y-94192914D02*
X152614286Y-94383390D01*
X152614286Y-94383390D02*
X152614286Y-94764342D01*
X152614286Y-94764342D02*
X152661905Y-94859580D01*
X152661905Y-94859580D02*
X152709524Y-94907200D01*
X152709524Y-94907200D02*
X152804762Y-94954819D01*
X152804762Y-94954819D02*
X152995238Y-94954819D01*
X152995238Y-94954819D02*
X153090476Y-94907200D01*
X153090476Y-94907200D02*
X153138095Y-94859580D01*
X153138095Y-94859580D02*
X153185714Y-94764342D01*
X153185714Y-94764342D02*
X153185714Y-94526247D01*
X153185714Y-94526247D02*
X153138095Y-94431009D01*
X153138095Y-94431009D02*
X153090476Y-94383390D01*
X153090476Y-94383390D02*
X152995238Y-94335771D01*
X152995238Y-94335771D02*
X152804762Y-94335771D01*
X152804762Y-94335771D02*
X152709524Y-94383390D01*
X152709524Y-94383390D02*
X152661905Y-94431009D01*
X152661905Y-94431009D02*
X152614286Y-94526247D01*
X120821428Y-96408557D02*
X120521428Y-95979985D01*
X120307142Y-96408557D02*
X120307142Y-95508557D01*
X120307142Y-95508557D02*
X120649999Y-95508557D01*
X120649999Y-95508557D02*
X120735714Y-95551414D01*
X120735714Y-95551414D02*
X120778571Y-95594271D01*
X120778571Y-95594271D02*
X120821428Y-95679985D01*
X120821428Y-95679985D02*
X120821428Y-95808557D01*
X120821428Y-95808557D02*
X120778571Y-95894271D01*
X120778571Y-95894271D02*
X120735714Y-95937128D01*
X120735714Y-95937128D02*
X120649999Y-95979985D01*
X120649999Y-95979985D02*
X120307142Y-95979985D01*
X121678571Y-96408557D02*
X121164285Y-96408557D01*
X121421428Y-96408557D02*
X121421428Y-95508557D01*
X121421428Y-95508557D02*
X121335714Y-95637128D01*
X121335714Y-95637128D02*
X121249999Y-95722842D01*
X121249999Y-95722842D02*
X121164285Y-95765700D01*
X122107142Y-96408557D02*
X122278571Y-96408557D01*
X122278571Y-96408557D02*
X122364285Y-96365700D01*
X122364285Y-96365700D02*
X122407142Y-96322842D01*
X122407142Y-96322842D02*
X122492857Y-96194271D01*
X122492857Y-96194271D02*
X122535714Y-96022842D01*
X122535714Y-96022842D02*
X122535714Y-95679985D01*
X122535714Y-95679985D02*
X122492857Y-95594271D01*
X122492857Y-95594271D02*
X122450000Y-95551414D01*
X122450000Y-95551414D02*
X122364285Y-95508557D01*
X122364285Y-95508557D02*
X122192857Y-95508557D01*
X122192857Y-95508557D02*
X122107142Y-95551414D01*
X122107142Y-95551414D02*
X122064285Y-95594271D01*
X122064285Y-95594271D02*
X122021428Y-95679985D01*
X122021428Y-95679985D02*
X122021428Y-95894271D01*
X122021428Y-95894271D02*
X122064285Y-95979985D01*
X122064285Y-95979985D02*
X122107142Y-96022842D01*
X122107142Y-96022842D02*
X122192857Y-96065700D01*
X122192857Y-96065700D02*
X122364285Y-96065700D01*
X122364285Y-96065700D02*
X122450000Y-96022842D01*
X122450000Y-96022842D02*
X122492857Y-95979985D01*
X122492857Y-95979985D02*
X122535714Y-95894271D01*
X115257142Y-96454819D02*
X114923809Y-95978628D01*
X114685714Y-96454819D02*
X114685714Y-95454819D01*
X114685714Y-95454819D02*
X115066666Y-95454819D01*
X115066666Y-95454819D02*
X115161904Y-95502438D01*
X115161904Y-95502438D02*
X115209523Y-95550057D01*
X115209523Y-95550057D02*
X115257142Y-95645295D01*
X115257142Y-95645295D02*
X115257142Y-95788152D01*
X115257142Y-95788152D02*
X115209523Y-95883390D01*
X115209523Y-95883390D02*
X115161904Y-95931009D01*
X115161904Y-95931009D02*
X115066666Y-95978628D01*
X115066666Y-95978628D02*
X114685714Y-95978628D01*
X115590476Y-95454819D02*
X116209523Y-95454819D01*
X116209523Y-95454819D02*
X115876190Y-95835771D01*
X115876190Y-95835771D02*
X116019047Y-95835771D01*
X116019047Y-95835771D02*
X116114285Y-95883390D01*
X116114285Y-95883390D02*
X116161904Y-95931009D01*
X116161904Y-95931009D02*
X116209523Y-96026247D01*
X116209523Y-96026247D02*
X116209523Y-96264342D01*
X116209523Y-96264342D02*
X116161904Y-96359580D01*
X116161904Y-96359580D02*
X116114285Y-96407200D01*
X116114285Y-96407200D02*
X116019047Y-96454819D01*
X116019047Y-96454819D02*
X115733333Y-96454819D01*
X115733333Y-96454819D02*
X115638095Y-96407200D01*
X115638095Y-96407200D02*
X115590476Y-96359580D01*
X117161904Y-96454819D02*
X116590476Y-96454819D01*
X116876190Y-96454819D02*
X116876190Y-95454819D01*
X116876190Y-95454819D02*
X116780952Y-95597676D01*
X116780952Y-95597676D02*
X116685714Y-95692914D01*
X116685714Y-95692914D02*
X116590476Y-95740533D01*
X137757142Y-85454819D02*
X137423809Y-84978628D01*
X137185714Y-85454819D02*
X137185714Y-84454819D01*
X137185714Y-84454819D02*
X137566666Y-84454819D01*
X137566666Y-84454819D02*
X137661904Y-84502438D01*
X137661904Y-84502438D02*
X137709523Y-84550057D01*
X137709523Y-84550057D02*
X137757142Y-84645295D01*
X137757142Y-84645295D02*
X137757142Y-84788152D01*
X137757142Y-84788152D02*
X137709523Y-84883390D01*
X137709523Y-84883390D02*
X137661904Y-84931009D01*
X137661904Y-84931009D02*
X137566666Y-84978628D01*
X137566666Y-84978628D02*
X137185714Y-84978628D01*
X138138095Y-84550057D02*
X138185714Y-84502438D01*
X138185714Y-84502438D02*
X138280952Y-84454819D01*
X138280952Y-84454819D02*
X138519047Y-84454819D01*
X138519047Y-84454819D02*
X138614285Y-84502438D01*
X138614285Y-84502438D02*
X138661904Y-84550057D01*
X138661904Y-84550057D02*
X138709523Y-84645295D01*
X138709523Y-84645295D02*
X138709523Y-84740533D01*
X138709523Y-84740533D02*
X138661904Y-84883390D01*
X138661904Y-84883390D02*
X138090476Y-85454819D01*
X138090476Y-85454819D02*
X138709523Y-85454819D01*
X139042857Y-84454819D02*
X139661904Y-84454819D01*
X139661904Y-84454819D02*
X139328571Y-84835771D01*
X139328571Y-84835771D02*
X139471428Y-84835771D01*
X139471428Y-84835771D02*
X139566666Y-84883390D01*
X139566666Y-84883390D02*
X139614285Y-84931009D01*
X139614285Y-84931009D02*
X139661904Y-85026247D01*
X139661904Y-85026247D02*
X139661904Y-85264342D01*
X139661904Y-85264342D02*
X139614285Y-85359580D01*
X139614285Y-85359580D02*
X139566666Y-85407200D01*
X139566666Y-85407200D02*
X139471428Y-85454819D01*
X139471428Y-85454819D02*
X139185714Y-85454819D01*
X139185714Y-85454819D02*
X139090476Y-85407200D01*
X139090476Y-85407200D02*
X139042857Y-85359580D01*
X136421428Y-83658557D02*
X136121428Y-83229985D01*
X135907142Y-83658557D02*
X135907142Y-82758557D01*
X135907142Y-82758557D02*
X136249999Y-82758557D01*
X136249999Y-82758557D02*
X136335714Y-82801414D01*
X136335714Y-82801414D02*
X136378571Y-82844271D01*
X136378571Y-82844271D02*
X136421428Y-82929985D01*
X136421428Y-82929985D02*
X136421428Y-83058557D01*
X136421428Y-83058557D02*
X136378571Y-83144271D01*
X136378571Y-83144271D02*
X136335714Y-83187128D01*
X136335714Y-83187128D02*
X136249999Y-83229985D01*
X136249999Y-83229985D02*
X135907142Y-83229985D01*
X136764285Y-82844271D02*
X136807142Y-82801414D01*
X136807142Y-82801414D02*
X136892857Y-82758557D01*
X136892857Y-82758557D02*
X137107142Y-82758557D01*
X137107142Y-82758557D02*
X137192857Y-82801414D01*
X137192857Y-82801414D02*
X137235714Y-82844271D01*
X137235714Y-82844271D02*
X137278571Y-82929985D01*
X137278571Y-82929985D02*
X137278571Y-83015700D01*
X137278571Y-83015700D02*
X137235714Y-83144271D01*
X137235714Y-83144271D02*
X136721428Y-83658557D01*
X136721428Y-83658557D02*
X137278571Y-83658557D01*
X137621428Y-82844271D02*
X137664285Y-82801414D01*
X137664285Y-82801414D02*
X137750000Y-82758557D01*
X137750000Y-82758557D02*
X137964285Y-82758557D01*
X137964285Y-82758557D02*
X138050000Y-82801414D01*
X138050000Y-82801414D02*
X138092857Y-82844271D01*
X138092857Y-82844271D02*
X138135714Y-82929985D01*
X138135714Y-82929985D02*
X138135714Y-83015700D01*
X138135714Y-83015700D02*
X138092857Y-83144271D01*
X138092857Y-83144271D02*
X137578571Y-83658557D01*
X137578571Y-83658557D02*
X138135714Y-83658557D01*
X145759580Y-85666666D02*
X145807200Y-85714285D01*
X145807200Y-85714285D02*
X145854819Y-85857142D01*
X145854819Y-85857142D02*
X145854819Y-85952380D01*
X145854819Y-85952380D02*
X145807200Y-86095237D01*
X145807200Y-86095237D02*
X145711961Y-86190475D01*
X145711961Y-86190475D02*
X145616723Y-86238094D01*
X145616723Y-86238094D02*
X145426247Y-86285713D01*
X145426247Y-86285713D02*
X145283390Y-86285713D01*
X145283390Y-86285713D02*
X145092914Y-86238094D01*
X145092914Y-86238094D02*
X144997676Y-86190475D01*
X144997676Y-86190475D02*
X144902438Y-86095237D01*
X144902438Y-86095237D02*
X144854819Y-85952380D01*
X144854819Y-85952380D02*
X144854819Y-85857142D01*
X144854819Y-85857142D02*
X144902438Y-85714285D01*
X144902438Y-85714285D02*
X144950057Y-85666666D01*
X145854819Y-84714285D02*
X145854819Y-85285713D01*
X145854819Y-84999999D02*
X144854819Y-84999999D01*
X144854819Y-84999999D02*
X144997676Y-85095237D01*
X144997676Y-85095237D02*
X145092914Y-85190475D01*
X145092914Y-85190475D02*
X145140533Y-85285713D01*
X130354819Y-80642857D02*
X129878628Y-80976190D01*
X130354819Y-81214285D02*
X129354819Y-81214285D01*
X129354819Y-81214285D02*
X129354819Y-80833333D01*
X129354819Y-80833333D02*
X129402438Y-80738095D01*
X129402438Y-80738095D02*
X129450057Y-80690476D01*
X129450057Y-80690476D02*
X129545295Y-80642857D01*
X129545295Y-80642857D02*
X129688152Y-80642857D01*
X129688152Y-80642857D02*
X129783390Y-80690476D01*
X129783390Y-80690476D02*
X129831009Y-80738095D01*
X129831009Y-80738095D02*
X129878628Y-80833333D01*
X129878628Y-80833333D02*
X129878628Y-81214285D01*
X129450057Y-80261904D02*
X129402438Y-80214285D01*
X129402438Y-80214285D02*
X129354819Y-80119047D01*
X129354819Y-80119047D02*
X129354819Y-79880952D01*
X129354819Y-79880952D02*
X129402438Y-79785714D01*
X129402438Y-79785714D02*
X129450057Y-79738095D01*
X129450057Y-79738095D02*
X129545295Y-79690476D01*
X129545295Y-79690476D02*
X129640533Y-79690476D01*
X129640533Y-79690476D02*
X129783390Y-79738095D01*
X129783390Y-79738095D02*
X130354819Y-80309523D01*
X130354819Y-80309523D02*
X130354819Y-79690476D01*
X129688152Y-78833333D02*
X130354819Y-78833333D01*
X129307200Y-79071428D02*
X130021485Y-79309523D01*
X130021485Y-79309523D02*
X130021485Y-78690476D01*
X148233333Y-96454819D02*
X147900000Y-95978628D01*
X147661905Y-96454819D02*
X147661905Y-95454819D01*
X147661905Y-95454819D02*
X148042857Y-95454819D01*
X148042857Y-95454819D02*
X148138095Y-95502438D01*
X148138095Y-95502438D02*
X148185714Y-95550057D01*
X148185714Y-95550057D02*
X148233333Y-95645295D01*
X148233333Y-95645295D02*
X148233333Y-95788152D01*
X148233333Y-95788152D02*
X148185714Y-95883390D01*
X148185714Y-95883390D02*
X148138095Y-95931009D01*
X148138095Y-95931009D02*
X148042857Y-95978628D01*
X148042857Y-95978628D02*
X147661905Y-95978628D01*
X148709524Y-96454819D02*
X148900000Y-96454819D01*
X148900000Y-96454819D02*
X148995238Y-96407200D01*
X148995238Y-96407200D02*
X149042857Y-96359580D01*
X149042857Y-96359580D02*
X149138095Y-96216723D01*
X149138095Y-96216723D02*
X149185714Y-96026247D01*
X149185714Y-96026247D02*
X149185714Y-95645295D01*
X149185714Y-95645295D02*
X149138095Y-95550057D01*
X149138095Y-95550057D02*
X149090476Y-95502438D01*
X149090476Y-95502438D02*
X148995238Y-95454819D01*
X148995238Y-95454819D02*
X148804762Y-95454819D01*
X148804762Y-95454819D02*
X148709524Y-95502438D01*
X148709524Y-95502438D02*
X148661905Y-95550057D01*
X148661905Y-95550057D02*
X148614286Y-95645295D01*
X148614286Y-95645295D02*
X148614286Y-95883390D01*
X148614286Y-95883390D02*
X148661905Y-95978628D01*
X148661905Y-95978628D02*
X148709524Y-96026247D01*
X148709524Y-96026247D02*
X148804762Y-96073866D01*
X148804762Y-96073866D02*
X148995238Y-96073866D01*
X148995238Y-96073866D02*
X149090476Y-96026247D01*
X149090476Y-96026247D02*
X149138095Y-95978628D01*
X149138095Y-95978628D02*
X149185714Y-95883390D01*
X118121428Y-96408557D02*
X117821428Y-95979985D01*
X117607142Y-96408557D02*
X117607142Y-95508557D01*
X117607142Y-95508557D02*
X117949999Y-95508557D01*
X117949999Y-95508557D02*
X118035714Y-95551414D01*
X118035714Y-95551414D02*
X118078571Y-95594271D01*
X118078571Y-95594271D02*
X118121428Y-95679985D01*
X118121428Y-95679985D02*
X118121428Y-95808557D01*
X118121428Y-95808557D02*
X118078571Y-95894271D01*
X118078571Y-95894271D02*
X118035714Y-95937128D01*
X118035714Y-95937128D02*
X117949999Y-95979985D01*
X117949999Y-95979985D02*
X117607142Y-95979985D01*
X118464285Y-95594271D02*
X118507142Y-95551414D01*
X118507142Y-95551414D02*
X118592857Y-95508557D01*
X118592857Y-95508557D02*
X118807142Y-95508557D01*
X118807142Y-95508557D02*
X118892857Y-95551414D01*
X118892857Y-95551414D02*
X118935714Y-95594271D01*
X118935714Y-95594271D02*
X118978571Y-95679985D01*
X118978571Y-95679985D02*
X118978571Y-95765700D01*
X118978571Y-95765700D02*
X118935714Y-95894271D01*
X118935714Y-95894271D02*
X118421428Y-96408557D01*
X118421428Y-96408557D02*
X118978571Y-96408557D01*
X119535714Y-95508557D02*
X119621428Y-95508557D01*
X119621428Y-95508557D02*
X119707142Y-95551414D01*
X119707142Y-95551414D02*
X119750000Y-95594271D01*
X119750000Y-95594271D02*
X119792857Y-95679985D01*
X119792857Y-95679985D02*
X119835714Y-95851414D01*
X119835714Y-95851414D02*
X119835714Y-96065700D01*
X119835714Y-96065700D02*
X119792857Y-96237128D01*
X119792857Y-96237128D02*
X119750000Y-96322842D01*
X119750000Y-96322842D02*
X119707142Y-96365700D01*
X119707142Y-96365700D02*
X119621428Y-96408557D01*
X119621428Y-96408557D02*
X119535714Y-96408557D01*
X119535714Y-96408557D02*
X119450000Y-96365700D01*
X119450000Y-96365700D02*
X119407142Y-96322842D01*
X119407142Y-96322842D02*
X119364285Y-96237128D01*
X119364285Y-96237128D02*
X119321428Y-96065700D01*
X119321428Y-96065700D02*
X119321428Y-95851414D01*
X119321428Y-95851414D02*
X119364285Y-95679985D01*
X119364285Y-95679985D02*
X119407142Y-95594271D01*
X119407142Y-95594271D02*
X119450000Y-95551414D01*
X119450000Y-95551414D02*
X119535714Y-95508557D01*
X139757142Y-96454819D02*
X139423809Y-95978628D01*
X139185714Y-96454819D02*
X139185714Y-95454819D01*
X139185714Y-95454819D02*
X139566666Y-95454819D01*
X139566666Y-95454819D02*
X139661904Y-95502438D01*
X139661904Y-95502438D02*
X139709523Y-95550057D01*
X139709523Y-95550057D02*
X139757142Y-95645295D01*
X139757142Y-95645295D02*
X139757142Y-95788152D01*
X139757142Y-95788152D02*
X139709523Y-95883390D01*
X139709523Y-95883390D02*
X139661904Y-95931009D01*
X139661904Y-95931009D02*
X139566666Y-95978628D01*
X139566666Y-95978628D02*
X139185714Y-95978628D01*
X140709523Y-96454819D02*
X140138095Y-96454819D01*
X140423809Y-96454819D02*
X140423809Y-95454819D01*
X140423809Y-95454819D02*
X140328571Y-95597676D01*
X140328571Y-95597676D02*
X140233333Y-95692914D01*
X140233333Y-95692914D02*
X140138095Y-95740533D01*
X141090476Y-95550057D02*
X141138095Y-95502438D01*
X141138095Y-95502438D02*
X141233333Y-95454819D01*
X141233333Y-95454819D02*
X141471428Y-95454819D01*
X141471428Y-95454819D02*
X141566666Y-95502438D01*
X141566666Y-95502438D02*
X141614285Y-95550057D01*
X141614285Y-95550057D02*
X141661904Y-95645295D01*
X141661904Y-95645295D02*
X141661904Y-95740533D01*
X141661904Y-95740533D02*
X141614285Y-95883390D01*
X141614285Y-95883390D02*
X141042857Y-96454819D01*
X141042857Y-96454819D02*
X141661904Y-96454819D01*
X154233333Y-88859580D02*
X154185714Y-88907200D01*
X154185714Y-88907200D02*
X154042857Y-88954819D01*
X154042857Y-88954819D02*
X153947619Y-88954819D01*
X153947619Y-88954819D02*
X153804762Y-88907200D01*
X153804762Y-88907200D02*
X153709524Y-88811961D01*
X153709524Y-88811961D02*
X153661905Y-88716723D01*
X153661905Y-88716723D02*
X153614286Y-88526247D01*
X153614286Y-88526247D02*
X153614286Y-88383390D01*
X153614286Y-88383390D02*
X153661905Y-88192914D01*
X153661905Y-88192914D02*
X153709524Y-88097676D01*
X153709524Y-88097676D02*
X153804762Y-88002438D01*
X153804762Y-88002438D02*
X153947619Y-87954819D01*
X153947619Y-87954819D02*
X154042857Y-87954819D01*
X154042857Y-87954819D02*
X154185714Y-88002438D01*
X154185714Y-88002438D02*
X154233333Y-88050057D01*
X154566667Y-87954819D02*
X155233333Y-87954819D01*
X155233333Y-87954819D02*
X154804762Y-88954819D01*
X159233333Y-96454819D02*
X158900000Y-95978628D01*
X158661905Y-96454819D02*
X158661905Y-95454819D01*
X158661905Y-95454819D02*
X159042857Y-95454819D01*
X159042857Y-95454819D02*
X159138095Y-95502438D01*
X159138095Y-95502438D02*
X159185714Y-95550057D01*
X159185714Y-95550057D02*
X159233333Y-95645295D01*
X159233333Y-95645295D02*
X159233333Y-95788152D01*
X159233333Y-95788152D02*
X159185714Y-95883390D01*
X159185714Y-95883390D02*
X159138095Y-95931009D01*
X159138095Y-95931009D02*
X159042857Y-95978628D01*
X159042857Y-95978628D02*
X158661905Y-95978628D01*
X160138095Y-95454819D02*
X159661905Y-95454819D01*
X159661905Y-95454819D02*
X159614286Y-95931009D01*
X159614286Y-95931009D02*
X159661905Y-95883390D01*
X159661905Y-95883390D02*
X159757143Y-95835771D01*
X159757143Y-95835771D02*
X159995238Y-95835771D01*
X159995238Y-95835771D02*
X160090476Y-95883390D01*
X160090476Y-95883390D02*
X160138095Y-95931009D01*
X160138095Y-95931009D02*
X160185714Y-96026247D01*
X160185714Y-96026247D02*
X160185714Y-96264342D01*
X160185714Y-96264342D02*
X160138095Y-96359580D01*
X160138095Y-96359580D02*
X160090476Y-96407200D01*
X160090476Y-96407200D02*
X159995238Y-96454819D01*
X159995238Y-96454819D02*
X159757143Y-96454819D01*
X159757143Y-96454819D02*
X159661905Y-96407200D01*
X159661905Y-96407200D02*
X159614286Y-96359580D01*
X153733333Y-96454819D02*
X153400000Y-95978628D01*
X153161905Y-96454819D02*
X153161905Y-95454819D01*
X153161905Y-95454819D02*
X153542857Y-95454819D01*
X153542857Y-95454819D02*
X153638095Y-95502438D01*
X153638095Y-95502438D02*
X153685714Y-95550057D01*
X153685714Y-95550057D02*
X153733333Y-95645295D01*
X153733333Y-95645295D02*
X153733333Y-95788152D01*
X153733333Y-95788152D02*
X153685714Y-95883390D01*
X153685714Y-95883390D02*
X153638095Y-95931009D01*
X153638095Y-95931009D02*
X153542857Y-95978628D01*
X153542857Y-95978628D02*
X153161905Y-95978628D01*
X154066667Y-95454819D02*
X154733333Y-95454819D01*
X154733333Y-95454819D02*
X154304762Y-96454819D01*
X142821428Y-96408557D02*
X142521428Y-95979985D01*
X142307142Y-96408557D02*
X142307142Y-95508557D01*
X142307142Y-95508557D02*
X142649999Y-95508557D01*
X142649999Y-95508557D02*
X142735714Y-95551414D01*
X142735714Y-95551414D02*
X142778571Y-95594271D01*
X142778571Y-95594271D02*
X142821428Y-95679985D01*
X142821428Y-95679985D02*
X142821428Y-95808557D01*
X142821428Y-95808557D02*
X142778571Y-95894271D01*
X142778571Y-95894271D02*
X142735714Y-95937128D01*
X142735714Y-95937128D02*
X142649999Y-95979985D01*
X142649999Y-95979985D02*
X142307142Y-95979985D01*
X143678571Y-96408557D02*
X143164285Y-96408557D01*
X143421428Y-96408557D02*
X143421428Y-95508557D01*
X143421428Y-95508557D02*
X143335714Y-95637128D01*
X143335714Y-95637128D02*
X143249999Y-95722842D01*
X143249999Y-95722842D02*
X143164285Y-95765700D01*
X144535714Y-96408557D02*
X144021428Y-96408557D01*
X144278571Y-96408557D02*
X144278571Y-95508557D01*
X144278571Y-95508557D02*
X144192857Y-95637128D01*
X144192857Y-95637128D02*
X144107142Y-95722842D01*
X144107142Y-95722842D02*
X144021428Y-95765700D01*
X145321428Y-96408557D02*
X145021428Y-95979985D01*
X144807142Y-96408557D02*
X144807142Y-95508557D01*
X144807142Y-95508557D02*
X145149999Y-95508557D01*
X145149999Y-95508557D02*
X145235714Y-95551414D01*
X145235714Y-95551414D02*
X145278571Y-95594271D01*
X145278571Y-95594271D02*
X145321428Y-95679985D01*
X145321428Y-95679985D02*
X145321428Y-95808557D01*
X145321428Y-95808557D02*
X145278571Y-95894271D01*
X145278571Y-95894271D02*
X145235714Y-95937128D01*
X145235714Y-95937128D02*
X145149999Y-95979985D01*
X145149999Y-95979985D02*
X144807142Y-95979985D01*
X146178571Y-96408557D02*
X145664285Y-96408557D01*
X145921428Y-96408557D02*
X145921428Y-95508557D01*
X145921428Y-95508557D02*
X145835714Y-95637128D01*
X145835714Y-95637128D02*
X145749999Y-95722842D01*
X145749999Y-95722842D02*
X145664285Y-95765700D01*
X146735714Y-95508557D02*
X146821428Y-95508557D01*
X146821428Y-95508557D02*
X146907142Y-95551414D01*
X146907142Y-95551414D02*
X146950000Y-95594271D01*
X146950000Y-95594271D02*
X146992857Y-95679985D01*
X146992857Y-95679985D02*
X147035714Y-95851414D01*
X147035714Y-95851414D02*
X147035714Y-96065700D01*
X147035714Y-96065700D02*
X146992857Y-96237128D01*
X146992857Y-96237128D02*
X146950000Y-96322842D01*
X146950000Y-96322842D02*
X146907142Y-96365700D01*
X146907142Y-96365700D02*
X146821428Y-96408557D01*
X146821428Y-96408557D02*
X146735714Y-96408557D01*
X146735714Y-96408557D02*
X146650000Y-96365700D01*
X146650000Y-96365700D02*
X146607142Y-96322842D01*
X146607142Y-96322842D02*
X146564285Y-96237128D01*
X146564285Y-96237128D02*
X146521428Y-96065700D01*
X146521428Y-96065700D02*
X146521428Y-95851414D01*
X146521428Y-95851414D02*
X146564285Y-95679985D01*
X146564285Y-95679985D02*
X146607142Y-95594271D01*
X146607142Y-95594271D02*
X146650000Y-95551414D01*
X146650000Y-95551414D02*
X146735714Y-95508557D01*
X130299364Y-85485646D02*
X130299364Y-84914218D01*
X131299364Y-85199932D02*
X130299364Y-85199932D01*
X131299364Y-84057075D02*
X131299364Y-84628503D01*
X131299364Y-84342789D02*
X130299364Y-84342789D01*
X130299364Y-84342789D02*
X130442221Y-84438027D01*
X130442221Y-84438027D02*
X130537459Y-84533265D01*
X130537459Y-84533265D02*
X130585078Y-84628503D01*
X147257142Y-75954819D02*
X146923809Y-75478628D01*
X146685714Y-75954819D02*
X146685714Y-74954819D01*
X146685714Y-74954819D02*
X147066666Y-74954819D01*
X147066666Y-74954819D02*
X147161904Y-75002438D01*
X147161904Y-75002438D02*
X147209523Y-75050057D01*
X147209523Y-75050057D02*
X147257142Y-75145295D01*
X147257142Y-75145295D02*
X147257142Y-75288152D01*
X147257142Y-75288152D02*
X147209523Y-75383390D01*
X147209523Y-75383390D02*
X147161904Y-75431009D01*
X147161904Y-75431009D02*
X147066666Y-75478628D01*
X147066666Y-75478628D02*
X146685714Y-75478628D01*
X147638095Y-75050057D02*
X147685714Y-75002438D01*
X147685714Y-75002438D02*
X147780952Y-74954819D01*
X147780952Y-74954819D02*
X148019047Y-74954819D01*
X148019047Y-74954819D02*
X148114285Y-75002438D01*
X148114285Y-75002438D02*
X148161904Y-75050057D01*
X148161904Y-75050057D02*
X148209523Y-75145295D01*
X148209523Y-75145295D02*
X148209523Y-75240533D01*
X148209523Y-75240533D02*
X148161904Y-75383390D01*
X148161904Y-75383390D02*
X147590476Y-75954819D01*
X147590476Y-75954819D02*
X148209523Y-75954819D01*
X149114285Y-74954819D02*
X148638095Y-74954819D01*
X148638095Y-74954819D02*
X148590476Y-75431009D01*
X148590476Y-75431009D02*
X148638095Y-75383390D01*
X148638095Y-75383390D02*
X148733333Y-75335771D01*
X148733333Y-75335771D02*
X148971428Y-75335771D01*
X148971428Y-75335771D02*
X149066666Y-75383390D01*
X149066666Y-75383390D02*
X149114285Y-75431009D01*
X149114285Y-75431009D02*
X149161904Y-75526247D01*
X149161904Y-75526247D02*
X149161904Y-75764342D01*
X149161904Y-75764342D02*
X149114285Y-75859580D01*
X149114285Y-75859580D02*
X149066666Y-75907200D01*
X149066666Y-75907200D02*
X148971428Y-75954819D01*
X148971428Y-75954819D02*
X148733333Y-75954819D01*
X148733333Y-75954819D02*
X148638095Y-75907200D01*
X148638095Y-75907200D02*
X148590476Y-75859580D01*
X150454819Y-80261904D02*
X150454819Y-79690476D01*
X151454819Y-79976190D02*
X150454819Y-79976190D01*
X150550057Y-79404761D02*
X150502438Y-79357142D01*
X150502438Y-79357142D02*
X150454819Y-79261904D01*
X150454819Y-79261904D02*
X150454819Y-79023809D01*
X150454819Y-79023809D02*
X150502438Y-78928571D01*
X150502438Y-78928571D02*
X150550057Y-78880952D01*
X150550057Y-78880952D02*
X150645295Y-78833333D01*
X150645295Y-78833333D02*
X150740533Y-78833333D01*
X150740533Y-78833333D02*
X150883390Y-78880952D01*
X150883390Y-78880952D02*
X151454819Y-79452380D01*
X151454819Y-79452380D02*
X151454819Y-78833333D01*
X123321428Y-96408557D02*
X123021428Y-95979985D01*
X122807142Y-96408557D02*
X122807142Y-95508557D01*
X122807142Y-95508557D02*
X123149999Y-95508557D01*
X123149999Y-95508557D02*
X123235714Y-95551414D01*
X123235714Y-95551414D02*
X123278571Y-95594271D01*
X123278571Y-95594271D02*
X123321428Y-95679985D01*
X123321428Y-95679985D02*
X123321428Y-95808557D01*
X123321428Y-95808557D02*
X123278571Y-95894271D01*
X123278571Y-95894271D02*
X123235714Y-95937128D01*
X123235714Y-95937128D02*
X123149999Y-95979985D01*
X123149999Y-95979985D02*
X122807142Y-95979985D01*
X124178571Y-96408557D02*
X123664285Y-96408557D01*
X123921428Y-96408557D02*
X123921428Y-95508557D01*
X123921428Y-95508557D02*
X123835714Y-95637128D01*
X123835714Y-95637128D02*
X123749999Y-95722842D01*
X123749999Y-95722842D02*
X123664285Y-95765700D01*
X124692857Y-95894271D02*
X124607142Y-95851414D01*
X124607142Y-95851414D02*
X124564285Y-95808557D01*
X124564285Y-95808557D02*
X124521428Y-95722842D01*
X124521428Y-95722842D02*
X124521428Y-95679985D01*
X124521428Y-95679985D02*
X124564285Y-95594271D01*
X124564285Y-95594271D02*
X124607142Y-95551414D01*
X124607142Y-95551414D02*
X124692857Y-95508557D01*
X124692857Y-95508557D02*
X124864285Y-95508557D01*
X124864285Y-95508557D02*
X124950000Y-95551414D01*
X124950000Y-95551414D02*
X124992857Y-95594271D01*
X124992857Y-95594271D02*
X125035714Y-95679985D01*
X125035714Y-95679985D02*
X125035714Y-95722842D01*
X125035714Y-95722842D02*
X124992857Y-95808557D01*
X124992857Y-95808557D02*
X124950000Y-95851414D01*
X124950000Y-95851414D02*
X124864285Y-95894271D01*
X124864285Y-95894271D02*
X124692857Y-95894271D01*
X124692857Y-95894271D02*
X124607142Y-95937128D01*
X124607142Y-95937128D02*
X124564285Y-95979985D01*
X124564285Y-95979985D02*
X124521428Y-96065700D01*
X124521428Y-96065700D02*
X124521428Y-96237128D01*
X124521428Y-96237128D02*
X124564285Y-96322842D01*
X124564285Y-96322842D02*
X124607142Y-96365700D01*
X124607142Y-96365700D02*
X124692857Y-96408557D01*
X124692857Y-96408557D02*
X124864285Y-96408557D01*
X124864285Y-96408557D02*
X124950000Y-96365700D01*
X124950000Y-96365700D02*
X124992857Y-96322842D01*
X124992857Y-96322842D02*
X125035714Y-96237128D01*
X125035714Y-96237128D02*
X125035714Y-96065700D01*
X125035714Y-96065700D02*
X124992857Y-95979985D01*
X124992857Y-95979985D02*
X124950000Y-95937128D01*
X124950000Y-95937128D02*
X124864285Y-95894271D01*
X151054819Y-86442857D02*
X150578628Y-86776190D01*
X151054819Y-87014285D02*
X150054819Y-87014285D01*
X150054819Y-87014285D02*
X150054819Y-86633333D01*
X150054819Y-86633333D02*
X150102438Y-86538095D01*
X150102438Y-86538095D02*
X150150057Y-86490476D01*
X150150057Y-86490476D02*
X150245295Y-86442857D01*
X150245295Y-86442857D02*
X150388152Y-86442857D01*
X150388152Y-86442857D02*
X150483390Y-86490476D01*
X150483390Y-86490476D02*
X150531009Y-86538095D01*
X150531009Y-86538095D02*
X150578628Y-86633333D01*
X150578628Y-86633333D02*
X150578628Y-87014285D01*
X150150057Y-86061904D02*
X150102438Y-86014285D01*
X150102438Y-86014285D02*
X150054819Y-85919047D01*
X150054819Y-85919047D02*
X150054819Y-85680952D01*
X150054819Y-85680952D02*
X150102438Y-85585714D01*
X150102438Y-85585714D02*
X150150057Y-85538095D01*
X150150057Y-85538095D02*
X150245295Y-85490476D01*
X150245295Y-85490476D02*
X150340533Y-85490476D01*
X150340533Y-85490476D02*
X150483390Y-85538095D01*
X150483390Y-85538095D02*
X151054819Y-86109523D01*
X151054819Y-86109523D02*
X151054819Y-85490476D01*
X151054819Y-85014285D02*
X151054819Y-84823809D01*
X151054819Y-84823809D02*
X151007200Y-84728571D01*
X151007200Y-84728571D02*
X150959580Y-84680952D01*
X150959580Y-84680952D02*
X150816723Y-84585714D01*
X150816723Y-84585714D02*
X150626247Y-84538095D01*
X150626247Y-84538095D02*
X150245295Y-84538095D01*
X150245295Y-84538095D02*
X150150057Y-84585714D01*
X150150057Y-84585714D02*
X150102438Y-84633333D01*
X150102438Y-84633333D02*
X150054819Y-84728571D01*
X150054819Y-84728571D02*
X150054819Y-84919047D01*
X150054819Y-84919047D02*
X150102438Y-85014285D01*
X150102438Y-85014285D02*
X150150057Y-85061904D01*
X150150057Y-85061904D02*
X150245295Y-85109523D01*
X150245295Y-85109523D02*
X150483390Y-85109523D01*
X150483390Y-85109523D02*
X150578628Y-85061904D01*
X150578628Y-85061904D02*
X150626247Y-85014285D01*
X150626247Y-85014285D02*
X150673866Y-84919047D01*
X150673866Y-84919047D02*
X150673866Y-84728571D01*
X150673866Y-84728571D02*
X150626247Y-84633333D01*
X150626247Y-84633333D02*
X150578628Y-84585714D01*
X150578628Y-84585714D02*
X150483390Y-84538095D01*
X132257142Y-75720075D02*
X131923809Y-75243884D01*
X131685714Y-75720075D02*
X131685714Y-74720075D01*
X131685714Y-74720075D02*
X132066666Y-74720075D01*
X132066666Y-74720075D02*
X132161904Y-74767694D01*
X132161904Y-74767694D02*
X132209523Y-74815313D01*
X132209523Y-74815313D02*
X132257142Y-74910551D01*
X132257142Y-74910551D02*
X132257142Y-75053408D01*
X132257142Y-75053408D02*
X132209523Y-75148646D01*
X132209523Y-75148646D02*
X132161904Y-75196265D01*
X132161904Y-75196265D02*
X132066666Y-75243884D01*
X132066666Y-75243884D02*
X131685714Y-75243884D01*
X132638095Y-74815313D02*
X132685714Y-74767694D01*
X132685714Y-74767694D02*
X132780952Y-74720075D01*
X132780952Y-74720075D02*
X133019047Y-74720075D01*
X133019047Y-74720075D02*
X133114285Y-74767694D01*
X133114285Y-74767694D02*
X133161904Y-74815313D01*
X133161904Y-74815313D02*
X133209523Y-74910551D01*
X133209523Y-74910551D02*
X133209523Y-75005789D01*
X133209523Y-75005789D02*
X133161904Y-75148646D01*
X133161904Y-75148646D02*
X132590476Y-75720075D01*
X132590476Y-75720075D02*
X133209523Y-75720075D01*
X134066666Y-74720075D02*
X133876190Y-74720075D01*
X133876190Y-74720075D02*
X133780952Y-74767694D01*
X133780952Y-74767694D02*
X133733333Y-74815313D01*
X133733333Y-74815313D02*
X133638095Y-74958170D01*
X133638095Y-74958170D02*
X133590476Y-75148646D01*
X133590476Y-75148646D02*
X133590476Y-75529598D01*
X133590476Y-75529598D02*
X133638095Y-75624836D01*
X133638095Y-75624836D02*
X133685714Y-75672456D01*
X133685714Y-75672456D02*
X133780952Y-75720075D01*
X133780952Y-75720075D02*
X133971428Y-75720075D01*
X133971428Y-75720075D02*
X134066666Y-75672456D01*
X134066666Y-75672456D02*
X134114285Y-75624836D01*
X134114285Y-75624836D02*
X134161904Y-75529598D01*
X134161904Y-75529598D02*
X134161904Y-75291503D01*
X134161904Y-75291503D02*
X134114285Y-75196265D01*
X134114285Y-75196265D02*
X134066666Y-75148646D01*
X134066666Y-75148646D02*
X133971428Y-75101027D01*
X133971428Y-75101027D02*
X133780952Y-75101027D01*
X133780952Y-75101027D02*
X133685714Y-75148646D01*
X133685714Y-75148646D02*
X133638095Y-75196265D01*
X133638095Y-75196265D02*
X133590476Y-75291503D01*
X138190540Y-78687889D02*
X138142921Y-78735509D01*
X138142921Y-78735509D02*
X138000064Y-78783128D01*
X138000064Y-78783128D02*
X137904826Y-78783128D01*
X137904826Y-78783128D02*
X137761969Y-78735509D01*
X137761969Y-78735509D02*
X137666731Y-78640270D01*
X137666731Y-78640270D02*
X137619112Y-78545032D01*
X137619112Y-78545032D02*
X137571493Y-78354556D01*
X137571493Y-78354556D02*
X137571493Y-78211699D01*
X137571493Y-78211699D02*
X137619112Y-78021223D01*
X137619112Y-78021223D02*
X137666731Y-77925985D01*
X137666731Y-77925985D02*
X137761969Y-77830747D01*
X137761969Y-77830747D02*
X137904826Y-77783128D01*
X137904826Y-77783128D02*
X138000064Y-77783128D01*
X138000064Y-77783128D02*
X138142921Y-77830747D01*
X138142921Y-77830747D02*
X138190540Y-77878366D01*
X138523874Y-77783128D02*
X139142921Y-77783128D01*
X139142921Y-77783128D02*
X138809588Y-78164080D01*
X138809588Y-78164080D02*
X138952445Y-78164080D01*
X138952445Y-78164080D02*
X139047683Y-78211699D01*
X139047683Y-78211699D02*
X139095302Y-78259318D01*
X139095302Y-78259318D02*
X139142921Y-78354556D01*
X139142921Y-78354556D02*
X139142921Y-78592651D01*
X139142921Y-78592651D02*
X139095302Y-78687889D01*
X139095302Y-78687889D02*
X139047683Y-78735509D01*
X139047683Y-78735509D02*
X138952445Y-78783128D01*
X138952445Y-78783128D02*
X138666731Y-78783128D01*
X138666731Y-78783128D02*
X138571493Y-78735509D01*
X138571493Y-78735509D02*
X138523874Y-78687889D01*
X131821428Y-96408557D02*
X131521428Y-95979985D01*
X131307142Y-96408557D02*
X131307142Y-95508557D01*
X131307142Y-95508557D02*
X131649999Y-95508557D01*
X131649999Y-95508557D02*
X131735714Y-95551414D01*
X131735714Y-95551414D02*
X131778571Y-95594271D01*
X131778571Y-95594271D02*
X131821428Y-95679985D01*
X131821428Y-95679985D02*
X131821428Y-95808557D01*
X131821428Y-95808557D02*
X131778571Y-95894271D01*
X131778571Y-95894271D02*
X131735714Y-95937128D01*
X131735714Y-95937128D02*
X131649999Y-95979985D01*
X131649999Y-95979985D02*
X131307142Y-95979985D01*
X132678571Y-96408557D02*
X132164285Y-96408557D01*
X132421428Y-96408557D02*
X132421428Y-95508557D01*
X132421428Y-95508557D02*
X132335714Y-95637128D01*
X132335714Y-95637128D02*
X132249999Y-95722842D01*
X132249999Y-95722842D02*
X132164285Y-95765700D01*
X133492857Y-95508557D02*
X133064285Y-95508557D01*
X133064285Y-95508557D02*
X133021428Y-95937128D01*
X133021428Y-95937128D02*
X133064285Y-95894271D01*
X133064285Y-95894271D02*
X133150000Y-95851414D01*
X133150000Y-95851414D02*
X133364285Y-95851414D01*
X133364285Y-95851414D02*
X133450000Y-95894271D01*
X133450000Y-95894271D02*
X133492857Y-95937128D01*
X133492857Y-95937128D02*
X133535714Y-96022842D01*
X133535714Y-96022842D02*
X133535714Y-96237128D01*
X133535714Y-96237128D02*
X133492857Y-96322842D01*
X133492857Y-96322842D02*
X133450000Y-96365700D01*
X133450000Y-96365700D02*
X133364285Y-96408557D01*
X133364285Y-96408557D02*
X133150000Y-96408557D01*
X133150000Y-96408557D02*
X133064285Y-96365700D01*
X133064285Y-96365700D02*
X133021428Y-96322842D01*
X162233333Y-96454819D02*
X161900000Y-95978628D01*
X161661905Y-96454819D02*
X161661905Y-95454819D01*
X161661905Y-95454819D02*
X162042857Y-95454819D01*
X162042857Y-95454819D02*
X162138095Y-95502438D01*
X162138095Y-95502438D02*
X162185714Y-95550057D01*
X162185714Y-95550057D02*
X162233333Y-95645295D01*
X162233333Y-95645295D02*
X162233333Y-95788152D01*
X162233333Y-95788152D02*
X162185714Y-95883390D01*
X162185714Y-95883390D02*
X162138095Y-95931009D01*
X162138095Y-95931009D02*
X162042857Y-95978628D01*
X162042857Y-95978628D02*
X161661905Y-95978628D01*
X163090476Y-95788152D02*
X163090476Y-96454819D01*
X162852381Y-95407200D02*
X162614286Y-96121485D01*
X162614286Y-96121485D02*
X163233333Y-96121485D01*
X136083333Y-78359580D02*
X136035714Y-78407200D01*
X136035714Y-78407200D02*
X135892857Y-78454819D01*
X135892857Y-78454819D02*
X135797619Y-78454819D01*
X135797619Y-78454819D02*
X135654762Y-78407200D01*
X135654762Y-78407200D02*
X135559524Y-78311961D01*
X135559524Y-78311961D02*
X135511905Y-78216723D01*
X135511905Y-78216723D02*
X135464286Y-78026247D01*
X135464286Y-78026247D02*
X135464286Y-77883390D01*
X135464286Y-77883390D02*
X135511905Y-77692914D01*
X135511905Y-77692914D02*
X135559524Y-77597676D01*
X135559524Y-77597676D02*
X135654762Y-77502438D01*
X135654762Y-77502438D02*
X135797619Y-77454819D01*
X135797619Y-77454819D02*
X135892857Y-77454819D01*
X135892857Y-77454819D02*
X136035714Y-77502438D01*
X136035714Y-77502438D02*
X136083333Y-77550057D01*
X136940476Y-77788152D02*
X136940476Y-78454819D01*
X136702381Y-77407200D02*
X136464286Y-78121485D01*
X136464286Y-78121485D02*
X137083333Y-78121485D01*
X115055043Y-87960193D02*
X115197900Y-88007812D01*
X115197900Y-88007812D02*
X115245519Y-88055431D01*
X115245519Y-88055431D02*
X115293138Y-88150669D01*
X115293138Y-88150669D02*
X115293138Y-88293526D01*
X115293138Y-88293526D02*
X115245519Y-88388764D01*
X115245519Y-88388764D02*
X115197900Y-88436384D01*
X115197900Y-88436384D02*
X115102662Y-88484003D01*
X115102662Y-88484003D02*
X114721710Y-88484003D01*
X114721710Y-88484003D02*
X114721710Y-87484003D01*
X114721710Y-87484003D02*
X115055043Y-87484003D01*
X115055043Y-87484003D02*
X115150281Y-87531622D01*
X115150281Y-87531622D02*
X115197900Y-87579241D01*
X115197900Y-87579241D02*
X115245519Y-87674479D01*
X115245519Y-87674479D02*
X115245519Y-87769717D01*
X115245519Y-87769717D02*
X115197900Y-87864955D01*
X115197900Y-87864955D02*
X115150281Y-87912574D01*
X115150281Y-87912574D02*
X115055043Y-87960193D01*
X115055043Y-87960193D02*
X114721710Y-87960193D01*
X115578853Y-87484003D02*
X116150281Y-87484003D01*
X115864567Y-88484003D02*
X115864567Y-87484003D01*
X117007424Y-88484003D02*
X116435996Y-88484003D01*
X116721710Y-88484003D02*
X116721710Y-87484003D01*
X116721710Y-87484003D02*
X116626472Y-87626860D01*
X116626472Y-87626860D02*
X116531234Y-87722098D01*
X116531234Y-87722098D02*
X116435996Y-87769717D01*
X169069104Y-92952380D02*
X169069104Y-92476190D01*
X169354819Y-93047618D02*
X168354819Y-92714285D01*
X168354819Y-92714285D02*
X169354819Y-92380952D01*
X168688152Y-91619047D02*
X169354819Y-91619047D01*
X168688152Y-92047618D02*
X169211961Y-92047618D01*
X169211961Y-92047618D02*
X169307200Y-91999999D01*
X169307200Y-91999999D02*
X169354819Y-91904761D01*
X169354819Y-91904761D02*
X169354819Y-91761904D01*
X169354819Y-91761904D02*
X169307200Y-91666666D01*
X169307200Y-91666666D02*
X169259580Y-91619047D01*
X169354819Y-90714285D02*
X168354819Y-90714285D01*
X169307200Y-90714285D02*
X169354819Y-90809523D01*
X169354819Y-90809523D02*
X169354819Y-90999999D01*
X169354819Y-90999999D02*
X169307200Y-91095237D01*
X169307200Y-91095237D02*
X169259580Y-91142856D01*
X169259580Y-91142856D02*
X169164342Y-91190475D01*
X169164342Y-91190475D02*
X168878628Y-91190475D01*
X168878628Y-91190475D02*
X168783390Y-91142856D01*
X168783390Y-91142856D02*
X168735771Y-91095237D01*
X168735771Y-91095237D02*
X168688152Y-90999999D01*
X168688152Y-90999999D02*
X168688152Y-90809523D01*
X168688152Y-90809523D02*
X168735771Y-90714285D01*
X169354819Y-90238094D02*
X168688152Y-90238094D01*
X168354819Y-90238094D02*
X168402438Y-90285713D01*
X168402438Y-90285713D02*
X168450057Y-90238094D01*
X168450057Y-90238094D02*
X168402438Y-90190475D01*
X168402438Y-90190475D02*
X168354819Y-90238094D01*
X168354819Y-90238094D02*
X168450057Y-90238094D01*
X169354819Y-89619047D02*
X169307200Y-89714285D01*
X169307200Y-89714285D02*
X169259580Y-89761904D01*
X169259580Y-89761904D02*
X169164342Y-89809523D01*
X169164342Y-89809523D02*
X168878628Y-89809523D01*
X168878628Y-89809523D02*
X168783390Y-89761904D01*
X168783390Y-89761904D02*
X168735771Y-89714285D01*
X168735771Y-89714285D02*
X168688152Y-89619047D01*
X168688152Y-89619047D02*
X168688152Y-89476190D01*
X168688152Y-89476190D02*
X168735771Y-89380952D01*
X168735771Y-89380952D02*
X168783390Y-89333333D01*
X168783390Y-89333333D02*
X168878628Y-89285714D01*
X168878628Y-89285714D02*
X169164342Y-89285714D01*
X169164342Y-89285714D02*
X169259580Y-89333333D01*
X169259580Y-89333333D02*
X169307200Y-89380952D01*
X169307200Y-89380952D02*
X169354819Y-89476190D01*
X169354819Y-89476190D02*
X169354819Y-89619047D01*
X169450057Y-89095238D02*
X169450057Y-88333333D01*
X168354819Y-87904761D02*
X168354819Y-87714285D01*
X168354819Y-87714285D02*
X168402438Y-87619047D01*
X168402438Y-87619047D02*
X168497676Y-87523809D01*
X168497676Y-87523809D02*
X168688152Y-87476190D01*
X168688152Y-87476190D02*
X169021485Y-87476190D01*
X169021485Y-87476190D02*
X169211961Y-87523809D01*
X169211961Y-87523809D02*
X169307200Y-87619047D01*
X169307200Y-87619047D02*
X169354819Y-87714285D01*
X169354819Y-87714285D02*
X169354819Y-87904761D01*
X169354819Y-87904761D02*
X169307200Y-87999999D01*
X169307200Y-87999999D02*
X169211961Y-88095237D01*
X169211961Y-88095237D02*
X169021485Y-88142856D01*
X169021485Y-88142856D02*
X168688152Y-88142856D01*
X168688152Y-88142856D02*
X168497676Y-88095237D01*
X168497676Y-88095237D02*
X168402438Y-87999999D01*
X168402438Y-87999999D02*
X168354819Y-87904761D01*
X168688152Y-86619047D02*
X169354819Y-86619047D01*
X168688152Y-87047618D02*
X169211961Y-87047618D01*
X169211961Y-87047618D02*
X169307200Y-86999999D01*
X169307200Y-86999999D02*
X169354819Y-86904761D01*
X169354819Y-86904761D02*
X169354819Y-86761904D01*
X169354819Y-86761904D02*
X169307200Y-86666666D01*
X169307200Y-86666666D02*
X169259580Y-86619047D01*
X168688152Y-86285713D02*
X168688152Y-85904761D01*
X168354819Y-86142856D02*
X169211961Y-86142856D01*
X169211961Y-86142856D02*
X169307200Y-86095237D01*
X169307200Y-86095237D02*
X169354819Y-85999999D01*
X169354819Y-85999999D02*
X169354819Y-85904761D01*
X169354819Y-85047618D02*
X169354819Y-85619046D01*
X169354819Y-85333332D02*
X168354819Y-85333332D01*
X168354819Y-85333332D02*
X168497676Y-85428570D01*
X168497676Y-85428570D02*
X168592914Y-85523808D01*
X168592914Y-85523808D02*
X168640533Y-85619046D01*
%TO.C,C5*%
D11*
X131562500Y-87372280D02*
X132350000Y-87372280D01*
X131956250Y-86978530D02*
X131956250Y-87766030D01*
X132590000Y-86874217D02*
X132590000Y-88159780D01*
X132590000Y-86874217D02*
X133654437Y-85809780D01*
X132590000Y-91565343D02*
X132590000Y-90279780D01*
X132590000Y-91565343D02*
X133654437Y-92629780D01*
X133654437Y-85809780D02*
X139410000Y-85809780D01*
X133654437Y-92629780D02*
X139410000Y-92629780D01*
X139410000Y-85809780D02*
X139410000Y-88159780D01*
X139410000Y-92629780D02*
X139410000Y-90279780D01*
%TO.C,R1*%
X161672936Y-92590000D02*
X163127064Y-92590000D01*
X161672936Y-94410000D02*
X163127064Y-94410000D01*
%TO.C,D1*%
X155790000Y-80250000D02*
X155790000Y-84660000D01*
X155790000Y-84660000D02*
X158010000Y-84660000D01*
X158010000Y-84660000D02*
X158010000Y-80250000D01*
%TO.C,R28*%
X153990000Y-92727064D02*
X153990000Y-91272936D01*
X155810000Y-92727064D02*
X155810000Y-91272936D01*
%TO.C,C2*%
X140165000Y-80761252D02*
X140165000Y-80238748D01*
X141635000Y-80761252D02*
X141635000Y-80238748D01*
%TO.C,R30*%
X164522936Y-84090000D02*
X165977064Y-84090000D01*
X164522936Y-85910000D02*
X165977064Y-85910000D01*
%TO.C,R2*%
X166891000Y-98292380D02*
X166891000Y-99746508D01*
X168711000Y-98292380D02*
X168711000Y-99746508D01*
%TO.C,R6*%
X155964474Y-98295158D02*
X155964474Y-99749286D01*
X157784474Y-98295158D02*
X157784474Y-99749286D01*
%TO.C,SW2*%
X117530000Y-85480000D02*
X118900000Y-85480000D01*
X117530000Y-86850000D02*
X117530000Y-85480000D01*
X119730000Y-85730000D02*
X127070000Y-85730000D01*
X119730000Y-86260000D02*
X119730000Y-85730000D01*
X119730000Y-87660000D02*
X119730000Y-88800000D01*
X119730000Y-90200000D02*
X119730000Y-91340000D01*
X119730000Y-92740000D02*
X119730000Y-93270000D01*
X119730000Y-93270000D02*
X127070000Y-93270000D01*
X127070000Y-85730000D02*
X127070000Y-86260000D01*
X127070000Y-87660000D02*
X127070000Y-91340000D01*
X127070000Y-93270000D02*
X127070000Y-92740000D01*
%TO.C,U1*%
X144340000Y-87940000D02*
X148460000Y-87940000D01*
X144340000Y-88035000D02*
X144340000Y-87940000D01*
X144340000Y-93060000D02*
X144340000Y-92965000D01*
X148460000Y-87940000D02*
X148460000Y-88035000D01*
X148460000Y-92965000D02*
X148460000Y-93060000D01*
X148460000Y-93060000D02*
X144340000Y-93060000D01*
X149240000Y-93300000D02*
X148760000Y-93300000D01*
X149000000Y-92970000D01*
X149240000Y-93300000D01*
G36*
X149240000Y-93300000D02*
G01*
X148760000Y-93300000D01*
X149000000Y-92970000D01*
X149240000Y-93300000D01*
G37*
%TO.C,R8*%
X150501211Y-98297936D02*
X150501211Y-99752064D01*
X152321211Y-98297936D02*
X152321211Y-99752064D01*
%TO.C,R14*%
X134111421Y-98300714D02*
X134111421Y-99754842D01*
X135931421Y-98300714D02*
X135931421Y-99754842D01*
%TO.C,R16*%
X128648158Y-98284047D02*
X128648158Y-99738175D01*
X130468158Y-98284047D02*
X130468158Y-99738175D01*
%TO.C,R17*%
X125916526Y-98289603D02*
X125916526Y-99743731D01*
X127736526Y-98289603D02*
X127736526Y-99743731D01*
%TO.C,R3*%
X164159368Y-98286825D02*
X164159368Y-99740953D01*
X165979368Y-98286825D02*
X165979368Y-99740953D01*
%TO.C,R21*%
X148627064Y-82590000D02*
X147172936Y-82590000D01*
X148627064Y-84410000D02*
X147172936Y-84410000D01*
%TO.C,SW1*%
X117530000Y-76980000D02*
X118900000Y-76980000D01*
X117530000Y-78350000D02*
X117530000Y-76980000D01*
X119730000Y-77230000D02*
X127070000Y-77230000D01*
X119730000Y-77760000D02*
X119730000Y-77230000D01*
X119730000Y-79160000D02*
X119730000Y-80300000D01*
X119730000Y-81700000D02*
X119730000Y-82840000D01*
X119730000Y-84240000D02*
X119730000Y-84770000D01*
X119730000Y-84770000D02*
X127070000Y-84770000D01*
X127070000Y-77230000D02*
X127070000Y-77760000D01*
X127070000Y-79160000D02*
X127070000Y-82840000D01*
X127070000Y-84770000D02*
X127070000Y-84240000D01*
%TO.C,R27*%
X147172936Y-79590000D02*
X148627064Y-79590000D01*
X147172936Y-81410000D02*
X148627064Y-81410000D01*
%TO.C,R13*%
X136843053Y-98281269D02*
X136843053Y-99735397D01*
X138663053Y-98281269D02*
X138663053Y-99735397D01*
%TO.C,C6*%
X151665000Y-91238748D02*
X151665000Y-91761252D01*
X153135000Y-91238748D02*
X153135000Y-91761252D01*
%TO.C,R19*%
X120453263Y-98322936D02*
X120453263Y-99777064D01*
X122273263Y-98322936D02*
X122273263Y-99777064D01*
%TO.C,R31*%
X114990000Y-99727064D02*
X114990000Y-98272936D01*
X116810000Y-99727064D02*
X116810000Y-98272936D01*
%TO.C,R23*%
X139990000Y-84272936D02*
X139990000Y-85727064D01*
X141810000Y-84272936D02*
X141810000Y-85727064D01*
%TO.C,R22*%
X133873516Y-83813217D02*
X133873516Y-82359089D01*
X135693516Y-83813217D02*
X135693516Y-82359089D01*
%TO.C,C1*%
X143165000Y-84238748D02*
X143165000Y-84761252D01*
X144635000Y-84238748D02*
X144635000Y-84761252D01*
%TO.C,R24*%
X133627064Y-78590000D02*
X132172936Y-78590000D01*
X133627064Y-80410000D02*
X132172936Y-80410000D01*
%TO.C,R9*%
X147769579Y-98272936D02*
X147769579Y-99727064D01*
X149589579Y-98272936D02*
X149589579Y-99727064D01*
%TO.C,R20*%
X117721632Y-98275714D02*
X117721632Y-99729842D01*
X119541632Y-98275714D02*
X119541632Y-99729842D01*
%TO.C,R12*%
X139574684Y-98278492D02*
X139574684Y-99732620D01*
X141394684Y-98278492D02*
X141394684Y-99732620D01*
%TO.C,C7*%
X157138748Y-87265000D02*
X157661252Y-87265000D01*
X157138748Y-88735000D02*
X157661252Y-88735000D01*
%TO.C,R5*%
X158696105Y-98311825D02*
X158696105Y-99765953D01*
X160516105Y-98311825D02*
X160516105Y-99765953D01*
%TO.C,R7*%
X153232842Y-98309047D02*
X153232842Y-99763175D01*
X155052842Y-98309047D02*
X155052842Y-99763175D01*
%TO.C,R11*%
X142306316Y-98306269D02*
X142306316Y-99760397D01*
X144126316Y-98306269D02*
X144126316Y-99760397D01*
%TO.C,R10*%
X145037947Y-98314603D02*
X145037947Y-99768731D01*
X146857947Y-98314603D02*
X146857947Y-99768731D01*
%TO.C,T1*%
X130190000Y-82240000D02*
X130240000Y-82240000D01*
X130190000Y-83760000D02*
X130190000Y-82240000D01*
X131190000Y-83760000D02*
X130190000Y-83760000D01*
X131360000Y-82240000D02*
X132140000Y-82240000D01*
X133260000Y-82240000D02*
X133310000Y-82240000D01*
X133310000Y-82240000D02*
X133310000Y-83760000D01*
X133310000Y-83760000D02*
X132310000Y-83760000D01*
X132130000Y-81700000D02*
X131800000Y-81940000D01*
X131800000Y-81460000D01*
X132130000Y-81700000D01*
G36*
X132130000Y-81700000D02*
G01*
X131800000Y-81940000D01*
X131800000Y-81460000D01*
X132130000Y-81700000D01*
G37*
%TO.C,R25*%
X148627064Y-76590000D02*
X147172936Y-76590000D01*
X148627064Y-78410000D02*
X147172936Y-78410000D01*
%TO.C,T2*%
X151840000Y-78740000D02*
X152840000Y-78740000D01*
X151840000Y-80260000D02*
X151840000Y-78740000D01*
X151890000Y-80260000D02*
X151840000Y-80260000D01*
X153790000Y-80260000D02*
X153010000Y-80260000D01*
X153960000Y-78740000D02*
X154960000Y-78740000D01*
X154960000Y-78740000D02*
X154960000Y-80260000D01*
X154960000Y-80260000D02*
X154910000Y-80260000D01*
X153350000Y-81040000D02*
X153020000Y-80800000D01*
X153350000Y-80560000D01*
X153350000Y-81040000D01*
G36*
X153350000Y-81040000D02*
G01*
X153020000Y-80800000D01*
X153350000Y-80560000D01*
X153350000Y-81040000D01*
G37*
%TO.C,R18*%
X123184895Y-98303492D02*
X123184895Y-99757620D01*
X125004895Y-98303492D02*
X125004895Y-99757620D01*
%TO.C,R29*%
X151690000Y-85527064D02*
X151690000Y-84072936D01*
X153510000Y-85527064D02*
X153510000Y-84072936D01*
%TO.C,R26*%
X133627064Y-76090000D02*
X132172936Y-76090000D01*
X133627064Y-77910000D02*
X132172936Y-77910000D01*
%TO.C,C3*%
X138165000Y-80238748D02*
X138165000Y-80761252D01*
X139635000Y-80238748D02*
X139635000Y-80761252D01*
%TO.C,R15*%
X131379789Y-98317380D02*
X131379789Y-99771508D01*
X133199789Y-98317380D02*
X133199789Y-99771508D01*
%TO.C,R4*%
X161427737Y-98320158D02*
X161427737Y-99774286D01*
X163247737Y-98320158D02*
X163247737Y-99774286D01*
%TO.C,C4*%
X136165000Y-80761252D02*
X136165000Y-80238748D01*
X137635000Y-80761252D02*
X137635000Y-80238748D01*
%TD*%
M02*
