  0
SECTION
  2
HEADER
  9
$ACADVER
  1
AC1018
  9
$HANDSEED
  5
FFFFFFFF
  9
$ANGBASE
  50
0.0
  9
$ANGDIR
  70
1
  9
$MEASUREMENT
  70
1
  9
$INSUNITS
  70
4
  0
ENDSEC
  0
SECTION
  2
TABLES
  0
TABLE
  2
APPID
  5
1
330
0
100
AcDbSymbolTable
 70
1
  0
APPID
  5
2
330
1
100
AcDbSymbolTableRecord
100
AcDbRegAppTableRecord
  2
ACAD
 70
0
  0
ENDTAB
  0
TABLE
  2
LTYPE
  5
3
330
0
100
AcDbSymbolTable
 70
6
  0
LTYPE
  5
4
330
3
100
AcDbSymbolTableRecord
100
AcDbLinetypeTableRecord
  2
ByBlock
 70
0
  3

 72
65
 73
0
 40
0
  0
LTYPE
  5
5
330
3
100
AcDbSymbolTableRecord
100
AcDbLinetypeTableRecord
  2
ByLayer
 70
0
  3

 72
65
 73
0
 40
0
  0
LTYPE
  5
6
330
3
100
AcDbSymbolTableRecord
100
AcDbLinetypeTableRecord
  2
CONTINUOUS
 70
0
  3
Solid line
 72
65
 73
0
 40
0
  0
LTYPE
  5
7
330
3
100
AcDbSymbolTableRecord
100
AcDbLinetypeTableRecord
  2
DASHDOT
 70
0
  3
Dash Dot ____ _ ____ _
 72
65
 73
4
 40
2
 49
1.25
 74
0
 49
-0.25
 74
0
 49
0.25
 74
0
 49
-0.25
 74
0
  0
LTYPE
  5
8
330
3
100
AcDbSymbolTableRecord
100
AcDbLinetypeTableRecord
  2
DASHED
 70
0
  3
Dashed __ __ __ __ __
 72
65
 73
2
 40
0.75
 49
0.5
 74
0
 49
-0.25
 74
0
  0
LTYPE
  5
9
330
3
100
AcDbSymbolTableRecord
100
AcDbLinetypeTableRecord
  2
DOTTED
 70
0
  3
Dotted .  .  .  .
 72
65
 73
2
 40
0.2
 49
0.0
 74
0
 49
-0.2
 74
0
  0
ENDTAB
  0
TABLE
  2
STYLE
  5
A
330
0
100
AcDbSymbolTable
 70
4
  0
STYLE
  5
B
330
A
100
AcDbSymbolTableRecord
100
AcDbTextStyleTableRecord
  2
KICAD
 70
0
 40
0
 41
1
 42
1
 50
0
 71
0
  3
isocp.shx
  0
STYLE
  5
C
330
A
100
AcDbSymbolTableRecord
100
AcDbTextStyleTableRecord
  2
KICADB
 70
0
 40
0
 41
1
 42
1
 50
0
 71
0
  3
isocp.shx
  0
STYLE
  5
D
330
A
100
AcDbSymbolTableRecord
100
AcDbTextStyleTableRecord
  2
KICADI
 70
0
 40
0
 41
1
 42
1
 50
15
 71
0
  3
isocp.shx
  0
STYLE
  5
E
330
A
100
AcDbSymbolTableRecord
100
AcDbTextStyleTableRecord
  2
KICADBI
 70
0
 40
0
 41
1
 42
1
 50
15
 71
0
  3
isocp.shx
  0
ENDTAB
  0
TABLE
  2
LAYER
  5
F
330
0
100
AcDbSymbolTable
 70
10
  0
LAYER
  5
12
330
F
100
AcDbSymbolTableRecord
100
AcDbLayerTableRecord
  2
0
 70
0
 62
7
  6
CONTINUOUS
390
10
  0
LAYER
  5
13
330
F
100
AcDbSymbolTableRecord
100
AcDbLayerTableRecord
  2
F.Cu
 70
0
 62
13
420
13120564
  6
CONTINUOUS
390
10
  0
LAYER
  5
14
330
F
100
AcDbSymbolTableRecord
100
AcDbLayerTableRecord
  2
B.Cu
 70
0
 62
153
420
5078980
  6
CONTINUOUS
390
10
  0
LAYER
  5
15
330
F
100
AcDbSymbolTableRecord
100
AcDbLayerTableRecord
  2
F.Paste
 70
0
 62
253
420
11837594
  6
CONTINUOUS
390
10
  0
LAYER
  5
16
330
F
100
AcDbSymbolTableRecord
100
AcDbLayerTableRecord
  2
B.Paste
 70
0
 62
132
420
49858
  6
CONTINUOUS
390
10
  0
LAYER
  5
17
330
F
100
AcDbSymbolTableRecord
100
AcDbLayerTableRecord
  2
F.Silkscreen
 70
0
 62
41
420
15920545
  6
CONTINUOUS
390
10
  0
LAYER
  5
18
330
F
100
AcDbSymbolTableRecord
100
AcDbLayerTableRecord
  2
B.Silkscreen
 70
0
 62
31
420
15250087
  6
CONTINUOUS
390
10
  0
LAYER
  5
19
330
F
100
AcDbSymbolTableRecord
100
AcDbLayerTableRecord
  2
F.Mask
 70
0
 62
201
420
14181631
  6
CONTINUOUS
390
10
  0
LAYER
  5
1A
330
F
100
AcDbSymbolTableRecord
100
AcDbLayerTableRecord
  2
B.Mask
 70
0
 62
4
420
196590
  6
CONTINUOUS
390
10
  0
LAYER
  5
1B
330
F
100
AcDbSymbolTableRecord
100
AcDbLayerTableRecord
  2
Edge.Cuts
 70
0
 62
254
420
13685453
  6
CONTINUOUS
390
10
  0
ENDTAB
  0
TABLE
  2
VPORT
  5
1C
330
0
100
AcDbSymbolTable
 70
0
  0
ENDTAB
  0
TABLE
  2
VIEW
  5
1D
330
0
100
AcDbSymbolTable
 70
0
  0
ENDTAB
  0
TABLE
  2
UCS
  5
1E
330
0
100
AcDbSymbolTable
 70
0
  0
ENDTAB
  0
TABLE
  2
DIMSTYLE
  5
1F
330
0
100
AcDbSymbolTable
 70
1
100
AcDbDimStyleTable
 71
0
  0
DIMSTYLE
105
20
330
1F
100
AcDbSymbolTableRecord
100
AcDbDimStyleTableRecord
  2
Standard
 70
0
  0
ENDTAB
  0
TABLE
  2
BLOCK_RECORD
  5
21
330
0
100
AcDbSymbolTable
 70
3
  0
BLOCK_RECORD
  5
22
330
21
100
AcDbSymbolTableRecord
100
AcDbBlockTableRecord
  2
*Model_Space
340
25
 70
0
280
1
281
0
  0
BLOCK_RECORD
  5
23
330
21
100
AcDbSymbolTableRecord
100
AcDbBlockTableRecord
  2
*Paper_Space
340
26
 70
0
280
1
281
0
  0
BLOCK_RECORD
  5
24
330
21
100
AcDbSymbolTableRecord
100
AcDbBlockTableRecord
  2
*Paper_Space0
340
27
 70
0
280
1
281
0
  0
ENDTAB
  0
ENDSEC
  0
SECTION
  2
BLOCKS
  0
BLOCK
  5
2B
330
22
100
AcDbEntity
  8
0
100
AcDbBlockBegin
  2
*Model_Space
 70
0
 10
0.0
 20
0.0
 30
0.0
  3
*Model_Space
  1

  0
ENDBLK
  5
2A
330
22
100
AcDbEntity
  8
0
100
AcDbBlockEnd
  0
BLOCK
  5
2D
330
23
100
AcDbEntity
 67
1
  8
0
100
AcDbBlockBegin
  2
*Paper_Space
 70
0
 10
0.0
 20
0.0
 30
0.0
  3
*Paper_Space
  1

  0
ENDBLK
  5
2C
330
23
100
AcDbEntity
 67
1
  8
0
100
AcDbBlockEnd
  0
BLOCK
  5
2F
330
24
100
AcDbEntity
 67
1
  8
0
100
AcDbBlockBegin
  2
*Paper_Space0
 70
0
 10
0.0
 20
0.0
 30
0.0
  3
*Paper_Space0
  1

  0
ENDBLK
  5
2E
330
24
100
AcDbEntity
 67
1
  8
0
100
AcDbBlockEnd
  0
ENDSEC
  0
SECTION
  2
ENTITIES
  0
LINE
  5
30
330
22
100
AcDbEntity
  8
Edge.Cuts
  6
CONTINUOUS
100
AcDbLine
 10
168.4000000000000057
 20
-74.4749999999999943
 30
0
 11
168.6643159999999853
 21
-74.4923239999999964
 31
0
  0
LINE
  5
31
330
22
100
AcDbEntity
  8
Edge.Cuts
  6
CONTINUOUS
100
AcDbLine
 10
168.6643159999999853
 20
-74.4923239999999964
 30
0
 11
168.9241089999999872
 21
-74.5439999999999969
 31
0
  0
LINE
  5
32
330
22
100
AcDbEntity
  8
Edge.Cuts
  6
CONTINUOUS
100
AcDbLine
 10
168.9241089999999872
 20
-74.5439999999999969
 30
0
 11
169.1749339999999791
 21
-74.6291439999999966
 31
0
  0
LINE
  5
33
330
22
100
AcDbEntity
  8
Edge.Cuts
  6
CONTINUOUS
100
AcDbLine
 10
169.1749339999999791
 20
-74.6291439999999966
 30
0
 11
169.4124999999999943
 21
-74.7462979999999959
 31
0
  0
LINE
  5
34
330
22
100
AcDbEntity
  8
Edge.Cuts
  6
CONTINUOUS
100
AcDbLine
 10
169.4124999999999943
 20
-74.7462979999999959
 30
0
 11
169.632741999999979
 21
-74.8934589999999929
 31
0
  0
LINE
  5
35
330
22
100
AcDbEntity
  8
Edge.Cuts
  6
CONTINUOUS
100
AcDbLine
 10
169.632741999999979
 20
-74.8934589999999929
 30
0
 11
169.8318919999999821
 21
-75.0681079999999952
 31
0
  0
LINE
  5
36
330
22
100
AcDbEntity
  8
Edge.Cuts
  6
CONTINUOUS
100
AcDbLine
 10
169.8318919999999821
 20
-75.0681079999999952
 30
0
 11
170.0065409999999986
 21
-75.2672579999999982
 31
0
  0
LINE
  5
37
330
22
100
AcDbEntity
  8
Edge.Cuts
  6
CONTINUOUS
100
AcDbLine
 10
170.0065409999999986
 20
-75.2672579999999982
 30
0
 11
170.1537019999999814
 21
-75.4874999999999972
 31
0
  0
LINE
  5
38
330
22
100
AcDbEntity
  8
Edge.Cuts
  6
CONTINUOUS
100
AcDbLine
 10
170.1537019999999814
 20
-75.4874999999999972
 30
0
 11
170.2708559999999807
 21
-75.7250659999999982
 31
0
  0
LINE
  5
39
330
22
100
AcDbEntity
  8
Edge.Cuts
  6
CONTINUOUS
100
AcDbLine
 10
170.2708559999999807
 20
-75.7250659999999982
 30
0
 11
170.3559999999999945
 21
-75.9758909999999901
 31
0
  0
LINE
  5
3A
330
22
100
AcDbEntity
  8
Edge.Cuts
  6
CONTINUOUS
100
AcDbLine
 10
170.3559999999999945
 20
-75.9758909999999901
 30
0
 11
170.4076759999999808
 21
-76.235683999999992
 31
0
  0
LINE
  5
3B
330
22
100
AcDbEntity
  8
Edge.Cuts
  6
CONTINUOUS
100
AcDbLine
 10
170.4076759999999808
 20
-76.235683999999992
 30
0
 11
170.4249999999999829
 21
-76.5
 31
0
  0
LINE
  5
3C
330
22
100
AcDbEntity
  8
Edge.Cuts
  6
CONTINUOUS
100
AcDbLine
 10
170.4249999999999829
 20
-76.5
 30
0
 11
170.4249999999999829
 21
-111.
 31
0
  0
LINE
  5
3D
330
22
100
AcDbEntity
  8
Edge.Cuts
  6
CONTINUOUS
100
AcDbLine
 10
170.4249999999999829
 20
-111.
 30
0
 11
170.4076759999999808
 21
-111.2643159999999938
 31
0
  0
LINE
  5
3E
330
22
100
AcDbEntity
  8
Edge.Cuts
  6
CONTINUOUS
100
AcDbLine
 10
170.4076759999999808
 20
-111.2643159999999938
 30
0
 11
170.3559999999999945
 21
-111.5241089999999957
 31
0
  0
LINE
  5
3F
330
22
100
AcDbEntity
  8
Edge.Cuts
  6
CONTINUOUS
100
AcDbLine
 10
170.3559999999999945
 20
-111.5241089999999957
 30
0
 11
170.2708559999999807
 21
-111.7749340000000018
 31
0
  0
LINE
  5
40
330
22
100
AcDbEntity
  8
Edge.Cuts
  6
CONTINUOUS
100
AcDbLine
 10
170.2708559999999807
 20
-111.7749340000000018
 30
0
 11
170.1537019999999814
 21
-112.0124999999999886
 31
0
  0
LINE
  5
41
330
22
100
AcDbEntity
  8
Edge.Cuts
  6
CONTINUOUS
100
AcDbLine
 10
170.1537019999999814
 20
-112.0124999999999886
 30
0
 11
170.0065409999999986
 21
-112.2327420000000018
 31
0
  0
LINE
  5
42
330
22
100
AcDbEntity
  8
Edge.Cuts
  6
CONTINUOUS
100
AcDbLine
 10
170.0065409999999986
 20
-112.2327420000000018
 30
0
 11
169.8318919999999821
 21
-112.4318919999999906
 31
0
  0
LINE
  5
43
330
22
100
AcDbEntity
  8
Edge.Cuts
  6
CONTINUOUS
100
AcDbLine
 10
169.8318919999999821
 20
-112.4318919999999906
 30
0
 11
169.632741999999979
 21
-112.6065409999999929
 31
0
  0
LINE
  5
44
330
22
100
AcDbEntity
  8
Edge.Cuts
  6
CONTINUOUS
100
AcDbLine
 10
169.632741999999979
 20
-112.6065409999999929
 30
0
 11
169.4124999999999943
 21
-112.7537019999999899
 31
0
  0
LINE
  5
45
330
22
100
AcDbEntity
  8
Edge.Cuts
  6
CONTINUOUS
100
AcDbLine
 10
169.4124999999999943
 20
-112.7537019999999899
 30
0
 11
169.1749339999999791
 21
-112.8708559999999892
 31
0
  0
LINE
  5
46
330
22
100
AcDbEntity
  8
Edge.Cuts
  6
CONTINUOUS
100
AcDbLine
 10
169.1749339999999791
 20
-112.8708559999999892
 30
0
 11
168.9241089999999872
 21
-112.9559999999999889
 31
0
  0
LINE
  5
47
330
22
100
AcDbEntity
  8
Edge.Cuts
  6
CONTINUOUS
100
AcDbLine
 10
168.9241089999999872
 20
-112.9559999999999889
 30
0
 11
168.6643159999999853
 21
-113.0076759999999894
 31
0
  0
LINE
  5
48
330
22
100
AcDbEntity
  8
Edge.Cuts
  6
CONTINUOUS
100
AcDbLine
 10
168.6643159999999853
 20
-113.0076759999999894
 30
0
 11
168.4000000000000057
 21
-113.0249999999999915
 31
0
  0
LINE
  5
49
330
22
100
AcDbEntity
  8
Edge.Cuts
  6
CONTINUOUS
100
AcDbLine
 10
168.4000000000000057
 20
-113.0249999999999915
 30
0
 11
115.3999999999999915
 21
-113.0249999999999915
 31
0
  0
LINE
  5
4A
330
22
100
AcDbEntity
  8
Edge.Cuts
  6
CONTINUOUS
100
AcDbLine
 10
115.3999999999999915
 20
-113.0249999999999915
 30
0
 11
115.1356839999999977
 21
-113.0076759999999894
 31
0
  0
LINE
  5
4B
330
22
100
AcDbEntity
  8
Edge.Cuts
  6
CONTINUOUS
100
AcDbLine
 10
115.1356839999999977
 20
-113.0076759999999894
 30
0
 11
114.8758909999999958
 21
-112.9559999999999889
 31
0
  0
LINE
  5
4C
330
22
100
AcDbEntity
  8
Edge.Cuts
  6
CONTINUOUS
100
AcDbLine
 10
114.8758909999999958
 20
-112.9559999999999889
 30
0
 11
114.6250659999999897
 21
-112.8708559999999892
 31
0
  0
LINE
  5
4D
330
22
100
AcDbEntity
  8
Edge.Cuts
  6
CONTINUOUS
100
AcDbLine
 10
114.6250659999999897
 20
-112.8708559999999892
 30
0
 11
114.3874999999999886
 21
-112.7537019999999899
 31
0
  0
LINE
  5
4E
330
22
100
AcDbEntity
  8
Edge.Cuts
  6
CONTINUOUS
100
AcDbLine
 10
114.3874999999999886
 20
-112.7537019999999899
 30
0
 11
114.1672579999999897
 21
-112.6065409999999929
 31
0
  0
LINE
  5
4F
330
22
100
AcDbEntity
  8
Edge.Cuts
  6
CONTINUOUS
100
AcDbLine
 10
114.1672579999999897
 20
-112.6065409999999929
 30
0
 11
113.9681080000000009
 21
-112.4318919999999906
 31
0
  0
LINE
  5
50
330
22
100
AcDbEntity
  8
Edge.Cuts
  6
CONTINUOUS
100
AcDbLine
 10
113.9681080000000009
 20
-112.4318919999999906
 30
0
 11
113.7934589999999986
 21
-112.2327420000000018
 31
0
  0
LINE
  5
51
330
22
100
AcDbEntity
  8
Edge.Cuts
  6
CONTINUOUS
100
AcDbLine
 10
113.7934589999999986
 20
-112.2327420000000018
 30
0
 11
113.6462980000000016
 21
-112.0124999999999886
 31
0
  0
LINE
  5
52
330
22
100
AcDbEntity
  8
Edge.Cuts
  6
CONTINUOUS
100
AcDbLine
 10
113.6462980000000016
 20
-112.0124999999999886
 30
0
 11
113.5291439999999881
 21
-111.7749340000000018
 31
0
  0
LINE
  5
53
330
22
100
AcDbEntity
  8
Edge.Cuts
  6
CONTINUOUS
100
AcDbLine
 10
113.5291439999999881
 20
-111.7749340000000018
 30
0
 11
113.4439999999999884
 21
-111.5241089999999957
 31
0
  0
LINE
  5
54
330
22
100
AcDbEntity
  8
Edge.Cuts
  6
CONTINUOUS
100
AcDbLine
 10
113.4439999999999884
 20
-111.5241089999999957
 30
0
 11
113.3923239999999879
 21
-111.2643159999999938
 31
0
  0
LINE
  5
55
330
22
100
AcDbEntity
  8
Edge.Cuts
  6
CONTINUOUS
100
AcDbLine
 10
113.3923239999999879
 20
-111.2643159999999938
 30
0
 11
113.375
 21
-111.
 31
0
  0
LINE
  5
56
330
22
100
AcDbEntity
  8
Edge.Cuts
  6
CONTINUOUS
100
AcDbLine
 10
113.375
 20
-111.
 30
0
 11
113.375
 21
-76.5
 31
0
  0
LINE
  5
57
330
22
100
AcDbEntity
  8
Edge.Cuts
  6
CONTINUOUS
100
AcDbLine
 10
113.375
 20
-76.5
 30
0
 11
113.3923239999999879
 21
-76.235683999999992
 31
0
  0
LINE
  5
58
330
22
100
AcDbEntity
  8
Edge.Cuts
  6
CONTINUOUS
100
AcDbLine
 10
113.3923239999999879
 20
-76.235683999999992
 30
0
 11
113.4439999999999884
 21
-75.9758909999999901
 31
0
  0
LINE
  5
59
330
22
100
AcDbEntity
  8
Edge.Cuts
  6
CONTINUOUS
100
AcDbLine
 10
113.4439999999999884
 20
-75.9758909999999901
 30
0
 11
113.5291439999999881
 21
-75.7250659999999982
 31
0
  0
LINE
  5
5A
330
22
100
AcDbEntity
  8
Edge.Cuts
  6
CONTINUOUS
100
AcDbLine
 10
113.5291439999999881
 20
-75.7250659999999982
 30
0
 11
113.6462980000000016
 21
-75.4874999999999972
 31
0
  0
LINE
  5
5B
330
22
100
AcDbEntity
  8
Edge.Cuts
  6
CONTINUOUS
100
AcDbLine
 10
113.6462980000000016
 20
-75.4874999999999972
 30
0
 11
113.7934589999999986
 21
-75.2672579999999982
 31
0
  0
LINE
  5
5C
330
22
100
AcDbEntity
  8
Edge.Cuts
  6
CONTINUOUS
100
AcDbLine
 10
113.7934589999999986
 20
-75.2672579999999982
 30
0
 11
113.9681080000000009
 21
-75.0681079999999952
 31
0
  0
LINE
  5
5D
330
22
100
AcDbEntity
  8
Edge.Cuts
  6
CONTINUOUS
100
AcDbLine
 10
113.9681080000000009
 20
-75.0681079999999952
 30
0
 11
114.1672579999999897
 21
-74.8934589999999929
 31
0
  0
LINE
  5
5E
330
22
100
AcDbEntity
  8
Edge.Cuts
  6
CONTINUOUS
100
AcDbLine
 10
114.1672579999999897
 20
-74.8934589999999929
 30
0
 11
114.3874999999999886
 21
-74.7462979999999959
 31
0
  0
LINE
  5
5F
330
22
100
AcDbEntity
  8
Edge.Cuts
  6
CONTINUOUS
100
AcDbLine
 10
114.3874999999999886
 20
-74.7462979999999959
 30
0
 11
114.6250659999999897
 21
-74.6291439999999966
 31
0
  0
LINE
  5
60
330
22
100
AcDbEntity
  8
Edge.Cuts
  6
CONTINUOUS
100
AcDbLine
 10
114.6250659999999897
 20
-74.6291439999999966
 30
0
 11
114.8758909999999958
 21
-74.5439999999999969
 31
0
  0
LINE
  5
61
330
22
100
AcDbEntity
  8
Edge.Cuts
  6
CONTINUOUS
100
AcDbLine
 10
114.8758909999999958
 20
-74.5439999999999969
 30
0
 11
115.1356839999999977
 21
-74.4923239999999964
 31
0
  0
LINE
  5
62
330
22
100
AcDbEntity
  8
Edge.Cuts
  6
CONTINUOUS
100
AcDbLine
 10
115.1356839999999977
 20
-74.4923239999999964
 30
0
 11
115.3999999999999915
 21
-74.4749999999999943
 31
0
  0
LINE
  5
63
330
22
100
AcDbEntity
  8
Edge.Cuts
  6
CONTINUOUS
100
AcDbLine
 10
115.3999999999999915
 20
-74.4749999999999943
 30
0
 11
168.4000000000000057
 21
-74.4749999999999943
 31
0
  0
LINE
  5
64
330
22
100
AcDbEntity
  8
Edge.Cuts
  6
CONTINUOUS
100
AcDbLine
 10
115.3999999999999915
 20
-74.5249999999999915
 30
0
 11
115.270551999999995
 21
-74.5249999999999915
 31
0
  0
LINE
  5
65
330
22
100
AcDbEntity
  8
Edge.Cuts
  6
CONTINUOUS
100
AcDbLine
 10
115.270551999999995
 20
-74.5249999999999915
 30
0
 11
115.0138699999999972
 21
-74.5587919999999968
 31
0
  0
LINE
  5
66
330
22
100
AcDbEntity
  8
Edge.Cuts
  6
CONTINUOUS
100
AcDbLine
 10
115.0138699999999972
 20
-74.5587919999999968
 30
0
 11
114.7637950000000018
 21
-74.6257999999999981
 31
0
  0
LINE
  5
67
330
22
100
AcDbEntity
  8
Edge.Cuts
  6
CONTINUOUS
100
AcDbLine
 10
114.7637950000000018
 20
-74.6257999999999981
 30
0
 11
114.524604999999994
 21
-74.7248749999999973
 31
0
  0
LINE
  5
68
330
22
100
AcDbEntity
  8
Edge.Cuts
  6
CONTINUOUS
100
AcDbLine
 10
114.524604999999994
 20
-74.7248749999999973
 30
0
 11
114.3003939999999972
 21
-74.8543229999999937
 31
0
  0
LINE
  5
69
330
22
100
AcDbEntity
  8
Edge.Cuts
  6
CONTINUOUS
100
AcDbLine
 10
114.3003939999999972
 20
-74.8543229999999937
 30
0
 11
114.0949969999999922
 21
-75.0119299999999924
 31
0
  0
LINE
  5
6A
330
22
100
AcDbEntity
  8
Edge.Cuts
  6
CONTINUOUS
100
AcDbLine
 10
114.0949969999999922
 20
-75.0119299999999924
 30
0
 11
113.9119299999999981
 21
-75.1949970000000008
 31
0
  0
LINE
  5
6B
330
22
100
AcDbEntity
  8
Edge.Cuts
  6
CONTINUOUS
100
AcDbLine
 10
113.9119299999999981
 20
-75.1949970000000008
 30
0
 11
113.7543229999999994
 21
-75.4003939999999915
 31
0
  0
LINE
  5
6C
330
22
100
AcDbEntity
  8
Edge.Cuts
  6
CONTINUOUS
100
AcDbLine
 10
113.7543229999999994
 20
-75.4003939999999915
 30
0
 11
113.6248749999999887
 21
-75.6246050000000025
 31
0
  0
LINE
  5
6D
330
22
100
AcDbEntity
  8
Edge.Cuts
  6
CONTINUOUS
100
AcDbLine
 10
113.6248749999999887
 20
-75.6246050000000025
 30
0
 11
113.5257999999999896
 21
-75.8637949999999961
 31
0
  0
LINE
  5
6E
330
22
100
AcDbEntity
  8
Edge.Cuts
  6
CONTINUOUS
100
AcDbLine
 10
113.5257999999999896
 20
-75.8637949999999961
 30
0
 11
113.4587919999999883
 21
-76.1138699999999915
 31
0
  0
LINE
  5
6F
330
22
100
AcDbEntity
  8
Edge.Cuts
  6
CONTINUOUS
100
AcDbLine
 10
113.4587919999999883
 20
-76.1138699999999915
 30
0
 11
113.4249999999999972
 21
-76.3705520000000035
 31
0
  0
LINE
  5
70
330
22
100
AcDbEntity
  8
Edge.Cuts
  6
CONTINUOUS
100
AcDbLine
 10
113.4249999999999972
 20
-76.3705520000000035
 30
0
 11
113.4249999999999972
 21
-76.5
 31
0
  0
LINE
  5
71
330
22
100
AcDbEntity
  8
Edge.Cuts
  6
CONTINUOUS
100
AcDbLine
 10
113.4249999999999972
 20
-76.5
 30
0
 11
113.4249999999999972
 21
-111.
 31
0
  0
LINE
  5
72
330
22
100
AcDbEntity
  8
Edge.Cuts
  6
CONTINUOUS
100
AcDbLine
 10
113.4249999999999972
 20
-111.
 30
0
 11
113.4249999999999972
 21
-111.1294479999999965
 31
0
  0
LINE
  5
73
330
22
100
AcDbEntity
  8
Edge.Cuts
  6
CONTINUOUS
100
AcDbLine
 10
113.4249999999999972
 20
-111.1294479999999965
 30
0
 11
113.4587919999999883
 21
-111.3861299999999943
 31
0
  0
LINE
  5
74
330
22
100
AcDbEntity
  8
Edge.Cuts
  6
CONTINUOUS
100
AcDbLine
 10
113.4587919999999883
 20
-111.3861299999999943
 30
0
 11
113.5257999999999896
 21
-111.6362049999999897
 31
0
  0
LINE
  5
75
330
22
100
AcDbEntity
  8
Edge.Cuts
  6
CONTINUOUS
100
AcDbLine
 10
113.5257999999999896
 20
-111.6362049999999897
 30
0
 11
113.6248749999999887
 21
-111.8753949999999975
 31
0
  0
LINE
  5
76
330
22
100
AcDbEntity
  8
Edge.Cuts
  6
CONTINUOUS
100
AcDbLine
 10
113.6248749999999887
 20
-111.8753949999999975
 30
0
 11
113.7543229999999994
 21
-112.0996059999999943
 31
0
  0
LINE
  5
77
330
22
100
AcDbEntity
  8
Edge.Cuts
  6
CONTINUOUS
100
AcDbLine
 10
113.7543229999999994
 20
-112.0996059999999943
 30
0
 11
113.9119299999999981
 21
-112.3050029999999992
 31
0
  0
LINE
  5
78
330
22
100
AcDbEntity
  8
Edge.Cuts
  6
CONTINUOUS
100
AcDbLine
 10
113.9119299999999981
 20
-112.3050029999999992
 30
0
 11
114.0949969999999922
 21
-112.4880699999999933
 31
0
  0
LINE
  5
79
330
22
100
AcDbEntity
  8
Edge.Cuts
  6
CONTINUOUS
100
AcDbLine
 10
114.0949969999999922
 20
-112.4880699999999933
 30
0
 11
114.3003939999999972
 21
-112.6456769999999921
 31
0
  0
LINE
  5
7A
330
22
100
AcDbEntity
  8
Edge.Cuts
  6
CONTINUOUS
100
AcDbLine
 10
114.3003939999999972
 20
-112.6456769999999921
 30
0
 11
114.524604999999994
 21
-112.7751249999999885
 31
0
  0
LINE
  5
7B
330
22
100
AcDbEntity
  8
Edge.Cuts
  6
CONTINUOUS
100
AcDbLine
 10
114.524604999999994
 20
-112.7751249999999885
 30
0
 11
114.7637950000000018
 21
-112.8742000000000019
 31
0
  0
LINE
  5
7C
330
22
100
AcDbEntity
  8
Edge.Cuts
  6
CONTINUOUS
100
AcDbLine
 10
114.7637950000000018
 20
-112.8742000000000019
 30
0
 11
115.0138699999999972
 21
-112.9412079999999889
 31
0
  0
LINE
  5
7D
330
22
100
AcDbEntity
  8
Edge.Cuts
  6
CONTINUOUS
100
AcDbLine
 10
115.0138699999999972
 20
-112.9412079999999889
 30
0
 11
115.270551999999995
 21
-112.9749999999999943
 31
0
  0
LINE
  5
7E
330
22
100
AcDbEntity
  8
Edge.Cuts
  6
CONTINUOUS
100
AcDbLine
 10
115.270551999999995
 20
-112.9749999999999943
 30
0
 11
115.3999999999999915
 21
-112.9749999999999943
 31
0
  0
LINE
  5
7F
330
22
100
AcDbEntity
  8
Edge.Cuts
  6
CONTINUOUS
100
AcDbLine
 10
115.3999999999999915
 20
-112.9749999999999943
 30
0
 11
168.4000000000000057
 21
-112.9749999999999943
 31
0
  0
LINE
  5
80
330
22
100
AcDbEntity
  8
Edge.Cuts
  6
CONTINUOUS
100
AcDbLine
 10
168.4000000000000057
 20
-112.9749999999999943
 30
0
 11
168.5294480000000021
 21
-112.9749999999999943
 31
0
  0
LINE
  5
81
330
22
100
AcDbEntity
  8
Edge.Cuts
  6
CONTINUOUS
100
AcDbLine
 10
168.5294480000000021
 20
-112.9749999999999943
 30
0
 11
168.7861299999999858
 21
-112.9412079999999889
 31
0
  0
LINE
  5
82
330
22
100
AcDbEntity
  8
Edge.Cuts
  6
CONTINUOUS
100
AcDbLine
 10
168.7861299999999858
 20
-112.9412079999999889
 30
0
 11
169.0362049999999954
 21
-112.8742000000000019
 31
0
  0
LINE
  5
83
330
22
100
AcDbEntity
  8
Edge.Cuts
  6
CONTINUOUS
100
AcDbLine
 10
169.0362049999999954
 20
-112.8742000000000019
 30
0
 11
169.2753950000000032
 21
-112.7751249999999885
 31
0
  0
LINE
  5
84
330
22
100
AcDbEntity
  8
Edge.Cuts
  6
CONTINUOUS
100
AcDbLine
 10
169.2753950000000032
 20
-112.7751249999999885
 30
0
 11
169.499606
 21
-112.6456769999999921
 31
0
  0
LINE
  5
85
330
22
100
AcDbEntity
  8
Edge.Cuts
  6
CONTINUOUS
100
AcDbLine
 10
169.499606
 20
-112.6456769999999921
 30
0
 11
169.7050030000000049
 21
-112.4880699999999933
 31
0
  0
LINE
  5
86
330
22
100
AcDbEntity
  8
Edge.Cuts
  6
CONTINUOUS
100
AcDbLine
 10
169.7050030000000049
 20
-112.4880699999999933
 30
0
 11
169.888069999999999
 21
-112.3050029999999992
 31
0
  0
LINE
  5
87
330
22
100
AcDbEntity
  8
Edge.Cuts
  6
CONTINUOUS
100
AcDbLine
 10
169.888069999999999
 20
-112.3050029999999992
 30
0
 11
170.0456769999999835
 21
-112.0996059999999943
 31
0
  0
LINE
  5
88
330
22
100
AcDbEntity
  8
Edge.Cuts
  6
CONTINUOUS
100
AcDbLine
 10
170.0456769999999835
 20
-112.0996059999999943
 30
0
 11
170.17512499999998
 21
-111.8753949999999975
 31
0
  0
LINE
  5
89
330
22
100
AcDbEntity
  8
Edge.Cuts
  6
CONTINUOUS
100
AcDbLine
 10
170.17512499999998
 20
-111.8753949999999975
 30
0
 11
170.2741999999999791
 21
-111.6362049999999897
 31
0
  0
LINE
  5
8A
330
22
100
AcDbEntity
  8
Edge.Cuts
  6
CONTINUOUS
100
AcDbLine
 10
170.2741999999999791
 20
-111.6362049999999897
 30
0
 11
170.3412079999999946
 21
-111.3861299999999943
 31
0
  0
LINE
  5
8B
330
22
100
AcDbEntity
  8
Edge.Cuts
  6
CONTINUOUS
100
AcDbLine
 10
170.3412079999999946
 20
-111.3861299999999943
 30
0
 11
170.375
 21
-111.1294479999999965
 31
0
  0
LINE
  5
8C
330
22
100
AcDbEntity
  8
Edge.Cuts
  6
CONTINUOUS
100
AcDbLine
 10
170.375
 20
-111.1294479999999965
 30
0
 11
170.375
 21
-111.
 31
0
  0
LINE
  5
8D
330
22
100
AcDbEntity
  8
Edge.Cuts
  6
CONTINUOUS
100
AcDbLine
 10
170.375
 20
-111.
 30
0
 11
170.375
 21
-76.5
 31
0
  0
LINE
  5
8E
330
22
100
AcDbEntity
  8
Edge.Cuts
  6
CONTINUOUS
100
AcDbLine
 10
170.375
 20
-76.5
 30
0
 11
170.375
 21
-76.3705520000000035
 31
0
  0
LINE
  5
8F
330
22
100
AcDbEntity
  8
Edge.Cuts
  6
CONTINUOUS
100
AcDbLine
 10
170.375
 20
-76.3705520000000035
 30
0
 11
170.3412079999999946
 21
-76.1138699999999915
 31
0
  0
LINE
  5
90
330
22
100
AcDbEntity
  8
Edge.Cuts
  6
CONTINUOUS
100
AcDbLine
 10
170.3412079999999946
 20
-76.1138699999999915
 30
0
 11
170.2741999999999791
 21
-75.8637949999999961
 31
0
  0
LINE
  5
91
330
22
100
AcDbEntity
  8
Edge.Cuts
  6
CONTINUOUS
100
AcDbLine
 10
170.2741999999999791
 20
-75.8637949999999961
 30
0
 11
170.17512499999998
 21
-75.6246050000000025
 31
0
  0
LINE
  5
92
330
22
100
AcDbEntity
  8
Edge.Cuts
  6
CONTINUOUS
100
AcDbLine
 10
170.17512499999998
 20
-75.6246050000000025
 30
0
 11
170.0456769999999835
 21
-75.4003939999999915
 31
0
  0
LINE
  5
93
330
22
100
AcDbEntity
  8
Edge.Cuts
  6
CONTINUOUS
100
AcDbLine
 10
170.0456769999999835
 20
-75.4003939999999915
 30
0
 11
169.888069999999999
 21
-75.1949970000000008
 31
0
  0
LINE
  5
94
330
22
100
AcDbEntity
  8
Edge.Cuts
  6
CONTINUOUS
100
AcDbLine
 10
169.888069999999999
 20
-75.1949970000000008
 30
0
 11
169.7050030000000049
 21
-75.0119299999999924
 31
0
  0
LINE
  5
95
330
22
100
AcDbEntity
  8
Edge.Cuts
  6
CONTINUOUS
100
AcDbLine
 10
169.7050030000000049
 20
-75.0119299999999924
 30
0
 11
169.499606
 21
-74.8543229999999937
 31
0
  0
LINE
  5
96
330
22
100
AcDbEntity
  8
Edge.Cuts
  6
CONTINUOUS
100
AcDbLine
 10
169.499606
 20
-74.8543229999999937
 30
0
 11
169.2753950000000032
 21
-74.7248749999999973
 31
0
  0
LINE
  5
97
330
22
100
AcDbEntity
  8
Edge.Cuts
  6
CONTINUOUS
100
AcDbLine
 10
169.2753950000000032
 20
-74.7248749999999973
 30
0
 11
169.0362049999999954
 21
-74.6257999999999981
 31
0
  0
LINE
  5
98
330
22
100
AcDbEntity
  8
Edge.Cuts
  6
CONTINUOUS
100
AcDbLine
 10
169.0362049999999954
 20
-74.6257999999999981
 30
0
 11
168.7861299999999858
 21
-74.5587919999999968
 31
0
  0
LINE
  5
99
330
22
100
AcDbEntity
  8
Edge.Cuts
  6
CONTINUOUS
100
AcDbLine
 10
168.7861299999999858
 20
-74.5587919999999968
 30
0
 11
168.5294480000000021
 21
-74.5249999999999915
 31
0
  0
LINE
  5
9A
330
22
100
AcDbEntity
  8
Edge.Cuts
  6
CONTINUOUS
100
AcDbLine
 10
168.5294480000000021
 20
-74.5249999999999915
 30
0
 11
168.4000000000000057
 21
-74.5249999999999915
 31
0
  0
LINE
  5
9B
330
22
100
AcDbEntity
  8
Edge.Cuts
  6
CONTINUOUS
100
AcDbLine
 10
168.4000000000000057
 20
-74.5249999999999915
 30
0
 11
115.3999999999999915
 21
-74.5249999999999915
 31
0
  0
CIRCLE
  5
9C
330
22
100
AcDbEntity
  8
Edge.Cuts
100
AcDbCircle
 10
163.9000000000000057
 20
-90.
 30
0
 40
0.175
  0
CIRCLE
  5
9D
330
22
100
AcDbEntity
  8
Edge.Cuts
100
AcDbCircle
 10
163.9000000000000057
 20
-88.
 30
0
 40
0.175
  0
CIRCLE
  5
9E
330
22
100
AcDbEntity
  8
Edge.Cuts
100
AcDbCircle
 10
115.8407579999999939
 20
-85.6991840000000025
 30
0
 40
0.175
  0
CIRCLE
  5
9F
330
22
100
AcDbEntity
  8
Edge.Cuts
100
AcDbCircle
 10
115.8407579999999939
 20
-83.1591839999999962
 30
0
 40
0.175
  0
CIRCLE
  5
A0
330
22
100
AcDbEntity
  8
Edge.Cuts
100
AcDbCircle
 10
160.9000000000000057
 20
-90.
 30
0
 40
0.175
  0
CIRCLE
  5
A1
330
22
100
AcDbEntity
  8
Edge.Cuts
100
AcDbCircle
 10
160.9000000000000057
 20
-88.
 30
0
 40
0.175
  0
CIRCLE
  5
A2
330
22
100
AcDbEntity
  8
Edge.Cuts
100
AcDbCircle
 10
160.9000000000000057
 20
-86.
 30
0
 40
0.175
  0
CIRCLE
  5
A3
330
22
100
AcDbEntity
  8
Edge.Cuts
100
AcDbCircle
 10
142.4000000000000057
 20
-77.
 30
0
 40
0.175
  0
CIRCLE
  5
A4
330
22
100
AcDbEntity
  8
Edge.Cuts
100
AcDbCircle
 10
140.4000000000000057
 20
-77.
 30
0
 40
0.175
  0
CIRCLE
  5
A5
330
22
100
AcDbEntity
  8
Edge.Cuts
100
AcDbCircle
 10
138.4000000000000057
 20
-77.
 30
0
 40
0.175
  0
CIRCLE
  5
A6
330
22
100
AcDbEntity
  8
Edge.Cuts
100
AcDbCircle
 10
156.9000000000000057
 20
-78.25
 30
0
 40
0.175
  0
CIRCLE
  5
A7
330
22
100
AcDbEntity
  8
Edge.Cuts
100
AcDbCircle
 10
166.9000000000000057
 20
-90.
 30
0
 40
0.175
  0
CIRCLE
  5
A8
330
22
100
AcDbEntity
  8
Edge.Cuts
100
AcDbCircle
 10
166.9000000000000057
 20
-88.
 30
0
 40
0.175
  0
ENDSEC
  0
SECTION
  2
OBJECTS
  0
DICTIONARY
  5
28
330
0
100
AcDbDictionary
281
1
  3
ACAD_GROUP
350
A9
  3
ACAD_LAYOUT
350
29
  3
ACAD_PLOTSTYLENAME
350
11
  0
DICTIONARY
  5
A9
330
28
100
AcDbDictionary
281
1
  0
ACDBDICTIONARYWDFLT
  5
11
330
28
100
AcDbDictionary
281
1
  3
Normal
350
10
100
AcDbDictionaryWithDefault
340
10
  0
ACDBPLACEHOLDER
  5
10
330
11
  0
DICTIONARY
  5
29
330
28
100
AcDbDictionary
281
1
  3
Model
350
25
  3
Layout1
350
26
  3
Layout2
350
27
  0
LAYOUT
  5
25
330
29
100
AcDbPlotSettings
  1

  2
none_device
  4
A3
  6

 40
0.0
 41
0.0
 42
0.0
 43
0.0
 44
420.0
 45
297.0
 46
0.0
 47
0.0
 48
0.0
 49
0.0
140
0.0
141
0.0
142
1.0
143
1.0
 70
1024
 72
1
 73
0
 74
5
  7

 75
16
 76
0
 77
2
 78
300
147
1.0
148
0.0
149
0.0
100
AcDbLayout
  1
Model
 70
1
 71
0
 10
0.0
 20
0.0
 11
420.0
 21
297.0
 12
0.0
 22
0.0
 32
0.0
 14
1e+20
 24
1e+20
 34
1e+20
 15
-1e+20
 25
-1e+20
 35
-1e+20
146
0.0
 13
0.0
 23
0.0
 33
0.0
 16
1.0
 26
0.0
 36
0.0
 17
0.0
 27
1.0
 37
0.0
 76
0
330
22
  0
LAYOUT
  5
26
330
29
100
AcDbPlotSettings
  1

  2
none_device
  4
A3
  6

 40
0.0
 41
0.0
 42
0.0
 43
0.0
 44
420.0
 45
297.0
 46
0.0
 47
0.0
 48
0.0
 49
0.0
140
0.0
141
0.0
142
1.0
143
1.0
 70
0
 72
1
 73
0
 74
5
  7

 75
16
 76
0
 77
2
 78
300
147
1.0
148
0.0
149
0.0
100
AcDbLayout
  1
Layout1
 70
1
 71
1
 10
0.0
 20
0.0
 11
420.0
 21
297.0
 12
0.0
 22
0.0
 32
0.0
 14
1e+20
 24
1e+20
 34
1e+20
 15
-1e+20
 25
-1e+20
 35
-1e+20
146
0.0
 13
0.0
 23
0.0
 33
0.0
 16
1.0
 26
0.0
 36
0.0
 17
0.0
 27
1.0
 37
0.0
 76
0
330
23
  0
LAYOUT
  5
27
330
29
100
AcDbPlotSettings
  1

  2
none_device
  4
A3
  6

 40
0.0
 41
0.0
 42
0.0
 43
0.0
 44
420.0
 45
297.0
 46
0.0
 47
0.0
 48
0.0
 49
0.0
140
0.0
141
0.0
142
1.0
143
1.0
 70
0
 72
1
 73
0
 74
5
  7

 75
16
 76
0
 77
2
 78
300
147
1.0
148
0.0
149
0.0
100
AcDbLayout
  1
Layout2
 70
1
 71
2
 10
0.0
 20
0.0
 11
420.0
 21
297.0
 12
0.0
 22
0.0
 32
0.0
 14
1e+20
 24
1e+20
 34
1e+20
 15
-1e+20
 25
-1e+20
 35
-1e+20
146
0.0
 13
0.0
 23
0.0
 33
0.0
 16
1.0
 26
0.0
 36
0.0
 17
0.0
 27
1.0
 37
0.0
 76
0
330
24
  0
ENDSEC
  0
EOF
