  0
SECTION
  2
HEADER
  9
$ACADVER
  1
AC1018
  9
$HANDSEED
  5
FFFFFFFF
  9
$ANGBASE
  50
0.0
  9
$ANGDIR
  70
1
  9
$MEASUREMENT
  70
1
  9
$INSUNITS
  70
4
  0
ENDSEC
  0
SECTION
  2
TABLES
  0
TABLE
  2
APPID
  5
1
330
0
100
AcDbSymbolTable
 70
1
  0
APPID
  5
2
330
1
100
AcDbSymbolTableRecord
100
AcDbRegAppTableRecord
  2
ACAD
 70
0
  0
ENDTAB
  0
TABLE
  2
LTYPE
  5
3
330
0
100
AcDbSymbolTable
 70
6
  0
LTYPE
  5
4
330
3
100
AcDbSymbolTableRecord
100
AcDbLinetypeTableRecord
  2
ByBlock
 70
0
  3

 72
65
 73
0
 40
0
  0
LTYPE
  5
5
330
3
100
AcDbSymbolTableRecord
100
AcDbLinetypeTableRecord
  2
ByLayer
 70
0
  3

 72
65
 73
0
 40
0
  0
LTYPE
  5
6
330
3
100
AcDbSymbolTableRecord
100
AcDbLinetypeTableRecord
  2
CONTINUOUS
 70
0
  3
Solid line
 72
65
 73
0
 40
0
  0
LTYPE
  5
7
330
3
100
AcDbSymbolTableRecord
100
AcDbLinetypeTableRecord
  2
DASHDOT
 70
0
  3
Dash Dot ____ _ ____ _
 72
65
 73
4
 40
2
 49
1.25
 74
0
 49
-0.25
 74
0
 49
0.25
 74
0
 49
-0.25
 74
0
  0
LTYPE
  5
8
330
3
100
AcDbSymbolTableRecord
100
AcDbLinetypeTableRecord
  2
DASHED
 70
0
  3
Dashed __ __ __ __ __
 72
65
 73
2
 40
0.75
 49
0.5
 74
0
 49
-0.25
 74
0
  0
LTYPE
  5
9
330
3
100
AcDbSymbolTableRecord
100
AcDbLinetypeTableRecord
  2
DOTTED
 70
0
  3
Dotted .  .  .  .
 72
65
 73
2
 40
0.2
 49
0.0
 74
0
 49
-0.2
 74
0
  0
ENDTAB
  0
TABLE
  2
STYLE
  5
A
330
0
100
AcDbSymbolTable
 70
4
  0
STYLE
  5
B
330
A
100
AcDbSymbolTableRecord
100
AcDbTextStyleTableRecord
  2
KICAD
 70
0
 40
0
 41
1
 42
1
 50
0
 71
0
  3
isocp.shx
  0
STYLE
  5
C
330
A
100
AcDbSymbolTableRecord
100
AcDbTextStyleTableRecord
  2
KICADB
 70
0
 40
0
 41
1
 42
1
 50
0
 71
0
  3
isocp.shx
  0
STYLE
  5
D
330
A
100
AcDbSymbolTableRecord
100
AcDbTextStyleTableRecord
  2
KICADI
 70
0
 40
0
 41
1
 42
1
 50
15
 71
0
  3
isocp.shx
  0
STYLE
  5
E
330
A
100
AcDbSymbolTableRecord
100
AcDbTextStyleTableRecord
  2
KICADBI
 70
0
 40
0
 41
1
 42
1
 50
15
 71
0
  3
isocp.shx
  0
ENDTAB
  0
TABLE
  2
LAYER
  5
F
330
0
100
AcDbSymbolTable
 70
10
  0
LAYER
  5
12
330
F
100
AcDbSymbolTableRecord
100
AcDbLayerTableRecord
  2
0
 70
0
 62
7
  6
CONTINUOUS
390
10
  0
LAYER
  5
13
330
F
100
AcDbSymbolTableRecord
100
AcDbLayerTableRecord
  2
F.Cu
 70
0
 62
13
420
13120564
  6
CONTINUOUS
390
10
  0
LAYER
  5
14
330
F
100
AcDbSymbolTableRecord
100
AcDbLayerTableRecord
  2
B.Cu
 70
0
 62
153
420
5078980
  6
CONTINUOUS
390
10
  0
LAYER
  5
15
330
F
100
AcDbSymbolTableRecord
100
AcDbLayerTableRecord
  2
F.Paste
 70
0
 62
253
420
11837594
  6
CONTINUOUS
390
10
  0
LAYER
  5
16
330
F
100
AcDbSymbolTableRecord
100
AcDbLayerTableRecord
  2
B.Paste
 70
0
 62
132
420
49858
  6
CONTINUOUS
390
10
  0
LAYER
  5
17
330
F
100
AcDbSymbolTableRecord
100
AcDbLayerTableRecord
  2
F.Silkscreen
 70
0
 62
41
420
15920545
  6
CONTINUOUS
390
10
  0
LAYER
  5
18
330
F
100
AcDbSymbolTableRecord
100
AcDbLayerTableRecord
  2
B.Silkscreen
 70
0
 62
31
420
15250087
  6
CONTINUOUS
390
10
  0
LAYER
  5
19
330
F
100
AcDbSymbolTableRecord
100
AcDbLayerTableRecord
  2
F.Mask
 70
0
 62
201
420
14181631
  6
CONTINUOUS
390
10
  0
LAYER
  5
1A
330
F
100
AcDbSymbolTableRecord
100
AcDbLayerTableRecord
  2
B.Mask
 70
0
 62
4
420
196590
  6
CONTINUOUS
390
10
  0
LAYER
  5
1B
330
F
100
AcDbSymbolTableRecord
100
AcDbLayerTableRecord
  2
Edge.Cuts
 70
0
 62
254
420
13685453
  6
CONTINUOUS
390
10
  0
ENDTAB
  0
TABLE
  2
VPORT
  5
1C
330
0
100
AcDbSymbolTable
 70
0
  0
ENDTAB
  0
TABLE
  2
VIEW
  5
1D
330
0
100
AcDbSymbolTable
 70
0
  0
ENDTAB
  0
TABLE
  2
UCS
  5
1E
330
0
100
AcDbSymbolTable
 70
0
  0
ENDTAB
  0
TABLE
  2
DIMSTYLE
  5
1F
330
0
100
AcDbSymbolTable
 70
1
100
AcDbDimStyleTable
 71
0
  0
DIMSTYLE
105
20
330
1F
100
AcDbSymbolTableRecord
100
AcDbDimStyleTableRecord
  2
Standard
 70
0
  0
ENDTAB
  0
TABLE
  2
BLOCK_RECORD
  5
21
330
0
100
AcDbSymbolTable
 70
3
  0
BLOCK_RECORD
  5
22
330
21
100
AcDbSymbolTableRecord
100
AcDbBlockTableRecord
  2
*Model_Space
340
25
 70
0
280
1
281
0
  0
BLOCK_RECORD
  5
23
330
21
100
AcDbSymbolTableRecord
100
AcDbBlockTableRecord
  2
*Paper_Space
340
26
 70
0
280
1
281
0
  0
BLOCK_RECORD
  5
24
330
21
100
AcDbSymbolTableRecord
100
AcDbBlockTableRecord
  2
*Paper_Space0
340
27
 70
0
280
1
281
0
  0
ENDTAB
  0
ENDSEC
  0
SECTION
  2
BLOCKS
  0
BLOCK
  5
2B
330
22
100
AcDbEntity
  8
0
100
AcDbBlockBegin
  2
*Model_Space
 70
0
 10
0.0
 20
0.0
 30
0.0
  3
*Model_Space
  1

  0
ENDBLK
  5
2A
330
22
100
AcDbEntity
  8
0
100
AcDbBlockEnd
  0
BLOCK
  5
2D
330
23
100
AcDbEntity
 67
1
  8
0
100
AcDbBlockBegin
  2
*Paper_Space
 70
0
 10
0.0
 20
0.0
 30
0.0
  3
*Paper_Space
  1

  0
ENDBLK
  5
2C
330
23
100
AcDbEntity
 67
1
  8
0
100
AcDbBlockEnd
  0
BLOCK
  5
2F
330
24
100
AcDbEntity
 67
1
  8
0
100
AcDbBlockBegin
  2
*Paper_Space0
 70
0
 10
0.0
 20
0.0
 30
0.0
  3
*Paper_Space0
  1

  0
ENDBLK
  5
2E
330
24
100
AcDbEntity
 67
1
  8
0
100
AcDbBlockEnd
  0
ENDSEC
  0
SECTION
  2
ENTITIES
  0
LINE
  5
30
330
22
100
AcDbEntity
  8
B.Mask
  6
CONTINUOUS
100
AcDbLine
 10
116.4177139999999895
 20
-93.3822949999999992
 30
0
 11
116.5535479999999922
 21
-93.4385589999999979
 31
0
  0
LINE
  5
31
330
22
100
AcDbEntity
  8
B.Mask
  6
CONTINUOUS
100
AcDbLine
 10
116.5535479999999922
 20
-93.4385589999999979
 30
0
 11
116.6757949999999937
 21
-93.5202419999999961
 31
0
  0
LINE
  5
32
330
22
100
AcDbEntity
  8
B.Mask
  6
CONTINUOUS
100
AcDbLine
 10
116.6757949999999937
 20
-93.5202419999999961
 30
0
 11
116.7797580000000011
 21
-93.6242049999999892
 31
0
  0
LINE
  5
33
330
22
100
AcDbEntity
  8
B.Mask
  6
CONTINUOUS
100
AcDbLine
 10
116.7797580000000011
 20
-93.6242049999999892
 30
0
 11
116.8614409999999992
 21
-93.7464519999999908
 31
0
  0
LINE
  5
34
330
22
100
AcDbEntity
  8
B.Mask
  6
CONTINUOUS
100
AcDbLine
 10
116.8614409999999992
 20
-93.7464519999999908
 30
0
 11
116.917704999999998
 21
-93.8822859999999935
 31
0
  0
LINE
  5
35
330
22
100
AcDbEntity
  8
B.Mask
  6
CONTINUOUS
100
AcDbLine
 10
116.917704999999998
 20
-93.8822859999999935
 30
0
 11
116.9463889999999964
 21
-94.0264869999999888
 31
0
  0
LINE
  5
36
330
22
100
AcDbEntity
  8
B.Mask
  6
CONTINUOUS
100
AcDbLine
 10
116.9463889999999964
 20
-94.0264869999999888
 30
0
 11
116.9463889999999964
 21
-94.1735129999999998
 31
0
  0
LINE
  5
37
330
22
100
AcDbEntity
  8
B.Mask
  6
CONTINUOUS
100
AcDbLine
 10
116.9463889999999964
 20
-94.1735129999999998
 30
0
 11
116.917704999999998
 21
-94.3177139999999952
 31
0
  0
LINE
  5
38
330
22
100
AcDbEntity
  8
B.Mask
  6
CONTINUOUS
100
AcDbLine
 10
116.917704999999998
 20
-94.3177139999999952
 30
0
 11
116.8614409999999992
 21
-94.4535479999999978
 31
0
  0
LINE
  5
39
330
22
100
AcDbEntity
  8
B.Mask
  6
CONTINUOUS
100
AcDbLine
 10
116.8614409999999992
 20
-94.4535479999999978
 30
0
 11
116.7797580000000011
 21
-94.5757949999999994
 31
0
  0
LINE
  5
3A
330
22
100
AcDbEntity
  8
B.Mask
  6
CONTINUOUS
100
AcDbLine
 10
116.7797580000000011
 20
-94.5757949999999994
 30
0
 11
116.6757949999999937
 21
-94.6797579999999925
 31
0
  0
LINE
  5
3B
330
22
100
AcDbEntity
  8
B.Mask
  6
CONTINUOUS
100
AcDbLine
 10
116.6757949999999937
 20
-94.6797579999999925
 30
0
 11
116.5535479999999922
 21
-94.7614409999999907
 31
0
  0
LINE
  5
3C
330
22
100
AcDbEntity
  8
B.Mask
  6
CONTINUOUS
100
AcDbLine
 10
116.5535479999999922
 20
-94.7614409999999907
 30
0
 11
116.4177139999999895
 21
-94.8177049999999895
 31
0
  0
LINE
  5
3D
330
22
100
AcDbEntity
  8
B.Mask
  6
CONTINUOUS
100
AcDbLine
 10
116.4177139999999895
 20
-94.8177049999999895
 30
0
 11
116.2735129999999941
 21
-94.8463890000000021
 31
0
  0
LINE
  5
3E
330
22
100
AcDbEntity
  8
B.Mask
  6
CONTINUOUS
100
AcDbLine
 10
116.2735129999999941
 20
-94.8463890000000021
 30
0
 11
116.1264869999999974
 21
-94.8463890000000021
 31
0
  0
LINE
  5
3F
330
22
100
AcDbEntity
  8
B.Mask
  6
CONTINUOUS
100
AcDbLine
 10
116.1264869999999974
 20
-94.8463890000000021
 30
0
 11
115.9822859999999878
 21
-94.8177049999999895
 31
0
  0
LINE
  5
40
330
22
100
AcDbEntity
  8
B.Mask
  6
CONTINUOUS
100
AcDbLine
 10
115.9822859999999878
 20
-94.8177049999999895
 30
0
 11
115.8464519999999993
 21
-94.7614409999999907
 31
0
  0
LINE
  5
41
330
22
100
AcDbEntity
  8
B.Mask
  6
CONTINUOUS
100
AcDbLine
 10
115.8464519999999993
 20
-94.7614409999999907
 30
0
 11
115.7242049999999978
 21
-94.6797579999999925
 31
0
  0
LINE
  5
42
330
22
100
AcDbEntity
  8
B.Mask
  6
CONTINUOUS
100
AcDbLine
 10
115.7242049999999978
 20
-94.6797579999999925
 30
0
 11
115.6202419999999904
 21
-94.5757949999999994
 31
0
  0
LINE
  5
43
330
22
100
AcDbEntity
  8
B.Mask
  6
CONTINUOUS
100
AcDbLine
 10
115.6202419999999904
 20
-94.5757949999999994
 30
0
 11
115.5385589999999922
 21
-94.4535479999999978
 31
0
  0
LINE
  5
44
330
22
100
AcDbEntity
  8
B.Mask
  6
CONTINUOUS
100
AcDbLine
 10
115.5385589999999922
 20
-94.4535479999999978
 30
0
 11
115.4822949999999935
 21
-94.3177139999999952
 31
0
  0
LINE
  5
45
330
22
100
AcDbEntity
  8
B.Mask
  6
CONTINUOUS
100
AcDbLine
 10
115.4822949999999935
 20
-94.3177139999999952
 30
0
 11
115.4536109999999951
 21
-94.1735129999999998
 31
0
  0
LINE
  5
46
330
22
100
AcDbEntity
  8
B.Mask
  6
CONTINUOUS
100
AcDbLine
 10
115.4536109999999951
 20
-94.1735129999999998
 30
0
 11
115.4536109999999951
 21
-94.0264869999999888
 31
0
  0
LINE
  5
47
330
22
100
AcDbEntity
  8
B.Mask
  6
CONTINUOUS
100
AcDbLine
 10
115.4536109999999951
 20
-94.0264869999999888
 30
0
 11
115.4822949999999935
 21
-93.8822859999999935
 31
0
  0
LINE
  5
48
330
22
100
AcDbEntity
  8
B.Mask
  6
CONTINUOUS
100
AcDbLine
 10
115.4822949999999935
 20
-93.8822859999999935
 30
0
 11
115.5385589999999922
 21
-93.7464519999999908
 31
0
  0
LINE
  5
49
330
22
100
AcDbEntity
  8
B.Mask
  6
CONTINUOUS
100
AcDbLine
 10
115.5385589999999922
 20
-93.7464519999999908
 30
0
 11
115.6202419999999904
 21
-93.6242049999999892
 31
0
  0
LINE
  5
4A
330
22
100
AcDbEntity
  8
B.Mask
  6
CONTINUOUS
100
AcDbLine
 10
115.6202419999999904
 20
-93.6242049999999892
 30
0
 11
115.7242049999999978
 21
-93.5202419999999961
 31
0
  0
LINE
  5
4B
330
22
100
AcDbEntity
  8
B.Mask
  6
CONTINUOUS
100
AcDbLine
 10
115.7242049999999978
 20
-93.5202419999999961
 30
0
 11
115.8464519999999993
 21
-93.4385589999999979
 31
0
  0
LINE
  5
4C
330
22
100
AcDbEntity
  8
B.Mask
  6
CONTINUOUS
100
AcDbLine
 10
115.8464519999999993
 20
-93.4385589999999979
 30
0
 11
115.9822859999999878
 21
-93.3822949999999992
 31
0
  0
LINE
  5
4D
330
22
100
AcDbEntity
  8
B.Mask
  6
CONTINUOUS
100
AcDbLine
 10
115.9822859999999878
 20
-93.3822949999999992
 30
0
 11
116.1264869999999974
 21
-93.3536110000000008
 31
0
  0
LINE
  5
4E
330
22
100
AcDbEntity
  8
B.Mask
  6
CONTINUOUS
100
AcDbLine
 10
116.1264869999999974
 20
-93.3536110000000008
 30
0
 11
116.2735129999999941
 21
-93.3536110000000008
 31
0
  0
LINE
  5
4F
330
22
100
AcDbEntity
  8
B.Mask
  6
CONTINUOUS
100
AcDbLine
 10
116.2735129999999941
 20
-93.3536110000000008
 30
0
 11
116.4177139999999895
 21
-93.3822949999999992
 31
0
  0
LINE
  5
50
330
22
100
AcDbEntity
  8
B.Mask
  6
CONTINUOUS
100
AcDbLine
 10
139.2177140000000009
 20
-93.2822949999999906
 30
0
 11
139.3535479999999893
 21
-93.3385589999999894
 31
0
  0
LINE
  5
51
330
22
100
AcDbEntity
  8
B.Mask
  6
CONTINUOUS
100
AcDbLine
 10
139.3535479999999893
 20
-93.3385589999999894
 30
0
 11
139.4757950000000051
 21
-93.4202420000000018
 31
0
  0
LINE
  5
52
330
22
100
AcDbEntity
  8
B.Mask
  6
CONTINUOUS
100
AcDbLine
 10
139.4757950000000051
 20
-93.4202420000000018
 30
0
 11
139.5797579999999982
 21
-93.5242049999999949
 31
0
  0
LINE
  5
53
330
22
100
AcDbEntity
  8
B.Mask
  6
CONTINUOUS
100
AcDbLine
 10
139.5797579999999982
 20
-93.5242049999999949
 30
0
 11
139.6614409999999964
 21
-93.6464519999999965
 31
0
  0
LINE
  5
54
330
22
100
AcDbEntity
  8
B.Mask
  6
CONTINUOUS
100
AcDbLine
 10
139.6614409999999964
 20
-93.6464519999999965
 30
0
 11
139.7177049999999952
 21
-93.7822859999999991
 31
0
  0
LINE
  5
55
330
22
100
AcDbEntity
  8
B.Mask
  6
CONTINUOUS
100
AcDbLine
 10
139.7177049999999952
 20
-93.7822859999999991
 30
0
 11
139.7463889999999935
 21
-93.9264869999999945
 31
0
  0
LINE
  5
56
330
22
100
AcDbEntity
  8
B.Mask
  6
CONTINUOUS
100
AcDbLine
 10
139.7463889999999935
 20
-93.9264869999999945
 30
0
 11
139.7463889999999935
 21
-94.0735129999999913
 31
0
  0
LINE
  5
57
330
22
100
AcDbEntity
  8
B.Mask
  6
CONTINUOUS
100
AcDbLine
 10
139.7463889999999935
 20
-94.0735129999999913
 30
0
 11
139.7177049999999952
 21
-94.2177140000000009
 31
0
  0
LINE
  5
58
330
22
100
AcDbEntity
  8
B.Mask
  6
CONTINUOUS
100
AcDbLine
 10
139.7177049999999952
 20
-94.2177140000000009
 30
0
 11
139.6614409999999964
 21
-94.3535479999999893
 31
0
  0
LINE
  5
59
330
22
100
AcDbEntity
  8
B.Mask
  6
CONTINUOUS
100
AcDbLine
 10
139.6614409999999964
 20
-94.3535479999999893
 30
0
 11
139.5797579999999982
 21
-94.4757949999999909
 31
0
  0
LINE
  5
5A
330
22
100
AcDbEntity
  8
B.Mask
  6
CONTINUOUS
100
AcDbLine
 10
139.5797579999999982
 20
-94.4757949999999909
 30
0
 11
139.4757950000000051
 21
-94.5797579999999982
 31
0
  0
LINE
  5
5B
330
22
100
AcDbEntity
  8
B.Mask
  6
CONTINUOUS
100
AcDbLine
 10
139.4757950000000051
 20
-94.5797579999999982
 30
0
 11
139.3535479999999893
 21
-94.6614409999999964
 31
0
  0
LINE
  5
5C
330
22
100
AcDbEntity
  8
B.Mask
  6
CONTINUOUS
100
AcDbLine
 10
139.3535479999999893
 20
-94.6614409999999964
 30
0
 11
139.2177140000000009
 21
-94.7177049999999952
 31
0
  0
LINE
  5
5D
330
22
100
AcDbEntity
  8
B.Mask
  6
CONTINUOUS
100
AcDbLine
 10
139.2177140000000009
 20
-94.7177049999999952
 30
0
 11
139.0735129999999913
 21
-94.7463889999999935
 31
0
  0
LINE
  5
5E
330
22
100
AcDbEntity
  8
B.Mask
  6
CONTINUOUS
100
AcDbLine
 10
139.0735129999999913
 20
-94.7463889999999935
 30
0
 11
138.9264869999999803
 21
-94.7463889999999935
 31
0
  0
LINE
  5
5F
330
22
100
AcDbEntity
  8
B.Mask
  6
CONTINUOUS
100
AcDbLine
 10
138.9264869999999803
 20
-94.7463889999999935
 30
0
 11
138.7822859999999991
 21
-94.7177049999999952
 31
0
  0
LINE
  5
60
330
22
100
AcDbEntity
  8
B.Mask
  6
CONTINUOUS
100
AcDbLine
 10
138.7822859999999991
 20
-94.7177049999999952
 30
0
 11
138.6464519999999823
 21
-94.6614409999999964
 31
0
  0
LINE
  5
61
330
22
100
AcDbEntity
  8
B.Mask
  6
CONTINUOUS
100
AcDbLine
 10
138.6464519999999823
 20
-94.6614409999999964
 30
0
 11
138.5242049999999949
 21
-94.5797579999999982
 31
0
  0
LINE
  5
62
330
22
100
AcDbEntity
  8
B.Mask
  6
CONTINUOUS
100
AcDbLine
 10
138.5242049999999949
 20
-94.5797579999999982
 30
0
 11
138.4202420000000018
 21
-94.4757949999999909
 31
0
  0
LINE
  5
63
330
22
100
AcDbEntity
  8
B.Mask
  6
CONTINUOUS
100
AcDbLine
 10
138.4202420000000018
 20
-94.4757949999999909
 30
0
 11
138.3385590000000036
 21
-94.3535479999999893
 31
0
  0
LINE
  5
64
330
22
100
AcDbEntity
  8
B.Mask
  6
CONTINUOUS
100
AcDbLine
 10
138.3385590000000036
 20
-94.3535479999999893
 30
0
 11
138.2822950000000048
 21
-94.2177140000000009
 31
0
  0
LINE
  5
65
330
22
100
AcDbEntity
  8
B.Mask
  6
CONTINUOUS
100
AcDbLine
 10
138.2822950000000048
 20
-94.2177140000000009
 30
0
 11
138.2536110000000065
 21
-94.0735129999999913
 31
0
  0
LINE
  5
66
330
22
100
AcDbEntity
  8
B.Mask
  6
CONTINUOUS
100
AcDbLine
 10
138.2536110000000065
 20
-94.0735129999999913
 30
0
 11
138.2536110000000065
 21
-93.9264869999999945
 31
0
  0
LINE
  5
67
330
22
100
AcDbEntity
  8
B.Mask
  6
CONTINUOUS
100
AcDbLine
 10
138.2536110000000065
 20
-93.9264869999999945
 30
0
 11
138.2822950000000048
 21
-93.7822859999999991
 31
0
  0
LINE
  5
68
330
22
100
AcDbEntity
  8
B.Mask
  6
CONTINUOUS
100
AcDbLine
 10
138.2822950000000048
 20
-93.7822859999999991
 30
0
 11
138.3385590000000036
 21
-93.6464519999999965
 31
0
  0
LINE
  5
69
330
22
100
AcDbEntity
  8
B.Mask
  6
CONTINUOUS
100
AcDbLine
 10
138.3385590000000036
 20
-93.6464519999999965
 30
0
 11
138.4202420000000018
 21
-93.5242049999999949
 31
0
  0
LINE
  5
6A
330
22
100
AcDbEntity
  8
B.Mask
  6
CONTINUOUS
100
AcDbLine
 10
138.4202420000000018
 20
-93.5242049999999949
 30
0
 11
138.5242049999999949
 21
-93.4202420000000018
 31
0
  0
LINE
  5
6B
330
22
100
AcDbEntity
  8
B.Mask
  6
CONTINUOUS
100
AcDbLine
 10
138.5242049999999949
 20
-93.4202420000000018
 30
0
 11
138.6464519999999823
 21
-93.3385589999999894
 31
0
  0
LINE
  5
6C
330
22
100
AcDbEntity
  8
B.Mask
  6
CONTINUOUS
100
AcDbLine
 10
138.6464519999999823
 20
-93.3385589999999894
 30
0
 11
138.7822859999999991
 21
-93.2822949999999906
 31
0
  0
LINE
  5
6D
330
22
100
AcDbEntity
  8
B.Mask
  6
CONTINUOUS
100
AcDbLine
 10
138.7822859999999991
 20
-93.2822949999999906
 30
0
 11
138.9264869999999803
 21
-93.2536109999999923
 31
0
  0
LINE
  5
6E
330
22
100
AcDbEntity
  8
B.Mask
  6
CONTINUOUS
100
AcDbLine
 10
138.9264869999999803
 20
-93.2536109999999923
 30
0
 11
139.0735129999999913
 21
-93.2536109999999923
 31
0
  0
LINE
  5
6F
330
22
100
AcDbEntity
  8
B.Mask
  6
CONTINUOUS
100
AcDbLine
 10
139.0735129999999913
 20
-93.2536109999999923
 30
0
 11
139.2177140000000009
 21
-93.2822949999999906
 31
0
  0
LINE
  5
70
330
22
100
AcDbEntity
  8
B.Mask
  6
CONTINUOUS
100
AcDbLine
 10
161.5749999999999886
 20
-90.6749999999999972
 30
0
 11
160.2249999999999943
 21
-90.6749999999999972
 31
0
  0
LINE
  5
71
330
22
100
AcDbEntity
  8
B.Mask
  6
CONTINUOUS
100
AcDbLine
 10
160.2249999999999943
 20
-90.6749999999999972
 30
0
 11
160.2249999999999943
 21
-89.3250000000000028
 31
0
  0
LINE
  5
72
330
22
100
AcDbEntity
  8
B.Mask
  6
CONTINUOUS
100
AcDbLine
 10
160.2249999999999943
 20
-89.3250000000000028
 30
0
 11
161.5749999999999886
 21
-89.3250000000000028
 31
0
  0
LINE
  5
73
330
22
100
AcDbEntity
  8
B.Mask
  6
CONTINUOUS
100
AcDbLine
 10
161.5749999999999886
 20
-89.3250000000000028
 30
0
 11
161.5749999999999886
 21
-90.6749999999999972
 31
0
  0
LINE
  5
74
330
22
100
AcDbEntity
  8
B.Mask
  6
CONTINUOUS
100
AcDbLine
 10
164.5749999999999886
 20
-90.6749999999999972
 30
0
 11
163.2249999999999943
 21
-90.6749999999999972
 31
0
  0
LINE
  5
75
330
22
100
AcDbEntity
  8
B.Mask
  6
CONTINUOUS
100
AcDbLine
 10
163.2249999999999943
 20
-90.6749999999999972
 30
0
 11
163.2249999999999943
 21
-89.3250000000000028
 31
0
  0
LINE
  5
76
330
22
100
AcDbEntity
  8
B.Mask
  6
CONTINUOUS
100
AcDbLine
 10
163.2249999999999943
 20
-89.3250000000000028
 30
0
 11
164.5749999999999886
 21
-89.3250000000000028
 31
0
  0
LINE
  5
77
330
22
100
AcDbEntity
  8
B.Mask
  6
CONTINUOUS
100
AcDbLine
 10
164.5749999999999886
 20
-89.3250000000000028
 30
0
 11
164.5749999999999886
 21
-90.6749999999999972
 31
0
  0
LINE
  5
78
330
22
100
AcDbEntity
  8
B.Mask
  6
CONTINUOUS
100
AcDbLine
 10
167.5749999999999886
 20
-90.6749999999999972
 30
0
 11
166.2249999999999943
 21
-90.6749999999999972
 31
0
  0
LINE
  5
79
330
22
100
AcDbEntity
  8
B.Mask
  6
CONTINUOUS
100
AcDbLine
 10
166.2249999999999943
 20
-90.6749999999999972
 30
0
 11
166.2249999999999943
 21
-89.3250000000000028
 31
0
  0
LINE
  5
7A
330
22
100
AcDbEntity
  8
B.Mask
  6
CONTINUOUS
100
AcDbLine
 10
166.2249999999999943
 20
-89.3250000000000028
 30
0
 11
167.5749999999999886
 21
-89.3250000000000028
 31
0
  0
LINE
  5
7B
330
22
100
AcDbEntity
  8
B.Mask
  6
CONTINUOUS
100
AcDbLine
 10
167.5749999999999886
 20
-89.3250000000000028
 30
0
 11
167.5749999999999886
 21
-90.6749999999999972
 31
0
  0
LINE
  5
7C
330
22
100
AcDbEntity
  8
B.Mask
  6
CONTINUOUS
100
AcDbLine
 10
146.7177140000000009
 20
-87.6822949999999963
 30
0
 11
146.8535479999999893
 21
-87.7385589999999951
 31
0
  0
LINE
  5
7D
330
22
100
AcDbEntity
  8
B.Mask
  6
CONTINUOUS
100
AcDbLine
 10
146.8535479999999893
 20
-87.7385589999999951
 30
0
 11
146.9757950000000051
 21
-87.8202419999999933
 31
0
  0
LINE
  5
7E
330
22
100
AcDbEntity
  8
B.Mask
  6
CONTINUOUS
100
AcDbLine
 10
146.9757950000000051
 20
-87.8202419999999933
 30
0
 11
147.0797579999999982
 21
-87.9242050000000006
 31
0
  0
LINE
  5
7F
330
22
100
AcDbEntity
  8
B.Mask
  6
CONTINUOUS
100
AcDbLine
 10
147.0797579999999982
 20
-87.9242050000000006
 30
0
 11
147.1614409999999964
 21
-88.0464520000000022
 31
0
  0
LINE
  5
80
330
22
100
AcDbEntity
  8
B.Mask
  6
CONTINUOUS
100
AcDbLine
 10
147.1614409999999964
 20
-88.0464520000000022
 30
0
 11
147.2177049999999952
 21
-88.1822859999999906
 31
0
  0
LINE
  5
81
330
22
100
AcDbEntity
  8
B.Mask
  6
CONTINUOUS
100
AcDbLine
 10
147.2177049999999952
 20
-88.1822859999999906
 30
0
 11
147.2463889999999935
 21
-88.3264870000000002
 31
0
  0
LINE
  5
82
330
22
100
AcDbEntity
  8
B.Mask
  6
CONTINUOUS
100
AcDbLine
 10
147.2463889999999935
 20
-88.3264870000000002
 30
0
 11
147.2463889999999935
 21
-88.473512999999997
 31
0
  0
LINE
  5
83
330
22
100
AcDbEntity
  8
B.Mask
  6
CONTINUOUS
100
AcDbLine
 10
147.2463889999999935
 20
-88.473512999999997
 30
0
 11
147.2177049999999952
 21
-88.6177139999999923
 31
0
  0
LINE
  5
84
330
22
100
AcDbEntity
  8
B.Mask
  6
CONTINUOUS
100
AcDbLine
 10
147.2177049999999952
 20
-88.6177139999999923
 30
0
 11
147.1614409999999964
 21
-88.753547999999995
 31
0
  0
LINE
  5
85
330
22
100
AcDbEntity
  8
B.Mask
  6
CONTINUOUS
100
AcDbLine
 10
147.1614409999999964
 20
-88.753547999999995
 30
0
 11
147.0797579999999982
 21
-88.8757949999999965
 31
0
  0
LINE
  5
86
330
22
100
AcDbEntity
  8
B.Mask
  6
CONTINUOUS
100
AcDbLine
 10
147.0797579999999982
 20
-88.8757949999999965
 30
0
 11
146.9757950000000051
 21
-88.9797579999999897
 31
0
  0
LINE
  5
87
330
22
100
AcDbEntity
  8
B.Mask
  6
CONTINUOUS
100
AcDbLine
 10
146.9757950000000051
 20
-88.9797579999999897
 30
0
 11
146.8535479999999893
 21
-89.0614410000000021
 31
0
  0
LINE
  5
88
330
22
100
AcDbEntity
  8
B.Mask
  6
CONTINUOUS
100
AcDbLine
 10
146.8535479999999893
 20
-89.0614410000000021
 30
0
 11
146.7177140000000009
 21
-89.1177050000000008
 31
0
  0
LINE
  5
89
330
22
100
AcDbEntity
  8
B.Mask
  6
CONTINUOUS
100
AcDbLine
 10
146.7177140000000009
 20
-89.1177050000000008
 30
0
 11
146.5735129999999913
 21
-89.1463889999999992
 31
0
  0
LINE
  5
8A
330
22
100
AcDbEntity
  8
B.Mask
  6
CONTINUOUS
100
AcDbLine
 10
146.5735129999999913
 20
-89.1463889999999992
 30
0
 11
146.4264869999999803
 21
-89.1463889999999992
 31
0
  0
LINE
  5
8B
330
22
100
AcDbEntity
  8
B.Mask
  6
CONTINUOUS
100
AcDbLine
 10
146.4264869999999803
 20
-89.1463889999999992
 30
0
 11
146.2822859999999991
 21
-89.1177050000000008
 31
0
  0
LINE
  5
8C
330
22
100
AcDbEntity
  8
B.Mask
  6
CONTINUOUS
100
AcDbLine
 10
146.2822859999999991
 20
-89.1177050000000008
 30
0
 11
146.1464519999999823
 21
-89.0614410000000021
 31
0
  0
LINE
  5
8D
330
22
100
AcDbEntity
  8
B.Mask
  6
CONTINUOUS
100
AcDbLine
 10
146.1464519999999823
 20
-89.0614410000000021
 30
0
 11
146.0242049999999949
 21
-88.9797579999999897
 31
0
  0
LINE
  5
8E
330
22
100
AcDbEntity
  8
B.Mask
  6
CONTINUOUS
100
AcDbLine
 10
146.0242049999999949
 20
-88.9797579999999897
 30
0
 11
145.9202420000000018
 21
-88.8757949999999965
 31
0
  0
LINE
  5
8F
330
22
100
AcDbEntity
  8
B.Mask
  6
CONTINUOUS
100
AcDbLine
 10
145.9202420000000018
 20
-88.8757949999999965
 30
0
 11
145.8385590000000036
 21
-88.753547999999995
 31
0
  0
LINE
  5
90
330
22
100
AcDbEntity
  8
B.Mask
  6
CONTINUOUS
100
AcDbLine
 10
145.8385590000000036
 20
-88.753547999999995
 30
0
 11
145.7822950000000048
 21
-88.6177139999999923
 31
0
  0
LINE
  5
91
330
22
100
AcDbEntity
  8
B.Mask
  6
CONTINUOUS
100
AcDbLine
 10
145.7822950000000048
 20
-88.6177139999999923
 30
0
 11
145.7536110000000065
 21
-88.473512999999997
 31
0
  0
LINE
  5
92
330
22
100
AcDbEntity
  8
B.Mask
  6
CONTINUOUS
100
AcDbLine
 10
145.7536110000000065
 20
-88.473512999999997
 30
0
 11
145.7536110000000065
 21
-88.3264870000000002
 31
0
  0
LINE
  5
93
330
22
100
AcDbEntity
  8
B.Mask
  6
CONTINUOUS
100
AcDbLine
 10
145.7536110000000065
 20
-88.3264870000000002
 30
0
 11
145.7822950000000048
 21
-88.1822859999999906
 31
0
  0
LINE
  5
94
330
22
100
AcDbEntity
  8
B.Mask
  6
CONTINUOUS
100
AcDbLine
 10
145.7822950000000048
 20
-88.1822859999999906
 30
0
 11
145.8385590000000036
 21
-88.0464520000000022
 31
0
  0
LINE
  5
95
330
22
100
AcDbEntity
  8
B.Mask
  6
CONTINUOUS
100
AcDbLine
 10
145.8385590000000036
 20
-88.0464520000000022
 30
0
 11
145.9202420000000018
 21
-87.9242050000000006
 31
0
  0
LINE
  5
96
330
22
100
AcDbEntity
  8
B.Mask
  6
CONTINUOUS
100
AcDbLine
 10
145.9202420000000018
 20
-87.9242050000000006
 30
0
 11
146.0242049999999949
 21
-87.8202419999999933
 31
0
  0
LINE
  5
97
330
22
100
AcDbEntity
  8
B.Mask
  6
CONTINUOUS
100
AcDbLine
 10
146.0242049999999949
 20
-87.8202419999999933
 30
0
 11
146.1464519999999823
 21
-87.7385589999999951
 31
0
  0
LINE
  5
98
330
22
100
AcDbEntity
  8
B.Mask
  6
CONTINUOUS
100
AcDbLine
 10
146.1464519999999823
 20
-87.7385589999999951
 30
0
 11
146.2822859999999991
 21
-87.6822949999999963
 31
0
  0
LINE
  5
99
330
22
100
AcDbEntity
  8
B.Mask
  6
CONTINUOUS
100
AcDbLine
 10
146.2822859999999991
 20
-87.6822949999999963
 30
0
 11
146.4264869999999803
 21
-87.6536109999999979
 31
0
  0
LINE
  5
9A
330
22
100
AcDbEntity
  8
B.Mask
  6
CONTINUOUS
100
AcDbLine
 10
146.4264869999999803
 20
-87.6536109999999979
 30
0
 11
146.5735129999999913
 21
-87.6536109999999979
 31
0
  0
LINE
  5
9B
330
22
100
AcDbEntity
  8
B.Mask
  6
CONTINUOUS
100
AcDbLine
 10
146.5735129999999913
 20
-87.6536109999999979
 30
0
 11
146.7177140000000009
 21
-87.6822949999999963
 31
0
  0
LINE
  5
9C
330
22
100
AcDbEntity
  8
B.Mask
  6
CONTINUOUS
100
AcDbLine
 10
155.1177140000000065
 20
-87.3822949999999992
 30
0
 11
155.253547999999995
 21
-87.4385589999999979
 31
0
  0
LINE
  5
9D
330
22
100
AcDbEntity
  8
B.Mask
  6
CONTINUOUS
100
AcDbLine
 10
155.253547999999995
 20
-87.4385589999999979
 30
0
 11
155.3757949999999823
 21
-87.5202419999999961
 31
0
  0
LINE
  5
9E
330
22
100
AcDbEntity
  8
B.Mask
  6
CONTINUOUS
100
AcDbLine
 10
155.3757949999999823
 20
-87.5202419999999961
 30
0
 11
155.4797580000000039
 21
-87.6242049999999892
 31
0
  0
LINE
  5
9F
330
22
100
AcDbEntity
  8
B.Mask
  6
CONTINUOUS
100
AcDbLine
 10
155.4797580000000039
 20
-87.6242049999999892
 30
0
 11
155.5614410000000021
 21
-87.7464519999999908
 31
0
  0
LINE
  5
A0
330
22
100
AcDbEntity
  8
B.Mask
  6
CONTINUOUS
100
AcDbLine
 10
155.5614410000000021
 20
-87.7464519999999908
 30
0
 11
155.6177050000000008
 21
-87.8822859999999935
 31
0
  0
LINE
  5
A1
330
22
100
AcDbEntity
  8
B.Mask
  6
CONTINUOUS
100
AcDbLine
 10
155.6177050000000008
 20
-87.8822859999999935
 30
0
 11
155.6463889999999992
 21
-88.026487000000003
 31
0
  0
LINE
  5
A2
330
22
100
AcDbEntity
  8
B.Mask
  6
CONTINUOUS
100
AcDbLine
 10
155.6463889999999992
 20
-88.026487000000003
 30
0
 11
155.6463889999999992
 21
-88.1735129999999998
 31
0
  0
LINE
  5
A3
330
22
100
AcDbEntity
  8
B.Mask
  6
CONTINUOUS
100
AcDbLine
 10
155.6463889999999992
 20
-88.1735129999999998
 30
0
 11
155.6177050000000008
 21
-88.3177139999999952
 31
0
  0
LINE
  5
A4
330
22
100
AcDbEntity
  8
B.Mask
  6
CONTINUOUS
100
AcDbLine
 10
155.6177050000000008
 20
-88.3177139999999952
 30
0
 11
155.5614410000000021
 21
-88.4535479999999978
 31
0
  0
LINE
  5
A5
330
22
100
AcDbEntity
  8
B.Mask
  6
CONTINUOUS
100
AcDbLine
 10
155.5614410000000021
 20
-88.4535479999999978
 30
0
 11
155.4797580000000039
 21
-88.5757949999999994
 31
0
  0
LINE
  5
A6
330
22
100
AcDbEntity
  8
B.Mask
  6
CONTINUOUS
100
AcDbLine
 10
155.4797580000000039
 20
-88.5757949999999994
 30
0
 11
155.3757949999999823
 21
-88.6797579999999925
 31
0
  0
LINE
  5
A7
330
22
100
AcDbEntity
  8
B.Mask
  6
CONTINUOUS
100
AcDbLine
 10
155.3757949999999823
 20
-88.6797579999999925
 30
0
 11
155.253547999999995
 21
-88.7614409999999907
 31
0
  0
LINE
  5
A8
330
22
100
AcDbEntity
  8
B.Mask
  6
CONTINUOUS
100
AcDbLine
 10
155.253547999999995
 20
-88.7614409999999907
 30
0
 11
155.1177140000000065
 21
-88.8177049999999895
 31
0
  0
LINE
  5
A9
330
22
100
AcDbEntity
  8
B.Mask
  6
CONTINUOUS
100
AcDbLine
 10
155.1177140000000065
 20
-88.8177049999999895
 30
0
 11
154.973512999999997
 21
-88.8463890000000021
 31
0
  0
LINE
  5
AA
330
22
100
AcDbEntity
  8
B.Mask
  6
CONTINUOUS
100
AcDbLine
 10
154.973512999999997
 20
-88.8463890000000021
 30
0
 11
154.826486999999986
 21
-88.8463890000000021
 31
0
  0
LINE
  5
AB
330
22
100
AcDbEntity
  8
B.Mask
  6
CONTINUOUS
100
AcDbLine
 10
154.826486999999986
 20
-88.8463890000000021
 30
0
 11
154.6822860000000048
 21
-88.8177049999999895
 31
0
  0
LINE
  5
AC
330
22
100
AcDbEntity
  8
B.Mask
  6
CONTINUOUS
100
AcDbLine
 10
154.6822860000000048
 20
-88.8177049999999895
 30
0
 11
154.5464519999999879
 21
-88.7614409999999907
 31
0
  0
LINE
  5
AD
330
22
100
AcDbEntity
  8
B.Mask
  6
CONTINUOUS
100
AcDbLine
 10
154.5464519999999879
 20
-88.7614409999999907
 30
0
 11
154.4242050000000006
 21
-88.6797579999999925
 31
0
  0
LINE
  5
AE
330
22
100
AcDbEntity
  8
B.Mask
  6
CONTINUOUS
100
AcDbLine
 10
154.4242050000000006
 20
-88.6797579999999925
 30
0
 11
154.320241999999979
 21
-88.5757949999999994
 31
0
  0
LINE
  5
AF
330
22
100
AcDbEntity
  8
B.Mask
  6
CONTINUOUS
100
AcDbLine
 10
154.320241999999979
 20
-88.5757949999999994
 30
0
 11
154.2385589999999809
 21
-88.4535479999999978
 31
0
  0
LINE
  5
B0
330
22
100
AcDbEntity
  8
B.Mask
  6
CONTINUOUS
100
AcDbLine
 10
154.2385589999999809
 20
-88.4535479999999978
 30
0
 11
154.1822949999999821
 21
-88.3177139999999952
 31
0
  0
LINE
  5
B1
330
22
100
AcDbEntity
  8
B.Mask
  6
CONTINUOUS
100
AcDbLine
 10
154.1822949999999821
 20
-88.3177139999999952
 30
0
 11
154.1536109999999837
 21
-88.1735129999999998
 31
0
  0
LINE
  5
B2
330
22
100
AcDbEntity
  8
B.Mask
  6
CONTINUOUS
100
AcDbLine
 10
154.1536109999999837
 20
-88.1735129999999998
 30
0
 11
154.1536109999999837
 21
-88.026487000000003
 31
0
  0
LINE
  5
B3
330
22
100
AcDbEntity
  8
B.Mask
  6
CONTINUOUS
100
AcDbLine
 10
154.1536109999999837
 20
-88.026487000000003
 30
0
 11
154.1822949999999821
 21
-87.8822859999999935
 31
0
  0
LINE
  5
B4
330
22
100
AcDbEntity
  8
B.Mask
  6
CONTINUOUS
100
AcDbLine
 10
154.1822949999999821
 20
-87.8822859999999935
 30
0
 11
154.2385589999999809
 21
-87.7464519999999908
 31
0
  0
LINE
  5
B5
330
22
100
AcDbEntity
  8
B.Mask
  6
CONTINUOUS
100
AcDbLine
 10
154.2385589999999809
 20
-87.7464519999999908
 30
0
 11
154.320241999999979
 21
-87.6242049999999892
 31
0
  0
LINE
  5
B6
330
22
100
AcDbEntity
  8
B.Mask
  6
CONTINUOUS
100
AcDbLine
 10
154.320241999999979
 20
-87.6242049999999892
 30
0
 11
154.4242050000000006
 21
-87.5202419999999961
 31
0
  0
LINE
  5
B7
330
22
100
AcDbEntity
  8
B.Mask
  6
CONTINUOUS
100
AcDbLine
 10
154.4242050000000006
 20
-87.5202419999999961
 30
0
 11
154.5464519999999879
 21
-87.4385589999999979
 31
0
  0
LINE
  5
B8
330
22
100
AcDbEntity
  8
B.Mask
  6
CONTINUOUS
100
AcDbLine
 10
154.5464519999999879
 20
-87.4385589999999979
 30
0
 11
154.6822860000000048
 21
-87.3822949999999992
 31
0
  0
LINE
  5
B9
330
22
100
AcDbEntity
  8
B.Mask
  6
CONTINUOUS
100
AcDbLine
 10
154.6822860000000048
 20
-87.3822949999999992
 30
0
 11
154.826486999999986
 21
-87.3536110000000008
 31
0
  0
LINE
  5
BA
330
22
100
AcDbEntity
  8
B.Mask
  6
CONTINUOUS
100
AcDbLine
 10
154.826486999999986
 20
-87.3536110000000008
 30
0
 11
154.973512999999997
 21
-87.3536110000000008
 31
0
  0
LINE
  5
BB
330
22
100
AcDbEntity
  8
B.Mask
  6
CONTINUOUS
100
AcDbLine
 10
154.973512999999997
 20
-87.3536110000000008
 30
0
 11
155.1177140000000065
 21
-87.3822949999999992
 31
0
  0
LINE
  5
BC
330
22
100
AcDbEntity
  8
B.Mask
  6
CONTINUOUS
100
AcDbLine
 10
161.0959419999999795
 20
-87.3540649999999914
 30
0
 11
161.2181929999999852
 21
-87.4047029999999978
 31
0
  0
LINE
  5
BD
330
22
100
AcDbEntity
  8
B.Mask
  6
CONTINUOUS
100
AcDbLine
 10
161.2181929999999852
 20
-87.4047029999999978
 30
0
 11
161.3282150000000001
 21
-87.4782179999999983
 31
0
  0
LINE
  5
BE
330
22
100
AcDbEntity
  8
B.Mask
  6
CONTINUOUS
100
AcDbLine
 10
161.3282150000000001
 20
-87.4782179999999983
 30
0
 11
161.421781999999979
 21
-87.5717849999999913
 31
0
  0
LINE
  5
BF
330
22
100
AcDbEntity
  8
B.Mask
  6
CONTINUOUS
100
AcDbLine
 10
161.421781999999979
 20
-87.5717849999999913
 30
0
 11
161.4952969999999937
 21
-87.6818069999999921
 31
0
  0
LINE
  5
C0
330
22
100
AcDbEntity
  8
B.Mask
  6
CONTINUOUS
100
AcDbLine
 10
161.4952969999999937
 20
-87.6818069999999921
 30
0
 11
161.5459349999999858
 21
-87.8040579999999977
 31
0
  0
LINE
  5
C1
330
22
100
AcDbEntity
  8
B.Mask
  6
CONTINUOUS
100
AcDbLine
 10
161.5459349999999858
 20
-87.8040579999999977
 30
0
 11
161.5717499999999802
 21
-87.9338379999999944
 31
0
  0
LINE
  5
C2
330
22
100
AcDbEntity
  8
B.Mask
  6
CONTINUOUS
100
AcDbLine
 10
161.5717499999999802
 20
-87.9338379999999944
 30
0
 11
161.5717499999999802
 21
-88.0661619999999914
 31
0
  0
LINE
  5
C3
330
22
100
AcDbEntity
  8
B.Mask
  6
CONTINUOUS
100
AcDbLine
 10
161.5717499999999802
 20
-88.0661619999999914
 30
0
 11
161.5459349999999858
 21
-88.1959420000000023
 31
0
  0
LINE
  5
C4
330
22
100
AcDbEntity
  8
B.Mask
  6
CONTINUOUS
100
AcDbLine
 10
161.5459349999999858
 20
-88.1959420000000023
 30
0
 11
161.4952969999999937
 21
-88.3181929999999937
 31
0
  0
LINE
  5
C5
330
22
100
AcDbEntity
  8
B.Mask
  6
CONTINUOUS
100
AcDbLine
 10
161.4952969999999937
 20
-88.3181929999999937
 30
0
 11
161.421781999999979
 21
-88.4282149999999945
 31
0
  0
LINE
  5
C6
330
22
100
AcDbEntity
  8
B.Mask
  6
CONTINUOUS
100
AcDbLine
 10
161.421781999999979
 20
-88.4282149999999945
 30
0
 11
161.3282150000000001
 21
-88.5217820000000017
 31
0
  0
LINE
  5
C7
330
22
100
AcDbEntity
  8
B.Mask
  6
CONTINUOUS
100
AcDbLine
 10
161.3282150000000001
 20
-88.5217820000000017
 30
0
 11
161.2181929999999852
 21
-88.5952970000000022
 31
0
  0
LINE
  5
C8
330
22
100
AcDbEntity
  8
B.Mask
  6
CONTINUOUS
100
AcDbLine
 10
161.2181929999999852
 20
-88.5952970000000022
 30
0
 11
161.0959419999999795
 21
-88.6459349999999944
 31
0
  0
LINE
  5
C9
330
22
100
AcDbEntity
  8
B.Mask
  6
CONTINUOUS
100
AcDbLine
 10
161.0959419999999795
 20
-88.6459349999999944
 30
0
 11
160.9661619999999971
 21
-88.671750000000003
 31
0
  0
LINE
  5
CA
330
22
100
AcDbEntity
  8
B.Mask
  6
CONTINUOUS
100
AcDbLine
 10
160.9661619999999971
 20
-88.671750000000003
 30
0
 11
160.8338379999999859
 21
-88.671750000000003
 31
0
  0
LINE
  5
CB
330
22
100
AcDbEntity
  8
B.Mask
  6
CONTINUOUS
100
AcDbLine
 10
160.8338379999999859
 20
-88.671750000000003
 30
0
 11
160.7040580000000034
 21
-88.6459349999999944
 31
0
  0
LINE
  5
CC
330
22
100
AcDbEntity
  8
B.Mask
  6
CONTINUOUS
100
AcDbLine
 10
160.7040580000000034
 20
-88.6459349999999944
 30
0
 11
160.5818069999999977
 21
-88.5952970000000022
 31
0
  0
LINE
  5
CD
330
22
100
AcDbEntity
  8
B.Mask
  6
CONTINUOUS
100
AcDbLine
 10
160.5818069999999977
 20
-88.5952970000000022
 30
0
 11
160.4717849999999828
 21
-88.5217820000000017
 31
0
  0
LINE
  5
CE
330
22
100
AcDbEntity
  8
B.Mask
  6
CONTINUOUS
100
AcDbLine
 10
160.4717849999999828
 20
-88.5217820000000017
 30
0
 11
160.3782180000000039
 21
-88.4282149999999945
 31
0
  0
LINE
  5
CF
330
22
100
AcDbEntity
  8
B.Mask
  6
CONTINUOUS
100
AcDbLine
 10
160.3782180000000039
 20
-88.4282149999999945
 30
0
 11
160.3047029999999893
 21
-88.3181929999999937
 31
0
  0
LINE
  5
D0
330
22
100
AcDbEntity
  8
B.Mask
  6
CONTINUOUS
100
AcDbLine
 10
160.3047029999999893
 20
-88.3181929999999937
 30
0
 11
160.2540649999999971
 21
-88.1959420000000023
 31
0
  0
LINE
  5
D1
330
22
100
AcDbEntity
  8
B.Mask
  6
CONTINUOUS
100
AcDbLine
 10
160.2540649999999971
 20
-88.1959420000000023
 30
0
 11
160.2282500000000027
 21
-88.0661619999999914
 31
0
  0
LINE
  5
D2
330
22
100
AcDbEntity
  8
B.Mask
  6
CONTINUOUS
100
AcDbLine
 10
160.2282500000000027
 20
-88.0661619999999914
 30
0
 11
160.2282500000000027
 21
-87.9338379999999944
 31
0
  0
LINE
  5
D3
330
22
100
AcDbEntity
  8
B.Mask
  6
CONTINUOUS
100
AcDbLine
 10
160.2282500000000027
 20
-87.9338379999999944
 30
0
 11
160.2540649999999971
 21
-87.8040579999999977
 31
0
  0
LINE
  5
D4
330
22
100
AcDbEntity
  8
B.Mask
  6
CONTINUOUS
100
AcDbLine
 10
160.2540649999999971
 20
-87.8040579999999977
 30
0
 11
160.3047029999999893
 21
-87.6818069999999921
 31
0
  0
LINE
  5
D5
330
22
100
AcDbEntity
  8
B.Mask
  6
CONTINUOUS
100
AcDbLine
 10
160.3047029999999893
 20
-87.6818069999999921
 30
0
 11
160.3782180000000039
 21
-87.5717849999999913
 31
0
  0
LINE
  5
D6
330
22
100
AcDbEntity
  8
B.Mask
  6
CONTINUOUS
100
AcDbLine
 10
160.3782180000000039
 20
-87.5717849999999913
 30
0
 11
160.4717849999999828
 21
-87.4782179999999983
 31
0
  0
LINE
  5
D7
330
22
100
AcDbEntity
  8
B.Mask
  6
CONTINUOUS
100
AcDbLine
 10
160.4717849999999828
 20
-87.4782179999999983
 30
0
 11
160.5818069999999977
 21
-87.4047029999999978
 31
0
  0
LINE
  5
D8
330
22
100
AcDbEntity
  8
B.Mask
  6
CONTINUOUS
100
AcDbLine
 10
160.5818069999999977
 20
-87.4047029999999978
 30
0
 11
160.7040580000000034
 21
-87.3540649999999914
 31
0
  0
LINE
  5
D9
330
22
100
AcDbEntity
  8
B.Mask
  6
CONTINUOUS
100
AcDbLine
 10
160.7040580000000034
 20
-87.3540649999999914
 30
0
 11
160.8338379999999859
 21
-87.328249999999997
 31
0
  0
LINE
  5
DA
330
22
100
AcDbEntity
  8
B.Mask
  6
CONTINUOUS
100
AcDbLine
 10
160.8338379999999859
 20
-87.328249999999997
 30
0
 11
160.9661619999999971
 21
-87.328249999999997
 31
0
  0
LINE
  5
DB
330
22
100
AcDbEntity
  8
B.Mask
  6
CONTINUOUS
100
AcDbLine
 10
160.9661619999999971
 20
-87.328249999999997
 30
0
 11
161.0959419999999795
 21
-87.3540649999999914
 31
0
  0
LINE
  5
DC
330
22
100
AcDbEntity
  8
B.Mask
  6
CONTINUOUS
100
AcDbLine
 10
164.0959419999999795
 20
-87.3540649999999914
 30
0
 11
164.2181929999999852
 21
-87.4047029999999978
 31
0
  0
LINE
  5
DD
330
22
100
AcDbEntity
  8
B.Mask
  6
CONTINUOUS
100
AcDbLine
 10
164.2181929999999852
 20
-87.4047029999999978
 30
0
 11
164.3282150000000001
 21
-87.4782179999999983
 31
0
  0
LINE
  5
DE
330
22
100
AcDbEntity
  8
B.Mask
  6
CONTINUOUS
100
AcDbLine
 10
164.3282150000000001
 20
-87.4782179999999983
 30
0
 11
164.421781999999979
 21
-87.5717849999999913
 31
0
  0
LINE
  5
DF
330
22
100
AcDbEntity
  8
B.Mask
  6
CONTINUOUS
100
AcDbLine
 10
164.421781999999979
 20
-87.5717849999999913
 30
0
 11
164.4952969999999937
 21
-87.6818069999999921
 31
0
  0
LINE
  5
E0
330
22
100
AcDbEntity
  8
B.Mask
  6
CONTINUOUS
100
AcDbLine
 10
164.4952969999999937
 20
-87.6818069999999921
 30
0
 11
164.5459349999999858
 21
-87.8040579999999977
 31
0
  0
LINE
  5
E1
330
22
100
AcDbEntity
  8
B.Mask
  6
CONTINUOUS
100
AcDbLine
 10
164.5459349999999858
 20
-87.8040579999999977
 30
0
 11
164.5717499999999802
 21
-87.9338379999999944
 31
0
  0
LINE
  5
E2
330
22
100
AcDbEntity
  8
B.Mask
  6
CONTINUOUS
100
AcDbLine
 10
164.5717499999999802
 20
-87.9338379999999944
 30
0
 11
164.5717499999999802
 21
-88.0661619999999914
 31
0
  0
LINE
  5
E3
330
22
100
AcDbEntity
  8
B.Mask
  6
CONTINUOUS
100
AcDbLine
 10
164.5717499999999802
 20
-88.0661619999999914
 30
0
 11
164.5459349999999858
 21
-88.1959420000000023
 31
0
  0
LINE
  5
E4
330
22
100
AcDbEntity
  8
B.Mask
  6
CONTINUOUS
100
AcDbLine
 10
164.5459349999999858
 20
-88.1959420000000023
 30
0
 11
164.4952969999999937
 21
-88.3181929999999937
 31
0
  0
LINE
  5
E5
330
22
100
AcDbEntity
  8
B.Mask
  6
CONTINUOUS
100
AcDbLine
 10
164.4952969999999937
 20
-88.3181929999999937
 30
0
 11
164.421781999999979
 21
-88.4282149999999945
 31
0
  0
LINE
  5
E6
330
22
100
AcDbEntity
  8
B.Mask
  6
CONTINUOUS
100
AcDbLine
 10
164.421781999999979
 20
-88.4282149999999945
 30
0
 11
164.3282150000000001
 21
-88.5217820000000017
 31
0
  0
LINE
  5
E7
330
22
100
AcDbEntity
  8
B.Mask
  6
CONTINUOUS
100
AcDbLine
 10
164.3282150000000001
 20
-88.5217820000000017
 30
0
 11
164.2181929999999852
 21
-88.5952970000000022
 31
0
  0
LINE
  5
E8
330
22
100
AcDbEntity
  8
B.Mask
  6
CONTINUOUS
100
AcDbLine
 10
164.2181929999999852
 20
-88.5952970000000022
 30
0
 11
164.0959419999999795
 21
-88.6459349999999944
 31
0
  0
LINE
  5
E9
330
22
100
AcDbEntity
  8
B.Mask
  6
CONTINUOUS
100
AcDbLine
 10
164.0959419999999795
 20
-88.6459349999999944
 30
0
 11
163.9661619999999971
 21
-88.671750000000003
 31
0
  0
LINE
  5
EA
330
22
100
AcDbEntity
  8
B.Mask
  6
CONTINUOUS
100
AcDbLine
 10
163.9661619999999971
 20
-88.671750000000003
 30
0
 11
163.8338379999999859
 21
-88.671750000000003
 31
0
  0
LINE
  5
EB
330
22
100
AcDbEntity
  8
B.Mask
  6
CONTINUOUS
100
AcDbLine
 10
163.8338379999999859
 20
-88.671750000000003
 30
0
 11
163.7040580000000034
 21
-88.6459349999999944
 31
0
  0
LINE
  5
EC
330
22
100
AcDbEntity
  8
B.Mask
  6
CONTINUOUS
100
AcDbLine
 10
163.7040580000000034
 20
-88.6459349999999944
 30
0
 11
163.5818069999999977
 21
-88.5952970000000022
 31
0
  0
LINE
  5
ED
330
22
100
AcDbEntity
  8
B.Mask
  6
CONTINUOUS
100
AcDbLine
 10
163.5818069999999977
 20
-88.5952970000000022
 30
0
 11
163.4717849999999828
 21
-88.5217820000000017
 31
0
  0
LINE
  5
EE
330
22
100
AcDbEntity
  8
B.Mask
  6
CONTINUOUS
100
AcDbLine
 10
163.4717849999999828
 20
-88.5217820000000017
 30
0
 11
163.3782180000000039
 21
-88.4282149999999945
 31
0
  0
LINE
  5
EF
330
22
100
AcDbEntity
  8
B.Mask
  6
CONTINUOUS
100
AcDbLine
 10
163.3782180000000039
 20
-88.4282149999999945
 30
0
 11
163.3047029999999893
 21
-88.3181929999999937
 31
0
  0
LINE
  5
F0
330
22
100
AcDbEntity
  8
B.Mask
  6
CONTINUOUS
100
AcDbLine
 10
163.3047029999999893
 20
-88.3181929999999937
 30
0
 11
163.2540649999999971
 21
-88.1959420000000023
 31
0
  0
LINE
  5
F1
330
22
100
AcDbEntity
  8
B.Mask
  6
CONTINUOUS
100
AcDbLine
 10
163.2540649999999971
 20
-88.1959420000000023
 30
0
 11
163.2282500000000027
 21
-88.0661619999999914
 31
0
  0
LINE
  5
F2
330
22
100
AcDbEntity
  8
B.Mask
  6
CONTINUOUS
100
AcDbLine
 10
163.2282500000000027
 20
-88.0661619999999914
 30
0
 11
163.2282500000000027
 21
-87.9338379999999944
 31
0
  0
LINE
  5
F3
330
22
100
AcDbEntity
  8
B.Mask
  6
CONTINUOUS
100
AcDbLine
 10
163.2282500000000027
 20
-87.9338379999999944
 30
0
 11
163.2540649999999971
 21
-87.8040579999999977
 31
0
  0
LINE
  5
F4
330
22
100
AcDbEntity
  8
B.Mask
  6
CONTINUOUS
100
AcDbLine
 10
163.2540649999999971
 20
-87.8040579999999977
 30
0
 11
163.3047029999999893
 21
-87.6818069999999921
 31
0
  0
LINE
  5
F5
330
22
100
AcDbEntity
  8
B.Mask
  6
CONTINUOUS
100
AcDbLine
 10
163.3047029999999893
 20
-87.6818069999999921
 30
0
 11
163.3782180000000039
 21
-87.5717849999999913
 31
0
  0
LINE
  5
F6
330
22
100
AcDbEntity
  8
B.Mask
  6
CONTINUOUS
100
AcDbLine
 10
163.3782180000000039
 20
-87.5717849999999913
 30
0
 11
163.4717849999999828
 21
-87.4782179999999983
 31
0
  0
LINE
  5
F7
330
22
100
AcDbEntity
  8
B.Mask
  6
CONTINUOUS
100
AcDbLine
 10
163.4717849999999828
 20
-87.4782179999999983
 30
0
 11
163.5818069999999977
 21
-87.4047029999999978
 31
0
  0
LINE
  5
F8
330
22
100
AcDbEntity
  8
B.Mask
  6
CONTINUOUS
100
AcDbLine
 10
163.5818069999999977
 20
-87.4047029999999978
 30
0
 11
163.7040580000000034
 21
-87.3540649999999914
 31
0
  0
LINE
  5
F9
330
22
100
AcDbEntity
  8
B.Mask
  6
CONTINUOUS
100
AcDbLine
 10
163.7040580000000034
 20
-87.3540649999999914
 30
0
 11
163.8338379999999859
 21
-87.328249999999997
 31
0
  0
LINE
  5
FA
330
22
100
AcDbEntity
  8
B.Mask
  6
CONTINUOUS
100
AcDbLine
 10
163.8338379999999859
 20
-87.328249999999997
 30
0
 11
163.9661619999999971
 21
-87.328249999999997
 31
0
  0
LINE
  5
FB
330
22
100
AcDbEntity
  8
B.Mask
  6
CONTINUOUS
100
AcDbLine
 10
163.9661619999999971
 20
-87.328249999999997
 30
0
 11
164.0959419999999795
 21
-87.3540649999999914
 31
0
  0
LINE
  5
FC
330
22
100
AcDbEntity
  8
B.Mask
  6
CONTINUOUS
100
AcDbLine
 10
167.0959419999999795
 20
-87.3540649999999914
 30
0
 11
167.2181929999999852
 21
-87.4047029999999978
 31
0
  0
LINE
  5
FD
330
22
100
AcDbEntity
  8
B.Mask
  6
CONTINUOUS
100
AcDbLine
 10
167.2181929999999852
 20
-87.4047029999999978
 30
0
 11
167.3282150000000001
 21
-87.4782179999999983
 31
0
  0
LINE
  5
FE
330
22
100
AcDbEntity
  8
B.Mask
  6
CONTINUOUS
100
AcDbLine
 10
167.3282150000000001
 20
-87.4782179999999983
 30
0
 11
167.421781999999979
 21
-87.5717849999999913
 31
0
  0
LINE
  5
FF
330
22
100
AcDbEntity
  8
B.Mask
  6
CONTINUOUS
100
AcDbLine
 10
167.421781999999979
 20
-87.5717849999999913
 30
0
 11
167.4952969999999937
 21
-87.6818069999999921
 31
0
  0
LINE
  5
100
330
22
100
AcDbEntity
  8
B.Mask
  6
CONTINUOUS
100
AcDbLine
 10
167.4952969999999937
 20
-87.6818069999999921
 30
0
 11
167.5459349999999858
 21
-87.8040579999999977
 31
0
  0
LINE
  5
101
330
22
100
AcDbEntity
  8
B.Mask
  6
CONTINUOUS
100
AcDbLine
 10
167.5459349999999858
 20
-87.8040579999999977
 30
0
 11
167.5717499999999802
 21
-87.9338379999999944
 31
0
  0
LINE
  5
102
330
22
100
AcDbEntity
  8
B.Mask
  6
CONTINUOUS
100
AcDbLine
 10
167.5717499999999802
 20
-87.9338379999999944
 30
0
 11
167.5717499999999802
 21
-88.0661619999999914
 31
0
  0
LINE
  5
103
330
22
100
AcDbEntity
  8
B.Mask
  6
CONTINUOUS
100
AcDbLine
 10
167.5717499999999802
 20
-88.0661619999999914
 30
0
 11
167.5459349999999858
 21
-88.1959420000000023
 31
0
  0
LINE
  5
104
330
22
100
AcDbEntity
  8
B.Mask
  6
CONTINUOUS
100
AcDbLine
 10
167.5459349999999858
 20
-88.1959420000000023
 30
0
 11
167.4952969999999937
 21
-88.3181929999999937
 31
0
  0
LINE
  5
105
330
22
100
AcDbEntity
  8
B.Mask
  6
CONTINUOUS
100
AcDbLine
 10
167.4952969999999937
 20
-88.3181929999999937
 30
0
 11
167.421781999999979
 21
-88.4282149999999945
 31
0
  0
LINE
  5
106
330
22
100
AcDbEntity
  8
B.Mask
  6
CONTINUOUS
100
AcDbLine
 10
167.421781999999979
 20
-88.4282149999999945
 30
0
 11
167.3282150000000001
 21
-88.5217820000000017
 31
0
  0
LINE
  5
107
330
22
100
AcDbEntity
  8
B.Mask
  6
CONTINUOUS
100
AcDbLine
 10
167.3282150000000001
 20
-88.5217820000000017
 30
0
 11
167.2181929999999852
 21
-88.5952970000000022
 31
0
  0
LINE
  5
108
330
22
100
AcDbEntity
  8
B.Mask
  6
CONTINUOUS
100
AcDbLine
 10
167.2181929999999852
 20
-88.5952970000000022
 30
0
 11
167.0959419999999795
 21
-88.6459349999999944
 31
0
  0
LINE
  5
109
330
22
100
AcDbEntity
  8
B.Mask
  6
CONTINUOUS
100
AcDbLine
 10
167.0959419999999795
 20
-88.6459349999999944
 30
0
 11
166.9661619999999971
 21
-88.671750000000003
 31
0
  0
LINE
  5
10A
330
22
100
AcDbEntity
  8
B.Mask
  6
CONTINUOUS
100
AcDbLine
 10
166.9661619999999971
 20
-88.671750000000003
 30
0
 11
166.8338379999999859
 21
-88.671750000000003
 31
0
  0
LINE
  5
10B
330
22
100
AcDbEntity
  8
B.Mask
  6
CONTINUOUS
100
AcDbLine
 10
166.8338379999999859
 20
-88.671750000000003
 30
0
 11
166.7040580000000034
 21
-88.6459349999999944
 31
0
  0
LINE
  5
10C
330
22
100
AcDbEntity
  8
B.Mask
  6
CONTINUOUS
100
AcDbLine
 10
166.7040580000000034
 20
-88.6459349999999944
 30
0
 11
166.5818069999999977
 21
-88.5952970000000022
 31
0
  0
LINE
  5
10D
330
22
100
AcDbEntity
  8
B.Mask
  6
CONTINUOUS
100
AcDbLine
 10
166.5818069999999977
 20
-88.5952970000000022
 30
0
 11
166.4717849999999828
 21
-88.5217820000000017
 31
0
  0
LINE
  5
10E
330
22
100
AcDbEntity
  8
B.Mask
  6
CONTINUOUS
100
AcDbLine
 10
166.4717849999999828
 20
-88.5217820000000017
 30
0
 11
166.3782180000000039
 21
-88.4282149999999945
 31
0
  0
LINE
  5
10F
330
22
100
AcDbEntity
  8
B.Mask
  6
CONTINUOUS
100
AcDbLine
 10
166.3782180000000039
 20
-88.4282149999999945
 30
0
 11
166.3047029999999893
 21
-88.3181929999999937
 31
0
  0
LINE
  5
110
330
22
100
AcDbEntity
  8
B.Mask
  6
CONTINUOUS
100
AcDbLine
 10
166.3047029999999893
 20
-88.3181929999999937
 30
0
 11
166.2540649999999971
 21
-88.1959420000000023
 31
0
  0
LINE
  5
111
330
22
100
AcDbEntity
  8
B.Mask
  6
CONTINUOUS
100
AcDbLine
 10
166.2540649999999971
 20
-88.1959420000000023
 30
0
 11
166.2282500000000027
 21
-88.0661619999999914
 31
0
  0
LINE
  5
112
330
22
100
AcDbEntity
  8
B.Mask
  6
CONTINUOUS
100
AcDbLine
 10
166.2282500000000027
 20
-88.0661619999999914
 30
0
 11
166.2282500000000027
 21
-87.9338379999999944
 31
0
  0
LINE
  5
113
330
22
100
AcDbEntity
  8
B.Mask
  6
CONTINUOUS
100
AcDbLine
 10
166.2282500000000027
 20
-87.9338379999999944
 30
0
 11
166.2540649999999971
 21
-87.8040579999999977
 31
0
  0
LINE
  5
114
330
22
100
AcDbEntity
  8
B.Mask
  6
CONTINUOUS
100
AcDbLine
 10
166.2540649999999971
 20
-87.8040579999999977
 30
0
 11
166.3047029999999893
 21
-87.6818069999999921
 31
0
  0
LINE
  5
115
330
22
100
AcDbEntity
  8
B.Mask
  6
CONTINUOUS
100
AcDbLine
 10
166.3047029999999893
 20
-87.6818069999999921
 30
0
 11
166.3782180000000039
 21
-87.5717849999999913
 31
0
  0
LINE
  5
116
330
22
100
AcDbEntity
  8
B.Mask
  6
CONTINUOUS
100
AcDbLine
 10
166.3782180000000039
 20
-87.5717849999999913
 30
0
 11
166.4717849999999828
 21
-87.4782179999999983
 31
0
  0
LINE
  5
117
330
22
100
AcDbEntity
  8
B.Mask
  6
CONTINUOUS
100
AcDbLine
 10
166.4717849999999828
 20
-87.4782179999999983
 30
0
 11
166.5818069999999977
 21
-87.4047029999999978
 31
0
  0
LINE
  5
118
330
22
100
AcDbEntity
  8
B.Mask
  6
CONTINUOUS
100
AcDbLine
 10
166.5818069999999977
 20
-87.4047029999999978
 30
0
 11
166.7040580000000034
 21
-87.3540649999999914
 31
0
  0
LINE
  5
119
330
22
100
AcDbEntity
  8
B.Mask
  6
CONTINUOUS
100
AcDbLine
 10
166.7040580000000034
 20
-87.3540649999999914
 30
0
 11
166.8338379999999859
 21
-87.328249999999997
 31
0
  0
LINE
  5
11A
330
22
100
AcDbEntity
  8
B.Mask
  6
CONTINUOUS
100
AcDbLine
 10
166.8338379999999859
 20
-87.328249999999997
 30
0
 11
166.9661619999999971
 21
-87.328249999999997
 31
0
  0
LINE
  5
11B
330
22
100
AcDbEntity
  8
B.Mask
  6
CONTINUOUS
100
AcDbLine
 10
166.9661619999999971
 20
-87.328249999999997
 30
0
 11
167.0959419999999795
 21
-87.3540649999999914
 31
0
  0
LINE
  5
11C
330
22
100
AcDbEntity
  8
B.Mask
  6
CONTINUOUS
100
AcDbLine
 10
161.0959419999999795
 20
-85.3540649999999914
 30
0
 11
161.2181929999999852
 21
-85.4047029999999978
 31
0
  0
LINE
  5
11D
330
22
100
AcDbEntity
  8
B.Mask
  6
CONTINUOUS
100
AcDbLine
 10
161.2181929999999852
 20
-85.4047029999999978
 30
0
 11
161.3282150000000001
 21
-85.4782179999999983
 31
0
  0
LINE
  5
11E
330
22
100
AcDbEntity
  8
B.Mask
  6
CONTINUOUS
100
AcDbLine
 10
161.3282150000000001
 20
-85.4782179999999983
 30
0
 11
161.421781999999979
 21
-85.5717849999999913
 31
0
  0
LINE
  5
11F
330
22
100
AcDbEntity
  8
B.Mask
  6
CONTINUOUS
100
AcDbLine
 10
161.421781999999979
 20
-85.5717849999999913
 30
0
 11
161.4952969999999937
 21
-85.6818069999999921
 31
0
  0
LINE
  5
120
330
22
100
AcDbEntity
  8
B.Mask
  6
CONTINUOUS
100
AcDbLine
 10
161.4952969999999937
 20
-85.6818069999999921
 30
0
 11
161.5459349999999858
 21
-85.8040579999999977
 31
0
  0
LINE
  5
121
330
22
100
AcDbEntity
  8
B.Mask
  6
CONTINUOUS
100
AcDbLine
 10
161.5459349999999858
 20
-85.8040579999999977
 30
0
 11
161.5717499999999802
 21
-85.9338379999999944
 31
0
  0
LINE
  5
122
330
22
100
AcDbEntity
  8
B.Mask
  6
CONTINUOUS
100
AcDbLine
 10
161.5717499999999802
 20
-85.9338379999999944
 30
0
 11
161.5717499999999802
 21
-86.0661619999999914
 31
0
  0
LINE
  5
123
330
22
100
AcDbEntity
  8
B.Mask
  6
CONTINUOUS
100
AcDbLine
 10
161.5717499999999802
 20
-86.0661619999999914
 30
0
 11
161.5459349999999858
 21
-86.1959420000000023
 31
0
  0
LINE
  5
124
330
22
100
AcDbEntity
  8
B.Mask
  6
CONTINUOUS
100
AcDbLine
 10
161.5459349999999858
 20
-86.1959420000000023
 30
0
 11
161.4952969999999937
 21
-86.3181929999999937
 31
0
  0
LINE
  5
125
330
22
100
AcDbEntity
  8
B.Mask
  6
CONTINUOUS
100
AcDbLine
 10
161.4952969999999937
 20
-86.3181929999999937
 30
0
 11
161.421781999999979
 21
-86.4282149999999945
 31
0
  0
LINE
  5
126
330
22
100
AcDbEntity
  8
B.Mask
  6
CONTINUOUS
100
AcDbLine
 10
161.421781999999979
 20
-86.4282149999999945
 30
0
 11
161.3282150000000001
 21
-86.5217820000000017
 31
0
  0
LINE
  5
127
330
22
100
AcDbEntity
  8
B.Mask
  6
CONTINUOUS
100
AcDbLine
 10
161.3282150000000001
 20
-86.5217820000000017
 30
0
 11
161.2181929999999852
 21
-86.5952970000000022
 31
0
  0
LINE
  5
128
330
22
100
AcDbEntity
  8
B.Mask
  6
CONTINUOUS
100
AcDbLine
 10
161.2181929999999852
 20
-86.5952970000000022
 30
0
 11
161.0959419999999795
 21
-86.6459349999999944
 31
0
  0
LINE
  5
129
330
22
100
AcDbEntity
  8
B.Mask
  6
CONTINUOUS
100
AcDbLine
 10
161.0959419999999795
 20
-86.6459349999999944
 30
0
 11
160.9661619999999971
 21
-86.671750000000003
 31
0
  0
LINE
  5
12A
330
22
100
AcDbEntity
  8
B.Mask
  6
CONTINUOUS
100
AcDbLine
 10
160.9661619999999971
 20
-86.671750000000003
 30
0
 11
160.8338379999999859
 21
-86.671750000000003
 31
0
  0
LINE
  5
12B
330
22
100
AcDbEntity
  8
B.Mask
  6
CONTINUOUS
100
AcDbLine
 10
160.8338379999999859
 20
-86.671750000000003
 30
0
 11
160.7040580000000034
 21
-86.6459349999999944
 31
0
  0
LINE
  5
12C
330
22
100
AcDbEntity
  8
B.Mask
  6
CONTINUOUS
100
AcDbLine
 10
160.7040580000000034
 20
-86.6459349999999944
 30
0
 11
160.5818069999999977
 21
-86.5952970000000022
 31
0
  0
LINE
  5
12D
330
22
100
AcDbEntity
  8
B.Mask
  6
CONTINUOUS
100
AcDbLine
 10
160.5818069999999977
 20
-86.5952970000000022
 30
0
 11
160.4717849999999828
 21
-86.5217820000000017
 31
0
  0
LINE
  5
12E
330
22
100
AcDbEntity
  8
B.Mask
  6
CONTINUOUS
100
AcDbLine
 10
160.4717849999999828
 20
-86.5217820000000017
 30
0
 11
160.3782180000000039
 21
-86.4282149999999945
 31
0
  0
LINE
  5
12F
330
22
100
AcDbEntity
  8
B.Mask
  6
CONTINUOUS
100
AcDbLine
 10
160.3782180000000039
 20
-86.4282149999999945
 30
0
 11
160.3047029999999893
 21
-86.3181929999999937
 31
0
  0
LINE
  5
130
330
22
100
AcDbEntity
  8
B.Mask
  6
CONTINUOUS
100
AcDbLine
 10
160.3047029999999893
 20
-86.3181929999999937
 30
0
 11
160.2540649999999971
 21
-86.1959420000000023
 31
0
  0
LINE
  5
131
330
22
100
AcDbEntity
  8
B.Mask
  6
CONTINUOUS
100
AcDbLine
 10
160.2540649999999971
 20
-86.1959420000000023
 30
0
 11
160.2282500000000027
 21
-86.0661619999999914
 31
0
  0
LINE
  5
132
330
22
100
AcDbEntity
  8
B.Mask
  6
CONTINUOUS
100
AcDbLine
 10
160.2282500000000027
 20
-86.0661619999999914
 30
0
 11
160.2282500000000027
 21
-85.9338379999999944
 31
0
  0
LINE
  5
133
330
22
100
AcDbEntity
  8
B.Mask
  6
CONTINUOUS
100
AcDbLine
 10
160.2282500000000027
 20
-85.9338379999999944
 30
0
 11
160.2540649999999971
 21
-85.8040579999999977
 31
0
  0
LINE
  5
134
330
22
100
AcDbEntity
  8
B.Mask
  6
CONTINUOUS
100
AcDbLine
 10
160.2540649999999971
 20
-85.8040579999999977
 30
0
 11
160.3047029999999893
 21
-85.6818069999999921
 31
0
  0
LINE
  5
135
330
22
100
AcDbEntity
  8
B.Mask
  6
CONTINUOUS
100
AcDbLine
 10
160.3047029999999893
 20
-85.6818069999999921
 30
0
 11
160.3782180000000039
 21
-85.5717849999999913
 31
0
  0
LINE
  5
136
330
22
100
AcDbEntity
  8
B.Mask
  6
CONTINUOUS
100
AcDbLine
 10
160.3782180000000039
 20
-85.5717849999999913
 30
0
 11
160.4717849999999828
 21
-85.4782179999999983
 31
0
  0
LINE
  5
137
330
22
100
AcDbEntity
  8
B.Mask
  6
CONTINUOUS
100
AcDbLine
 10
160.4717849999999828
 20
-85.4782179999999983
 30
0
 11
160.5818069999999977
 21
-85.4047029999999978
 31
0
  0
LINE
  5
138
330
22
100
AcDbEntity
  8
B.Mask
  6
CONTINUOUS
100
AcDbLine
 10
160.5818069999999977
 20
-85.4047029999999978
 30
0
 11
160.7040580000000034
 21
-85.3540649999999914
 31
0
  0
LINE
  5
139
330
22
100
AcDbEntity
  8
B.Mask
  6
CONTINUOUS
100
AcDbLine
 10
160.7040580000000034
 20
-85.3540649999999914
 30
0
 11
160.8338379999999859
 21
-85.328249999999997
 31
0
  0
LINE
  5
13A
330
22
100
AcDbEntity
  8
B.Mask
  6
CONTINUOUS
100
AcDbLine
 10
160.8338379999999859
 20
-85.328249999999997
 30
0
 11
160.9661619999999971
 21
-85.328249999999997
 31
0
  0
LINE
  5
13B
330
22
100
AcDbEntity
  8
B.Mask
  6
CONTINUOUS
100
AcDbLine
 10
160.9661619999999971
 20
-85.328249999999997
 30
0
 11
161.0959419999999795
 21
-85.3540649999999914
 31
0
  0
LINE
  5
13C
330
22
100
AcDbEntity
  8
B.Mask
  6
CONTINUOUS
100
AcDbLine
 10
116.6907579999999882
 20
-86.5491839999999968
 30
0
 11
114.9907579999999996
 21
-86.5491839999999968
 31
0
  0
LINE
  5
13D
330
22
100
AcDbEntity
  8
B.Mask
  6
CONTINUOUS
100
AcDbLine
 10
114.9907579999999996
 20
-86.5491839999999968
 30
0
 11
114.9907579999999996
 21
-84.8491839999999939
 31
0
  0
LINE
  5
13E
330
22
100
AcDbEntity
  8
B.Mask
  6
CONTINUOUS
100
AcDbLine
 10
114.9907579999999996
 20
-84.8491839999999939
 30
0
 11
116.6907579999999882
 21
-84.8491839999999939
 31
0
  0
LINE
  5
13F
330
22
100
AcDbEntity
  8
B.Mask
  6
CONTINUOUS
100
AcDbLine
 10
116.6907579999999882
 20
-84.8491839999999939
 30
0
 11
116.6907579999999882
 21
-86.5491839999999968
 31
0
  0
LINE
  5
140
330
22
100
AcDbEntity
  8
B.Mask
  6
CONTINUOUS
100
AcDbLine
 10
129.2177140000000009
 20
-84.2822949999999906
 30
0
 11
129.3535479999999893
 21
-84.3385589999999894
 31
0
  0
LINE
  5
141
330
22
100
AcDbEntity
  8
B.Mask
  6
CONTINUOUS
100
AcDbLine
 10
129.3535479999999893
 20
-84.3385589999999894
 30
0
 11
129.4757950000000051
 21
-84.4202420000000018
 31
0
  0
LINE
  5
142
330
22
100
AcDbEntity
  8
B.Mask
  6
CONTINUOUS
100
AcDbLine
 10
129.4757950000000051
 20
-84.4202420000000018
 30
0
 11
129.5797579999999982
 21
-84.5242049999999949
 31
0
  0
LINE
  5
143
330
22
100
AcDbEntity
  8
B.Mask
  6
CONTINUOUS
100
AcDbLine
 10
129.5797579999999982
 20
-84.5242049999999949
 30
0
 11
129.6614409999999964
 21
-84.6464519999999965
 31
0
  0
LINE
  5
144
330
22
100
AcDbEntity
  8
B.Mask
  6
CONTINUOUS
100
AcDbLine
 10
129.6614409999999964
 20
-84.6464519999999965
 30
0
 11
129.7177049999999952
 21
-84.7822859999999991
 31
0
  0
LINE
  5
145
330
22
100
AcDbEntity
  8
B.Mask
  6
CONTINUOUS
100
AcDbLine
 10
129.7177049999999952
 20
-84.7822859999999991
 30
0
 11
129.7463889999999935
 21
-84.9264869999999945
 31
0
  0
LINE
  5
146
330
22
100
AcDbEntity
  8
B.Mask
  6
CONTINUOUS
100
AcDbLine
 10
129.7463889999999935
 20
-84.9264869999999945
 30
0
 11
129.7463889999999935
 21
-85.0735129999999913
 31
0
  0
LINE
  5
147
330
22
100
AcDbEntity
  8
B.Mask
  6
CONTINUOUS
100
AcDbLine
 10
129.7463889999999935
 20
-85.0735129999999913
 30
0
 11
129.7177049999999952
 21
-85.2177140000000009
 31
0
  0
LINE
  5
148
330
22
100
AcDbEntity
  8
B.Mask
  6
CONTINUOUS
100
AcDbLine
 10
129.7177049999999952
 20
-85.2177140000000009
 30
0
 11
129.6614409999999964
 21
-85.3535479999999893
 31
0
  0
LINE
  5
149
330
22
100
AcDbEntity
  8
B.Mask
  6
CONTINUOUS
100
AcDbLine
 10
129.6614409999999964
 20
-85.3535479999999893
 30
0
 11
129.5797579999999982
 21
-85.4757949999999909
 31
0
  0
LINE
  5
14A
330
22
100
AcDbEntity
  8
B.Mask
  6
CONTINUOUS
100
AcDbLine
 10
129.5797579999999982
 20
-85.4757949999999909
 30
0
 11
129.4757950000000051
 21
-85.5797579999999982
 31
0
  0
LINE
  5
14B
330
22
100
AcDbEntity
  8
B.Mask
  6
CONTINUOUS
100
AcDbLine
 10
129.4757950000000051
 20
-85.5797579999999982
 30
0
 11
129.3535479999999893
 21
-85.6614409999999964
 31
0
  0
LINE
  5
14C
330
22
100
AcDbEntity
  8
B.Mask
  6
CONTINUOUS
100
AcDbLine
 10
129.3535479999999893
 20
-85.6614409999999964
 30
0
 11
129.2177140000000009
 21
-85.7177049999999952
 31
0
  0
LINE
  5
14D
330
22
100
AcDbEntity
  8
B.Mask
  6
CONTINUOUS
100
AcDbLine
 10
129.2177140000000009
 20
-85.7177049999999952
 30
0
 11
129.0735129999999913
 21
-85.7463889999999935
 31
0
  0
LINE
  5
14E
330
22
100
AcDbEntity
  8
B.Mask
  6
CONTINUOUS
100
AcDbLine
 10
129.0735129999999913
 20
-85.7463889999999935
 30
0
 11
128.9264869999999803
 21
-85.7463889999999935
 31
0
  0
LINE
  5
14F
330
22
100
AcDbEntity
  8
B.Mask
  6
CONTINUOUS
100
AcDbLine
 10
128.9264869999999803
 20
-85.7463889999999935
 30
0
 11
128.7822859999999991
 21
-85.7177049999999952
 31
0
  0
LINE
  5
150
330
22
100
AcDbEntity
  8
B.Mask
  6
CONTINUOUS
100
AcDbLine
 10
128.7822859999999991
 20
-85.7177049999999952
 30
0
 11
128.6464519999999823
 21
-85.6614409999999964
 31
0
  0
LINE
  5
151
330
22
100
AcDbEntity
  8
B.Mask
  6
CONTINUOUS
100
AcDbLine
 10
128.6464519999999823
 20
-85.6614409999999964
 30
0
 11
128.5242049999999949
 21
-85.5797579999999982
 31
0
  0
LINE
  5
152
330
22
100
AcDbEntity
  8
B.Mask
  6
CONTINUOUS
100
AcDbLine
 10
128.5242049999999949
 20
-85.5797579999999982
 30
0
 11
128.4202420000000018
 21
-85.4757949999999909
 31
0
  0
LINE
  5
153
330
22
100
AcDbEntity
  8
B.Mask
  6
CONTINUOUS
100
AcDbLine
 10
128.4202420000000018
 20
-85.4757949999999909
 30
0
 11
128.3385590000000036
 21
-85.3535479999999893
 31
0
  0
LINE
  5
154
330
22
100
AcDbEntity
  8
B.Mask
  6
CONTINUOUS
100
AcDbLine
 10
128.3385590000000036
 20
-85.3535479999999893
 30
0
 11
128.2822950000000048
 21
-85.2177140000000009
 31
0
  0
LINE
  5
155
330
22
100
AcDbEntity
  8
B.Mask
  6
CONTINUOUS
100
AcDbLine
 10
128.2822950000000048
 20
-85.2177140000000009
 30
0
 11
128.2536110000000065
 21
-85.0735129999999913
 31
0
  0
LINE
  5
156
330
22
100
AcDbEntity
  8
B.Mask
  6
CONTINUOUS
100
AcDbLine
 10
128.2536110000000065
 20
-85.0735129999999913
 30
0
 11
128.2536110000000065
 21
-84.9264869999999945
 31
0
  0
LINE
  5
157
330
22
100
AcDbEntity
  8
B.Mask
  6
CONTINUOUS
100
AcDbLine
 10
128.2536110000000065
 20
-84.9264869999999945
 30
0
 11
128.2822950000000048
 21
-84.7822859999999991
 31
0
  0
LINE
  5
158
330
22
100
AcDbEntity
  8
B.Mask
  6
CONTINUOUS
100
AcDbLine
 10
128.2822950000000048
 20
-84.7822859999999991
 30
0
 11
128.3385590000000036
 21
-84.6464519999999965
 31
0
  0
LINE
  5
159
330
22
100
AcDbEntity
  8
B.Mask
  6
CONTINUOUS
100
AcDbLine
 10
128.3385590000000036
 20
-84.6464519999999965
 30
0
 11
128.4202420000000018
 21
-84.5242049999999949
 31
0
  0
LINE
  5
15A
330
22
100
AcDbEntity
  8
B.Mask
  6
CONTINUOUS
100
AcDbLine
 10
128.4202420000000018
 20
-84.5242049999999949
 30
0
 11
128.5242049999999949
 21
-84.4202420000000018
 31
0
  0
LINE
  5
15B
330
22
100
AcDbEntity
  8
B.Mask
  6
CONTINUOUS
100
AcDbLine
 10
128.5242049999999949
 20
-84.4202420000000018
 30
0
 11
128.6464519999999823
 21
-84.3385589999999894
 31
0
  0
LINE
  5
15C
330
22
100
AcDbEntity
  8
B.Mask
  6
CONTINUOUS
100
AcDbLine
 10
128.6464519999999823
 20
-84.3385589999999894
 30
0
 11
128.7822859999999991
 21
-84.2822949999999906
 31
0
  0
LINE
  5
15D
330
22
100
AcDbEntity
  8
B.Mask
  6
CONTINUOUS
100
AcDbLine
 10
128.7822859999999991
 20
-84.2822949999999906
 30
0
 11
128.9264869999999803
 21
-84.2536109999999923
 31
0
  0
LINE
  5
15E
330
22
100
AcDbEntity
  8
B.Mask
  6
CONTINUOUS
100
AcDbLine
 10
128.9264869999999803
 20
-84.2536109999999923
 30
0
 11
129.0735129999999913
 21
-84.2536109999999923
 31
0
  0
LINE
  5
15F
330
22
100
AcDbEntity
  8
B.Mask
  6
CONTINUOUS
100
AcDbLine
 10
129.0735129999999913
 20
-84.2536109999999923
 30
0
 11
129.2177140000000009
 21
-84.2822949999999906
 31
0
  0
LINE
  5
160
330
22
100
AcDbEntity
  8
B.Mask
  6
CONTINUOUS
100
AcDbLine
 10
116.0874999999999915
 20
-82.3457849999999922
 30
0
 11
116.2414449999999988
 21
-82.4095509999999933
 31
0
  0
LINE
  5
161
330
22
100
AcDbEntity
  8
B.Mask
  6
CONTINUOUS
100
AcDbLine
 10
116.2414449999999988
 20
-82.4095509999999933
 30
0
 11
116.3799920000000014
 21
-82.5021249999999924
 31
0
  0
LINE
  5
162
330
22
100
AcDbEntity
  8
B.Mask
  6
CONTINUOUS
100
AcDbLine
 10
116.3799920000000014
 20
-82.5021249999999924
 30
0
 11
116.4978169999999977
 21
-82.6199500000000029
 31
0
  0
LINE
  5
163
330
22
100
AcDbEntity
  8
B.Mask
  6
CONTINUOUS
100
AcDbLine
 10
116.4978169999999977
 20
-82.6199500000000029
 30
0
 11
116.5903909999999968
 21
-82.7584969999999913
 31
0
  0
LINE
  5
164
330
22
100
AcDbEntity
  8
B.Mask
  6
CONTINUOUS
100
AcDbLine
 10
116.5903909999999968
 20
-82.7584969999999913
 30
0
 11
116.6541569999999979
 21
-82.9124419999999986
 31
0
  0
LINE
  5
165
330
22
100
AcDbEntity
  8
B.Mask
  6
CONTINUOUS
100
AcDbLine
 10
116.6541569999999979
 20
-82.9124419999999986
 30
0
 11
116.6866649999999908
 21
-83.0758689999999973
 31
0
  0
LINE
  5
166
330
22
100
AcDbEntity
  8
B.Mask
  6
CONTINUOUS
100
AcDbLine
 10
116.6866649999999908
 20
-83.0758689999999973
 30
0
 11
116.6866649999999908
 21
-83.2424989999999951
 31
0
  0
LINE
  5
167
330
22
100
AcDbEntity
  8
B.Mask
  6
CONTINUOUS
100
AcDbLine
 10
116.6866649999999908
 20
-83.2424989999999951
 30
0
 11
116.6541569999999979
 21
-83.4059259999999938
 31
0
  0
LINE
  5
168
330
22
100
AcDbEntity
  8
B.Mask
  6
CONTINUOUS
100
AcDbLine
 10
116.6541569999999979
 20
-83.4059259999999938
 30
0
 11
116.5903909999999968
 21
-83.5598710000000011
 31
0
  0
LINE
  5
169
330
22
100
AcDbEntity
  8
B.Mask
  6
CONTINUOUS
100
AcDbLine
 10
116.5903909999999968
 20
-83.5598710000000011
 30
0
 11
116.4978169999999977
 21
-83.6984179999999895
 31
0
  0
LINE
  5
16A
330
22
100
AcDbEntity
  8
B.Mask
  6
CONTINUOUS
100
AcDbLine
 10
116.4978169999999977
 20
-83.6984179999999895
 30
0
 11
116.3799920000000014
 21
-83.8162430000000001
 31
0
  0
LINE
  5
16B
330
22
100
AcDbEntity
  8
B.Mask
  6
CONTINUOUS
100
AcDbLine
 10
116.3799920000000014
 20
-83.8162430000000001
 30
0
 11
116.2414449999999988
 21
-83.9088169999999991
 31
0
  0
LINE
  5
16C
330
22
100
AcDbEntity
  8
B.Mask
  6
CONTINUOUS
100
AcDbLine
 10
116.2414449999999988
 20
-83.9088169999999991
 30
0
 11
116.0874999999999915
 21
-83.9725830000000002
 31
0
  0
LINE
  5
16D
330
22
100
AcDbEntity
  8
B.Mask
  6
CONTINUOUS
100
AcDbLine
 10
116.0874999999999915
 20
-83.9725830000000002
 30
0
 11
115.9240729999999928
 21
-84.0050909999999931
 31
0
  0
LINE
  5
16E
330
22
100
AcDbEntity
  8
B.Mask
  6
CONTINUOUS
100
AcDbLine
 10
115.9240729999999928
 20
-84.0050909999999931
 30
0
 11
115.757442999999995
 21
-84.0050909999999931
 31
0
  0
LINE
  5
16F
330
22
100
AcDbEntity
  8
B.Mask
  6
CONTINUOUS
100
AcDbLine
 10
115.757442999999995
 20
-84.0050909999999931
 30
0
 11
115.5940159999999963
 21
-83.9725830000000002
 31
0
  0
LINE
  5
170
330
22
100
AcDbEntity
  8
B.Mask
  6
CONTINUOUS
100
AcDbLine
 10
115.5940159999999963
 20
-83.9725830000000002
 30
0
 11
115.440070999999989
 21
-83.9088169999999991
 31
0
  0
LINE
  5
171
330
22
100
AcDbEntity
  8
B.Mask
  6
CONTINUOUS
100
AcDbLine
 10
115.440070999999989
 20
-83.9088169999999991
 30
0
 11
115.3015240000000006
 21
-83.8162430000000001
 31
0
  0
LINE
  5
172
330
22
100
AcDbEntity
  8
B.Mask
  6
CONTINUOUS
100
AcDbLine
 10
115.3015240000000006
 20
-83.8162430000000001
 30
0
 11
115.1836989999999901
 21
-83.6984179999999895
 31
0
  0
LINE
  5
173
330
22
100
AcDbEntity
  8
B.Mask
  6
CONTINUOUS
100
AcDbLine
 10
115.1836989999999901
 20
-83.6984179999999895
 30
0
 11
115.091124999999991
 21
-83.5598710000000011
 31
0
  0
LINE
  5
174
330
22
100
AcDbEntity
  8
B.Mask
  6
CONTINUOUS
100
AcDbLine
 10
115.091124999999991
 20
-83.5598710000000011
 30
0
 11
115.0273589999999899
 21
-83.4059259999999938
 31
0
  0
LINE
  5
175
330
22
100
AcDbEntity
  8
B.Mask
  6
CONTINUOUS
100
AcDbLine
 10
115.0273589999999899
 20
-83.4059259999999938
 30
0
 11
114.994850999999997
 21
-83.2424989999999951
 31
0
  0
LINE
  5
176
330
22
100
AcDbEntity
  8
B.Mask
  6
CONTINUOUS
100
AcDbLine
 10
114.994850999999997
 20
-83.2424989999999951
 30
0
 11
114.994850999999997
 21
-83.0758689999999973
 31
0
  0
LINE
  5
177
330
22
100
AcDbEntity
  8
B.Mask
  6
CONTINUOUS
100
AcDbLine
 10
114.994850999999997
 20
-83.0758689999999973
 30
0
 11
115.0273589999999899
 21
-82.9124419999999986
 31
0
  0
LINE
  5
178
330
22
100
AcDbEntity
  8
B.Mask
  6
CONTINUOUS
100
AcDbLine
 10
115.0273589999999899
 20
-82.9124419999999986
 30
0
 11
115.091124999999991
 21
-82.7584969999999913
 31
0
  0
LINE
  5
179
330
22
100
AcDbEntity
  8
B.Mask
  6
CONTINUOUS
100
AcDbLine
 10
115.091124999999991
 20
-82.7584969999999913
 30
0
 11
115.1836989999999901
 21
-82.6199500000000029
 31
0
  0
LINE
  5
17A
330
22
100
AcDbEntity
  8
B.Mask
  6
CONTINUOUS
100
AcDbLine
 10
115.1836989999999901
 20
-82.6199500000000029
 30
0
 11
115.3015240000000006
 21
-82.5021249999999924
 31
0
  0
LINE
  5
17B
330
22
100
AcDbEntity
  8
B.Mask
  6
CONTINUOUS
100
AcDbLine
 10
115.3015240000000006
 20
-82.5021249999999924
 30
0
 11
115.440070999999989
 21
-82.4095509999999933
 31
0
  0
LINE
  5
17C
330
22
100
AcDbEntity
  8
B.Mask
  6
CONTINUOUS
100
AcDbLine
 10
115.440070999999989
 20
-82.4095509999999933
 30
0
 11
115.5940159999999963
 21
-82.3457849999999922
 31
0
  0
LINE
  5
17D
330
22
100
AcDbEntity
  8
B.Mask
  6
CONTINUOUS
100
AcDbLine
 10
115.5940159999999963
 20
-82.3457849999999922
 30
0
 11
115.757442999999995
 21
-82.3132769999999994
 31
0
  0
LINE
  5
17E
330
22
100
AcDbEntity
  8
B.Mask
  6
CONTINUOUS
100
AcDbLine
 10
115.757442999999995
 20
-82.3132769999999994
 30
0
 11
115.9240729999999928
 21
-82.3132769999999994
 31
0
  0
LINE
  5
17F
330
22
100
AcDbEntity
  8
B.Mask
  6
CONTINUOUS
100
AcDbLine
 10
115.9240729999999928
 20
-82.3132769999999994
 30
0
 11
116.0874999999999915
 21
-82.3457849999999922
 31
0
  0
LINE
  5
180
330
22
100
AcDbEntity
  8
B.Mask
  6
CONTINUOUS
100
AcDbLine
 10
157.5749999999999886
 20
-78.9249999999999972
 30
0
 11
156.2249999999999943
 21
-78.9249999999999972
 31
0
  0
LINE
  5
181
330
22
100
AcDbEntity
  8
B.Mask
  6
CONTINUOUS
100
AcDbLine
 10
156.2249999999999943
 20
-78.9249999999999972
 30
0
 11
156.2249999999999943
 21
-77.5750000000000028
 31
0
  0
LINE
  5
182
330
22
100
AcDbEntity
  8
B.Mask
  6
CONTINUOUS
100
AcDbLine
 10
156.2249999999999943
 20
-77.5750000000000028
 30
0
 11
157.5749999999999886
 21
-77.5750000000000028
 31
0
  0
LINE
  5
183
330
22
100
AcDbEntity
  8
B.Mask
  6
CONTINUOUS
100
AcDbLine
 10
157.5749999999999886
 20
-77.5750000000000028
 30
0
 11
157.5749999999999886
 21
-78.9249999999999972
 31
0
  0
LINE
  5
184
330
22
100
AcDbEntity
  8
B.Mask
  6
CONTINUOUS
100
AcDbLine
 10
143.0749999999999886
 20
-77.6749999999999972
 30
0
 11
141.7249999999999943
 21
-77.6749999999999972
 31
0
  0
LINE
  5
185
330
22
100
AcDbEntity
  8
B.Mask
  6
CONTINUOUS
100
AcDbLine
 10
141.7249999999999943
 20
-77.6749999999999972
 30
0
 11
141.7249999999999943
 21
-76.3250000000000028
 31
0
  0
LINE
  5
186
330
22
100
AcDbEntity
  8
B.Mask
  6
CONTINUOUS
100
AcDbLine
 10
141.7249999999999943
 20
-76.3250000000000028
 30
0
 11
143.0749999999999886
 21
-76.3250000000000028
 31
0
  0
LINE
  5
187
330
22
100
AcDbEntity
  8
B.Mask
  6
CONTINUOUS
100
AcDbLine
 10
143.0749999999999886
 20
-76.3250000000000028
 30
0
 11
143.0749999999999886
 21
-77.6749999999999972
 31
0
  0
LINE
  5
188
330
22
100
AcDbEntity
  8
B.Mask
  6
CONTINUOUS
100
AcDbLine
 10
138.5959419999999795
 20
-76.3540649999999914
 30
0
 11
138.7181929999999852
 21
-76.4047029999999978
 31
0
  0
LINE
  5
189
330
22
100
AcDbEntity
  8
B.Mask
  6
CONTINUOUS
100
AcDbLine
 10
138.7181929999999852
 20
-76.4047029999999978
 30
0
 11
138.8282150000000001
 21
-76.4782179999999983
 31
0
  0
LINE
  5
18A
330
22
100
AcDbEntity
  8
B.Mask
  6
CONTINUOUS
100
AcDbLine
 10
138.8282150000000001
 20
-76.4782179999999983
 30
0
 11
138.9217820000000074
 21
-76.5717849999999913
 31
0
  0
LINE
  5
18B
330
22
100
AcDbEntity
  8
B.Mask
  6
CONTINUOUS
100
AcDbLine
 10
138.9217820000000074
 20
-76.5717849999999913
 30
0
 11
138.9952969999999937
 21
-76.6818069999999921
 31
0
  0
LINE
  5
18C
330
22
100
AcDbEntity
  8
B.Mask
  6
CONTINUOUS
100
AcDbLine
 10
138.9952969999999937
 20
-76.6818069999999921
 30
0
 11
139.0459349999999858
 21
-76.8040579999999977
 31
0
  0
LINE
  5
18D
330
22
100
AcDbEntity
  8
B.Mask
  6
CONTINUOUS
100
AcDbLine
 10
139.0459349999999858
 20
-76.8040579999999977
 30
0
 11
139.0717499999999802
 21
-76.9338379999999944
 31
0
  0
LINE
  5
18E
330
22
100
AcDbEntity
  8
B.Mask
  6
CONTINUOUS
100
AcDbLine
 10
139.0717499999999802
 20
-76.9338379999999944
 30
0
 11
139.0717499999999802
 21
-77.0661619999999914
 31
0
  0
LINE
  5
18F
330
22
100
AcDbEntity
  8
B.Mask
  6
CONTINUOUS
100
AcDbLine
 10
139.0717499999999802
 20
-77.0661619999999914
 30
0
 11
139.0459349999999858
 21
-77.1959420000000023
 31
0
  0
LINE
  5
190
330
22
100
AcDbEntity
  8
B.Mask
  6
CONTINUOUS
100
AcDbLine
 10
139.0459349999999858
 20
-77.1959420000000023
 30
0
 11
138.9952969999999937
 21
-77.3181929999999937
 31
0
  0
LINE
  5
191
330
22
100
AcDbEntity
  8
B.Mask
  6
CONTINUOUS
100
AcDbLine
 10
138.9952969999999937
 20
-77.3181929999999937
 30
0
 11
138.9217820000000074
 21
-77.4282149999999945
 31
0
  0
LINE
  5
192
330
22
100
AcDbEntity
  8
B.Mask
  6
CONTINUOUS
100
AcDbLine
 10
138.9217820000000074
 20
-77.4282149999999945
 30
0
 11
138.8282150000000001
 21
-77.5217820000000017
 31
0
  0
LINE
  5
193
330
22
100
AcDbEntity
  8
B.Mask
  6
CONTINUOUS
100
AcDbLine
 10
138.8282150000000001
 20
-77.5217820000000017
 30
0
 11
138.7181929999999852
 21
-77.5952970000000022
 31
0
  0
LINE
  5
194
330
22
100
AcDbEntity
  8
B.Mask
  6
CONTINUOUS
100
AcDbLine
 10
138.7181929999999852
 20
-77.5952970000000022
 30
0
 11
138.5959419999999795
 21
-77.6459349999999944
 31
0
  0
LINE
  5
195
330
22
100
AcDbEntity
  8
B.Mask
  6
CONTINUOUS
100
AcDbLine
 10
138.5959419999999795
 20
-77.6459349999999944
 30
0
 11
138.4661619999999971
 21
-77.671750000000003
 31
0
  0
LINE
  5
196
330
22
100
AcDbEntity
  8
B.Mask
  6
CONTINUOUS
100
AcDbLine
 10
138.4661619999999971
 20
-77.671750000000003
 30
0
 11
138.3338379999999859
 21
-77.671750000000003
 31
0
  0
LINE
  5
197
330
22
100
AcDbEntity
  8
B.Mask
  6
CONTINUOUS
100
AcDbLine
 10
138.3338379999999859
 20
-77.671750000000003
 30
0
 11
138.2040580000000034
 21
-77.6459349999999944
 31
0
  0
LINE
  5
198
330
22
100
AcDbEntity
  8
B.Mask
  6
CONTINUOUS
100
AcDbLine
 10
138.2040580000000034
 20
-77.6459349999999944
 30
0
 11
138.0818069999999977
 21
-77.5952970000000022
 31
0
  0
LINE
  5
199
330
22
100
AcDbEntity
  8
B.Mask
  6
CONTINUOUS
100
AcDbLine
 10
138.0818069999999977
 20
-77.5952970000000022
 30
0
 11
137.9717849999999828
 21
-77.5217820000000017
 31
0
  0
LINE
  5
19A
330
22
100
AcDbEntity
  8
B.Mask
  6
CONTINUOUS
100
AcDbLine
 10
137.9717849999999828
 20
-77.5217820000000017
 30
0
 11
137.8782180000000039
 21
-77.4282149999999945
 31
0
  0
LINE
  5
19B
330
22
100
AcDbEntity
  8
B.Mask
  6
CONTINUOUS
100
AcDbLine
 10
137.8782180000000039
 20
-77.4282149999999945
 30
0
 11
137.8047029999999893
 21
-77.3181929999999937
 31
0
  0
LINE
  5
19C
330
22
100
AcDbEntity
  8
B.Mask
  6
CONTINUOUS
100
AcDbLine
 10
137.8047029999999893
 20
-77.3181929999999937
 30
0
 11
137.7540649999999971
 21
-77.1959420000000023
 31
0
  0
LINE
  5
19D
330
22
100
AcDbEntity
  8
B.Mask
  6
CONTINUOUS
100
AcDbLine
 10
137.7540649999999971
 20
-77.1959420000000023
 30
0
 11
137.7282500000000027
 21
-77.0661619999999914
 31
0
  0
LINE
  5
19E
330
22
100
AcDbEntity
  8
B.Mask
  6
CONTINUOUS
100
AcDbLine
 10
137.7282500000000027
 20
-77.0661619999999914
 30
0
 11
137.7282500000000027
 21
-76.9338379999999944
 31
0
  0
LINE
  5
19F
330
22
100
AcDbEntity
  8
B.Mask
  6
CONTINUOUS
100
AcDbLine
 10
137.7282500000000027
 20
-76.9338379999999944
 30
0
 11
137.7540649999999971
 21
-76.8040579999999977
 31
0
  0
LINE
  5
1A0
330
22
100
AcDbEntity
  8
B.Mask
  6
CONTINUOUS
100
AcDbLine
 10
137.7540649999999971
 20
-76.8040579999999977
 30
0
 11
137.8047029999999893
 21
-76.6818069999999921
 31
0
  0
LINE
  5
1A1
330
22
100
AcDbEntity
  8
B.Mask
  6
CONTINUOUS
100
AcDbLine
 10
137.8047029999999893
 20
-76.6818069999999921
 30
0
 11
137.8782180000000039
 21
-76.5717849999999913
 31
0
  0
LINE
  5
1A2
330
22
100
AcDbEntity
  8
B.Mask
  6
CONTINUOUS
100
AcDbLine
 10
137.8782180000000039
 20
-76.5717849999999913
 30
0
 11
137.9717849999999828
 21
-76.4782179999999983
 31
0
  0
LINE
  5
1A3
330
22
100
AcDbEntity
  8
B.Mask
  6
CONTINUOUS
100
AcDbLine
 10
137.9717849999999828
 20
-76.4782179999999983
 30
0
 11
138.0818069999999977
 21
-76.4047029999999978
 31
0
  0
LINE
  5
1A4
330
22
100
AcDbEntity
  8
B.Mask
  6
CONTINUOUS
100
AcDbLine
 10
138.0818069999999977
 20
-76.4047029999999978
 30
0
 11
138.2040580000000034
 21
-76.3540649999999914
 31
0
  0
LINE
  5
1A5
330
22
100
AcDbEntity
  8
B.Mask
  6
CONTINUOUS
100
AcDbLine
 10
138.2040580000000034
 20
-76.3540649999999914
 30
0
 11
138.3338379999999859
 21
-76.328249999999997
 31
0
  0
LINE
  5
1A6
330
22
100
AcDbEntity
  8
B.Mask
  6
CONTINUOUS
100
AcDbLine
 10
138.3338379999999859
 20
-76.328249999999997
 30
0
 11
138.4661619999999971
 21
-76.328249999999997
 31
0
  0
LINE
  5
1A7
330
22
100
AcDbEntity
  8
B.Mask
  6
CONTINUOUS
100
AcDbLine
 10
138.4661619999999971
 20
-76.328249999999997
 30
0
 11
138.5959419999999795
 21
-76.3540649999999914
 31
0
  0
LINE
  5
1A8
330
22
100
AcDbEntity
  8
B.Mask
  6
CONTINUOUS
100
AcDbLine
 10
140.5959419999999795
 20
-76.3540649999999914
 30
0
 11
140.7181929999999852
 21
-76.4047029999999978
 31
0
  0
LINE
  5
1A9
330
22
100
AcDbEntity
  8
B.Mask
  6
CONTINUOUS
100
AcDbLine
 10
140.7181929999999852
 20
-76.4047029999999978
 30
0
 11
140.8282150000000001
 21
-76.4782179999999983
 31
0
  0
LINE
  5
1AA
330
22
100
AcDbEntity
  8
B.Mask
  6
CONTINUOUS
100
AcDbLine
 10
140.8282150000000001
 20
-76.4782179999999983
 30
0
 11
140.9217820000000074
 21
-76.5717849999999913
 31
0
  0
LINE
  5
1AB
330
22
100
AcDbEntity
  8
B.Mask
  6
CONTINUOUS
100
AcDbLine
 10
140.9217820000000074
 20
-76.5717849999999913
 30
0
 11
140.9952969999999937
 21
-76.6818069999999921
 31
0
  0
LINE
  5
1AC
330
22
100
AcDbEntity
  8
B.Mask
  6
CONTINUOUS
100
AcDbLine
 10
140.9952969999999937
 20
-76.6818069999999921
 30
0
 11
141.0459349999999858
 21
-76.8040579999999977
 31
0
  0
LINE
  5
1AD
330
22
100
AcDbEntity
  8
B.Mask
  6
CONTINUOUS
100
AcDbLine
 10
141.0459349999999858
 20
-76.8040579999999977
 30
0
 11
141.0717499999999802
 21
-76.9338379999999944
 31
0
  0
LINE
  5
1AE
330
22
100
AcDbEntity
  8
B.Mask
  6
CONTINUOUS
100
AcDbLine
 10
141.0717499999999802
 20
-76.9338379999999944
 30
0
 11
141.0717499999999802
 21
-77.0661619999999914
 31
0
  0
LINE
  5
1AF
330
22
100
AcDbEntity
  8
B.Mask
  6
CONTINUOUS
100
AcDbLine
 10
141.0717499999999802
 20
-77.0661619999999914
 30
0
 11
141.0459349999999858
 21
-77.1959420000000023
 31
0
  0
LINE
  5
1B0
330
22
100
AcDbEntity
  8
B.Mask
  6
CONTINUOUS
100
AcDbLine
 10
141.0459349999999858
 20
-77.1959420000000023
 30
0
 11
140.9952969999999937
 21
-77.3181929999999937
 31
0
  0
LINE
  5
1B1
330
22
100
AcDbEntity
  8
B.Mask
  6
CONTINUOUS
100
AcDbLine
 10
140.9952969999999937
 20
-77.3181929999999937
 30
0
 11
140.9217820000000074
 21
-77.4282149999999945
 31
0
  0
LINE
  5
1B2
330
22
100
AcDbEntity
  8
B.Mask
  6
CONTINUOUS
100
AcDbLine
 10
140.9217820000000074
 20
-77.4282149999999945
 30
0
 11
140.8282150000000001
 21
-77.5217820000000017
 31
0
  0
LINE
  5
1B3
330
22
100
AcDbEntity
  8
B.Mask
  6
CONTINUOUS
100
AcDbLine
 10
140.8282150000000001
 20
-77.5217820000000017
 30
0
 11
140.7181929999999852
 21
-77.5952970000000022
 31
0
  0
LINE
  5
1B4
330
22
100
AcDbEntity
  8
B.Mask
  6
CONTINUOUS
100
AcDbLine
 10
140.7181929999999852
 20
-77.5952970000000022
 30
0
 11
140.5959419999999795
 21
-77.6459349999999944
 31
0
  0
LINE
  5
1B5
330
22
100
AcDbEntity
  8
B.Mask
  6
CONTINUOUS
100
AcDbLine
 10
140.5959419999999795
 20
-77.6459349999999944
 30
0
 11
140.4661619999999971
 21
-77.671750000000003
 31
0
  0
LINE
  5
1B6
330
22
100
AcDbEntity
  8
B.Mask
  6
CONTINUOUS
100
AcDbLine
 10
140.4661619999999971
 20
-77.671750000000003
 30
0
 11
140.3338379999999859
 21
-77.671750000000003
 31
0
  0
LINE
  5
1B7
330
22
100
AcDbEntity
  8
B.Mask
  6
CONTINUOUS
100
AcDbLine
 10
140.3338379999999859
 20
-77.671750000000003
 30
0
 11
140.2040580000000034
 21
-77.6459349999999944
 31
0
  0
LINE
  5
1B8
330
22
100
AcDbEntity
  8
B.Mask
  6
CONTINUOUS
100
AcDbLine
 10
140.2040580000000034
 20
-77.6459349999999944
 30
0
 11
140.0818069999999977
 21
-77.5952970000000022
 31
0
  0
LINE
  5
1B9
330
22
100
AcDbEntity
  8
B.Mask
  6
CONTINUOUS
100
AcDbLine
 10
140.0818069999999977
 20
-77.5952970000000022
 30
0
 11
139.9717849999999828
 21
-77.5217820000000017
 31
0
  0
LINE
  5
1BA
330
22
100
AcDbEntity
  8
B.Mask
  6
CONTINUOUS
100
AcDbLine
 10
139.9717849999999828
 20
-77.5217820000000017
 30
0
 11
139.8782180000000039
 21
-77.4282149999999945
 31
0
  0
LINE
  5
1BB
330
22
100
AcDbEntity
  8
B.Mask
  6
CONTINUOUS
100
AcDbLine
 10
139.8782180000000039
 20
-77.4282149999999945
 30
0
 11
139.8047029999999893
 21
-77.3181929999999937
 31
0
  0
LINE
  5
1BC
330
22
100
AcDbEntity
  8
B.Mask
  6
CONTINUOUS
100
AcDbLine
 10
139.8047029999999893
 20
-77.3181929999999937
 30
0
 11
139.7540649999999971
 21
-77.1959420000000023
 31
0
  0
LINE
  5
1BD
330
22
100
AcDbEntity
  8
B.Mask
  6
CONTINUOUS
100
AcDbLine
 10
139.7540649999999971
 20
-77.1959420000000023
 30
0
 11
139.7282500000000027
 21
-77.0661619999999914
 31
0
  0
LINE
  5
1BE
330
22
100
AcDbEntity
  8
B.Mask
  6
CONTINUOUS
100
AcDbLine
 10
139.7282500000000027
 20
-77.0661619999999914
 30
0
 11
139.7282500000000027
 21
-76.9338379999999944
 31
0
  0
LINE
  5
1BF
330
22
100
AcDbEntity
  8
B.Mask
  6
CONTINUOUS
100
AcDbLine
 10
139.7282500000000027
 20
-76.9338379999999944
 30
0
 11
139.7540649999999971
 21
-76.8040579999999977
 31
0
  0
LINE
  5
1C0
330
22
100
AcDbEntity
  8
B.Mask
  6
CONTINUOUS
100
AcDbLine
 10
139.7540649999999971
 20
-76.8040579999999977
 30
0
 11
139.8047029999999893
 21
-76.6818069999999921
 31
0
  0
LINE
  5
1C1
330
22
100
AcDbEntity
  8
B.Mask
  6
CONTINUOUS
100
AcDbLine
 10
139.8047029999999893
 20
-76.6818069999999921
 30
0
 11
139.8782180000000039
 21
-76.5717849999999913
 31
0
  0
LINE
  5
1C2
330
22
100
AcDbEntity
  8
B.Mask
  6
CONTINUOUS
100
AcDbLine
 10
139.8782180000000039
 20
-76.5717849999999913
 30
0
 11
139.9717849999999828
 21
-76.4782179999999983
 31
0
  0
LINE
  5
1C3
330
22
100
AcDbEntity
  8
B.Mask
  6
CONTINUOUS
100
AcDbLine
 10
139.9717849999999828
 20
-76.4782179999999983
 30
0
 11
140.0818069999999977
 21
-76.4047029999999978
 31
0
  0
LINE
  5
1C4
330
22
100
AcDbEntity
  8
B.Mask
  6
CONTINUOUS
100
AcDbLine
 10
140.0818069999999977
 20
-76.4047029999999978
 30
0
 11
140.2040580000000034
 21
-76.3540649999999914
 31
0
  0
LINE
  5
1C5
330
22
100
AcDbEntity
  8
B.Mask
  6
CONTINUOUS
100
AcDbLine
 10
140.2040580000000034
 20
-76.3540649999999914
 30
0
 11
140.3338379999999859
 21
-76.328249999999997
 31
0
  0
LINE
  5
1C6
330
22
100
AcDbEntity
  8
B.Mask
  6
CONTINUOUS
100
AcDbLine
 10
140.3338379999999859
 20
-76.328249999999997
 30
0
 11
140.4661619999999971
 21
-76.328249999999997
 31
0
  0
LINE
  5
1C7
330
22
100
AcDbEntity
  8
B.Mask
  6
CONTINUOUS
100
AcDbLine
 10
140.4661619999999971
 20
-76.328249999999997
 30
0
 11
140.5959419999999795
 21
-76.3540649999999914
 31
0
  0
CIRCLE
  5
1C8
330
22
100
AcDbEntity
  8
B.Mask
100
AcDbCircle
 10
163.9000000000000057
 20
-90.
 30
0
 40
0.175
  0
CIRCLE
  5
1C9
330
22
100
AcDbEntity
  8
B.Mask
100
AcDbCircle
 10
163.9000000000000057
 20
-88.
 30
0
 40
0.175
  0
CIRCLE
  5
1CA
330
22
100
AcDbEntity
  8
B.Mask
100
AcDbCircle
 10
115.8407579999999939
 20
-85.6991840000000025
 30
0
 40
0.175
  0
CIRCLE
  5
1CB
330
22
100
AcDbEntity
  8
B.Mask
100
AcDbCircle
 10
115.8407579999999939
 20
-83.1591839999999962
 30
0
 40
0.175
  0
CIRCLE
  5
1CC
330
22
100
AcDbEntity
  8
B.Mask
100
AcDbCircle
 10
160.9000000000000057
 20
-90.
 30
0
 40
0.175
  0
CIRCLE
  5
1CD
330
22
100
AcDbEntity
  8
B.Mask
100
AcDbCircle
 10
160.9000000000000057
 20
-88.
 30
0
 40
0.175
  0
CIRCLE
  5
1CE
330
22
100
AcDbEntity
  8
B.Mask
100
AcDbCircle
 10
160.9000000000000057
 20
-86.
 30
0
 40
0.175
  0
CIRCLE
  5
1CF
330
22
100
AcDbEntity
  8
B.Mask
100
AcDbCircle
 10
142.4000000000000057
 20
-77.
 30
0
 40
0.175
  0
CIRCLE
  5
1D0
330
22
100
AcDbEntity
  8
B.Mask
100
AcDbCircle
 10
140.4000000000000057
 20
-77.
 30
0
 40
0.175
  0
CIRCLE
  5
1D1
330
22
100
AcDbEntity
  8
B.Mask
100
AcDbCircle
 10
138.4000000000000057
 20
-77.
 30
0
 40
0.175
  0
CIRCLE
  5
1D2
330
22
100
AcDbEntity
  8
B.Mask
100
AcDbCircle
 10
156.9000000000000057
 20
-78.25
 30
0
 40
0.175
  0
CIRCLE
  5
1D3
330
22
100
AcDbEntity
  8
B.Mask
100
AcDbCircle
 10
166.9000000000000057
 20
-90.
 30
0
 40
0.175
  0
CIRCLE
  5
1D4
330
22
100
AcDbEntity
  8
B.Mask
100
AcDbCircle
 10
166.9000000000000057
 20
-88.
 30
0
 40
0.175
  0
LINE
  5
1D5
330
22
100
AcDbEntity
  8
B.Mask
  6
CONTINUOUS
100
AcDbLine
 10
168.4000000000000057
 20
-74.4749999999999943
 30
0
 11
168.6643159999999853
 21
-74.4923239999999964
 31
0
  0
LINE
  5
1D6
330
22
100
AcDbEntity
  8
B.Mask
  6
CONTINUOUS
100
AcDbLine
 10
168.6643159999999853
 20
-74.4923239999999964
 30
0
 11
168.9241089999999872
 21
-74.5439999999999969
 31
0
  0
LINE
  5
1D7
330
22
100
AcDbEntity
  8
B.Mask
  6
CONTINUOUS
100
AcDbLine
 10
168.9241089999999872
 20
-74.5439999999999969
 30
0
 11
169.1749339999999791
 21
-74.6291439999999966
 31
0
  0
LINE
  5
1D8
330
22
100
AcDbEntity
  8
B.Mask
  6
CONTINUOUS
100
AcDbLine
 10
169.1749339999999791
 20
-74.6291439999999966
 30
0
 11
169.4124999999999943
 21
-74.7462979999999959
 31
0
  0
LINE
  5
1D9
330
22
100
AcDbEntity
  8
B.Mask
  6
CONTINUOUS
100
AcDbLine
 10
169.4124999999999943
 20
-74.7462979999999959
 30
0
 11
169.632741999999979
 21
-74.8934589999999929
 31
0
  0
LINE
  5
1DA
330
22
100
AcDbEntity
  8
B.Mask
  6
CONTINUOUS
100
AcDbLine
 10
169.632741999999979
 20
-74.8934589999999929
 30
0
 11
169.8318919999999821
 21
-75.0681079999999952
 31
0
  0
LINE
  5
1DB
330
22
100
AcDbEntity
  8
B.Mask
  6
CONTINUOUS
100
AcDbLine
 10
169.8318919999999821
 20
-75.0681079999999952
 30
0
 11
170.0065409999999986
 21
-75.2672579999999982
 31
0
  0
LINE
  5
1DC
330
22
100
AcDbEntity
  8
B.Mask
  6
CONTINUOUS
100
AcDbLine
 10
170.0065409999999986
 20
-75.2672579999999982
 30
0
 11
170.1537019999999814
 21
-75.4874999999999972
 31
0
  0
LINE
  5
1DD
330
22
100
AcDbEntity
  8
B.Mask
  6
CONTINUOUS
100
AcDbLine
 10
170.1537019999999814
 20
-75.4874999999999972
 30
0
 11
170.2708559999999807
 21
-75.7250659999999982
 31
0
  0
LINE
  5
1DE
330
22
100
AcDbEntity
  8
B.Mask
  6
CONTINUOUS
100
AcDbLine
 10
170.2708559999999807
 20
-75.7250659999999982
 30
0
 11
170.3559999999999945
 21
-75.9758909999999901
 31
0
  0
LINE
  5
1DF
330
22
100
AcDbEntity
  8
B.Mask
  6
CONTINUOUS
100
AcDbLine
 10
170.3559999999999945
 20
-75.9758909999999901
 30
0
 11
170.4076759999999808
 21
-76.235683999999992
 31
0
  0
LINE
  5
1E0
330
22
100
AcDbEntity
  8
B.Mask
  6
CONTINUOUS
100
AcDbLine
 10
170.4076759999999808
 20
-76.235683999999992
 30
0
 11
170.4249999999999829
 21
-76.5
 31
0
  0
LINE
  5
1E1
330
22
100
AcDbEntity
  8
B.Mask
  6
CONTINUOUS
100
AcDbLine
 10
170.4249999999999829
 20
-76.5
 30
0
 11
170.4249999999999829
 21
-111.
 31
0
  0
LINE
  5
1E2
330
22
100
AcDbEntity
  8
B.Mask
  6
CONTINUOUS
100
AcDbLine
 10
170.4249999999999829
 20
-111.
 30
0
 11
170.4076759999999808
 21
-111.2643159999999938
 31
0
  0
LINE
  5
1E3
330
22
100
AcDbEntity
  8
B.Mask
  6
CONTINUOUS
100
AcDbLine
 10
170.4076759999999808
 20
-111.2643159999999938
 30
0
 11
170.3559999999999945
 21
-111.5241089999999957
 31
0
  0
LINE
  5
1E4
330
22
100
AcDbEntity
  8
B.Mask
  6
CONTINUOUS
100
AcDbLine
 10
170.3559999999999945
 20
-111.5241089999999957
 30
0
 11
170.2708559999999807
 21
-111.7749340000000018
 31
0
  0
LINE
  5
1E5
330
22
100
AcDbEntity
  8
B.Mask
  6
CONTINUOUS
100
AcDbLine
 10
170.2708559999999807
 20
-111.7749340000000018
 30
0
 11
170.1537019999999814
 21
-112.0124999999999886
 31
0
  0
LINE
  5
1E6
330
22
100
AcDbEntity
  8
B.Mask
  6
CONTINUOUS
100
AcDbLine
 10
170.1537019999999814
 20
-112.0124999999999886
 30
0
 11
170.0065409999999986
 21
-112.2327420000000018
 31
0
  0
LINE
  5
1E7
330
22
100
AcDbEntity
  8
B.Mask
  6
CONTINUOUS
100
AcDbLine
 10
170.0065409999999986
 20
-112.2327420000000018
 30
0
 11
169.8318919999999821
 21
-112.4318919999999906
 31
0
  0
LINE
  5
1E8
330
22
100
AcDbEntity
  8
B.Mask
  6
CONTINUOUS
100
AcDbLine
 10
169.8318919999999821
 20
-112.4318919999999906
 30
0
 11
169.632741999999979
 21
-112.6065409999999929
 31
0
  0
LINE
  5
1E9
330
22
100
AcDbEntity
  8
B.Mask
  6
CONTINUOUS
100
AcDbLine
 10
169.632741999999979
 20
-112.6065409999999929
 30
0
 11
169.4124999999999943
 21
-112.7537019999999899
 31
0
  0
LINE
  5
1EA
330
22
100
AcDbEntity
  8
B.Mask
  6
CONTINUOUS
100
AcDbLine
 10
169.4124999999999943
 20
-112.7537019999999899
 30
0
 11
169.1749339999999791
 21
-112.8708559999999892
 31
0
  0
LINE
  5
1EB
330
22
100
AcDbEntity
  8
B.Mask
  6
CONTINUOUS
100
AcDbLine
 10
169.1749339999999791
 20
-112.8708559999999892
 30
0
 11
168.9241089999999872
 21
-112.9559999999999889
 31
0
  0
LINE
  5
1EC
330
22
100
AcDbEntity
  8
B.Mask
  6
CONTINUOUS
100
AcDbLine
 10
168.9241089999999872
 20
-112.9559999999999889
 30
0
 11
168.6643159999999853
 21
-113.0076759999999894
 31
0
  0
LINE
  5
1ED
330
22
100
AcDbEntity
  8
B.Mask
  6
CONTINUOUS
100
AcDbLine
 10
168.6643159999999853
 20
-113.0076759999999894
 30
0
 11
168.4000000000000057
 21
-113.0249999999999915
 31
0
  0
LINE
  5
1EE
330
22
100
AcDbEntity
  8
B.Mask
  6
CONTINUOUS
100
AcDbLine
 10
168.4000000000000057
 20
-113.0249999999999915
 30
0
 11
115.3999999999999915
 21
-113.0249999999999915
 31
0
  0
LINE
  5
1EF
330
22
100
AcDbEntity
  8
B.Mask
  6
CONTINUOUS
100
AcDbLine
 10
115.3999999999999915
 20
-113.0249999999999915
 30
0
 11
115.1356839999999977
 21
-113.0076759999999894
 31
0
  0
LINE
  5
1F0
330
22
100
AcDbEntity
  8
B.Mask
  6
CONTINUOUS
100
AcDbLine
 10
115.1356839999999977
 20
-113.0076759999999894
 30
0
 11
114.8758909999999958
 21
-112.9559999999999889
 31
0
  0
LINE
  5
1F1
330
22
100
AcDbEntity
  8
B.Mask
  6
CONTINUOUS
100
AcDbLine
 10
114.8758909999999958
 20
-112.9559999999999889
 30
0
 11
114.6250659999999897
 21
-112.8708559999999892
 31
0
  0
LINE
  5
1F2
330
22
100
AcDbEntity
  8
B.Mask
  6
CONTINUOUS
100
AcDbLine
 10
114.6250659999999897
 20
-112.8708559999999892
 30
0
 11
114.3874999999999886
 21
-112.7537019999999899
 31
0
  0
LINE
  5
1F3
330
22
100
AcDbEntity
  8
B.Mask
  6
CONTINUOUS
100
AcDbLine
 10
114.3874999999999886
 20
-112.7537019999999899
 30
0
 11
114.1672579999999897
 21
-112.6065409999999929
 31
0
  0
LINE
  5
1F4
330
22
100
AcDbEntity
  8
B.Mask
  6
CONTINUOUS
100
AcDbLine
 10
114.1672579999999897
 20
-112.6065409999999929
 30
0
 11
113.9681080000000009
 21
-112.4318919999999906
 31
0
  0
LINE
  5
1F5
330
22
100
AcDbEntity
  8
B.Mask
  6
CONTINUOUS
100
AcDbLine
 10
113.9681080000000009
 20
-112.4318919999999906
 30
0
 11
113.7934589999999986
 21
-112.2327420000000018
 31
0
  0
LINE
  5
1F6
330
22
100
AcDbEntity
  8
B.Mask
  6
CONTINUOUS
100
AcDbLine
 10
113.7934589999999986
 20
-112.2327420000000018
 30
0
 11
113.6462980000000016
 21
-112.0124999999999886
 31
0
  0
LINE
  5
1F7
330
22
100
AcDbEntity
  8
B.Mask
  6
CONTINUOUS
100
AcDbLine
 10
113.6462980000000016
 20
-112.0124999999999886
 30
0
 11
113.5291439999999881
 21
-111.7749340000000018
 31
0
  0
LINE
  5
1F8
330
22
100
AcDbEntity
  8
B.Mask
  6
CONTINUOUS
100
AcDbLine
 10
113.5291439999999881
 20
-111.7749340000000018
 30
0
 11
113.4439999999999884
 21
-111.5241089999999957
 31
0
  0
LINE
  5
1F9
330
22
100
AcDbEntity
  8
B.Mask
  6
CONTINUOUS
100
AcDbLine
 10
113.4439999999999884
 20
-111.5241089999999957
 30
0
 11
113.3923239999999879
 21
-111.2643159999999938
 31
0
  0
LINE
  5
1FA
330
22
100
AcDbEntity
  8
B.Mask
  6
CONTINUOUS
100
AcDbLine
 10
113.3923239999999879
 20
-111.2643159999999938
 30
0
 11
113.375
 21
-111.
 31
0
  0
LINE
  5
1FB
330
22
100
AcDbEntity
  8
B.Mask
  6
CONTINUOUS
100
AcDbLine
 10
113.375
 20
-111.
 30
0
 11
113.375
 21
-76.5
 31
0
  0
LINE
  5
1FC
330
22
100
AcDbEntity
  8
B.Mask
  6
CONTINUOUS
100
AcDbLine
 10
113.375
 20
-76.5
 30
0
 11
113.3923239999999879
 21
-76.235683999999992
 31
0
  0
LINE
  5
1FD
330
22
100
AcDbEntity
  8
B.Mask
  6
CONTINUOUS
100
AcDbLine
 10
113.3923239999999879
 20
-76.235683999999992
 30
0
 11
113.4439999999999884
 21
-75.9758909999999901
 31
0
  0
LINE
  5
1FE
330
22
100
AcDbEntity
  8
B.Mask
  6
CONTINUOUS
100
AcDbLine
 10
113.4439999999999884
 20
-75.9758909999999901
 30
0
 11
113.5291439999999881
 21
-75.7250659999999982
 31
0
  0
LINE
  5
1FF
330
22
100
AcDbEntity
  8
B.Mask
  6
CONTINUOUS
100
AcDbLine
 10
113.5291439999999881
 20
-75.7250659999999982
 30
0
 11
113.6462980000000016
 21
-75.4874999999999972
 31
0
  0
LINE
  5
200
330
22
100
AcDbEntity
  8
B.Mask
  6
CONTINUOUS
100
AcDbLine
 10
113.6462980000000016
 20
-75.4874999999999972
 30
0
 11
113.7934589999999986
 21
-75.2672579999999982
 31
0
  0
LINE
  5
201
330
22
100
AcDbEntity
  8
B.Mask
  6
CONTINUOUS
100
AcDbLine
 10
113.7934589999999986
 20
-75.2672579999999982
 30
0
 11
113.9681080000000009
 21
-75.0681079999999952
 31
0
  0
LINE
  5
202
330
22
100
AcDbEntity
  8
B.Mask
  6
CONTINUOUS
100
AcDbLine
 10
113.9681080000000009
 20
-75.0681079999999952
 30
0
 11
114.1672579999999897
 21
-74.8934589999999929
 31
0
  0
LINE
  5
203
330
22
100
AcDbEntity
  8
B.Mask
  6
CONTINUOUS
100
AcDbLine
 10
114.1672579999999897
 20
-74.8934589999999929
 30
0
 11
114.3874999999999886
 21
-74.7462979999999959
 31
0
  0
LINE
  5
204
330
22
100
AcDbEntity
  8
B.Mask
  6
CONTINUOUS
100
AcDbLine
 10
114.3874999999999886
 20
-74.7462979999999959
 30
0
 11
114.6250659999999897
 21
-74.6291439999999966
 31
0
  0
LINE
  5
205
330
22
100
AcDbEntity
  8
B.Mask
  6
CONTINUOUS
100
AcDbLine
 10
114.6250659999999897
 20
-74.6291439999999966
 30
0
 11
114.8758909999999958
 21
-74.5439999999999969
 31
0
  0
LINE
  5
206
330
22
100
AcDbEntity
  8
B.Mask
  6
CONTINUOUS
100
AcDbLine
 10
114.8758909999999958
 20
-74.5439999999999969
 30
0
 11
115.1356839999999977
 21
-74.4923239999999964
 31
0
  0
LINE
  5
207
330
22
100
AcDbEntity
  8
B.Mask
  6
CONTINUOUS
100
AcDbLine
 10
115.1356839999999977
 20
-74.4923239999999964
 30
0
 11
115.3999999999999915
 21
-74.4749999999999943
 31
0
  0
LINE
  5
208
330
22
100
AcDbEntity
  8
B.Mask
  6
CONTINUOUS
100
AcDbLine
 10
115.3999999999999915
 20
-74.4749999999999943
 30
0
 11
168.4000000000000057
 21
-74.4749999999999943
 31
0
  0
LINE
  5
209
330
22
100
AcDbEntity
  8
B.Mask
  6
CONTINUOUS
100
AcDbLine
 10
115.3999999999999915
 20
-74.5249999999999915
 30
0
 11
115.270551999999995
 21
-74.5249999999999915
 31
0
  0
LINE
  5
20A
330
22
100
AcDbEntity
  8
B.Mask
  6
CONTINUOUS
100
AcDbLine
 10
115.270551999999995
 20
-74.5249999999999915
 30
0
 11
115.0138699999999972
 21
-74.5587919999999968
 31
0
  0
LINE
  5
20B
330
22
100
AcDbEntity
  8
B.Mask
  6
CONTINUOUS
100
AcDbLine
 10
115.0138699999999972
 20
-74.5587919999999968
 30
0
 11
114.7637950000000018
 21
-74.6257999999999981
 31
0
  0
LINE
  5
20C
330
22
100
AcDbEntity
  8
B.Mask
  6
CONTINUOUS
100
AcDbLine
 10
114.7637950000000018
 20
-74.6257999999999981
 30
0
 11
114.524604999999994
 21
-74.7248749999999973
 31
0
  0
LINE
  5
20D
330
22
100
AcDbEntity
  8
B.Mask
  6
CONTINUOUS
100
AcDbLine
 10
114.524604999999994
 20
-74.7248749999999973
 30
0
 11
114.3003939999999972
 21
-74.8543229999999937
 31
0
  0
LINE
  5
20E
330
22
100
AcDbEntity
  8
B.Mask
  6
CONTINUOUS
100
AcDbLine
 10
114.3003939999999972
 20
-74.8543229999999937
 30
0
 11
114.0949969999999922
 21
-75.0119299999999924
 31
0
  0
LINE
  5
20F
330
22
100
AcDbEntity
  8
B.Mask
  6
CONTINUOUS
100
AcDbLine
 10
114.0949969999999922
 20
-75.0119299999999924
 30
0
 11
113.9119299999999981
 21
-75.1949970000000008
 31
0
  0
LINE
  5
210
330
22
100
AcDbEntity
  8
B.Mask
  6
CONTINUOUS
100
AcDbLine
 10
113.9119299999999981
 20
-75.1949970000000008
 30
0
 11
113.7543229999999994
 21
-75.4003939999999915
 31
0
  0
LINE
  5
211
330
22
100
AcDbEntity
  8
B.Mask
  6
CONTINUOUS
100
AcDbLine
 10
113.7543229999999994
 20
-75.4003939999999915
 30
0
 11
113.6248749999999887
 21
-75.6246050000000025
 31
0
  0
LINE
  5
212
330
22
100
AcDbEntity
  8
B.Mask
  6
CONTINUOUS
100
AcDbLine
 10
113.6248749999999887
 20
-75.6246050000000025
 30
0
 11
113.5257999999999896
 21
-75.8637949999999961
 31
0
  0
LINE
  5
213
330
22
100
AcDbEntity
  8
B.Mask
  6
CONTINUOUS
100
AcDbLine
 10
113.5257999999999896
 20
-75.8637949999999961
 30
0
 11
113.4587919999999883
 21
-76.1138699999999915
 31
0
  0
LINE
  5
214
330
22
100
AcDbEntity
  8
B.Mask
  6
CONTINUOUS
100
AcDbLine
 10
113.4587919999999883
 20
-76.1138699999999915
 30
0
 11
113.4249999999999972
 21
-76.3705520000000035
 31
0
  0
LINE
  5
215
330
22
100
AcDbEntity
  8
B.Mask
  6
CONTINUOUS
100
AcDbLine
 10
113.4249999999999972
 20
-76.3705520000000035
 30
0
 11
113.4249999999999972
 21
-76.5
 31
0
  0
LINE
  5
216
330
22
100
AcDbEntity
  8
B.Mask
  6
CONTINUOUS
100
AcDbLine
 10
113.4249999999999972
 20
-76.5
 30
0
 11
113.4249999999999972
 21
-111.
 31
0
  0
LINE
  5
217
330
22
100
AcDbEntity
  8
B.Mask
  6
CONTINUOUS
100
AcDbLine
 10
113.4249999999999972
 20
-111.
 30
0
 11
113.4249999999999972
 21
-111.1294479999999965
 31
0
  0
LINE
  5
218
330
22
100
AcDbEntity
  8
B.Mask
  6
CONTINUOUS
100
AcDbLine
 10
113.4249999999999972
 20
-111.1294479999999965
 30
0
 11
113.4587919999999883
 21
-111.3861299999999943
 31
0
  0
LINE
  5
219
330
22
100
AcDbEntity
  8
B.Mask
  6
CONTINUOUS
100
AcDbLine
 10
113.4587919999999883
 20
-111.3861299999999943
 30
0
 11
113.5257999999999896
 21
-111.6362049999999897
 31
0
  0
LINE
  5
21A
330
22
100
AcDbEntity
  8
B.Mask
  6
CONTINUOUS
100
AcDbLine
 10
113.5257999999999896
 20
-111.6362049999999897
 30
0
 11
113.6248749999999887
 21
-111.8753949999999975
 31
0
  0
LINE
  5
21B
330
22
100
AcDbEntity
  8
B.Mask
  6
CONTINUOUS
100
AcDbLine
 10
113.6248749999999887
 20
-111.8753949999999975
 30
0
 11
113.7543229999999994
 21
-112.0996059999999943
 31
0
  0
LINE
  5
21C
330
22
100
AcDbEntity
  8
B.Mask
  6
CONTINUOUS
100
AcDbLine
 10
113.7543229999999994
 20
-112.0996059999999943
 30
0
 11
113.9119299999999981
 21
-112.3050029999999992
 31
0
  0
LINE
  5
21D
330
22
100
AcDbEntity
  8
B.Mask
  6
CONTINUOUS
100
AcDbLine
 10
113.9119299999999981
 20
-112.3050029999999992
 30
0
 11
114.0949969999999922
 21
-112.4880699999999933
 31
0
  0
LINE
  5
21E
330
22
100
AcDbEntity
  8
B.Mask
  6
CONTINUOUS
100
AcDbLine
 10
114.0949969999999922
 20
-112.4880699999999933
 30
0
 11
114.3003939999999972
 21
-112.6456769999999921
 31
0
  0
LINE
  5
21F
330
22
100
AcDbEntity
  8
B.Mask
  6
CONTINUOUS
100
AcDbLine
 10
114.3003939999999972
 20
-112.6456769999999921
 30
0
 11
114.524604999999994
 21
-112.7751249999999885
 31
0
  0
LINE
  5
220
330
22
100
AcDbEntity
  8
B.Mask
  6
CONTINUOUS
100
AcDbLine
 10
114.524604999999994
 20
-112.7751249999999885
 30
0
 11
114.7637950000000018
 21
-112.8742000000000019
 31
0
  0
LINE
  5
221
330
22
100
AcDbEntity
  8
B.Mask
  6
CONTINUOUS
100
AcDbLine
 10
114.7637950000000018
 20
-112.8742000000000019
 30
0
 11
115.0138699999999972
 21
-112.9412079999999889
 31
0
  0
LINE
  5
222
330
22
100
AcDbEntity
  8
B.Mask
  6
CONTINUOUS
100
AcDbLine
 10
115.0138699999999972
 20
-112.9412079999999889
 30
0
 11
115.270551999999995
 21
-112.9749999999999943
 31
0
  0
LINE
  5
223
330
22
100
AcDbEntity
  8
B.Mask
  6
CONTINUOUS
100
AcDbLine
 10
115.270551999999995
 20
-112.9749999999999943
 30
0
 11
115.3999999999999915
 21
-112.9749999999999943
 31
0
  0
LINE
  5
224
330
22
100
AcDbEntity
  8
B.Mask
  6
CONTINUOUS
100
AcDbLine
 10
115.3999999999999915
 20
-112.9749999999999943
 30
0
 11
168.4000000000000057
 21
-112.9749999999999943
 31
0
  0
LINE
  5
225
330
22
100
AcDbEntity
  8
B.Mask
  6
CONTINUOUS
100
AcDbLine
 10
168.4000000000000057
 20
-112.9749999999999943
 30
0
 11
168.5294480000000021
 21
-112.9749999999999943
 31
0
  0
LINE
  5
226
330
22
100
AcDbEntity
  8
B.Mask
  6
CONTINUOUS
100
AcDbLine
 10
168.5294480000000021
 20
-112.9749999999999943
 30
0
 11
168.7861299999999858
 21
-112.9412079999999889
 31
0
  0
LINE
  5
227
330
22
100
AcDbEntity
  8
B.Mask
  6
CONTINUOUS
100
AcDbLine
 10
168.7861299999999858
 20
-112.9412079999999889
 30
0
 11
169.0362049999999954
 21
-112.8742000000000019
 31
0
  0
LINE
  5
228
330
22
100
AcDbEntity
  8
B.Mask
  6
CONTINUOUS
100
AcDbLine
 10
169.0362049999999954
 20
-112.8742000000000019
 30
0
 11
169.2753950000000032
 21
-112.7751249999999885
 31
0
  0
LINE
  5
229
330
22
100
AcDbEntity
  8
B.Mask
  6
CONTINUOUS
100
AcDbLine
 10
169.2753950000000032
 20
-112.7751249999999885
 30
0
 11
169.499606
 21
-112.6456769999999921
 31
0
  0
LINE
  5
22A
330
22
100
AcDbEntity
  8
B.Mask
  6
CONTINUOUS
100
AcDbLine
 10
169.499606
 20
-112.6456769999999921
 30
0
 11
169.7050030000000049
 21
-112.4880699999999933
 31
0
  0
LINE
  5
22B
330
22
100
AcDbEntity
  8
B.Mask
  6
CONTINUOUS
100
AcDbLine
 10
169.7050030000000049
 20
-112.4880699999999933
 30
0
 11
169.888069999999999
 21
-112.3050029999999992
 31
0
  0
LINE
  5
22C
330
22
100
AcDbEntity
  8
B.Mask
  6
CONTINUOUS
100
AcDbLine
 10
169.888069999999999
 20
-112.3050029999999992
 30
0
 11
170.0456769999999835
 21
-112.0996059999999943
 31
0
  0
LINE
  5
22D
330
22
100
AcDbEntity
  8
B.Mask
  6
CONTINUOUS
100
AcDbLine
 10
170.0456769999999835
 20
-112.0996059999999943
 30
0
 11
170.17512499999998
 21
-111.8753949999999975
 31
0
  0
LINE
  5
22E
330
22
100
AcDbEntity
  8
B.Mask
  6
CONTINUOUS
100
AcDbLine
 10
170.17512499999998
 20
-111.8753949999999975
 30
0
 11
170.2741999999999791
 21
-111.6362049999999897
 31
0
  0
LINE
  5
22F
330
22
100
AcDbEntity
  8
B.Mask
  6
CONTINUOUS
100
AcDbLine
 10
170.2741999999999791
 20
-111.6362049999999897
 30
0
 11
170.3412079999999946
 21
-111.3861299999999943
 31
0
  0
LINE
  5
230
330
22
100
AcDbEntity
  8
B.Mask
  6
CONTINUOUS
100
AcDbLine
 10
170.3412079999999946
 20
-111.3861299999999943
 30
0
 11
170.375
 21
-111.1294479999999965
 31
0
  0
LINE
  5
231
330
22
100
AcDbEntity
  8
B.Mask
  6
CONTINUOUS
100
AcDbLine
 10
170.375
 20
-111.1294479999999965
 30
0
 11
170.375
 21
-111.
 31
0
  0
LINE
  5
232
330
22
100
AcDbEntity
  8
B.Mask
  6
CONTINUOUS
100
AcDbLine
 10
170.375
 20
-111.
 30
0
 11
170.375
 21
-76.5
 31
0
  0
LINE
  5
233
330
22
100
AcDbEntity
  8
B.Mask
  6
CONTINUOUS
100
AcDbLine
 10
170.375
 20
-76.5
 30
0
 11
170.375
 21
-76.3705520000000035
 31
0
  0
LINE
  5
234
330
22
100
AcDbEntity
  8
B.Mask
  6
CONTINUOUS
100
AcDbLine
 10
170.375
 20
-76.3705520000000035
 30
0
 11
170.3412079999999946
 21
-76.1138699999999915
 31
0
  0
LINE
  5
235
330
22
100
AcDbEntity
  8
B.Mask
  6
CONTINUOUS
100
AcDbLine
 10
170.3412079999999946
 20
-76.1138699999999915
 30
0
 11
170.2741999999999791
 21
-75.8637949999999961
 31
0
  0
LINE
  5
236
330
22
100
AcDbEntity
  8
B.Mask
  6
CONTINUOUS
100
AcDbLine
 10
170.2741999999999791
 20
-75.8637949999999961
 30
0
 11
170.17512499999998
 21
-75.6246050000000025
 31
0
  0
LINE
  5
237
330
22
100
AcDbEntity
  8
B.Mask
  6
CONTINUOUS
100
AcDbLine
 10
170.17512499999998
 20
-75.6246050000000025
 30
0
 11
170.0456769999999835
 21
-75.4003939999999915
 31
0
  0
LINE
  5
238
330
22
100
AcDbEntity
  8
B.Mask
  6
CONTINUOUS
100
AcDbLine
 10
170.0456769999999835
 20
-75.4003939999999915
 30
0
 11
169.888069999999999
 21
-75.1949970000000008
 31
0
  0
LINE
  5
239
330
22
100
AcDbEntity
  8
B.Mask
  6
CONTINUOUS
100
AcDbLine
 10
169.888069999999999
 20
-75.1949970000000008
 30
0
 11
169.7050030000000049
 21
-75.0119299999999924
 31
0
  0
LINE
  5
23A
330
22
100
AcDbEntity
  8
B.Mask
  6
CONTINUOUS
100
AcDbLine
 10
169.7050030000000049
 20
-75.0119299999999924
 30
0
 11
169.499606
 21
-74.8543229999999937
 31
0
  0
LINE
  5
23B
330
22
100
AcDbEntity
  8
B.Mask
  6
CONTINUOUS
100
AcDbLine
 10
169.499606
 20
-74.8543229999999937
 30
0
 11
169.2753950000000032
 21
-74.7248749999999973
 31
0
  0
LINE
  5
23C
330
22
100
AcDbEntity
  8
B.Mask
  6
CONTINUOUS
100
AcDbLine
 10
169.2753950000000032
 20
-74.7248749999999973
 30
0
 11
169.0362049999999954
 21
-74.6257999999999981
 31
0
  0
LINE
  5
23D
330
22
100
AcDbEntity
  8
B.Mask
  6
CONTINUOUS
100
AcDbLine
 10
169.0362049999999954
 20
-74.6257999999999981
 30
0
 11
168.7861299999999858
 21
-74.5587919999999968
 31
0
  0
LINE
  5
23E
330
22
100
AcDbEntity
  8
B.Mask
  6
CONTINUOUS
100
AcDbLine
 10
168.7861299999999858
 20
-74.5587919999999968
 30
0
 11
168.5294480000000021
 21
-74.5249999999999915
 31
0
  0
LINE
  5
23F
330
22
100
AcDbEntity
  8
B.Mask
  6
CONTINUOUS
100
AcDbLine
 10
168.5294480000000021
 20
-74.5249999999999915
 30
0
 11
168.4000000000000057
 21
-74.5249999999999915
 31
0
  0
LINE
  5
240
330
22
100
AcDbEntity
  8
B.Mask
  6
CONTINUOUS
100
AcDbLine
 10
168.4000000000000057
 20
-74.5249999999999915
 30
0
 11
115.3999999999999915
 21
-74.5249999999999915
 31
0
  0
CIRCLE
  5
241
330
22
100
AcDbEntity
  8
B.Mask
100
AcDbCircle
 10
163.9000000000000057
 20
-90.
 30
0
 40
0.175
  0
CIRCLE
  5
242
330
22
100
AcDbEntity
  8
B.Mask
100
AcDbCircle
 10
163.9000000000000057
 20
-88.
 30
0
 40
0.175
  0
CIRCLE
  5
243
330
22
100
AcDbEntity
  8
B.Mask
100
AcDbCircle
 10
115.8407579999999939
 20
-85.6991840000000025
 30
0
 40
0.175
  0
CIRCLE
  5
244
330
22
100
AcDbEntity
  8
B.Mask
100
AcDbCircle
 10
115.8407579999999939
 20
-83.1591839999999962
 30
0
 40
0.175
  0
CIRCLE
  5
245
330
22
100
AcDbEntity
  8
B.Mask
100
AcDbCircle
 10
160.9000000000000057
 20
-90.
 30
0
 40
0.175
  0
CIRCLE
  5
246
330
22
100
AcDbEntity
  8
B.Mask
100
AcDbCircle
 10
160.9000000000000057
 20
-88.
 30
0
 40
0.175
  0
CIRCLE
  5
247
330
22
100
AcDbEntity
  8
B.Mask
100
AcDbCircle
 10
160.9000000000000057
 20
-86.
 30
0
 40
0.175
  0
CIRCLE
  5
248
330
22
100
AcDbEntity
  8
B.Mask
100
AcDbCircle
 10
142.4000000000000057
 20
-77.
 30
0
 40
0.175
  0
CIRCLE
  5
249
330
22
100
AcDbEntity
  8
B.Mask
100
AcDbCircle
 10
140.4000000000000057
 20
-77.
 30
0
 40
0.175
  0
CIRCLE
  5
24A
330
22
100
AcDbEntity
  8
B.Mask
100
AcDbCircle
 10
138.4000000000000057
 20
-77.
 30
0
 40
0.175
  0
CIRCLE
  5
24B
330
22
100
AcDbEntity
  8
B.Mask
100
AcDbCircle
 10
156.9000000000000057
 20
-78.25
 30
0
 40
0.175
  0
CIRCLE
  5
24C
330
22
100
AcDbEntity
  8
B.Mask
100
AcDbCircle
 10
166.9000000000000057
 20
-90.
 30
0
 40
0.175
  0
CIRCLE
  5
24D
330
22
100
AcDbEntity
  8
B.Mask
100
AcDbCircle
 10
166.9000000000000057
 20
-88.
 30
0
 40
0.175
  0
CIRCLE
  5
24E
330
22
100
AcDbEntity
  8
B.Mask
100
AcDbCircle
 10
163.9000000000000057
 20
-90.
 30
0
 40
0.175
  0
CIRCLE
  5
24F
330
22
100
AcDbEntity
  8
B.Mask
100
AcDbCircle
 10
163.9000000000000057
 20
-88.
 30
0
 40
0.175
  0
CIRCLE
  5
250
330
22
100
AcDbEntity
  8
B.Mask
100
AcDbCircle
 10
115.8407579999999939
 20
-85.6991840000000025
 30
0
 40
0.175
  0
CIRCLE
  5
251
330
22
100
AcDbEntity
  8
B.Mask
100
AcDbCircle
 10
115.8407579999999939
 20
-83.1591839999999962
 30
0
 40
0.175
  0
CIRCLE
  5
252
330
22
100
AcDbEntity
  8
B.Mask
100
AcDbCircle
 10
160.9000000000000057
 20
-90.
 30
0
 40
0.175
  0
CIRCLE
  5
253
330
22
100
AcDbEntity
  8
B.Mask
100
AcDbCircle
 10
160.9000000000000057
 20
-88.
 30
0
 40
0.175
  0
CIRCLE
  5
254
330
22
100
AcDbEntity
  8
B.Mask
100
AcDbCircle
 10
160.9000000000000057
 20
-86.
 30
0
 40
0.175
  0
CIRCLE
  5
255
330
22
100
AcDbEntity
  8
B.Mask
100
AcDbCircle
 10
142.4000000000000057
 20
-77.
 30
0
 40
0.175
  0
CIRCLE
  5
256
330
22
100
AcDbEntity
  8
B.Mask
100
AcDbCircle
 10
140.4000000000000057
 20
-77.
 30
0
 40
0.175
  0
CIRCLE
  5
257
330
22
100
AcDbEntity
  8
B.Mask
100
AcDbCircle
 10
138.4000000000000057
 20
-77.
 30
0
 40
0.175
  0
CIRCLE
  5
258
330
22
100
AcDbEntity
  8
B.Mask
100
AcDbCircle
 10
156.9000000000000057
 20
-78.25
 30
0
 40
0.175
  0
CIRCLE
  5
259
330
22
100
AcDbEntity
  8
B.Mask
100
AcDbCircle
 10
166.9000000000000057
 20
-90.
 30
0
 40
0.175
  0
CIRCLE
  5
25A
330
22
100
AcDbEntity
  8
B.Mask
100
AcDbCircle
 10
166.9000000000000057
 20
-88.
 30
0
 40
0.175
  0
ENDSEC
  0
SECTION
  2
OBJECTS
  0
DICTIONARY
  5
28
330
0
100
AcDbDictionary
281
1
  3
ACAD_GROUP
350
25B
  3
ACAD_LAYOUT
350
29
  3
ACAD_PLOTSTYLENAME
350
11
  0
DICTIONARY
  5
25B
330
28
100
AcDbDictionary
281
1
  0
ACDBDICTIONARYWDFLT
  5
11
330
28
100
AcDbDictionary
281
1
  3
Normal
350
10
100
AcDbDictionaryWithDefault
340
10
  0
ACDBPLACEHOLDER
  5
10
330
11
  0
DICTIONARY
  5
29
330
28
100
AcDbDictionary
281
1
  3
Model
350
25
  3
Layout1
350
26
  3
Layout2
350
27
  0
LAYOUT
  5
25
330
29
100
AcDbPlotSettings
  1

  2
none_device
  4
A3
  6

 40
0.0
 41
0.0
 42
0.0
 43
0.0
 44
420.0
 45
297.0
 46
0.0
 47
0.0
 48
0.0
 49
0.0
140
0.0
141
0.0
142
1.0
143
1.0
 70
1024
 72
1
 73
0
 74
5
  7

 75
16
 76
0
 77
2
 78
300
147
1.0
148
0.0
149
0.0
100
AcDbLayout
  1
Model
 70
1
 71
0
 10
0.0
 20
0.0
 11
420.0
 21
297.0
 12
0.0
 22
0.0
 32
0.0
 14
1e+20
 24
1e+20
 34
1e+20
 15
-1e+20
 25
-1e+20
 35
-1e+20
146
0.0
 13
0.0
 23
0.0
 33
0.0
 16
1.0
 26
0.0
 36
0.0
 17
0.0
 27
1.0
 37
0.0
 76
0
330
22
  0
LAYOUT
  5
26
330
29
100
AcDbPlotSettings
  1

  2
none_device
  4
A3
  6

 40
0.0
 41
0.0
 42
0.0
 43
0.0
 44
420.0
 45
297.0
 46
0.0
 47
0.0
 48
0.0
 49
0.0
140
0.0
141
0.0
142
1.0
143
1.0
 70
0
 72
1
 73
0
 74
5
  7

 75
16
 76
0
 77
2
 78
300
147
1.0
148
0.0
149
0.0
100
AcDbLayout
  1
Layout1
 70
1
 71
1
 10
0.0
 20
0.0
 11
420.0
 21
297.0
 12
0.0
 22
0.0
 32
0.0
 14
1e+20
 24
1e+20
 34
1e+20
 15
-1e+20
 25
-1e+20
 35
-1e+20
146
0.0
 13
0.0
 23
0.0
 33
0.0
 16
1.0
 26
0.0
 36
0.0
 17
0.0
 27
1.0
 37
0.0
 76
0
330
23
  0
LAYOUT
  5
27
330
29
100
AcDbPlotSettings
  1

  2
none_device
  4
A3
  6

 40
0.0
 41
0.0
 42
0.0
 43
0.0
 44
420.0
 45
297.0
 46
0.0
 47
0.0
 48
0.0
 49
0.0
140
0.0
141
0.0
142
1.0
143
1.0
 70
0
 72
1
 73
0
 74
5
  7

 75
16
 76
0
 77
2
 78
300
147
1.0
148
0.0
149
0.0
100
AcDbLayout
  1
Layout2
 70
1
 71
2
 10
0.0
 20
0.0
 11
420.0
 21
297.0
 12
0.0
 22
0.0
 32
0.0
 14
1e+20
 24
1e+20
 34
1e+20
 15
-1e+20
 25
-1e+20
 35
-1e+20
146
0.0
 13
0.0
 23
0.0
 33
0.0
 16
1.0
 26
0.0
 36
0.0
 17
0.0
 27
1.0
 37
0.0
 76
0
330
24
  0
ENDSEC
  0
EOF
