%TF.GenerationSoftware,KiCad,Pcbnew,9.0.3+1*%
%TF.CreationDate,2025-11-18T09:19:09+01:00*%
%TF.ProjectId,Stylophon_1,5374796c-6f70-4686-9f6e-5f312e6b6963,1.0*%
%TF.SameCoordinates,Original*%
%TF.FileFunction,Copper,L1,Top*%
%TF.FilePolarity,Positive*%
%FSLAX46Y46*%
G04 Gerber Fmt 4.6, Leading zero omitted, Abs format (unit mm)*
G04 Created by KiCad (PCBNEW 9.0.3+1) date 2025-11-18 09:19:09*
%MOMM*%
%LPD*%
G01*
G04 APERTURE LIST*
G04 Aperture macros list*
%AMRoundRect*
0 Rectangle with rounded corners*
0 $1 Rounding radius*
0 $2 $3 $4 $5 $6 $7 $8 $9 X,Y pos of 4 corners*
0 Add a 4 corners polygon primitive as box body*
4,1,4,$2,$3,$4,$5,$6,$7,$8,$9,$2,$3,0*
0 Add four circle primitives for the rounded corners*
1,1,$1+$1,$2,$3*
1,1,$1+$1,$4,$5*
1,1,$1+$1,$6,$7*
1,1,$1+$1,$8,$9*
0 Add four rect primitives between the rounded corners*
20,1,$1+$1,$2,$3,$4,$5,0*
20,1,$1+$1,$4,$5,$6,$7,0*
20,1,$1+$1,$6,$7,$8,$9,0*
20,1,$1+$1,$8,$9,$2,$3,0*%
%AMFreePoly0*
4,1,19,1.915858,6.098079,1.951906,6.083147,1.979496,6.055557,1.994428,6.019509,1.996349,6.000000,1.996349,2.000000,2.000000,2.000000,2.000000,-2.000000,-2.000000,-2.000000,-2.000000,2.000000,0.100000,2.000000,0.100000,6.000000,0.101921,6.019509,0.116853,6.055557,0.144443,6.083147,0.180491,6.098079,0.200000,6.100000,1.896349,6.100000,1.915858,6.098079,1.915858,6.098079,
$1*%
%AMFreePoly1*
4,1,19,-0.180491,6.098079,-0.144443,6.083147,-0.116853,6.055557,-0.101921,6.019509,-0.100000,6.000000,-0.100000,2.000000,2.000000,2.000000,2.000000,-2.000000,-2.000000,-2.000000,-2.000000,2.000000,-1.996349,2.000000,-1.996349,6.000000,-1.994428,6.019509,-1.979496,6.055557,-1.951906,6.083147,-1.915858,6.098079,-1.896349,6.100000,-0.200000,6.100000,-0.180491,6.098079,-0.180491,6.098079,
$1*%
G04 Aperture macros list end*
%ADD10C,0.200000*%
%TA.AperFunction,SMDPad,CuDef*%
%ADD11RoundRect,0.250000X-1.500000X-0.550000X1.500000X-0.550000X1.500000X0.550000X-1.500000X0.550000X0*%
%TD*%
%TA.AperFunction,SMDPad,CuDef*%
%ADD12RoundRect,0.250000X-0.400000X-0.625000X0.400000X-0.625000X0.400000X0.625000X-0.400000X0.625000X0*%
%TD*%
%TA.AperFunction,SMDPad,CuDef*%
%ADD13R,4.000000X4.000000*%
%TD*%
%TA.AperFunction,SMDPad,CuDef*%
%ADD14RoundRect,0.250000X0.600000X-0.400000X0.600000X0.400000X-0.600000X0.400000X-0.600000X-0.400000X0*%
%TD*%
%TA.AperFunction,SMDPad,CuDef*%
%ADD15FreePoly0,0.000000*%
%TD*%
%TA.AperFunction,SMDPad,CuDef*%
%ADD16RoundRect,0.250000X0.625000X-0.400000X0.625000X0.400000X-0.625000X0.400000X-0.625000X-0.400000X0*%
%TD*%
%TA.AperFunction,SMDPad,CuDef*%
%ADD17RoundRect,0.250000X0.475000X-0.337500X0.475000X0.337500X-0.475000X0.337500X-0.475000X-0.337500X0*%
%TD*%
%TA.AperFunction,SMDPad,CuDef*%
%ADD18RoundRect,0.250000X-0.625000X0.400000X-0.625000X-0.400000X0.625000X-0.400000X0.625000X0.400000X0*%
%TD*%
%TA.AperFunction,SMDPad,CuDef*%
%ADD19R,3.000000X1.000000*%
%TD*%
%TA.AperFunction,SMDPad,CuDef*%
%ADD20RoundRect,0.150000X0.825000X0.150000X-0.825000X0.150000X-0.825000X-0.150000X0.825000X-0.150000X0*%
%TD*%
%TA.AperFunction,SMDPad,CuDef*%
%ADD21RoundRect,0.250000X0.400000X0.625000X-0.400000X0.625000X-0.400000X-0.625000X0.400000X-0.625000X0*%
%TD*%
%TA.AperFunction,SMDPad,CuDef*%
%ADD22FreePoly1,0.000000*%
%TD*%
%TA.AperFunction,SMDPad,CuDef*%
%ADD23RoundRect,0.250000X-0.475000X0.337500X-0.475000X-0.337500X0.475000X-0.337500X0.475000X0.337500X0*%
%TD*%
%TA.AperFunction,SMDPad,CuDef*%
%ADD24RoundRect,0.250000X-0.337500X-0.475000X0.337500X-0.475000X0.337500X0.475000X-0.337500X0.475000X0*%
%TD*%
%TA.AperFunction,SMDPad,CuDef*%
%ADD25RoundRect,0.150000X-0.150000X0.587500X-0.150000X-0.587500X0.150000X-0.587500X0.150000X0.587500X0*%
%TD*%
%TA.AperFunction,SMDPad,CuDef*%
%ADD26RoundRect,0.150000X0.150000X-0.587500X0.150000X0.587500X-0.150000X0.587500X-0.150000X-0.587500X0*%
%TD*%
%TA.AperFunction,ComponentPad*%
%ADD27R,1.350000X1.350000*%
%TD*%
%TA.AperFunction,ComponentPad*%
%ADD28O,1.350000X1.350000*%
%TD*%
%TA.AperFunction,ComponentPad*%
%ADD29R,1.700000X1.700000*%
%TD*%
%TA.AperFunction,ComponentPad*%
%ADD30O,1.700000X1.700000*%
%TD*%
%TA.AperFunction,ViaPad*%
%ADD31C,0.600000*%
%TD*%
%TA.AperFunction,ViaPad*%
%ADD32C,1.600000*%
%TD*%
%TA.AperFunction,Conductor*%
%ADD33C,0.400000*%
%TD*%
G04 APERTURE END LIST*
D10*
G36*
X137205676Y-94030357D02*
G01*
X137230345Y-94055025D01*
X137260150Y-94114635D01*
X137260150Y-94353135D01*
X137230345Y-94412743D01*
X137205676Y-94437413D01*
X137146067Y-94467219D01*
X137002805Y-94467219D01*
X136983960Y-94457796D01*
X136983960Y-94009974D01*
X137002805Y-94000552D01*
X137146067Y-94000552D01*
X137205676Y-94030357D01*
G37*
G36*
X136300914Y-94030357D02*
G01*
X136325583Y-94055025D01*
X136355388Y-94114635D01*
X136355388Y-94353135D01*
X136325583Y-94412743D01*
X136300914Y-94437413D01*
X136241305Y-94467219D01*
X136145662Y-94467219D01*
X136086052Y-94437414D01*
X136061385Y-94412746D01*
X136031579Y-94353134D01*
X136031579Y-94114635D01*
X136061384Y-94055025D01*
X136086052Y-94030356D01*
X136145662Y-94000552D01*
X136241305Y-94000552D01*
X136300914Y-94030357D01*
G37*
G36*
X139015200Y-94030357D02*
G01*
X139039869Y-94055025D01*
X139069674Y-94114635D01*
X139069674Y-94353135D01*
X139039869Y-94412743D01*
X139015200Y-94437413D01*
X138955591Y-94467219D01*
X138859948Y-94467219D01*
X138800338Y-94437414D01*
X138775671Y-94412746D01*
X138745865Y-94353134D01*
X138745865Y-94114635D01*
X138775670Y-94055025D01*
X138800338Y-94030356D01*
X138859948Y-94000552D01*
X138955591Y-94000552D01*
X139015200Y-94030357D01*
G37*
G36*
X140809424Y-94022707D02*
G01*
X140826874Y-94057607D01*
X140555389Y-94111904D01*
X140555389Y-94067016D01*
X140577544Y-94022706D01*
X140621853Y-94000552D01*
X140765115Y-94000552D01*
X140809424Y-94022707D01*
G37*
G36*
X141142690Y-95110878D02*
G01*
X132910943Y-95110878D01*
X132910943Y-94888045D01*
X134499030Y-94888045D01*
X134501796Y-94926965D01*
X134519245Y-94961864D01*
X134548722Y-94987428D01*
X134585738Y-94999767D01*
X134624658Y-94997001D01*
X134642966Y-94989995D01*
X134738204Y-94942376D01*
X134746600Y-94937090D01*
X134749040Y-94936080D01*
X134751786Y-94933826D01*
X134754794Y-94931933D01*
X134756523Y-94929938D01*
X134764194Y-94923644D01*
X134811812Y-94876025D01*
X134824249Y-94860872D01*
X134824486Y-94860297D01*
X134824921Y-94859853D01*
X134833950Y-94842453D01*
X134929188Y-94604358D01*
X134929712Y-94602551D01*
X134930514Y-94600853D01*
X135168609Y-93934186D01*
X135173362Y-93915167D01*
X135171424Y-93876197D01*
X135154721Y-93840935D01*
X135125795Y-93814749D01*
X135089050Y-93801626D01*
X135050080Y-93803563D01*
X135014818Y-93820267D01*
X134988631Y-93849192D01*
X134980261Y-93866919D01*
X134836340Y-94269897D01*
X134692419Y-93866918D01*
X134684049Y-93849192D01*
X134657862Y-93820266D01*
X134622600Y-93803563D01*
X134583630Y-93801625D01*
X134546885Y-93814748D01*
X134517959Y-93840935D01*
X134501256Y-93876197D01*
X134499318Y-93915167D01*
X134504071Y-93934186D01*
X134729438Y-94565214D01*
X134655876Y-94749117D01*
X134634247Y-94770746D01*
X134553524Y-94811109D01*
X134536933Y-94821552D01*
X134511369Y-94851029D01*
X134499030Y-94888045D01*
X132910943Y-94888045D01*
X132910943Y-93757695D01*
X133022054Y-93757695D01*
X133022054Y-93852933D01*
X133023975Y-93872442D01*
X133025350Y-93875762D01*
X133025605Y-93879346D01*
X133032611Y-93897654D01*
X133080230Y-93992892D01*
X133085515Y-94001288D01*
X133086526Y-94003728D01*
X133088779Y-94006474D01*
X133090673Y-94009482D01*
X133092667Y-94011211D01*
X133098962Y-94018882D01*
X133146581Y-94066500D01*
X133154247Y-94072792D01*
X133155980Y-94074790D01*
X133158988Y-94076683D01*
X133161734Y-94078937D01*
X133164174Y-94079947D01*
X133172571Y-94085233D01*
X133267808Y-94132852D01*
X133269236Y-94133398D01*
X133269816Y-94133828D01*
X133277992Y-94136749D01*
X133286117Y-94139858D01*
X133286837Y-94139909D01*
X133288276Y-94140423D01*
X133468101Y-94185379D01*
X133539008Y-94220833D01*
X133563677Y-94245501D01*
X133593482Y-94305111D01*
X133593482Y-94353135D01*
X133563677Y-94412743D01*
X133539008Y-94437413D01*
X133479399Y-94467219D01*
X133281137Y-94467219D01*
X133153677Y-94424732D01*
X133134561Y-94420385D01*
X133095641Y-94423151D01*
X133060742Y-94440601D01*
X133035177Y-94470077D01*
X133022839Y-94507093D01*
X133025605Y-94546013D01*
X133043055Y-94580912D01*
X133072531Y-94606477D01*
X133090431Y-94614468D01*
X133233288Y-94662087D01*
X133242960Y-94664286D01*
X133245402Y-94665298D01*
X133248939Y-94665646D01*
X133252403Y-94666434D01*
X133255037Y-94666246D01*
X133264911Y-94667219D01*
X133503006Y-94667219D01*
X133522515Y-94665298D01*
X133525835Y-94663922D01*
X133529419Y-94663668D01*
X133547727Y-94656662D01*
X133642965Y-94609043D01*
X133651360Y-94603758D01*
X133653802Y-94602747D01*
X133656549Y-94600491D01*
X133659555Y-94598600D01*
X133661285Y-94596605D01*
X133668955Y-94590310D01*
X133716574Y-94542690D01*
X133722866Y-94535023D01*
X133724863Y-94533292D01*
X133726756Y-94530284D01*
X133729011Y-94527537D01*
X133730022Y-94525095D01*
X133735306Y-94516701D01*
X133782925Y-94421464D01*
X133789931Y-94403155D01*
X133790185Y-94399571D01*
X133791561Y-94396251D01*
X133793482Y-94376742D01*
X133793482Y-94281504D01*
X133791561Y-94261995D01*
X133790185Y-94258674D01*
X133789931Y-94255091D01*
X133782925Y-94236782D01*
X133735306Y-94141545D01*
X133730020Y-94133148D01*
X133729010Y-94130708D01*
X133726756Y-94127962D01*
X133724863Y-94124954D01*
X133722865Y-94123221D01*
X133716573Y-94115555D01*
X133668955Y-94067936D01*
X133661284Y-94061641D01*
X133659555Y-94059647D01*
X133656547Y-94057753D01*
X133653801Y-94055500D01*
X133651361Y-94054489D01*
X133642965Y-94049204D01*
X133547727Y-94001585D01*
X133546300Y-94001039D01*
X133545720Y-94000609D01*
X133537543Y-93997687D01*
X133529419Y-93994579D01*
X133528696Y-93994527D01*
X133527259Y-93994014D01*
X133347434Y-93949057D01*
X133276527Y-93913604D01*
X133251859Y-93888935D01*
X133247913Y-93881043D01*
X133881118Y-93881043D01*
X133881118Y-93920061D01*
X133896050Y-93956109D01*
X133923640Y-93983699D01*
X133959688Y-93998631D01*
X133979197Y-94000552D01*
X134022054Y-94000552D01*
X134022054Y-94424361D01*
X134023975Y-94443870D01*
X134025350Y-94447190D01*
X134025605Y-94450773D01*
X134032611Y-94469082D01*
X134080230Y-94564321D01*
X134082283Y-94567584D01*
X134082797Y-94569123D01*
X134084459Y-94571039D01*
X134090673Y-94580911D01*
X134100144Y-94589125D01*
X134108361Y-94598600D01*
X134118231Y-94604812D01*
X134120149Y-94606476D01*
X134121689Y-94606989D01*
X134124952Y-94609043D01*
X134220189Y-94656662D01*
X134238498Y-94663668D01*
X134242081Y-94663922D01*
X134245402Y-94665298D01*
X134264911Y-94667219D01*
X134360149Y-94667219D01*
X134379658Y-94665298D01*
X134415706Y-94650366D01*
X134443296Y-94622776D01*
X134458228Y-94586728D01*
X134458228Y-94547710D01*
X134443296Y-94511662D01*
X134415706Y-94484072D01*
X134379658Y-94469140D01*
X134360149Y-94467219D01*
X134288518Y-94467219D01*
X134244208Y-94445064D01*
X134222054Y-94400754D01*
X134222054Y-94000552D01*
X134360149Y-94000552D01*
X134379658Y-93998631D01*
X134415706Y-93983699D01*
X134443296Y-93956109D01*
X134458228Y-93920061D01*
X134458228Y-93881043D01*
X134443296Y-93844995D01*
X134415706Y-93817405D01*
X134379658Y-93802473D01*
X134360149Y-93800552D01*
X134222054Y-93800552D01*
X134222054Y-93567219D01*
X135355388Y-93567219D01*
X135355388Y-94424361D01*
X135357309Y-94443870D01*
X135358684Y-94447190D01*
X135358939Y-94450773D01*
X135365945Y-94469082D01*
X135413564Y-94564321D01*
X135415617Y-94567584D01*
X135416131Y-94569123D01*
X135417793Y-94571039D01*
X135424007Y-94580911D01*
X135433478Y-94589125D01*
X135441695Y-94598600D01*
X135451565Y-94604812D01*
X135453483Y-94606476D01*
X135455023Y-94606989D01*
X135458286Y-94609043D01*
X135553523Y-94656662D01*
X135571832Y-94663668D01*
X135610752Y-94666434D01*
X135647768Y-94654095D01*
X135677245Y-94628530D01*
X135694694Y-94593632D01*
X135697459Y-94554712D01*
X135685121Y-94517696D01*
X135659556Y-94488219D01*
X135642966Y-94477776D01*
X135577542Y-94445064D01*
X135555388Y-94400754D01*
X135555388Y-94091028D01*
X135831579Y-94091028D01*
X135831579Y-94376742D01*
X135833500Y-94396251D01*
X135834875Y-94399571D01*
X135835130Y-94403155D01*
X135842136Y-94421463D01*
X135889755Y-94516701D01*
X135895038Y-94525093D01*
X135896050Y-94527537D01*
X135898306Y-94530286D01*
X135900198Y-94533291D01*
X135902192Y-94535020D01*
X135908487Y-94542690D01*
X135956105Y-94590310D01*
X135963773Y-94596603D01*
X135965505Y-94598600D01*
X135968513Y-94600493D01*
X135971259Y-94602747D01*
X135973699Y-94603757D01*
X135982096Y-94609043D01*
X136077333Y-94656662D01*
X136095642Y-94663668D01*
X136099225Y-94663922D01*
X136102546Y-94665298D01*
X136122055Y-94667219D01*
X136264912Y-94667219D01*
X136284421Y-94665298D01*
X136287741Y-94663922D01*
X136291325Y-94663668D01*
X136309633Y-94656662D01*
X136404871Y-94609043D01*
X136413266Y-94603758D01*
X136415708Y-94602747D01*
X136418455Y-94600491D01*
X136421461Y-94598600D01*
X136423191Y-94596605D01*
X136430861Y-94590310D01*
X136478480Y-94542690D01*
X136484772Y-94535023D01*
X136486769Y-94533292D01*
X136488662Y-94530284D01*
X136490917Y-94527537D01*
X136491928Y-94525095D01*
X136497212Y-94516701D01*
X136544831Y-94421464D01*
X136551837Y-94403155D01*
X136552091Y-94399571D01*
X136553467Y-94396251D01*
X136555388Y-94376742D01*
X136555388Y-94091028D01*
X136553467Y-94071519D01*
X136552091Y-94068198D01*
X136551837Y-94064615D01*
X136544831Y-94046306D01*
X136497212Y-93951069D01*
X136491926Y-93942672D01*
X136490916Y-93940232D01*
X136488662Y-93937486D01*
X136486769Y-93934478D01*
X136484771Y-93932745D01*
X136478479Y-93925079D01*
X136453953Y-93900552D01*
X136783960Y-93900552D01*
X136783960Y-94900552D01*
X136785881Y-94920061D01*
X136800813Y-94956109D01*
X136828403Y-94983699D01*
X136864451Y-94998631D01*
X136903469Y-94998631D01*
X136939517Y-94983699D01*
X136967107Y-94956109D01*
X136982039Y-94920061D01*
X136983960Y-94900552D01*
X136983960Y-94667219D01*
X137169674Y-94667219D01*
X137189183Y-94665298D01*
X137192503Y-94663922D01*
X137196087Y-94663668D01*
X137214395Y-94656662D01*
X137309633Y-94609043D01*
X137318028Y-94603758D01*
X137320470Y-94602747D01*
X137323217Y-94600491D01*
X137326223Y-94598600D01*
X137327953Y-94596605D01*
X137335623Y-94590310D01*
X137383242Y-94542690D01*
X137389534Y-94535023D01*
X137391531Y-94533292D01*
X137393424Y-94530284D01*
X137395679Y-94527537D01*
X137396690Y-94525095D01*
X137401974Y-94516701D01*
X137449593Y-94421464D01*
X137456599Y-94403155D01*
X137456853Y-94399571D01*
X137458229Y-94396251D01*
X137460150Y-94376742D01*
X137460150Y-94091028D01*
X137458229Y-94071519D01*
X137456853Y-94068198D01*
X137456599Y-94064615D01*
X137449593Y-94046306D01*
X137401974Y-93951069D01*
X137396688Y-93942672D01*
X137395678Y-93940232D01*
X137393424Y-93937486D01*
X137391531Y-93934478D01*
X137389533Y-93932745D01*
X137383241Y-93925079D01*
X137335623Y-93877460D01*
X137327952Y-93871165D01*
X137326223Y-93869171D01*
X137323215Y-93867277D01*
X137320469Y-93865024D01*
X137318029Y-93864013D01*
X137309633Y-93858728D01*
X137214395Y-93811109D01*
X137196087Y-93804103D01*
X137192503Y-93803848D01*
X137189183Y-93802473D01*
X137169674Y-93800552D01*
X136979198Y-93800552D01*
X136959689Y-93802473D01*
X136956368Y-93803848D01*
X136952785Y-93804103D01*
X136934476Y-93811109D01*
X136929873Y-93813410D01*
X136903469Y-93802473D01*
X136864451Y-93802473D01*
X136828403Y-93817405D01*
X136800813Y-93844995D01*
X136785881Y-93881043D01*
X136783960Y-93900552D01*
X136453953Y-93900552D01*
X136430861Y-93877460D01*
X136423190Y-93871165D01*
X136421461Y-93869171D01*
X136418453Y-93867277D01*
X136415707Y-93865024D01*
X136413267Y-93864013D01*
X136404871Y-93858728D01*
X136309633Y-93811109D01*
X136291325Y-93804103D01*
X136287741Y-93803848D01*
X136284421Y-93802473D01*
X136264912Y-93800552D01*
X136122055Y-93800552D01*
X136102546Y-93802473D01*
X136099225Y-93803848D01*
X136095642Y-93804103D01*
X136077333Y-93811109D01*
X135982096Y-93858728D01*
X135973699Y-93864013D01*
X135971259Y-93865024D01*
X135968513Y-93867277D01*
X135965505Y-93869171D01*
X135963772Y-93871168D01*
X135956106Y-93877461D01*
X135908487Y-93925079D01*
X135902192Y-93932749D01*
X135900198Y-93934479D01*
X135898304Y-93937486D01*
X135896051Y-93940233D01*
X135895040Y-93942672D01*
X135889755Y-93951069D01*
X135842136Y-94046307D01*
X135835130Y-94064615D01*
X135834875Y-94068198D01*
X135833500Y-94071519D01*
X135831579Y-94091028D01*
X135555388Y-94091028D01*
X135555388Y-93567219D01*
X137688722Y-93567219D01*
X137688722Y-94567219D01*
X137690643Y-94586728D01*
X137705575Y-94622776D01*
X137733165Y-94650366D01*
X137769213Y-94665298D01*
X137808231Y-94665298D01*
X137844279Y-94650366D01*
X137871869Y-94622776D01*
X137886801Y-94586728D01*
X137888722Y-94567219D01*
X137888722Y-94037211D01*
X137895576Y-94030356D01*
X137955186Y-94000552D01*
X138050829Y-94000552D01*
X138095138Y-94022707D01*
X138117293Y-94067016D01*
X138117293Y-94567219D01*
X138119214Y-94586728D01*
X138134146Y-94622776D01*
X138161736Y-94650366D01*
X138197784Y-94665298D01*
X138236802Y-94665298D01*
X138272850Y-94650366D01*
X138300440Y-94622776D01*
X138315372Y-94586728D01*
X138317293Y-94567219D01*
X138317293Y-94091028D01*
X138545865Y-94091028D01*
X138545865Y-94376742D01*
X138547786Y-94396251D01*
X138549161Y-94399571D01*
X138549416Y-94403155D01*
X138556422Y-94421463D01*
X138604041Y-94516701D01*
X138609324Y-94525093D01*
X138610336Y-94527537D01*
X138612592Y-94530286D01*
X138614484Y-94533291D01*
X138616478Y-94535020D01*
X138622773Y-94542690D01*
X138670391Y-94590310D01*
X138678059Y-94596603D01*
X138679791Y-94598600D01*
X138682799Y-94600493D01*
X138685545Y-94602747D01*
X138687985Y-94603757D01*
X138696382Y-94609043D01*
X138791619Y-94656662D01*
X138809928Y-94663668D01*
X138813511Y-94663922D01*
X138816832Y-94665298D01*
X138836341Y-94667219D01*
X138979198Y-94667219D01*
X138998707Y-94665298D01*
X139002027Y-94663922D01*
X139005611Y-94663668D01*
X139023919Y-94656662D01*
X139119157Y-94609043D01*
X139127552Y-94603758D01*
X139129994Y-94602747D01*
X139132741Y-94600491D01*
X139135747Y-94598600D01*
X139137477Y-94596605D01*
X139145147Y-94590310D01*
X139192766Y-94542690D01*
X139199058Y-94535023D01*
X139201055Y-94533292D01*
X139202948Y-94530284D01*
X139205203Y-94527537D01*
X139206214Y-94525095D01*
X139211498Y-94516701D01*
X139259117Y-94421464D01*
X139266123Y-94403155D01*
X139266377Y-94399571D01*
X139267753Y-94396251D01*
X139269674Y-94376742D01*
X139269674Y-94091028D01*
X139267753Y-94071519D01*
X139266377Y-94068198D01*
X139266123Y-94064615D01*
X139259117Y-94046306D01*
X139211498Y-93951069D01*
X139206212Y-93942672D01*
X139205202Y-93940232D01*
X139202948Y-93937486D01*
X139201055Y-93934478D01*
X139199057Y-93932745D01*
X139192765Y-93925079D01*
X139168239Y-93900552D01*
X139498246Y-93900552D01*
X139498246Y-94567219D01*
X139500167Y-94586728D01*
X139515099Y-94622776D01*
X139542689Y-94650366D01*
X139578737Y-94665298D01*
X139617755Y-94665298D01*
X139653803Y-94650366D01*
X139681393Y-94622776D01*
X139696325Y-94586728D01*
X139698246Y-94567219D01*
X139698246Y-94037211D01*
X139705100Y-94030356D01*
X139764710Y-94000552D01*
X139860353Y-94000552D01*
X139904662Y-94022707D01*
X139926817Y-94067016D01*
X139926817Y-94567219D01*
X139928738Y-94586728D01*
X139943670Y-94622776D01*
X139971260Y-94650366D01*
X140007308Y-94665298D01*
X140046326Y-94665298D01*
X140082374Y-94650366D01*
X140109964Y-94622776D01*
X140124896Y-94586728D01*
X140126817Y-94567219D01*
X140126817Y-94043409D01*
X140355389Y-94043409D01*
X140355389Y-94424361D01*
X140357310Y-94443870D01*
X140358685Y-94447190D01*
X140358940Y-94450773D01*
X140365946Y-94469082D01*
X140413565Y-94564321D01*
X140415618Y-94567584D01*
X140416132Y-94569123D01*
X140417794Y-94571039D01*
X140424008Y-94580911D01*
X140433479Y-94589125D01*
X140441696Y-94598600D01*
X140451566Y-94604812D01*
X140453484Y-94606476D01*
X140455024Y-94606989D01*
X140458287Y-94609043D01*
X140553524Y-94656662D01*
X140571833Y-94663668D01*
X140575416Y-94663922D01*
X140578737Y-94665298D01*
X140598246Y-94667219D01*
X140788722Y-94667219D01*
X140808231Y-94665298D01*
X140811551Y-94663922D01*
X140815135Y-94663668D01*
X140833443Y-94656662D01*
X140928681Y-94609043D01*
X140945271Y-94598600D01*
X140970836Y-94569123D01*
X140983174Y-94532107D01*
X140980409Y-94493187D01*
X140962960Y-94458289D01*
X140933483Y-94432724D01*
X140896467Y-94420385D01*
X140857547Y-94423151D01*
X140839238Y-94430157D01*
X140765115Y-94467219D01*
X140621853Y-94467219D01*
X140577543Y-94445064D01*
X140555389Y-94400754D01*
X140555389Y-94315865D01*
X140951085Y-94236726D01*
X140951088Y-94236726D01*
X140951090Y-94236724D01*
X140951190Y-94236705D01*
X140969944Y-94230995D01*
X140978084Y-94225543D01*
X140987136Y-94221794D01*
X140994137Y-94214792D01*
X141002363Y-94209284D01*
X141007797Y-94201132D01*
X141014726Y-94194204D01*
X141018515Y-94185056D01*
X141024007Y-94176819D01*
X141025908Y-94167208D01*
X141029658Y-94158156D01*
X141031579Y-94138647D01*
X141031579Y-94043409D01*
X141029658Y-94023900D01*
X141028282Y-94020579D01*
X141028028Y-94016996D01*
X141021022Y-93998687D01*
X140973403Y-93903450D01*
X140971348Y-93900186D01*
X140970836Y-93898648D01*
X140969174Y-93896732D01*
X140962960Y-93886859D01*
X140953484Y-93878641D01*
X140945271Y-93869171D01*
X140935399Y-93862957D01*
X140933483Y-93861295D01*
X140931944Y-93860781D01*
X140928681Y-93858728D01*
X140833443Y-93811109D01*
X140815135Y-93804103D01*
X140811551Y-93803848D01*
X140808231Y-93802473D01*
X140788722Y-93800552D01*
X140598246Y-93800552D01*
X140578737Y-93802473D01*
X140575416Y-93803848D01*
X140571833Y-93804103D01*
X140553524Y-93811109D01*
X140458287Y-93858728D01*
X140455023Y-93860782D01*
X140453485Y-93861295D01*
X140451569Y-93862956D01*
X140441696Y-93869171D01*
X140433478Y-93878646D01*
X140424008Y-93886860D01*
X140417794Y-93896731D01*
X140416132Y-93898648D01*
X140415618Y-93900186D01*
X140413565Y-93903450D01*
X140365946Y-93998688D01*
X140358940Y-94016996D01*
X140358685Y-94020579D01*
X140357310Y-94023900D01*
X140355389Y-94043409D01*
X140126817Y-94043409D01*
X140124896Y-94023900D01*
X140123520Y-94020579D01*
X140123266Y-94016996D01*
X140116260Y-93998687D01*
X140068641Y-93903450D01*
X140066586Y-93900186D01*
X140066074Y-93898648D01*
X140064412Y-93896732D01*
X140058198Y-93886859D01*
X140048722Y-93878641D01*
X140040509Y-93869171D01*
X140030637Y-93862957D01*
X140028721Y-93861295D01*
X140027182Y-93860781D01*
X140023919Y-93858728D01*
X139928681Y-93811109D01*
X139910373Y-93804103D01*
X139906789Y-93803848D01*
X139903469Y-93802473D01*
X139883960Y-93800552D01*
X139741103Y-93800552D01*
X139721594Y-93802473D01*
X139718273Y-93803848D01*
X139714690Y-93804103D01*
X139696381Y-93811109D01*
X139663798Y-93827400D01*
X139653803Y-93817405D01*
X139617755Y-93802473D01*
X139578737Y-93802473D01*
X139542689Y-93817405D01*
X139515099Y-93844995D01*
X139500167Y-93881043D01*
X139498246Y-93900552D01*
X139168239Y-93900552D01*
X139145147Y-93877460D01*
X139137476Y-93871165D01*
X139135747Y-93869171D01*
X139132739Y-93867277D01*
X139129993Y-93865024D01*
X139127553Y-93864013D01*
X139119157Y-93858728D01*
X139023919Y-93811109D01*
X139005611Y-93804103D01*
X139002027Y-93803848D01*
X138998707Y-93802473D01*
X138979198Y-93800552D01*
X138836341Y-93800552D01*
X138816832Y-93802473D01*
X138813511Y-93803848D01*
X138809928Y-93804103D01*
X138791619Y-93811109D01*
X138696382Y-93858728D01*
X138687985Y-93864013D01*
X138685545Y-93865024D01*
X138682799Y-93867277D01*
X138679791Y-93869171D01*
X138678058Y-93871168D01*
X138670392Y-93877461D01*
X138622773Y-93925079D01*
X138616478Y-93932749D01*
X138614484Y-93934479D01*
X138612590Y-93937486D01*
X138610337Y-93940233D01*
X138609326Y-93942672D01*
X138604041Y-93951069D01*
X138556422Y-94046307D01*
X138549416Y-94064615D01*
X138549161Y-94068198D01*
X138547786Y-94071519D01*
X138545865Y-94091028D01*
X138317293Y-94091028D01*
X138317293Y-94043409D01*
X138315372Y-94023900D01*
X138313996Y-94020579D01*
X138313742Y-94016996D01*
X138306736Y-93998687D01*
X138259117Y-93903450D01*
X138257062Y-93900186D01*
X138256550Y-93898648D01*
X138254888Y-93896732D01*
X138248674Y-93886859D01*
X138239198Y-93878641D01*
X138230985Y-93869171D01*
X138221113Y-93862957D01*
X138219197Y-93861295D01*
X138217658Y-93860781D01*
X138214395Y-93858728D01*
X138119157Y-93811109D01*
X138100849Y-93804103D01*
X138097265Y-93803848D01*
X138093945Y-93802473D01*
X138074436Y-93800552D01*
X137931579Y-93800552D01*
X137912070Y-93802473D01*
X137908749Y-93803848D01*
X137905166Y-93804103D01*
X137888722Y-93810395D01*
X137888722Y-93567219D01*
X137886801Y-93547710D01*
X137871869Y-93511662D01*
X137844279Y-93484072D01*
X137808231Y-93469140D01*
X137769213Y-93469140D01*
X137733165Y-93484072D01*
X137705575Y-93511662D01*
X137690643Y-93547710D01*
X137688722Y-93567219D01*
X135555388Y-93567219D01*
X135553467Y-93547710D01*
X135538535Y-93511662D01*
X135510945Y-93484072D01*
X135474897Y-93469140D01*
X135435879Y-93469140D01*
X135399831Y-93484072D01*
X135372241Y-93511662D01*
X135357309Y-93547710D01*
X135355388Y-93567219D01*
X134222054Y-93567219D01*
X134220133Y-93547710D01*
X134205201Y-93511662D01*
X134177611Y-93484072D01*
X134141563Y-93469140D01*
X134102545Y-93469140D01*
X134066497Y-93484072D01*
X134038907Y-93511662D01*
X134023975Y-93547710D01*
X134022054Y-93567219D01*
X134022054Y-93800552D01*
X133979197Y-93800552D01*
X133959688Y-93802473D01*
X133923640Y-93817405D01*
X133896050Y-93844995D01*
X133881118Y-93881043D01*
X133247913Y-93881043D01*
X133222054Y-93829325D01*
X133222054Y-93781302D01*
X133251859Y-93721692D01*
X133276527Y-93697023D01*
X133336137Y-93667219D01*
X133534398Y-93667219D01*
X133661859Y-93709706D01*
X133680974Y-93714053D01*
X133719894Y-93711287D01*
X133754793Y-93693837D01*
X133780358Y-93664361D01*
X133792697Y-93627345D01*
X133789930Y-93588425D01*
X133772481Y-93553526D01*
X133743005Y-93527961D01*
X133725104Y-93519970D01*
X133582248Y-93472351D01*
X133572576Y-93470151D01*
X133570134Y-93469140D01*
X133566595Y-93468791D01*
X133563132Y-93468004D01*
X133560498Y-93468191D01*
X133550625Y-93467219D01*
X133312530Y-93467219D01*
X133293021Y-93469140D01*
X133289700Y-93470515D01*
X133286117Y-93470770D01*
X133267808Y-93477776D01*
X133172571Y-93525395D01*
X133164174Y-93530680D01*
X133161734Y-93531691D01*
X133158988Y-93533944D01*
X133155980Y-93535838D01*
X133154247Y-93537835D01*
X133146581Y-93544128D01*
X133098962Y-93591746D01*
X133092667Y-93599416D01*
X133090673Y-93601146D01*
X133088779Y-93604153D01*
X133086526Y-93606900D01*
X133085515Y-93609339D01*
X133080230Y-93617736D01*
X133032611Y-93712974D01*
X133025605Y-93731282D01*
X133025350Y-93734865D01*
X133023975Y-93738186D01*
X133022054Y-93757695D01*
X132910943Y-93757695D01*
X132910943Y-93356108D01*
X141142690Y-93356108D01*
X141142690Y-95110878D01*
G37*
D11*
%TO.P,C5,1*%
%TO.N,+9V*%
X133300000Y-89219780D03*
%TO.P,C5,2*%
%TO.N,GND*%
X138700000Y-89219780D03*
%TD*%
D12*
%TO.P,R1,1*%
%TO.N,Net-(R1-Pad1)*%
X160850000Y-93500000D03*
%TO.P,R1,2*%
%TO.N,/12*%
X163950000Y-93500000D03*
%TD*%
D13*
%TO.P,TP14,1,1*%
%TO.N,/4\u002C5*%
X132600000Y-104400000D03*
%TD*%
D14*
%TO.P,D1,1,K*%
%TO.N,Net-(D1-K)*%
X156900000Y-83750000D03*
%TO.P,D1,2,A*%
%TO.N,Net-(D1-A)*%
X156900000Y-80250000D03*
%TD*%
D15*
%TO.P,TP18,1,1*%
%TO.N,/2*%
X121200000Y-109000000D03*
%TD*%
D16*
%TO.P,R28,1*%
%TO.N,Net-(R1-Pad1)*%
X154900000Y-93550000D03*
%TO.P,R28,2*%
%TO.N,Net-(U1-THR)*%
X154900000Y-90450000D03*
%TD*%
D17*
%TO.P,C2,1*%
%TO.N,Net-(C2-Pad1)*%
X140900000Y-81537500D03*
%TO.P,C2,2*%
%TO.N,Net-(T1-C)*%
X140900000Y-79462500D03*
%TD*%
D13*
%TO.P,TP19,1,1*%
%TO.N,/1\u002C5*%
X118900000Y-104400000D03*
%TD*%
D12*
%TO.P,R30,1*%
%TO.N,Net-(R30-Pad1)*%
X163700000Y-85000000D03*
%TO.P,R30,2*%
%TO.N,Net-(Audio_Out1-Pin_2)*%
X166800000Y-85000000D03*
%TD*%
D18*
%TO.P,R2,1*%
%TO.N,/12*%
X167801000Y-97469444D03*
%TO.P,R2,2*%
%TO.N,/11\u002C5*%
X167801000Y-100569444D03*
%TD*%
%TO.P,R6,1*%
%TO.N,/10*%
X156874474Y-97472222D03*
%TO.P,R6,2*%
%TO.N,/9*%
X156874474Y-100572222D03*
%TD*%
D19*
%TO.P,SW2,1,1*%
%TO.N,GND*%
X119400000Y-86960000D03*
%TO.P,SW2,2,2*%
%TO.N,Net-(T1-C)*%
X127400000Y-92040000D03*
%TO.P,SW2,4*%
%TO.N,N/C*%
X119400000Y-92040000D03*
%TO.P,SW2,8*%
X127400000Y-86960000D03*
%TO.P,SW2,C*%
X119400000Y-89500000D03*
%TD*%
D13*
%TO.P,TP8,1,1*%
%TO.N,/8*%
X149200000Y-109000000D03*
%TD*%
D20*
%TO.P,U1,1,GND*%
%TO.N,GND*%
X148875000Y-92405000D03*
%TO.P,U1,2,TR*%
%TO.N,Net-(U1-THR)*%
X148875000Y-91135000D03*
%TO.P,U1,3,Q*%
%TO.N,Net-(U1-Q)*%
X148875000Y-89865000D03*
%TO.P,U1,4,R*%
%TO.N,+9V*%
X148875000Y-88595000D03*
%TO.P,U1,5,CV*%
%TO.N,Net-(U1-CV)*%
X143925000Y-88595000D03*
%TO.P,U1,6,THR*%
%TO.N,Net-(U1-THR)*%
X143925000Y-89865000D03*
%TO.P,U1,7,DIS*%
%TO.N,Net-(D1-K)*%
X143925000Y-91135000D03*
%TO.P,U1,8,VCC*%
%TO.N,+9V*%
X143925000Y-92405000D03*
%TD*%
D18*
%TO.P,R8,1*%
%TO.N,/8\u002C5*%
X151411211Y-97475000D03*
%TO.P,R8,2*%
%TO.N,/8*%
X151411211Y-100575000D03*
%TD*%
%TO.P,R14,1*%
%TO.N,/5*%
X135021421Y-97477778D03*
%TO.P,R14,2*%
%TO.N,/4\u002C5*%
X135021421Y-100577778D03*
%TD*%
D13*
%TO.P,TP3,1,1*%
%TO.N,/11*%
X163000000Y-109000000D03*
%TD*%
D15*
%TO.P,TP13,1,1*%
%TO.N,/5*%
X134900000Y-109000000D03*
%TD*%
D18*
%TO.P,R16,1*%
%TO.N,/4*%
X129558158Y-97461111D03*
%TO.P,R16,2*%
%TO.N,/3\u002C5*%
X129558158Y-100561111D03*
%TD*%
%TO.P,R17,1*%
%TO.N,/3\u002C5*%
X126826526Y-97466667D03*
%TO.P,R17,2*%
%TO.N,/3*%
X126826526Y-100566667D03*
%TD*%
D15*
%TO.P,TP6,1,1*%
%TO.N,/9*%
X153800000Y-109000000D03*
%TD*%
D18*
%TO.P,R3,1*%
%TO.N,/11\u002C5*%
X165069368Y-97463889D03*
%TO.P,R3,2*%
%TO.N,/11*%
X165069368Y-100563889D03*
%TD*%
D21*
%TO.P,R21,1*%
%TO.N,+9V*%
X149450000Y-83500000D03*
%TO.P,R21,2*%
%TO.N,Net-(T1-C)*%
X146350000Y-83500000D03*
%TD*%
D13*
%TO.P,TP10,1,1*%
%TO.N,/7*%
X144400000Y-109000000D03*
%TD*%
D22*
%TO.P,TP17,1,1*%
%TO.N,/3*%
X125500000Y-109000000D03*
%TD*%
D19*
%TO.P,SW1,1,1*%
%TO.N,Net-(BT1--)*%
X119400000Y-78460000D03*
%TO.P,SW1,2,2*%
%TO.N,GND*%
X127400000Y-83540000D03*
%TO.P,SW1,4*%
%TO.N,N/C*%
X119400000Y-83540000D03*
%TO.P,SW1,8*%
X127400000Y-78460000D03*
%TO.P,SW1,C*%
X119400000Y-81000000D03*
%TD*%
D12*
%TO.P,R27,1*%
%TO.N,Net-(R27-Pad1)*%
X146350000Y-80500000D03*
%TO.P,R27,2*%
%TO.N,Net-(U1-CV)*%
X149450000Y-80500000D03*
%TD*%
D18*
%TO.P,R13,1*%
%TO.N,/6*%
X137753053Y-97458333D03*
%TO.P,R13,2*%
%TO.N,/5*%
X137753053Y-100558333D03*
%TD*%
D13*
%TO.P,TP15,1,1*%
%TO.N,/4*%
X130200000Y-109000000D03*
%TD*%
D23*
%TO.P,C6,1*%
%TO.N,Net-(U1-THR)*%
X152400000Y-90462500D03*
%TO.P,C6,2*%
%TO.N,GND*%
X152400000Y-92537500D03*
%TD*%
D18*
%TO.P,R19,1*%
%TO.N,/2*%
X121363263Y-97500000D03*
%TO.P,R19,2*%
%TO.N,/1\u002C5*%
X121363263Y-100600000D03*
%TD*%
D16*
%TO.P,R31,1*%
%TO.N,/1*%
X115900000Y-100550000D03*
%TO.P,R31,2*%
%TO.N,GND*%
X115900000Y-97450000D03*
%TD*%
D18*
%TO.P,R23,1*%
%TO.N,Net-(C2-Pad1)*%
X140900000Y-83450000D03*
%TO.P,R23,2*%
%TO.N,GND*%
X140900000Y-86550000D03*
%TD*%
D22*
%TO.P,TP5,1,1*%
%TO.N,/10*%
X158100000Y-109000000D03*
%TD*%
D16*
%TO.P,R22,1*%
%TO.N,Net-(T1-C)*%
X134783516Y-84636153D03*
%TO.P,R22,2*%
%TO.N,Net-(T1-B)*%
X134783516Y-81536153D03*
%TD*%
D23*
%TO.P,C1,1*%
%TO.N,Net-(T1-C)*%
X143900000Y-83462500D03*
%TO.P,C1,2*%
%TO.N,Net-(U1-CV)*%
X143900000Y-85537500D03*
%TD*%
D21*
%TO.P,R24,1*%
%TO.N,Net-(C3-Pad1)*%
X134450000Y-79500000D03*
%TO.P,R24,2*%
%TO.N,GND*%
X131350000Y-79500000D03*
%TD*%
D18*
%TO.P,R9,1*%
%TO.N,/8*%
X148679579Y-97450000D03*
%TO.P,R9,2*%
%TO.N,/7\u002C5*%
X148679579Y-100550000D03*
%TD*%
%TO.P,R20,1*%
%TO.N,/1\u002C5*%
X118631632Y-97452778D03*
%TO.P,R20,2*%
%TO.N,/1*%
X118631632Y-100552778D03*
%TD*%
%TO.P,R12,1*%
%TO.N,/6\u002C5*%
X140484684Y-97455556D03*
%TO.P,R12,2*%
%TO.N,/6*%
X140484684Y-100555556D03*
%TD*%
D13*
%TO.P,TP4,1,1*%
%TO.N,/10\u002C5*%
X160500000Y-104400000D03*
%TD*%
D24*
%TO.P,C7,1*%
%TO.N,Net-(U1-Q)*%
X156362500Y-88000000D03*
%TO.P,C7,2*%
%TO.N,Net-(C7-Pad2)*%
X158437500Y-88000000D03*
%TD*%
D15*
%TO.P,TP1,1,1*%
%TO.N,/12*%
X167600000Y-109000000D03*
%TD*%
D13*
%TO.P,TP7,1,1*%
%TO.N,/8\u002C5*%
X151500000Y-104400000D03*
%TD*%
D18*
%TO.P,R5,1*%
%TO.N,/10\u002C5*%
X159606105Y-97488889D03*
%TO.P,R5,2*%
%TO.N,/10*%
X159606105Y-100588889D03*
%TD*%
%TO.P,R7,1*%
%TO.N,/9*%
X154142842Y-97486111D03*
%TO.P,R7,2*%
%TO.N,/8\u002C5*%
X154142842Y-100586111D03*
%TD*%
%TO.P,R11,1*%
%TO.N,/7*%
X143216316Y-97483333D03*
%TO.P,R11,2*%
%TO.N,/6\u002C5*%
X143216316Y-100583333D03*
%TD*%
%TO.P,R10,1*%
%TO.N,/7\u002C5*%
X145947947Y-97491667D03*
%TO.P,R10,2*%
%TO.N,/7*%
X145947947Y-100591667D03*
%TD*%
D13*
%TO.P,TP16,1,1*%
%TO.N,/3\u002C5*%
X127700000Y-104400000D03*
%TD*%
D25*
%TO.P,T1,1,B*%
%TO.N,Net-(T1-B)*%
X132914395Y-81604368D03*
%TO.P,T1,2,E*%
%TO.N,GND*%
X131014395Y-81604368D03*
%TO.P,T1,3,C*%
%TO.N,Net-(T1-C)*%
X131964395Y-83479368D03*
%TD*%
D21*
%TO.P,R25,1*%
%TO.N,+9V*%
X149450000Y-77500000D03*
%TO.P,R25,2*%
%TO.N,Net-(R25-Pad2)*%
X146350000Y-77500000D03*
%TD*%
D26*
%TO.P,T2,1,B*%
%TO.N,Net-(D1-K)*%
X152450000Y-80437500D03*
%TO.P,T2,2,E*%
%TO.N,Net-(D1-A)*%
X154350000Y-80437500D03*
%TO.P,T2,3,C*%
%TO.N,+9V*%
X153400000Y-78562500D03*
%TD*%
D18*
%TO.P,R18,1*%
%TO.N,/3*%
X124094895Y-97480556D03*
%TO.P,R18,2*%
%TO.N,/2*%
X124094895Y-100580556D03*
%TD*%
D16*
%TO.P,R29,1*%
%TO.N,+9V*%
X152600000Y-86350000D03*
%TO.P,R29,2*%
%TO.N,Net-(D1-K)*%
X152600000Y-83250000D03*
%TD*%
D13*
%TO.P,TP2,1,1*%
%TO.N,/11\u002C5*%
X165400000Y-104400000D03*
%TD*%
D21*
%TO.P,R26,1*%
%TO.N,Net-(R26-Pad1)*%
X134450000Y-77000000D03*
%TO.P,R26,2*%
%TO.N,GND*%
X131350000Y-77000000D03*
%TD*%
D22*
%TO.P,TP20,1,1*%
%TO.N,/1*%
X116600000Y-109000000D03*
%TD*%
%TO.P,TP12,1,1*%
%TO.N,/6*%
X139400000Y-109000000D03*
%TD*%
D23*
%TO.P,C3,1*%
%TO.N,Net-(C3-Pad1)*%
X138900000Y-79462500D03*
%TO.P,C3,2*%
%TO.N,Net-(C2-Pad1)*%
X138900000Y-81537500D03*
%TD*%
D18*
%TO.P,R15,1*%
%TO.N,/4\u002C5*%
X132289789Y-97494444D03*
%TO.P,R15,2*%
%TO.N,/4*%
X132289789Y-100594444D03*
%TD*%
D13*
%TO.P,TP11,1,1*%
%TO.N,/6\u002C5*%
X141700000Y-104400000D03*
%TD*%
%TO.P,TP9,1,1*%
%TO.N,/7\u002C5*%
X146500000Y-104400000D03*
%TD*%
D18*
%TO.P,R4,1*%
%TO.N,/11*%
X162337737Y-97497222D03*
%TO.P,R4,2*%
%TO.N,/10\u002C5*%
X162337737Y-100597222D03*
%TD*%
D17*
%TO.P,C4,1*%
%TO.N,Net-(T1-B)*%
X136900000Y-81537500D03*
%TO.P,C4,2*%
%TO.N,Net-(C3-Pad1)*%
X136900000Y-79462500D03*
%TD*%
D27*
%TO.P,LS1,1,1*%
%TO.N,GND*%
X163900000Y-90000000D03*
D28*
%TO.P,LS1,2,2*%
%TO.N,Net-(Audio_Out1-Pin_2)*%
X163900000Y-88000000D03*
%TD*%
D29*
%TO.P,BT1,1,+*%
%TO.N,+9V*%
X115840758Y-85699184D03*
D30*
%TO.P,BT1,2,-*%
%TO.N,Net-(BT1--)*%
X115840758Y-83159184D03*
%TD*%
D27*
%TO.P,RV2,1,1*%
%TO.N,GND*%
X160900000Y-90000000D03*
D28*
%TO.P,RV2,2,2*%
%TO.N,Net-(R30-Pad1)*%
X160900000Y-88000000D03*
%TO.P,RV2,3,3*%
%TO.N,Net-(C7-Pad2)*%
X160900000Y-86000000D03*
%TD*%
D27*
%TO.P,RV1,1,1*%
%TO.N,Net-(R25-Pad2)*%
X142400000Y-77000000D03*
D28*
%TO.P,RV1,2,2*%
%TO.N,Net-(R27-Pad1)*%
X140400000Y-77000000D03*
%TO.P,RV1,3,3*%
%TO.N,Net-(R26-Pad1)*%
X138400000Y-77000000D03*
%TD*%
D27*
%TO.P,J4,1,Pin_1*%
%TO.N,Net-(D1-A)*%
X156900000Y-78500000D03*
%TD*%
%TO.P,Audio_Out1,1,Pin_1*%
%TO.N,GND*%
X166900000Y-90000000D03*
D28*
%TO.P,Audio_Out1,2,Pin_2*%
%TO.N,Net-(Audio_Out1-Pin_2)*%
X166900000Y-88000000D03*
%TD*%
D31*
%TO.N,Net-(T1-C)*%
X130325000Y-87325000D03*
D32*
X123400000Y-92000000D03*
D31*
%TO.N,+9V*%
X148400000Y-87400000D03*
X118000000Y-94100000D03*
%TO.N,Net-(U1-Q)*%
X151900000Y-88000000D03*
%TO.N,GND*%
X163000000Y-95000000D03*
D32*
X123400000Y-87000000D03*
D31*
X169000000Y-80000000D03*
X157000000Y-95000000D03*
X160000000Y-95000000D03*
X167000000Y-76000000D03*
X156000000Y-76000000D03*
X132900000Y-77000000D03*
X159000000Y-76000000D03*
X127000000Y-95000000D03*
X169482709Y-98563290D03*
X165000000Y-76000000D03*
X169000000Y-77000000D03*
X145000000Y-95000000D03*
X148000000Y-95000000D03*
X115270884Y-79357523D03*
X117000000Y-81000000D03*
X154000000Y-95000000D03*
X162000000Y-76000000D03*
X152000000Y-76000000D03*
X118000000Y-95000000D03*
X169000000Y-85000000D03*
X115000000Y-89000000D03*
X158550000Y-90550000D03*
X130000000Y-89000000D03*
X115000000Y-99000000D03*
D32*
X123400000Y-83500000D03*
D31*
X117000000Y-89000000D03*
X119000000Y-77000000D03*
X151000000Y-95000000D03*
X124000000Y-95000000D03*
X136000000Y-95612821D03*
X130000000Y-95000000D03*
X129000000Y-77000000D03*
X169000000Y-89000000D03*
X114600000Y-87900000D03*
X115000000Y-95000000D03*
X125000000Y-77000000D03*
X121000000Y-95000000D03*
X158000000Y-86000000D03*
X118631632Y-99002778D03*
X115000000Y-92000000D03*
X130000000Y-92000000D03*
X168000000Y-95000000D03*
X169000000Y-93000000D03*
X142000000Y-95000000D03*
D32*
%TO.N,Net-(BT1--)*%
X123400000Y-78500000D03*
%TD*%
D33*
%TO.N,Net-(T1-C)*%
X131964395Y-83479368D02*
X131900000Y-83543763D01*
X123440000Y-92040000D02*
X123400000Y-92000000D01*
X146350000Y-83500000D02*
X144400000Y-83500000D01*
X131964395Y-84600548D02*
X132000000Y-84636153D01*
X130325000Y-87325000D02*
X130325000Y-85675000D01*
X134919669Y-84500000D02*
X142862500Y-84500000D01*
X127400000Y-92040000D02*
X123440000Y-92040000D01*
X131964395Y-83479368D02*
X131964395Y-84600548D01*
X132000000Y-84636153D02*
X134783516Y-84636153D01*
X127900000Y-92040000D02*
X127900000Y-89750000D01*
X134783516Y-84636153D02*
X134919669Y-84500000D01*
X142862500Y-84500000D02*
X143900000Y-83462500D01*
X130325000Y-85675000D02*
X131363847Y-84636153D01*
X141400000Y-79462500D02*
X140900000Y-79462500D01*
X143900000Y-83462500D02*
X143900000Y-81962500D01*
X131363847Y-84636153D02*
X132000000Y-84636153D01*
X144362500Y-83462500D02*
X143900000Y-83462500D01*
X143900000Y-81962500D02*
X141400000Y-79462500D01*
X144400000Y-83500000D02*
X144362500Y-83462500D01*
X127900000Y-89750000D02*
X130325000Y-87325000D01*
%TO.N,Net-(U1-CV)*%
X149450000Y-80500000D02*
X148400000Y-80500000D01*
X143900000Y-85537500D02*
X143900000Y-86450000D01*
X143900000Y-86450000D02*
X143925000Y-86475000D01*
X147437500Y-85537500D02*
X143900000Y-85537500D01*
X143925000Y-86475000D02*
X143925000Y-88595000D01*
X148400000Y-80500000D02*
X147900000Y-81000000D01*
X147900000Y-85075000D02*
X147437500Y-85537500D01*
X147900000Y-81000000D02*
X147900000Y-85075000D01*
%TO.N,Net-(C2-Pad1)*%
X138900000Y-81537500D02*
X140900000Y-81537500D01*
X140900000Y-83450000D02*
X140900000Y-81537500D01*
%TO.N,Net-(C3-Pad1)*%
X136900000Y-79462500D02*
X138900000Y-79462500D01*
X134450000Y-79500000D02*
X136862500Y-79500000D01*
X136862500Y-79500000D02*
X136900000Y-79462500D01*
%TO.N,Net-(T1-B)*%
X135975466Y-81537500D02*
X136900000Y-81537500D01*
X134486793Y-81536153D02*
X134783516Y-81832876D01*
X132982610Y-81536153D02*
X134486793Y-81536153D01*
X132914395Y-81604368D02*
X132982610Y-81536153D01*
X134783516Y-81536153D02*
X135974119Y-81536153D01*
X135974119Y-81536153D02*
X135975466Y-81537500D01*
X134783516Y-81832876D02*
X134783516Y-81536153D01*
%TO.N,+9V*%
X114400000Y-78700000D02*
X117600000Y-75500000D01*
X148388026Y-88595000D02*
X148875000Y-88595000D01*
X148875000Y-88595000D02*
X149539744Y-88595000D01*
X149450000Y-83500000D02*
X150400000Y-83500000D01*
X114400000Y-84500000D02*
X114400000Y-78700000D01*
X159400000Y-83300000D02*
X156150000Y-86550000D01*
X132549000Y-90000000D02*
X132549000Y-92402000D01*
X153400000Y-78562500D02*
X153400000Y-78000000D01*
X130851000Y-94100000D02*
X118000000Y-94100000D01*
X148875000Y-87875000D02*
X148400000Y-87400000D01*
X150400000Y-83500000D02*
X150950000Y-82950000D01*
X115900000Y-92000000D02*
X115900000Y-86000000D01*
X118000000Y-94100000D02*
X115900000Y-92000000D01*
X148875000Y-88595000D02*
X148875000Y-87875000D01*
X153400000Y-78000000D02*
X154400000Y-77000000D01*
X149450000Y-76050000D02*
X149450000Y-77500000D01*
X149539744Y-88595000D02*
X151584744Y-86550000D01*
X117600000Y-75500000D02*
X148900000Y-75500000D01*
X156150000Y-86550000D02*
X153400000Y-86550000D01*
X157900000Y-77000000D02*
X159400000Y-78500000D01*
X143925000Y-92405000D02*
X144578026Y-92405000D01*
X150950000Y-78500000D02*
X153337500Y-78500000D01*
X144578026Y-92405000D02*
X148388026Y-88595000D01*
X150450000Y-77500000D02*
X149450000Y-77500000D01*
X153337500Y-78500000D02*
X153400000Y-78562500D01*
X132549000Y-92402000D02*
X130851000Y-94100000D01*
X115900000Y-86000000D02*
X114400000Y-84500000D01*
X151584744Y-86550000D02*
X153400000Y-86550000D01*
X154400000Y-77000000D02*
X157900000Y-77000000D01*
X150950000Y-78000000D02*
X150450000Y-77500000D01*
X148900000Y-75500000D02*
X149450000Y-76050000D01*
X150950000Y-82950000D02*
X150950000Y-78000000D01*
X159400000Y-78500000D02*
X159400000Y-83300000D01*
%TO.N,Net-(U1-THR)*%
X142400000Y-90415001D02*
X142950001Y-89865000D01*
X147365000Y-91135000D02*
X145100000Y-93400000D01*
X150578487Y-91135000D02*
X148875000Y-91135000D01*
X142400000Y-92636974D02*
X142400000Y-90415001D01*
X143163026Y-93400000D02*
X142400000Y-92636974D01*
X154400000Y-90450000D02*
X154387500Y-90462500D01*
X148875000Y-91135000D02*
X147365000Y-91135000D01*
X142950001Y-89865000D02*
X143925000Y-89865000D01*
X152400000Y-90462500D02*
X151250987Y-90462500D01*
X151250987Y-90462500D02*
X150578487Y-91135000D01*
X154900000Y-90450000D02*
X154400000Y-90450000D01*
X154387500Y-90462500D02*
X152400000Y-90462500D01*
X145100000Y-93400000D02*
X143163026Y-93400000D01*
%TO.N,Net-(U1-Q)*%
X148875000Y-89865000D02*
X150035000Y-89865000D01*
X150035000Y-89865000D02*
X151900000Y-88000000D01*
X151900000Y-88000000D02*
X156362500Y-88000000D01*
%TO.N,Net-(C7-Pad2)*%
X160350000Y-86000000D02*
X158437500Y-87912500D01*
X160900000Y-86000000D02*
X160350000Y-86000000D01*
X158437500Y-87912500D02*
X158437500Y-88000000D01*
%TO.N,Net-(D1-A)*%
X156650000Y-78750000D02*
X156900000Y-78500000D01*
X156712500Y-80437500D02*
X156900000Y-80250000D01*
X156900000Y-80250000D02*
X156900000Y-78500000D01*
X156650000Y-80000000D02*
X156650000Y-78750000D01*
X154350000Y-80437500D02*
X156712500Y-80437500D01*
X156900000Y-80250000D02*
X156650000Y-80000000D01*
%TO.N,Net-(D1-K)*%
X152450000Y-83100000D02*
X152800000Y-83450000D01*
X152800000Y-83450000D02*
X153400000Y-83450000D01*
X146500000Y-89400000D02*
X146500000Y-87900000D01*
X156650000Y-84000000D02*
X156900000Y-83750000D01*
X155100000Y-83450000D02*
X153400000Y-83450000D01*
X156900000Y-83750000D02*
X155400000Y-83750000D01*
X149050000Y-85950000D02*
X151550000Y-83450000D01*
X146500000Y-87900000D02*
X148450000Y-85950000D01*
X155400000Y-83750000D02*
X155100000Y-83450000D01*
X151550000Y-83450000D02*
X153400000Y-83450000D01*
X152450000Y-80437500D02*
X152450000Y-83100000D01*
X148450000Y-85950000D02*
X149050000Y-85950000D01*
X144765000Y-91135000D02*
X146500000Y-89400000D01*
X143925000Y-91135000D02*
X144765000Y-91135000D01*
%TO.N,Net-(R1-Pad1)*%
X155300000Y-93550000D02*
X155350000Y-93500000D01*
X155350000Y-93500000D02*
X160850000Y-93500000D01*
X154900000Y-93550000D02*
X155300000Y-93550000D01*
%TO.N,Net-(R25-Pad2)*%
X146350000Y-77500000D02*
X145850000Y-77000000D01*
X145850000Y-77000000D02*
X142400000Y-77000000D01*
%TO.N,Net-(R26-Pad1)*%
X134450000Y-77000000D02*
X138400000Y-77000000D01*
%TO.N,Net-(R27-Pad1)*%
X146350000Y-80500000D02*
X143900000Y-80500000D01*
X143900000Y-80500000D02*
X140400000Y-77000000D01*
%TO.N,Net-(R30-Pad1)*%
X162800000Y-85000000D02*
X163350000Y-85000000D01*
X160900000Y-88000000D02*
X162350000Y-86550000D01*
X162350000Y-85450000D02*
X162800000Y-85000000D01*
X160900000Y-87484744D02*
X160900000Y-88000000D01*
X162350000Y-86550000D02*
X162350000Y-85450000D01*
%TO.N,GND*%
X152400000Y-92537500D02*
X152362500Y-92500000D01*
X166900000Y-90000000D02*
X163900000Y-90000000D01*
X148875000Y-92405000D02*
X148875000Y-94000000D01*
X130125101Y-93274899D02*
X122674899Y-93274899D01*
X123320000Y-86920000D02*
X123400000Y-87000000D01*
X122780000Y-86960000D02*
X119900000Y-86960000D01*
X141545649Y-95278921D02*
X141545649Y-93188850D01*
X157850000Y-92000000D02*
X154100000Y-92000000D01*
X121900000Y-92500000D02*
X121900000Y-86960000D01*
X140900000Y-92500000D02*
X140900000Y-86550000D01*
X135000000Y-95612821D02*
X135000000Y-95513821D01*
X123400000Y-87000000D02*
X123360000Y-86960000D01*
X159100000Y-90000000D02*
X157900000Y-91200000D01*
X140900000Y-89219780D02*
X140900000Y-86550000D01*
X131350000Y-79500000D02*
X131350000Y-77000000D01*
X122820000Y-86920000D02*
X123320000Y-86920000D01*
X160900000Y-90000000D02*
X163900000Y-90000000D01*
X153562500Y-92537500D02*
X152400000Y-92537500D01*
X141545649Y-93188850D02*
X141310749Y-92953950D01*
X122820000Y-86920000D02*
X122780000Y-86960000D01*
X160900000Y-90000000D02*
X159100000Y-90000000D01*
X148875000Y-94000000D02*
X142400000Y-94000000D01*
X135000000Y-95513821D02*
X141310749Y-95513821D01*
X129900000Y-79500000D02*
X131350000Y-79500000D01*
X129860000Y-83540000D02*
X129900000Y-83500000D01*
X123400000Y-83500000D02*
X127360000Y-83500000D01*
X123400000Y-83500000D02*
X123400000Y-87000000D01*
X122674899Y-93274899D02*
X121900000Y-92500000D01*
X142400000Y-94000000D02*
X140900000Y-92500000D01*
X138700000Y-89219780D02*
X140900000Y-89219780D01*
X148970000Y-92500000D02*
X148875000Y-92405000D01*
X157900000Y-91950000D02*
X157850000Y-92000000D01*
X123360000Y-86960000D02*
X122400000Y-86960000D01*
X141310749Y-95513821D02*
X141545649Y-95278921D01*
X129900000Y-83500000D02*
X129900000Y-79500000D01*
X127400000Y-83540000D02*
X129860000Y-83540000D01*
X157900000Y-91200000D02*
X157900000Y-91950000D01*
X154100000Y-92000000D02*
X153562500Y-92537500D01*
X127360000Y-83500000D02*
X127400000Y-83540000D01*
X152362500Y-92500000D02*
X148970000Y-92500000D01*
%TO.N,/12*%
X167801000Y-98401000D02*
X167801000Y-97469444D01*
X169077000Y-99677000D02*
X167801000Y-98401000D01*
X167801000Y-96401000D02*
X164900000Y-93500000D01*
X169077000Y-106323000D02*
X169077000Y-99677000D01*
X167801000Y-97469444D02*
X167801000Y-96401000D01*
X164900000Y-93500000D02*
X163950000Y-93500000D01*
X166400000Y-109000000D02*
X169077000Y-106323000D01*
%TO.N,/11\u002C5*%
X167801000Y-100569444D02*
X167669502Y-100569444D01*
X167801000Y-100195521D02*
X165069368Y-97463889D01*
X165400000Y-104500000D02*
X167801000Y-102099000D01*
X167801000Y-102099000D02*
X167801000Y-100569444D01*
X167801000Y-100569444D02*
X167801000Y-100195521D01*
%TO.N,/11*%
X162397222Y-97497222D02*
X162337737Y-97497222D01*
X162999000Y-102099000D02*
X164534111Y-100563889D01*
X161900000Y-109000000D02*
X162999000Y-107901000D01*
X162999000Y-107901000D02*
X162999000Y-102099000D01*
X164534111Y-100563889D02*
X165069368Y-100563889D01*
X165069368Y-100563889D02*
X165069368Y-100169368D01*
X165069368Y-100169368D02*
X162397222Y-97497222D01*
%TO.N,/10\u002C5*%
X162337737Y-100597222D02*
X162337737Y-100379129D01*
X162337737Y-102562263D02*
X162337737Y-100597222D01*
X160400000Y-104500000D02*
X162337737Y-102562263D01*
X159606105Y-97647497D02*
X159606105Y-97488889D01*
X162337737Y-100379129D02*
X159606105Y-97647497D01*
%TO.N,/10*%
X157400000Y-109000000D02*
X157400000Y-102698000D01*
X159606105Y-100203853D02*
X156874474Y-97472222D01*
X157400000Y-102698000D02*
X159509111Y-100588889D01*
X159606105Y-100588889D02*
X159606105Y-100203853D01*
X159509111Y-100588889D02*
X159606105Y-100588889D01*
%TO.N,/9*%
X154800000Y-108000000D02*
X154800000Y-102700000D01*
X153800000Y-109000000D02*
X154800000Y-108000000D01*
X156874474Y-100217743D02*
X154142842Y-97486111D01*
X156874474Y-100625526D02*
X156874474Y-100572222D01*
X156874474Y-100572222D02*
X156874474Y-100217743D01*
X154800000Y-102700000D02*
X156874474Y-100625526D01*
%TO.N,/8\u002C5*%
X150900000Y-103828953D02*
X154142842Y-100586111D01*
X154142842Y-100206631D02*
X151411211Y-97475000D01*
X154142842Y-100586111D02*
X154142842Y-100206631D01*
X150900000Y-104500000D02*
X150900000Y-103828953D01*
%TO.N,/8*%
X151411211Y-100181632D02*
X148679579Y-97450000D01*
X150291633Y-101694578D02*
X151411211Y-100575000D01*
X149605422Y-101694578D02*
X150291633Y-101694578D01*
X149000000Y-102300000D02*
X149605422Y-101694578D01*
X148400000Y-109000000D02*
X149000000Y-108400000D01*
X151411211Y-100575000D02*
X151411211Y-100181632D01*
X149000000Y-108400000D02*
X149000000Y-102300000D01*
%TO.N,/7\u002C5*%
X148679579Y-100550000D02*
X148679579Y-100223299D01*
X145900000Y-104500000D02*
X145900000Y-103329579D01*
X148679579Y-100223299D02*
X145947947Y-97491667D01*
X145900000Y-103329579D02*
X148679579Y-100550000D01*
%TO.N,/7*%
X144100000Y-108800000D02*
X144100000Y-101936447D01*
X145444780Y-100591667D02*
X145947947Y-100591667D01*
X143900000Y-109000000D02*
X144100000Y-108800000D01*
X144100000Y-101936447D02*
X145444780Y-100591667D01*
X145947947Y-100591667D02*
X145947947Y-100214964D01*
X145947947Y-100214964D02*
X143216316Y-97483333D01*
%TO.N,/6\u002C5*%
X143216316Y-100187188D02*
X140484684Y-97455556D01*
X143216316Y-100683684D02*
X143216316Y-100583333D01*
X140900000Y-103000000D02*
X143216316Y-100683684D01*
X140900000Y-104500000D02*
X140900000Y-103000000D01*
X143216316Y-100583333D02*
X143216316Y-100187188D01*
%TO.N,/6*%
X138499000Y-102099000D02*
X140042444Y-100555556D01*
X139400000Y-109000000D02*
X138499000Y-108099000D01*
X138499000Y-108099000D02*
X138499000Y-102099000D01*
X140484684Y-100555556D02*
X140484684Y-100189964D01*
X140484684Y-100189964D02*
X137753053Y-97458333D01*
X140042444Y-100555556D02*
X140484684Y-100555556D01*
%TO.N,/5*%
X137753053Y-100558333D02*
X135021421Y-97826701D01*
X135900000Y-102411386D02*
X137753053Y-100558333D01*
X134700000Y-109000000D02*
X135900000Y-107800000D01*
X135900000Y-107800000D02*
X135900000Y-102411386D01*
X135021421Y-97826701D02*
X135021421Y-97477778D01*
%TO.N,/4\u002C5*%
X135021421Y-100577778D02*
X135021421Y-100226076D01*
X132900000Y-104087578D02*
X135021421Y-101966157D01*
X135021421Y-100226076D02*
X132289789Y-97494444D01*
X132900000Y-104500000D02*
X132900000Y-104087578D01*
X135021421Y-101966157D02*
X135021421Y-100577778D01*
%TO.N,/4*%
X132289789Y-100594444D02*
X132289789Y-100192742D01*
X130200000Y-102200000D02*
X131805556Y-100594444D01*
X131805556Y-100594444D02*
X132289789Y-100594444D01*
X132289789Y-100192742D02*
X129558158Y-97461111D01*
X130200000Y-109000000D02*
X130200000Y-102200000D01*
%TO.N,/3\u002C5*%
X129558158Y-102841842D02*
X129558158Y-100561111D01*
X129558158Y-100561111D02*
X129558158Y-100198299D01*
X129558158Y-100198299D02*
X126826526Y-97466667D01*
X127900000Y-104500000D02*
X129558158Y-102841842D01*
%TO.N,/3*%
X126826526Y-100212187D02*
X126826526Y-100566667D01*
X124500000Y-102400000D02*
X126333333Y-100566667D01*
X126333333Y-100566667D02*
X126826526Y-100566667D01*
X124500000Y-107800000D02*
X124500000Y-102400000D01*
X125700000Y-109000000D02*
X124500000Y-107800000D01*
X125900000Y-109000000D02*
X125499000Y-108599000D01*
X124094895Y-97480556D02*
X126826526Y-100212187D01*
%TO.N,/2*%
X122263902Y-108136098D02*
X122263902Y-102411549D01*
X121400000Y-109000000D02*
X122263902Y-108136098D01*
X121363263Y-97500000D02*
X121363263Y-97848924D01*
X121363263Y-97848924D02*
X124094895Y-100580556D01*
X122263902Y-102411549D02*
X124094895Y-100580556D01*
%TO.N,/1\u002C5*%
X121363263Y-102036737D02*
X121363263Y-100600000D01*
X121363263Y-100184409D02*
X119056603Y-97877749D01*
X121363263Y-100600000D02*
X121363263Y-100184409D01*
X119000000Y-104400000D02*
X121363263Y-102036737D01*
%TO.N,/1*%
X115900000Y-100550000D02*
X115900000Y-108000000D01*
X118678854Y-100600000D02*
X118631632Y-100552778D01*
X115900000Y-108000000D02*
X116900000Y-109000000D01*
X118631632Y-100552778D02*
X115902778Y-100552778D01*
X115902778Y-100552778D02*
X115900000Y-100550000D01*
X115900000Y-100550000D02*
X115900000Y-100184410D01*
X118900000Y-100821146D02*
X118631632Y-100552778D01*
%TO.N,Net-(BT1--)*%
X115900000Y-80000000D02*
X117440000Y-78460000D01*
X123400000Y-78500000D02*
X119440000Y-78500000D01*
X119440000Y-78500000D02*
X119400000Y-78460000D01*
X115900000Y-83000000D02*
X115900000Y-80000000D01*
X117440000Y-78460000D02*
X119400000Y-78460000D01*
%TO.N,Net-(Audio_Out1-Pin_2)*%
X166450000Y-85000000D02*
X166900000Y-85450000D01*
X163900000Y-88000000D02*
X166900000Y-88000000D01*
X166900000Y-85450000D02*
X166900000Y-88000000D01*
%TD*%
%TA.AperFunction,Conductor*%
%TO.N,GND*%
G36*
X168404418Y-75000816D02*
G01*
X168604561Y-75015130D01*
X168622063Y-75017647D01*
X168813797Y-75059355D01*
X168830755Y-75064334D01*
X169014609Y-75132909D01*
X169030701Y-75140259D01*
X169202904Y-75234288D01*
X169217784Y-75243849D01*
X169374867Y-75361441D01*
X169388237Y-75373027D01*
X169526972Y-75511762D01*
X169538558Y-75525132D01*
X169597192Y-75603458D01*
X169656146Y-75682210D01*
X169665711Y-75697095D01*
X169759740Y-75869298D01*
X169767090Y-75885390D01*
X169835662Y-76069236D01*
X169840646Y-76086212D01*
X169882351Y-76277931D01*
X169884869Y-76295442D01*
X169899184Y-76495580D01*
X169899500Y-76504427D01*
X169899500Y-99238318D01*
X169879815Y-99305357D01*
X169827011Y-99351112D01*
X169757853Y-99361056D01*
X169694297Y-99332031D01*
X169672398Y-99307208D01*
X169621117Y-99230461D01*
X169621111Y-99230453D01*
X168961415Y-98570758D01*
X168927930Y-98509435D01*
X168932914Y-98439744D01*
X168961411Y-98395400D01*
X169018712Y-98338100D01*
X169110814Y-98188778D01*
X169165999Y-98022241D01*
X169176500Y-97919453D01*
X169176499Y-97019436D01*
X169174796Y-97002769D01*
X169165999Y-96916647D01*
X169165998Y-96916644D01*
X169120939Y-96780666D01*
X169110814Y-96750110D01*
X169018712Y-96600788D01*
X168894656Y-96476732D01*
X168794875Y-96415187D01*
X168745336Y-96384631D01*
X168745331Y-96384629D01*
X168686653Y-96365185D01*
X168578797Y-96329445D01*
X168578795Y-96329444D01*
X168578793Y-96329444D01*
X168577270Y-96329118D01*
X168576421Y-96328658D01*
X168572371Y-96327316D01*
X168572610Y-96326593D01*
X168515839Y-96295831D01*
X168482156Y-96234617D01*
X168481619Y-96232058D01*
X168474581Y-96196678D01*
X168474580Y-96196672D01*
X168474578Y-96196667D01*
X168421777Y-96069192D01*
X168345112Y-95954454D01*
X165346545Y-92955887D01*
X165231807Y-92879222D01*
X165168866Y-92853152D01*
X165114462Y-92809311D01*
X165092960Y-92751191D01*
X165089999Y-92722203D01*
X165089998Y-92722200D01*
X165076548Y-92681610D01*
X165034814Y-92555666D01*
X164942712Y-92406344D01*
X164818656Y-92282288D01*
X164725888Y-92225069D01*
X164669336Y-92190187D01*
X164669331Y-92190185D01*
X164667862Y-92189698D01*
X164502797Y-92135001D01*
X164502795Y-92135000D01*
X164400010Y-92124500D01*
X163499998Y-92124500D01*
X163499980Y-92124501D01*
X163397203Y-92135000D01*
X163397200Y-92135001D01*
X163230668Y-92190185D01*
X163230663Y-92190187D01*
X163081342Y-92282289D01*
X162957289Y-92406342D01*
X162865187Y-92555663D01*
X162865185Y-92555668D01*
X162854510Y-92587883D01*
X162810001Y-92722203D01*
X162810001Y-92722204D01*
X162810000Y-92722204D01*
X162799500Y-92824983D01*
X162799500Y-94175001D01*
X162799501Y-94175018D01*
X162810000Y-94277796D01*
X162810001Y-94277799D01*
X162856677Y-94418656D01*
X162865186Y-94444334D01*
X162957288Y-94593656D01*
X163081344Y-94717712D01*
X163230666Y-94809814D01*
X163397203Y-94864999D01*
X163499991Y-94875500D01*
X164400008Y-94875499D01*
X164400016Y-94875498D01*
X164400019Y-94875498D01*
X164456434Y-94869735D01*
X164502797Y-94864999D01*
X164669334Y-94809814D01*
X164818656Y-94717712D01*
X164885177Y-94651190D01*
X164946496Y-94617708D01*
X165016188Y-94622692D01*
X165060536Y-94651193D01*
X166709028Y-96299685D01*
X166742513Y-96361008D01*
X166737529Y-96430700D01*
X166709029Y-96475047D01*
X166583285Y-96600791D01*
X166542435Y-96667020D01*
X166490487Y-96713745D01*
X166421525Y-96724966D01*
X166357443Y-96697123D01*
X166331358Y-96667020D01*
X166329645Y-96664242D01*
X166287080Y-96595233D01*
X166163024Y-96471177D01*
X166067742Y-96412407D01*
X166013704Y-96379076D01*
X166013699Y-96379074D01*
X166005322Y-96376298D01*
X165847165Y-96323890D01*
X165847163Y-96323889D01*
X165744378Y-96313389D01*
X164394366Y-96313389D01*
X164394349Y-96313390D01*
X164291571Y-96323889D01*
X164291568Y-96323890D01*
X164125036Y-96379074D01*
X164125031Y-96379076D01*
X163975710Y-96471178D01*
X163851656Y-96595232D01*
X163851653Y-96595236D01*
X163798810Y-96680908D01*
X163746862Y-96727633D01*
X163677900Y-96738854D01*
X163613818Y-96711011D01*
X163587733Y-96680907D01*
X163555449Y-96628566D01*
X163431394Y-96504511D01*
X163431393Y-96504510D01*
X163286575Y-96415186D01*
X163282073Y-96412409D01*
X163282068Y-96412407D01*
X163273691Y-96409631D01*
X163115534Y-96357223D01*
X163115532Y-96357222D01*
X163012747Y-96346722D01*
X161662735Y-96346722D01*
X161662718Y-96346723D01*
X161559940Y-96357222D01*
X161559937Y-96357223D01*
X161393405Y-96412407D01*
X161393400Y-96412409D01*
X161244079Y-96504511D01*
X161120024Y-96628566D01*
X161080028Y-96693410D01*
X161028080Y-96740134D01*
X160959117Y-96751355D01*
X160895035Y-96723511D01*
X160868951Y-96693408D01*
X160867238Y-96690631D01*
X160823817Y-96620233D01*
X160699761Y-96496177D01*
X160568453Y-96415186D01*
X160550441Y-96404076D01*
X160550436Y-96404074D01*
X160542059Y-96401298D01*
X160383902Y-96348890D01*
X160383900Y-96348889D01*
X160281115Y-96338389D01*
X158931103Y-96338389D01*
X158931086Y-96338390D01*
X158828308Y-96348889D01*
X158828305Y-96348890D01*
X158661773Y-96404074D01*
X158661768Y-96404076D01*
X158512447Y-96496178D01*
X158388392Y-96620233D01*
X158350967Y-96680909D01*
X158299019Y-96727633D01*
X158230056Y-96738854D01*
X158165974Y-96711010D01*
X158139890Y-96680907D01*
X158139034Y-96679520D01*
X158092186Y-96603566D01*
X157968130Y-96479510D01*
X157859338Y-96412407D01*
X157818810Y-96387409D01*
X157818805Y-96387407D01*
X157810428Y-96384631D01*
X157652271Y-96332223D01*
X157652269Y-96332222D01*
X157549484Y-96321722D01*
X156199472Y-96321722D01*
X156199455Y-96321723D01*
X156096677Y-96332222D01*
X156096674Y-96332223D01*
X155930142Y-96387407D01*
X155930137Y-96387409D01*
X155780816Y-96479511D01*
X155656762Y-96603565D01*
X155656759Y-96603569D01*
X155609912Y-96679520D01*
X155557964Y-96726245D01*
X155489001Y-96737466D01*
X155424920Y-96709623D01*
X155398835Y-96679519D01*
X155392838Y-96669797D01*
X155360554Y-96617455D01*
X155236498Y-96493399D01*
X155134846Y-96430700D01*
X155087178Y-96401298D01*
X155087173Y-96401296D01*
X155078796Y-96398520D01*
X154920639Y-96346112D01*
X154920637Y-96346111D01*
X154817852Y-96335611D01*
X153467840Y-96335611D01*
X153467823Y-96335612D01*
X153365045Y-96346111D01*
X153365042Y-96346112D01*
X153198510Y-96401296D01*
X153198505Y-96401298D01*
X153049184Y-96493400D01*
X152925130Y-96617454D01*
X152925127Y-96617458D01*
X152885991Y-96680908D01*
X152834043Y-96727633D01*
X152765081Y-96738854D01*
X152700999Y-96711011D01*
X152674914Y-96680908D01*
X152628923Y-96606344D01*
X152504867Y-96482288D01*
X152396075Y-96415185D01*
X152355547Y-96390187D01*
X152355542Y-96390185D01*
X152347165Y-96387409D01*
X152189008Y-96335001D01*
X152189006Y-96335000D01*
X152086221Y-96324500D01*
X150736209Y-96324500D01*
X150736192Y-96324501D01*
X150633414Y-96335000D01*
X150633411Y-96335001D01*
X150466879Y-96390185D01*
X150466874Y-96390187D01*
X150317553Y-96482289D01*
X150193500Y-96606342D01*
X150190073Y-96611898D01*
X150165204Y-96652219D01*
X150158644Y-96662854D01*
X150106696Y-96709578D01*
X150037733Y-96720801D01*
X149973651Y-96692957D01*
X149947566Y-96662854D01*
X149897291Y-96581344D01*
X149773235Y-96457288D01*
X149673454Y-96395743D01*
X149623915Y-96365187D01*
X149623910Y-96365185D01*
X149599879Y-96357222D01*
X149457376Y-96310001D01*
X149457374Y-96310000D01*
X149354589Y-96299500D01*
X148004577Y-96299500D01*
X148004560Y-96299501D01*
X147901782Y-96310000D01*
X147901779Y-96310001D01*
X147735247Y-96365185D01*
X147735242Y-96365187D01*
X147585921Y-96457289D01*
X147461867Y-96581343D01*
X147461864Y-96581347D01*
X147406450Y-96671187D01*
X147354502Y-96717912D01*
X147285539Y-96729133D01*
X147221457Y-96701290D01*
X147195373Y-96671186D01*
X147194516Y-96669797D01*
X147165659Y-96623011D01*
X147041603Y-96498955D01*
X146905791Y-96415186D01*
X146892283Y-96406854D01*
X146892278Y-96406852D01*
X146883901Y-96404076D01*
X146725744Y-96351668D01*
X146725742Y-96351667D01*
X146622957Y-96341167D01*
X145272945Y-96341167D01*
X145272928Y-96341168D01*
X145170150Y-96351667D01*
X145170147Y-96351668D01*
X145003615Y-96406852D01*
X145003610Y-96406854D01*
X144854289Y-96498956D01*
X144730235Y-96623010D01*
X144730232Y-96623014D01*
X144690239Y-96687853D01*
X144638291Y-96734578D01*
X144569328Y-96745799D01*
X144505246Y-96717956D01*
X144479162Y-96687852D01*
X144478883Y-96687400D01*
X144434028Y-96614677D01*
X144309972Y-96490621D01*
X144187670Y-96415185D01*
X144160652Y-96398520D01*
X144160647Y-96398518D01*
X144152270Y-96395742D01*
X143994113Y-96343334D01*
X143994111Y-96343333D01*
X143891326Y-96332833D01*
X142541314Y-96332833D01*
X142541297Y-96332834D01*
X142438519Y-96343333D01*
X142438516Y-96343334D01*
X142271984Y-96398518D01*
X142271979Y-96398520D01*
X142122658Y-96490622D01*
X141998603Y-96614677D01*
X141964604Y-96669799D01*
X141912656Y-96716523D01*
X141843693Y-96727744D01*
X141779611Y-96699901D01*
X141753527Y-96669797D01*
X141702396Y-96586900D01*
X141578341Y-96462845D01*
X141578340Y-96462844D01*
X141483058Y-96404074D01*
X141429020Y-96370743D01*
X141429015Y-96370741D01*
X141420638Y-96367965D01*
X141262481Y-96315557D01*
X141262479Y-96315556D01*
X141159694Y-96305056D01*
X139809682Y-96305056D01*
X139809665Y-96305057D01*
X139706887Y-96315556D01*
X139706884Y-96315557D01*
X139540352Y-96370741D01*
X139540347Y-96370743D01*
X139391026Y-96462845D01*
X139266972Y-96586899D01*
X139266969Y-96586903D01*
X139223550Y-96657297D01*
X139171603Y-96704022D01*
X139102640Y-96715243D01*
X139038558Y-96687400D01*
X139012473Y-96657297D01*
X138996465Y-96631344D01*
X138970765Y-96589677D01*
X138846709Y-96465621D01*
X138746928Y-96404076D01*
X138697389Y-96373520D01*
X138697384Y-96373518D01*
X138689007Y-96370742D01*
X138530850Y-96318334D01*
X138530848Y-96318333D01*
X138428063Y-96307833D01*
X137078051Y-96307833D01*
X137078034Y-96307834D01*
X136975256Y-96318333D01*
X136975253Y-96318334D01*
X136808721Y-96373518D01*
X136808716Y-96373520D01*
X136659395Y-96465622D01*
X136535342Y-96589675D01*
X136486779Y-96668409D01*
X136434831Y-96715133D01*
X136365868Y-96726355D01*
X136301786Y-96698512D01*
X136275701Y-96668409D01*
X136239133Y-96609122D01*
X136115077Y-96485066D01*
X136022309Y-96427847D01*
X135965757Y-96392965D01*
X135965752Y-96392963D01*
X135957375Y-96390187D01*
X135799218Y-96337779D01*
X135799216Y-96337778D01*
X135696431Y-96327278D01*
X134346419Y-96327278D01*
X134346402Y-96327279D01*
X134243624Y-96337778D01*
X134243621Y-96337779D01*
X134077089Y-96392963D01*
X134077084Y-96392965D01*
X133927763Y-96485067D01*
X133803710Y-96609120D01*
X133798570Y-96617454D01*
X133756005Y-96686464D01*
X133756004Y-96686465D01*
X133704056Y-96733189D01*
X133635093Y-96744412D01*
X133571011Y-96716568D01*
X133544926Y-96686464D01*
X133507501Y-96625788D01*
X133383446Y-96501733D01*
X133383445Y-96501732D01*
X133268283Y-96430700D01*
X133234125Y-96409631D01*
X133234120Y-96409629D01*
X133225743Y-96406853D01*
X133067586Y-96354445D01*
X133067584Y-96354444D01*
X132964799Y-96343944D01*
X131614787Y-96343944D01*
X131614770Y-96343945D01*
X131511992Y-96354444D01*
X131511989Y-96354445D01*
X131345457Y-96409629D01*
X131345452Y-96409631D01*
X131196131Y-96501733D01*
X131072076Y-96625788D01*
X131039791Y-96678131D01*
X130987843Y-96724855D01*
X130918880Y-96736076D01*
X130854798Y-96708233D01*
X130828714Y-96678130D01*
X130775870Y-96592455D01*
X130651814Y-96468399D01*
X130552033Y-96406854D01*
X130502494Y-96376298D01*
X130502489Y-96376296D01*
X130494112Y-96373520D01*
X130335955Y-96321112D01*
X130335953Y-96321111D01*
X130233168Y-96310611D01*
X128883156Y-96310611D01*
X128883139Y-96310612D01*
X128780361Y-96321111D01*
X128780358Y-96321112D01*
X128613826Y-96376296D01*
X128613821Y-96376298D01*
X128464500Y-96468400D01*
X128340446Y-96592454D01*
X128340443Y-96592458D01*
X128296166Y-96664243D01*
X128244218Y-96710968D01*
X128175256Y-96722189D01*
X128111174Y-96694346D01*
X128085089Y-96664242D01*
X128080805Y-96657297D01*
X128044238Y-96598011D01*
X127920182Y-96473955D01*
X127824900Y-96415185D01*
X127770862Y-96381854D01*
X127770857Y-96381852D01*
X127762480Y-96379076D01*
X127604323Y-96326668D01*
X127604321Y-96326667D01*
X127501536Y-96316167D01*
X126151524Y-96316167D01*
X126151507Y-96316168D01*
X126048729Y-96326667D01*
X126048726Y-96326668D01*
X125882194Y-96381852D01*
X125882189Y-96381854D01*
X125732868Y-96473956D01*
X125608814Y-96598010D01*
X125608811Y-96598014D01*
X125561965Y-96673964D01*
X125510017Y-96720689D01*
X125441055Y-96731910D01*
X125376973Y-96704067D01*
X125350888Y-96673964D01*
X125349175Y-96671187D01*
X125312607Y-96611900D01*
X125188551Y-96487844D01*
X125066249Y-96412408D01*
X125039231Y-96395743D01*
X125039226Y-96395741D01*
X125030849Y-96392965D01*
X124872692Y-96340557D01*
X124872690Y-96340556D01*
X124769905Y-96330056D01*
X123419893Y-96330056D01*
X123419876Y-96330057D01*
X123317098Y-96340556D01*
X123317095Y-96340557D01*
X123150563Y-96395741D01*
X123150558Y-96395743D01*
X123001237Y-96487845D01*
X122877184Y-96611898D01*
X122828621Y-96690632D01*
X122776673Y-96737356D01*
X122707710Y-96748578D01*
X122643628Y-96720735D01*
X122617543Y-96690631D01*
X122614973Y-96686465D01*
X122580975Y-96631344D01*
X122456919Y-96507288D01*
X122364151Y-96450069D01*
X122307599Y-96415187D01*
X122307594Y-96415185D01*
X122299217Y-96412409D01*
X122141060Y-96360001D01*
X122141058Y-96360000D01*
X122038273Y-96349500D01*
X120688261Y-96349500D01*
X120688244Y-96349501D01*
X120585466Y-96360000D01*
X120585463Y-96360001D01*
X120418931Y-96415185D01*
X120418926Y-96415187D01*
X120269605Y-96507289D01*
X120145550Y-96631344D01*
X120117548Y-96676743D01*
X120065600Y-96723467D01*
X119996637Y-96734688D01*
X119932555Y-96706844D01*
X119906472Y-96676743D01*
X119849344Y-96584122D01*
X119725288Y-96460066D01*
X119630006Y-96401296D01*
X119575968Y-96367965D01*
X119575963Y-96367963D01*
X119567586Y-96365187D01*
X119409429Y-96312779D01*
X119409427Y-96312778D01*
X119306642Y-96302278D01*
X117956630Y-96302278D01*
X117956613Y-96302279D01*
X117853835Y-96312778D01*
X117853832Y-96312779D01*
X117687300Y-96367963D01*
X117687295Y-96367965D01*
X117537974Y-96460067D01*
X117413921Y-96584120D01*
X117401927Y-96603566D01*
X117384794Y-96631344D01*
X117371918Y-96652219D01*
X117319970Y-96698943D01*
X117251007Y-96710166D01*
X117186925Y-96682322D01*
X117160840Y-96652219D01*
X117117315Y-96581654D01*
X116993345Y-96457684D01*
X116844124Y-96365643D01*
X116844119Y-96365641D01*
X116677697Y-96310494D01*
X116677690Y-96310493D01*
X116574986Y-96300000D01*
X116150000Y-96300000D01*
X116150000Y-98599999D01*
X116574972Y-98599999D01*
X116574986Y-98599998D01*
X116677697Y-98589505D01*
X116844119Y-98534358D01*
X116844124Y-98534356D01*
X116993345Y-98442315D01*
X117117316Y-98318344D01*
X117117320Y-98318339D01*
X117159126Y-98250560D01*
X117211073Y-98203834D01*
X117280035Y-98192611D01*
X117344118Y-98220454D01*
X117370202Y-98250556D01*
X117413920Y-98321434D01*
X117537976Y-98445490D01*
X117687298Y-98537592D01*
X117853835Y-98592777D01*
X117956623Y-98603278D01*
X118740112Y-98603277D01*
X118807151Y-98622961D01*
X118827793Y-98639596D01*
X119378794Y-99190597D01*
X119412279Y-99251920D01*
X119407295Y-99321612D01*
X119365423Y-99377545D01*
X119299959Y-99401962D01*
X119291113Y-99402278D01*
X117956630Y-99402278D01*
X117956613Y-99402279D01*
X117853835Y-99412778D01*
X117853832Y-99412779D01*
X117687300Y-99467963D01*
X117687295Y-99467965D01*
X117537974Y-99560067D01*
X117413920Y-99684121D01*
X117413917Y-99684125D01*
X117372210Y-99751743D01*
X117320262Y-99798468D01*
X117251300Y-99809689D01*
X117187218Y-99781846D01*
X117161134Y-99751743D01*
X117117712Y-99681344D01*
X116993656Y-99557288D01*
X116898376Y-99498519D01*
X116844336Y-99465187D01*
X116844331Y-99465185D01*
X116820303Y-99457223D01*
X116677797Y-99410001D01*
X116677795Y-99410000D01*
X116575010Y-99399500D01*
X115224998Y-99399500D01*
X115224981Y-99399501D01*
X115122203Y-99410000D01*
X115122200Y-99410001D01*
X114955668Y-99465185D01*
X114955663Y-99465187D01*
X114806342Y-99557289D01*
X114682289Y-99681342D01*
X114590187Y-99830663D01*
X114590185Y-99830668D01*
X114568916Y-99894853D01*
X114535001Y-99997203D01*
X114535001Y-99997204D01*
X114535000Y-99997204D01*
X114524500Y-100099983D01*
X114524500Y-101000001D01*
X114524501Y-101000019D01*
X114535000Y-101102796D01*
X114535001Y-101102799D01*
X114590185Y-101269331D01*
X114590187Y-101269336D01*
X114620661Y-101318742D01*
X114682288Y-101418656D01*
X114806344Y-101542712D01*
X114955666Y-101634814D01*
X115073025Y-101673703D01*
X115114504Y-101687448D01*
X115171949Y-101727221D01*
X115198772Y-101791737D01*
X115199500Y-101805154D01*
X115199500Y-102270500D01*
X115179815Y-102337539D01*
X115127011Y-102383294D01*
X115075500Y-102394500D01*
X114683756Y-102394500D01*
X114629723Y-102397395D01*
X114490315Y-102432978D01*
X114490311Y-102432979D01*
X114453563Y-102448201D01*
X114453547Y-102448208D01*
X114404748Y-102471555D01*
X114404743Y-102471558D01*
X114289565Y-102557781D01*
X114289553Y-102557791D01*
X114261442Y-102585902D01*
X114225275Y-102626164D01*
X114151855Y-102749906D01*
X114139061Y-102780795D01*
X114095220Y-102835198D01*
X114028926Y-102857263D01*
X113961226Y-102839984D01*
X113913616Y-102788846D01*
X113900500Y-102733342D01*
X113900500Y-97899986D01*
X114525001Y-97899986D01*
X114535494Y-98002697D01*
X114590641Y-98169119D01*
X114590643Y-98169124D01*
X114682684Y-98318345D01*
X114806654Y-98442315D01*
X114955875Y-98534356D01*
X114955880Y-98534358D01*
X115122302Y-98589505D01*
X115122309Y-98589506D01*
X115225019Y-98599999D01*
X115649999Y-98599999D01*
X115650000Y-98599998D01*
X115650000Y-97700000D01*
X114525001Y-97700000D01*
X114525001Y-97899986D01*
X113900500Y-97899986D01*
X113900500Y-97000013D01*
X114525000Y-97000013D01*
X114525000Y-97200000D01*
X115650000Y-97200000D01*
X115650000Y-96300000D01*
X115225028Y-96300000D01*
X115225012Y-96300001D01*
X115122302Y-96310494D01*
X114955880Y-96365641D01*
X114955875Y-96365643D01*
X114806654Y-96457684D01*
X114682684Y-96581654D01*
X114590643Y-96730875D01*
X114590641Y-96730880D01*
X114535494Y-96897302D01*
X114535493Y-96897309D01*
X114525000Y-97000013D01*
X113900500Y-97000013D01*
X113900500Y-95006697D01*
X133015909Y-95006697D01*
X141038443Y-95006697D01*
X141038443Y-93461074D01*
X133015909Y-93461074D01*
X133015909Y-95006697D01*
X113900500Y-95006697D01*
X113900500Y-85290518D01*
X113920185Y-85223479D01*
X113972989Y-85177724D01*
X114042147Y-85167780D01*
X114105703Y-85196805D01*
X114112175Y-85202832D01*
X114453940Y-85544597D01*
X114487424Y-85605918D01*
X114490258Y-85632276D01*
X114490258Y-86597054D01*
X114490259Y-86597060D01*
X114496666Y-86656667D01*
X114546960Y-86791512D01*
X114546964Y-86791519D01*
X114633210Y-86906728D01*
X114633213Y-86906731D01*
X114748422Y-86992977D01*
X114748429Y-86992981D01*
X114767176Y-86999973D01*
X114883275Y-87043275D01*
X114942885Y-87049684D01*
X115075500Y-87049683D01*
X115142539Y-87069367D01*
X115188294Y-87122171D01*
X115199500Y-87173683D01*
X115199500Y-91931006D01*
X115199500Y-92068994D01*
X115199500Y-92068996D01*
X115199499Y-92068996D01*
X115226418Y-92204322D01*
X115226421Y-92204332D01*
X115279222Y-92331807D01*
X115355887Y-92446545D01*
X115355888Y-92446546D01*
X117203927Y-94294584D01*
X117230807Y-94334812D01*
X117290604Y-94479176D01*
X117290609Y-94479185D01*
X117378210Y-94610288D01*
X117378213Y-94610292D01*
X117489707Y-94721786D01*
X117489711Y-94721789D01*
X117620814Y-94809390D01*
X117620827Y-94809397D01*
X117755062Y-94864998D01*
X117766503Y-94869737D01*
X117921153Y-94900499D01*
X117921156Y-94900500D01*
X117921158Y-94900500D01*
X118078844Y-94900500D01*
X118078845Y-94900499D01*
X118233497Y-94869737D01*
X118308963Y-94838478D01*
X118377864Y-94809939D01*
X118425316Y-94800500D01*
X130919996Y-94800500D01*
X131011040Y-94782389D01*
X131055328Y-94773580D01*
X131119069Y-94747177D01*
X131182807Y-94720777D01*
X131182808Y-94720776D01*
X131182811Y-94720775D01*
X131297543Y-94644114D01*
X131941656Y-94000001D01*
X132619627Y-93322031D01*
X133093111Y-92848546D01*
X133093112Y-92848545D01*
X133093114Y-92848543D01*
X133169775Y-92733811D01*
X133174585Y-92722200D01*
X133205533Y-92647483D01*
X133222580Y-92606328D01*
X133249500Y-92470994D01*
X133249500Y-92333006D01*
X133249500Y-90644279D01*
X133269185Y-90577240D01*
X133321989Y-90531485D01*
X133373500Y-90520279D01*
X134850002Y-90520279D01*
X134850008Y-90520279D01*
X134952797Y-90509779D01*
X135119334Y-90454594D01*
X135268656Y-90362492D01*
X135392712Y-90238436D01*
X135484814Y-90089114D01*
X135539999Y-89922577D01*
X135550500Y-89819789D01*
X135550500Y-89819766D01*
X136450001Y-89819766D01*
X136460494Y-89922477D01*
X136515641Y-90088899D01*
X136515643Y-90088904D01*
X136607684Y-90238125D01*
X136731654Y-90362095D01*
X136880875Y-90454136D01*
X136880880Y-90454138D01*
X137047302Y-90509285D01*
X137047309Y-90509286D01*
X137150019Y-90519779D01*
X138449999Y-90519779D01*
X138950000Y-90519779D01*
X140249972Y-90519779D01*
X140249986Y-90519778D01*
X140352697Y-90509285D01*
X140519119Y-90454138D01*
X140519124Y-90454136D01*
X140668345Y-90362095D01*
X140792315Y-90238125D01*
X140884356Y-90088904D01*
X140884358Y-90088899D01*
X140939505Y-89922477D01*
X140939506Y-89922470D01*
X140949999Y-89819766D01*
X140950000Y-89819753D01*
X140950000Y-89469780D01*
X138950000Y-89469780D01*
X138950000Y-90519779D01*
X138449999Y-90519779D01*
X138450000Y-90519778D01*
X138450000Y-89469780D01*
X136450001Y-89469780D01*
X136450001Y-89819766D01*
X135550500Y-89819766D01*
X135550499Y-89217627D01*
X135550499Y-88619793D01*
X136450000Y-88619793D01*
X136450000Y-88969780D01*
X138450000Y-88969780D01*
X138450000Y-87919780D01*
X138950000Y-87919780D01*
X138950000Y-88969780D01*
X140949999Y-88969780D01*
X140949999Y-88619808D01*
X140949998Y-88619793D01*
X140939505Y-88517082D01*
X140884358Y-88350660D01*
X140884356Y-88350655D01*
X140792315Y-88201434D01*
X140668345Y-88077464D01*
X140519124Y-87985423D01*
X140519119Y-87985421D01*
X140387193Y-87941705D01*
X140329748Y-87901932D01*
X140302925Y-87837416D01*
X140315240Y-87768640D01*
X140362783Y-87717441D01*
X140426197Y-87699999D01*
X140649999Y-87699999D01*
X141150000Y-87699999D01*
X141574972Y-87699999D01*
X141574986Y-87699998D01*
X141677697Y-87689505D01*
X141844119Y-87634358D01*
X141844124Y-87634356D01*
X141993345Y-87542315D01*
X142117315Y-87418345D01*
X142209356Y-87269124D01*
X142209358Y-87269119D01*
X142264505Y-87102697D01*
X142264506Y-87102690D01*
X142274999Y-86999986D01*
X142275000Y-86999973D01*
X142275000Y-86800000D01*
X141150000Y-86800000D01*
X141150000Y-87699999D01*
X140649999Y-87699999D01*
X140650000Y-87699998D01*
X140650000Y-86800000D01*
X139525001Y-86800000D01*
X139525001Y-86999986D01*
X139535494Y-87102697D01*
X139590641Y-87269119D01*
X139590643Y-87269124D01*
X139682684Y-87418345D01*
X139806654Y-87542315D01*
X139955875Y-87634356D01*
X139955880Y-87634358D01*
X140087806Y-87678074D01*
X140145251Y-87717846D01*
X140172074Y-87782362D01*
X140159759Y-87851138D01*
X140112216Y-87902338D01*
X140048802Y-87919780D01*
X138950000Y-87919780D01*
X138450000Y-87919780D01*
X137150028Y-87919780D01*
X137150012Y-87919781D01*
X137047302Y-87930274D01*
X136880880Y-87985421D01*
X136880875Y-87985423D01*
X136731654Y-88077464D01*
X136607684Y-88201434D01*
X136515643Y-88350655D01*
X136515641Y-88350660D01*
X136460494Y-88517082D01*
X136460493Y-88517089D01*
X136450000Y-88619793D01*
X135550499Y-88619793D01*
X135550499Y-88619778D01*
X135550498Y-88619761D01*
X135539999Y-88516983D01*
X135539998Y-88516980D01*
X135518211Y-88451232D01*
X135484814Y-88350446D01*
X135392712Y-88201124D01*
X135268656Y-88077068D01*
X135119334Y-87984966D01*
X134952797Y-87929781D01*
X134952795Y-87929780D01*
X134850010Y-87919280D01*
X131749998Y-87919280D01*
X131749981Y-87919281D01*
X131647203Y-87929780D01*
X131647200Y-87929781D01*
X131480668Y-87984965D01*
X131480663Y-87984967D01*
X131331342Y-88077069D01*
X131207289Y-88201122D01*
X131115187Y-88350443D01*
X131115185Y-88350448D01*
X131115115Y-88350660D01*
X131060001Y-88516983D01*
X131060001Y-88516984D01*
X131060000Y-88516984D01*
X131049500Y-88619763D01*
X131049500Y-89819781D01*
X131049501Y-89819798D01*
X131060000Y-89922576D01*
X131060001Y-89922579D01*
X131113223Y-90083190D01*
X131115186Y-90089114D01*
X131207288Y-90238436D01*
X131331344Y-90362492D01*
X131480666Y-90454594D01*
X131647203Y-90509779D01*
X131737102Y-90518963D01*
X131801794Y-90545359D01*
X131841945Y-90602540D01*
X131848500Y-90642321D01*
X131848500Y-92060481D01*
X131828815Y-92127520D01*
X131812181Y-92148162D01*
X130597162Y-93363181D01*
X130535839Y-93396666D01*
X130509481Y-93399500D01*
X124034421Y-93399500D01*
X123967382Y-93379815D01*
X123921627Y-93327011D01*
X123911683Y-93257853D01*
X123940708Y-93194297D01*
X123978126Y-93165015D01*
X123995265Y-93156282D01*
X124081610Y-93112287D01*
X124180420Y-93040498D01*
X124247213Y-92991971D01*
X124247215Y-92991968D01*
X124247219Y-92991966D01*
X124391966Y-92847219D01*
X124409882Y-92822559D01*
X124432365Y-92791615D01*
X124487695Y-92748949D01*
X124532683Y-92740500D01*
X125362820Y-92740500D01*
X125429859Y-92760185D01*
X125462085Y-92790187D01*
X125542454Y-92897546D01*
X125579109Y-92924986D01*
X125657664Y-92983793D01*
X125657671Y-92983797D01*
X125792517Y-93034091D01*
X125792516Y-93034091D01*
X125799444Y-93034835D01*
X125852127Y-93040500D01*
X128947872Y-93040499D01*
X129007483Y-93034091D01*
X129142331Y-92983796D01*
X129257546Y-92897546D01*
X129343796Y-92782331D01*
X129394091Y-92647483D01*
X129400500Y-92587873D01*
X129400499Y-91492128D01*
X129394091Y-91432517D01*
X129389734Y-91420836D01*
X129343797Y-91297671D01*
X129343793Y-91297664D01*
X129257547Y-91182455D01*
X129257544Y-91182452D01*
X129142335Y-91096206D01*
X129142328Y-91096202D01*
X129007482Y-91045908D01*
X129007483Y-91045908D01*
X128947883Y-91039501D01*
X128947881Y-91039500D01*
X128947873Y-91039500D01*
X128947865Y-91039500D01*
X128724500Y-91039500D01*
X128657461Y-91019815D01*
X128611706Y-90967011D01*
X128600500Y-90915500D01*
X128600500Y-90091518D01*
X128620185Y-90024479D01*
X128636814Y-90003842D01*
X130519586Y-88121069D01*
X130559810Y-88094192D01*
X130614435Y-88071566D01*
X130704173Y-88034397D01*
X130704176Y-88034395D01*
X130704179Y-88034394D01*
X130835289Y-87946789D01*
X130946789Y-87835289D01*
X131034394Y-87704179D01*
X131035160Y-87702331D01*
X131048344Y-87670500D01*
X131094737Y-87558497D01*
X131125500Y-87403842D01*
X131125500Y-87246158D01*
X131125500Y-87246155D01*
X131125499Y-87246153D01*
X131118308Y-87210000D01*
X131094737Y-87091503D01*
X131077415Y-87049683D01*
X131034939Y-86947136D01*
X131025500Y-86899684D01*
X131025500Y-86016519D01*
X131045185Y-85949480D01*
X131061819Y-85928838D01*
X131617685Y-85372972D01*
X131679008Y-85339487D01*
X131705366Y-85336653D01*
X131931006Y-85336653D01*
X131931007Y-85336653D01*
X133392878Y-85336653D01*
X133459917Y-85356338D01*
X133498415Y-85395554D01*
X133565804Y-85504809D01*
X133689860Y-85628865D01*
X133839182Y-85720967D01*
X134005719Y-85776152D01*
X134108507Y-85786653D01*
X135458524Y-85786652D01*
X135561313Y-85776152D01*
X135727850Y-85720967D01*
X135877172Y-85628865D01*
X136001228Y-85504809D01*
X136093330Y-85355487D01*
X136116523Y-85285494D01*
X136156296Y-85228050D01*
X136220812Y-85201228D01*
X136234229Y-85200500D01*
X139987600Y-85200500D01*
X140054639Y-85220185D01*
X140100394Y-85272989D01*
X140110338Y-85342147D01*
X140081313Y-85405703D01*
X140026604Y-85442206D01*
X139955880Y-85465641D01*
X139955875Y-85465643D01*
X139806654Y-85557684D01*
X139682684Y-85681654D01*
X139590643Y-85830875D01*
X139590641Y-85830880D01*
X139535494Y-85997302D01*
X139535493Y-85997309D01*
X139525000Y-86100013D01*
X139525000Y-86300000D01*
X142274999Y-86300000D01*
X142274999Y-86100028D01*
X142274998Y-86100013D01*
X142264505Y-85997302D01*
X142209358Y-85830880D01*
X142209356Y-85830875D01*
X142117315Y-85681654D01*
X141993345Y-85557684D01*
X141844124Y-85465643D01*
X141844119Y-85465641D01*
X141773395Y-85442206D01*
X141715950Y-85402434D01*
X141689127Y-85337918D01*
X141701442Y-85269142D01*
X141748985Y-85217942D01*
X141812399Y-85200500D01*
X142550500Y-85200500D01*
X142617539Y-85220185D01*
X142663294Y-85272989D01*
X142674500Y-85324500D01*
X142674500Y-85925001D01*
X142674501Y-85925019D01*
X142685000Y-86027796D01*
X142685001Y-86027799D01*
X142740185Y-86194331D01*
X142740187Y-86194336D01*
X142754731Y-86217915D01*
X142832288Y-86343656D01*
X142956344Y-86467712D01*
X143105666Y-86559814D01*
X143139504Y-86571026D01*
X143196948Y-86610798D01*
X143223772Y-86675313D01*
X143224500Y-86688732D01*
X143224500Y-87670500D01*
X143204815Y-87737539D01*
X143152011Y-87783294D01*
X143100500Y-87794500D01*
X143034298Y-87794500D01*
X142997432Y-87797401D01*
X142997426Y-87797402D01*
X142839606Y-87843254D01*
X142839603Y-87843255D01*
X142698137Y-87926917D01*
X142698129Y-87926923D01*
X142581923Y-88043129D01*
X142581917Y-88043137D01*
X142498255Y-88184603D01*
X142498254Y-88184606D01*
X142452402Y-88342426D01*
X142452401Y-88342432D01*
X142449500Y-88379298D01*
X142449500Y-88810701D01*
X142452401Y-88847567D01*
X142452402Y-88847573D01*
X142498254Y-89005393D01*
X142498255Y-89005396D01*
X142573719Y-89133000D01*
X142590902Y-89200724D01*
X142568742Y-89266987D01*
X142535878Y-89299223D01*
X142503458Y-89320885D01*
X142503454Y-89320888D01*
X141855887Y-89968455D01*
X141779222Y-90083193D01*
X141726421Y-90210668D01*
X141726418Y-90210680D01*
X141720122Y-90242335D01*
X141706356Y-90311543D01*
X141699500Y-90346008D01*
X141699500Y-92567980D01*
X141699500Y-92705968D01*
X141699500Y-92705970D01*
X141699499Y-92705970D01*
X141726418Y-92841296D01*
X141726421Y-92841306D01*
X141779222Y-92968781D01*
X141855887Y-93083519D01*
X142716480Y-93944112D01*
X142831218Y-94020777D01*
X142958693Y-94073578D01*
X142958698Y-94073580D01*
X142958702Y-94073580D01*
X142958703Y-94073581D01*
X143094029Y-94100500D01*
X143094032Y-94100500D01*
X145168996Y-94100500D01*
X145260040Y-94082389D01*
X145304328Y-94073580D01*
X145368069Y-94047177D01*
X145431807Y-94020777D01*
X145431808Y-94020776D01*
X145431811Y-94020775D01*
X145546543Y-93944114D01*
X146835655Y-92655001D01*
X147402704Y-92655001D01*
X147402899Y-92657486D01*
X147448718Y-92815198D01*
X147532314Y-92956552D01*
X147532321Y-92956561D01*
X147648438Y-93072678D01*
X147648447Y-93072685D01*
X147789803Y-93156282D01*
X147789806Y-93156283D01*
X147947504Y-93202099D01*
X147947510Y-93202100D01*
X147984350Y-93204999D01*
X147984366Y-93205000D01*
X148625000Y-93205000D01*
X149125000Y-93205000D01*
X149765634Y-93205000D01*
X149765649Y-93204999D01*
X149802489Y-93202100D01*
X149802495Y-93202099D01*
X149960193Y-93156283D01*
X149960196Y-93156282D01*
X150101552Y-93072685D01*
X150101561Y-93072678D01*
X150217678Y-92956561D01*
X150217685Y-92956552D01*
X150236353Y-92924986D01*
X151175001Y-92924986D01*
X151185494Y-93027697D01*
X151240641Y-93194119D01*
X151240643Y-93194124D01*
X151332684Y-93343345D01*
X151456654Y-93467315D01*
X151605875Y-93559356D01*
X151605880Y-93559358D01*
X151772302Y-93614505D01*
X151772309Y-93614506D01*
X151875019Y-93624999D01*
X152149999Y-93624999D01*
X152150000Y-93624998D01*
X152150000Y-92787500D01*
X152650000Y-92787500D01*
X152650000Y-93624999D01*
X152924972Y-93624999D01*
X152924986Y-93624998D01*
X153027697Y-93614505D01*
X153194119Y-93559358D01*
X153194130Y-93559353D01*
X153335403Y-93472215D01*
X153402795Y-93453774D01*
X153469459Y-93474696D01*
X153514229Y-93528338D01*
X153524500Y-93577753D01*
X153524500Y-94000001D01*
X153524501Y-94000019D01*
X153535000Y-94102796D01*
X153535001Y-94102799D01*
X153588149Y-94263187D01*
X153590186Y-94269334D01*
X153682288Y-94418656D01*
X153806344Y-94542712D01*
X153955666Y-94634814D01*
X154122203Y-94689999D01*
X154224991Y-94700500D01*
X155575008Y-94700499D01*
X155677797Y-94689999D01*
X155844334Y-94634814D01*
X155993656Y-94542712D01*
X156117712Y-94418656D01*
X156209814Y-94269334D01*
X156209815Y-94269331D01*
X156213605Y-94263187D01*
X156215399Y-94264293D01*
X156254687Y-94219663D01*
X156320908Y-94200500D01*
X159594846Y-94200500D01*
X159661885Y-94220185D01*
X159707640Y-94272989D01*
X159712552Y-94285496D01*
X159723255Y-94317796D01*
X159765186Y-94444334D01*
X159857288Y-94593656D01*
X159981344Y-94717712D01*
X160130666Y-94809814D01*
X160297203Y-94864999D01*
X160399991Y-94875500D01*
X161300008Y-94875499D01*
X161300016Y-94875498D01*
X161300019Y-94875498D01*
X161356434Y-94869735D01*
X161402797Y-94864999D01*
X161569334Y-94809814D01*
X161718656Y-94717712D01*
X161842712Y-94593656D01*
X161934814Y-94444334D01*
X161989999Y-94277797D01*
X162000500Y-94175009D01*
X162000499Y-92824992D01*
X161999498Y-92815197D01*
X161989999Y-92722203D01*
X161989998Y-92722200D01*
X161976548Y-92681610D01*
X161934814Y-92555666D01*
X161842712Y-92406344D01*
X161718656Y-92282288D01*
X161625888Y-92225069D01*
X161569336Y-92190187D01*
X161569331Y-92190185D01*
X161567862Y-92189698D01*
X161402797Y-92135001D01*
X161402795Y-92135000D01*
X161300010Y-92124500D01*
X160399998Y-92124500D01*
X160399980Y-92124501D01*
X160297203Y-92135000D01*
X160297200Y-92135001D01*
X160130668Y-92190185D01*
X160130663Y-92190187D01*
X159981342Y-92282289D01*
X159857289Y-92406342D01*
X159765187Y-92555663D01*
X159765185Y-92555668D01*
X159754517Y-92587864D01*
X159712551Y-92714506D01*
X159672781Y-92771949D01*
X159608265Y-92798772D01*
X159594847Y-92799500D01*
X156259798Y-92799500D01*
X156192759Y-92779815D01*
X156154259Y-92740597D01*
X156117712Y-92681344D01*
X155993656Y-92557288D01*
X155853754Y-92470996D01*
X155844336Y-92465187D01*
X155844331Y-92465185D01*
X155788073Y-92446543D01*
X155677797Y-92410001D01*
X155677795Y-92410000D01*
X155575010Y-92399500D01*
X154224998Y-92399500D01*
X154224981Y-92399501D01*
X154122203Y-92410000D01*
X154122200Y-92410001D01*
X153955668Y-92465185D01*
X153955663Y-92465187D01*
X153806342Y-92557289D01*
X153682287Y-92681344D01*
X153653143Y-92728596D01*
X153601195Y-92775321D01*
X153547604Y-92787500D01*
X152650000Y-92787500D01*
X152150000Y-92787500D01*
X151175001Y-92787500D01*
X151175001Y-92924986D01*
X150236353Y-92924986D01*
X150301281Y-92815197D01*
X150334301Y-92701544D01*
X150334301Y-92701543D01*
X150347100Y-92657486D01*
X150347295Y-92655001D01*
X150347295Y-92655000D01*
X149125000Y-92655000D01*
X149125000Y-93205000D01*
X148625000Y-93205000D01*
X148625000Y-92655000D01*
X147402705Y-92655000D01*
X147402704Y-92655001D01*
X146835655Y-92655001D01*
X147299339Y-92191317D01*
X147360660Y-92157834D01*
X147387018Y-92155000D01*
X150347295Y-92155000D01*
X150347295Y-92154998D01*
X150347100Y-92152511D01*
X150347099Y-92152505D01*
X150301077Y-91994095D01*
X150301276Y-91924225D01*
X150339218Y-91865555D01*
X150402857Y-91836712D01*
X150420153Y-91835500D01*
X150647483Y-91835500D01*
X150738527Y-91817389D01*
X150782815Y-91808580D01*
X150846556Y-91782177D01*
X150910294Y-91755777D01*
X150910295Y-91755776D01*
X150910298Y-91755775D01*
X151025030Y-91679114D01*
X151297392Y-91406751D01*
X151323373Y-91392564D01*
X151347985Y-91376110D01*
X151353697Y-91376006D01*
X151358711Y-91373269D01*
X151388236Y-91375380D01*
X151417843Y-91374844D01*
X151423903Y-91377931D01*
X151428403Y-91378253D01*
X151450208Y-91388922D01*
X151456338Y-91392706D01*
X151456344Y-91392712D01*
X151459697Y-91394780D01*
X151461989Y-91397330D01*
X151462532Y-91397607D01*
X151462562Y-91397631D01*
X151462419Y-91397809D01*
X151482719Y-91420396D01*
X151506379Y-91446699D01*
X151506383Y-91446726D01*
X151506401Y-91446746D01*
X151511639Y-91479015D01*
X151517603Y-91515661D01*
X151517591Y-91515686D01*
X151517596Y-91515713D01*
X151503674Y-91547718D01*
X151489761Y-91579744D01*
X151489735Y-91579765D01*
X151489728Y-91579784D01*
X151489670Y-91579822D01*
X151459665Y-91605826D01*
X151456660Y-91607679D01*
X151456655Y-91607683D01*
X151332684Y-91731654D01*
X151240643Y-91880875D01*
X151240641Y-91880880D01*
X151185494Y-92047302D01*
X151185493Y-92047309D01*
X151175000Y-92150013D01*
X151175000Y-92287500D01*
X153624999Y-92287500D01*
X153624999Y-92150028D01*
X153624998Y-92150013D01*
X153614505Y-92047302D01*
X153559358Y-91880880D01*
X153559356Y-91880875D01*
X153467315Y-91731654D01*
X153343344Y-91607683D01*
X153343341Y-91607681D01*
X153340339Y-91605829D01*
X153338713Y-91604021D01*
X153337677Y-91603202D01*
X153337817Y-91603024D01*
X153293617Y-91553880D01*
X153282397Y-91484917D01*
X153310243Y-91420836D01*
X153319532Y-91410874D01*
X153329075Y-91401705D01*
X153343656Y-91392712D01*
X153467712Y-91268656D01*
X153467929Y-91268303D01*
X153472235Y-91264167D01*
X153502162Y-91248594D01*
X153531784Y-91232420D01*
X153533070Y-91232512D01*
X153534216Y-91231916D01*
X153567832Y-91234997D01*
X153601476Y-91237404D01*
X153602508Y-91238177D01*
X153603794Y-91238295D01*
X153630392Y-91259050D01*
X153657410Y-91279275D01*
X153658654Y-91281103D01*
X153658878Y-91281278D01*
X153658988Y-91281594D01*
X153663674Y-91288478D01*
X153682288Y-91318656D01*
X153806344Y-91442712D01*
X153955666Y-91534814D01*
X154122203Y-91589999D01*
X154224991Y-91600500D01*
X155575008Y-91600499D01*
X155677797Y-91589999D01*
X155844334Y-91534814D01*
X155993656Y-91442712D01*
X156117712Y-91318656D01*
X156209814Y-91169334D01*
X156264999Y-91002797D01*
X156275500Y-90900009D01*
X156275499Y-89999992D01*
X156272277Y-89968455D01*
X156264999Y-89897203D01*
X156264998Y-89897200D01*
X156239346Y-89819788D01*
X156209814Y-89730666D01*
X156117712Y-89581344D01*
X155993656Y-89457288D01*
X155990005Y-89455036D01*
X155988027Y-89452837D01*
X155987989Y-89452807D01*
X155987994Y-89452800D01*
X155943282Y-89403087D01*
X155932062Y-89334124D01*
X155959907Y-89270042D01*
X156017977Y-89231188D01*
X156055099Y-89225499D01*
X156750008Y-89225499D01*
X156750016Y-89225498D01*
X156750019Y-89225498D01*
X156827070Y-89217627D01*
X156852797Y-89214999D01*
X157019334Y-89159814D01*
X157168656Y-89067712D01*
X157292712Y-88943656D01*
X157294461Y-88940819D01*
X157296169Y-88939283D01*
X157297193Y-88937989D01*
X157297414Y-88938163D01*
X157346406Y-88894096D01*
X157415368Y-88882872D01*
X157479451Y-88910713D01*
X157505537Y-88940817D01*
X157507288Y-88943656D01*
X157631344Y-89067712D01*
X157780666Y-89159814D01*
X157947203Y-89214999D01*
X158049991Y-89225500D01*
X158825008Y-89225499D01*
X158825016Y-89225498D01*
X158825019Y-89225498D01*
X158902070Y-89217627D01*
X158927797Y-89214999D01*
X159094334Y-89159814D01*
X159243656Y-89067712D01*
X159367712Y-88943656D01*
X159459814Y-88794334D01*
X159514999Y-88627797D01*
X159525500Y-88525009D01*
X159525499Y-88356625D01*
X159545183Y-88289588D01*
X159597987Y-88243833D01*
X159667145Y-88233889D01*
X159730701Y-88262914D01*
X159767430Y-88318309D01*
X159810619Y-88451232D01*
X159810620Y-88451235D01*
X159848214Y-88525016D01*
X159894622Y-88616096D01*
X159978840Y-88732012D01*
X160002320Y-88797817D01*
X159986495Y-88865871D01*
X159952833Y-88904164D01*
X159867809Y-88967813D01*
X159781649Y-89082906D01*
X159781645Y-89082913D01*
X159731403Y-89217620D01*
X159731401Y-89217627D01*
X159725000Y-89277155D01*
X159725000Y-89750000D01*
X160584314Y-89750000D01*
X160579920Y-89754394D01*
X160527259Y-89845606D01*
X160500000Y-89947339D01*
X160500000Y-90052661D01*
X160527259Y-90154394D01*
X160579920Y-90245606D01*
X160584314Y-90250000D01*
X159725000Y-90250000D01*
X159725000Y-90722844D01*
X159731401Y-90782372D01*
X159731403Y-90782379D01*
X159781645Y-90917086D01*
X159781649Y-90917093D01*
X159867809Y-91032187D01*
X159867812Y-91032190D01*
X159982906Y-91118350D01*
X159982913Y-91118354D01*
X160117620Y-91168596D01*
X160117627Y-91168598D01*
X160177155Y-91174999D01*
X160177172Y-91175000D01*
X160650000Y-91175000D01*
X160650000Y-90315686D01*
X160654394Y-90320080D01*
X160745606Y-90372741D01*
X160847339Y-90400000D01*
X160952661Y-90400000D01*
X161054394Y-90372741D01*
X161145606Y-90320080D01*
X161150000Y-90315686D01*
X161150000Y-91175000D01*
X161622828Y-91175000D01*
X161622844Y-91174999D01*
X161682372Y-91168598D01*
X161682379Y-91168596D01*
X161817086Y-91118354D01*
X161817093Y-91118350D01*
X161932187Y-91032190D01*
X161932190Y-91032187D01*
X162018350Y-90917093D01*
X162018354Y-90917086D01*
X162068596Y-90782379D01*
X162068598Y-90782372D01*
X162074999Y-90722844D01*
X162075000Y-90722827D01*
X162075000Y-90250000D01*
X161215686Y-90250000D01*
X161220080Y-90245606D01*
X161272741Y-90154394D01*
X161300000Y-90052661D01*
X161300000Y-89947339D01*
X161272741Y-89845606D01*
X161220080Y-89754394D01*
X161215686Y-89750000D01*
X162075000Y-89750000D01*
X162075000Y-89277172D01*
X162074999Y-89277155D01*
X162068598Y-89217627D01*
X162068596Y-89217620D01*
X162018354Y-89082913D01*
X162018350Y-89082906D01*
X161932190Y-88967812D01*
X161847166Y-88904162D01*
X161805296Y-88848228D01*
X161800312Y-88778536D01*
X161821157Y-88732015D01*
X161905378Y-88616096D01*
X161989379Y-88451235D01*
X162046555Y-88275264D01*
X162075500Y-88092514D01*
X162075500Y-87907486D01*
X162724500Y-87907486D01*
X162724500Y-88092513D01*
X162753445Y-88275265D01*
X162810619Y-88451232D01*
X162810620Y-88451235D01*
X162848214Y-88525016D01*
X162894622Y-88616096D01*
X162978840Y-88732012D01*
X163002320Y-88797817D01*
X162986495Y-88865871D01*
X162952833Y-88904164D01*
X162867809Y-88967813D01*
X162781649Y-89082906D01*
X162781645Y-89082913D01*
X162731403Y-89217620D01*
X162731401Y-89217627D01*
X162725000Y-89277155D01*
X162725000Y-89750000D01*
X163584314Y-89750000D01*
X163579920Y-89754394D01*
X163527259Y-89845606D01*
X163500000Y-89947339D01*
X163500000Y-90052661D01*
X163527259Y-90154394D01*
X163579920Y-90245606D01*
X163584314Y-90250000D01*
X162725000Y-90250000D01*
X162725000Y-90722844D01*
X162731401Y-90782372D01*
X162731403Y-90782379D01*
X162781645Y-90917086D01*
X162781649Y-90917093D01*
X162867809Y-91032187D01*
X162867812Y-91032190D01*
X162982906Y-91118350D01*
X162982913Y-91118354D01*
X163117620Y-91168596D01*
X163117627Y-91168598D01*
X163177155Y-91174999D01*
X163177172Y-91175000D01*
X163650000Y-91175000D01*
X163650000Y-90315686D01*
X163654394Y-90320080D01*
X163745606Y-90372741D01*
X163847339Y-90400000D01*
X163952661Y-90400000D01*
X164054394Y-90372741D01*
X164145606Y-90320080D01*
X164150000Y-90315686D01*
X164150000Y-91175000D01*
X164622828Y-91175000D01*
X164622844Y-91174999D01*
X164682372Y-91168598D01*
X164682379Y-91168596D01*
X164817086Y-91118354D01*
X164817093Y-91118350D01*
X164932187Y-91032190D01*
X164932190Y-91032187D01*
X165018350Y-90917093D01*
X165018354Y-90917086D01*
X165068596Y-90782379D01*
X165068598Y-90782372D01*
X165074999Y-90722844D01*
X165075000Y-90722827D01*
X165075000Y-90250000D01*
X164215686Y-90250000D01*
X164220080Y-90245606D01*
X164272741Y-90154394D01*
X164300000Y-90052661D01*
X164300000Y-89947339D01*
X164272741Y-89845606D01*
X164220080Y-89754394D01*
X164215686Y-89750000D01*
X165075000Y-89750000D01*
X165075000Y-89277172D01*
X165074999Y-89277155D01*
X165068598Y-89217627D01*
X165068596Y-89217620D01*
X165018354Y-89082913D01*
X165018350Y-89082906D01*
X164932190Y-88967813D01*
X164873353Y-88923767D01*
X164831482Y-88867833D01*
X164826498Y-88798141D01*
X164859983Y-88736818D01*
X164921307Y-88703334D01*
X164947664Y-88700500D01*
X165852336Y-88700500D01*
X165919375Y-88720185D01*
X165965130Y-88772989D01*
X165975074Y-88842147D01*
X165946049Y-88905703D01*
X165926647Y-88923767D01*
X165867809Y-88967813D01*
X165781649Y-89082906D01*
X165781645Y-89082913D01*
X165731403Y-89217620D01*
X165731401Y-89217627D01*
X165725000Y-89277155D01*
X165725000Y-89750000D01*
X166584314Y-89750000D01*
X166579920Y-89754394D01*
X166527259Y-89845606D01*
X166500000Y-89947339D01*
X166500000Y-90052661D01*
X166527259Y-90154394D01*
X166579920Y-90245606D01*
X166584314Y-90250000D01*
X165725000Y-90250000D01*
X165725000Y-90722844D01*
X165731401Y-90782372D01*
X165731403Y-90782379D01*
X165781645Y-90917086D01*
X165781649Y-90917093D01*
X165867809Y-91032187D01*
X165867812Y-91032190D01*
X165982906Y-91118350D01*
X165982913Y-91118354D01*
X166117620Y-91168596D01*
X166117627Y-91168598D01*
X166177155Y-91174999D01*
X166177172Y-91175000D01*
X166650000Y-91175000D01*
X166650000Y-90315686D01*
X166654394Y-90320080D01*
X166745606Y-90372741D01*
X166847339Y-90400000D01*
X166952661Y-90400000D01*
X167054394Y-90372741D01*
X167145606Y-90320080D01*
X167150000Y-90315686D01*
X167150000Y-91175000D01*
X167622828Y-91175000D01*
X167622844Y-91174999D01*
X167682372Y-91168598D01*
X167682379Y-91168596D01*
X167817086Y-91118354D01*
X167817093Y-91118350D01*
X167932187Y-91032190D01*
X167932190Y-91032187D01*
X168018350Y-90917093D01*
X168018354Y-90917086D01*
X168068596Y-90782379D01*
X168068598Y-90782372D01*
X168074999Y-90722844D01*
X168075000Y-90722827D01*
X168075000Y-90250000D01*
X167215686Y-90250000D01*
X167220080Y-90245606D01*
X167272741Y-90154394D01*
X167300000Y-90052661D01*
X167300000Y-89947339D01*
X167272741Y-89845606D01*
X167220080Y-89754394D01*
X167215686Y-89750000D01*
X168075000Y-89750000D01*
X168075000Y-89277172D01*
X168074999Y-89277155D01*
X168068598Y-89217627D01*
X168068596Y-89217620D01*
X168018354Y-89082913D01*
X168018350Y-89082906D01*
X167932190Y-88967812D01*
X167847166Y-88904162D01*
X167805296Y-88848228D01*
X167800312Y-88778536D01*
X167821157Y-88732015D01*
X167905378Y-88616096D01*
X167989379Y-88451235D01*
X168046555Y-88275264D01*
X168075500Y-88092514D01*
X168075500Y-87907486D01*
X168046555Y-87724736D01*
X167995425Y-87567372D01*
X167989380Y-87548767D01*
X167989379Y-87548764D01*
X167940817Y-87453457D01*
X167905378Y-87383904D01*
X167796621Y-87234213D01*
X167665787Y-87103379D01*
X167664848Y-87102697D01*
X167651613Y-87093081D01*
X167608948Y-87037750D01*
X167600500Y-86992764D01*
X167600500Y-86328957D01*
X167620185Y-86261918D01*
X167659407Y-86223416D01*
X167668656Y-86217712D01*
X167792712Y-86093656D01*
X167884814Y-85944334D01*
X167939999Y-85777797D01*
X167950500Y-85675009D01*
X167950499Y-84324992D01*
X167949427Y-84314502D01*
X167939999Y-84222203D01*
X167939998Y-84222200D01*
X167917178Y-84153334D01*
X167884814Y-84055666D01*
X167792712Y-83906344D01*
X167668656Y-83782288D01*
X167556351Y-83713018D01*
X167519336Y-83690187D01*
X167519331Y-83690185D01*
X167481340Y-83677596D01*
X167352797Y-83635001D01*
X167352795Y-83635000D01*
X167250010Y-83624500D01*
X166349998Y-83624500D01*
X166349980Y-83624501D01*
X166247203Y-83635000D01*
X166247200Y-83635001D01*
X166080668Y-83690185D01*
X166080663Y-83690187D01*
X165931342Y-83782289D01*
X165807289Y-83906342D01*
X165715187Y-84055663D01*
X165715185Y-84055668D01*
X165704510Y-84087883D01*
X165660001Y-84222203D01*
X165660001Y-84222204D01*
X165660000Y-84222204D01*
X165649500Y-84324983D01*
X165649500Y-85675001D01*
X165649501Y-85675018D01*
X165660000Y-85777796D01*
X165660001Y-85777799D01*
X165700492Y-85899991D01*
X165715186Y-85944334D01*
X165807288Y-86093656D01*
X165931344Y-86217712D01*
X166080666Y-86309814D01*
X166114500Y-86321025D01*
X166171947Y-86360796D01*
X166198772Y-86425311D01*
X166199500Y-86438732D01*
X166199500Y-86992764D01*
X166179815Y-87059803D01*
X166148387Y-87093081D01*
X166134213Y-87103378D01*
X166003378Y-87234213D01*
X165993081Y-87248387D01*
X165937750Y-87291052D01*
X165892764Y-87299500D01*
X164907236Y-87299500D01*
X164840197Y-87279815D01*
X164806919Y-87248387D01*
X164796621Y-87234213D01*
X164665789Y-87103381D01*
X164665787Y-87103379D01*
X164516096Y-86994622D01*
X164512868Y-86992977D01*
X164351235Y-86910620D01*
X164351232Y-86910619D01*
X164175265Y-86853445D01*
X164083889Y-86838972D01*
X163992514Y-86824500D01*
X163807486Y-86824500D01*
X163746569Y-86834148D01*
X163624734Y-86853445D01*
X163448767Y-86910619D01*
X163448764Y-86910620D01*
X163283903Y-86994622D01*
X163224543Y-87037750D01*
X163134213Y-87103379D01*
X163134211Y-87103381D01*
X163134209Y-87103382D01*
X163086582Y-87151008D01*
X163086529Y-87151062D01*
X163003379Y-87234213D01*
X162994001Y-87247120D01*
X162993992Y-87247130D01*
X162894624Y-87383900D01*
X162810620Y-87548764D01*
X162810619Y-87548767D01*
X162753445Y-87724734D01*
X162724500Y-87907486D01*
X162075500Y-87907486D01*
X162072759Y-87890183D01*
X162081713Y-87820892D01*
X162107548Y-87783107D01*
X162894114Y-86996543D01*
X162970775Y-86881811D01*
X163023580Y-86754328D01*
X163039313Y-86675233D01*
X163050500Y-86618996D01*
X163050500Y-86492433D01*
X163070185Y-86425394D01*
X163122989Y-86379639D01*
X163187102Y-86369075D01*
X163249991Y-86375500D01*
X164150008Y-86375499D01*
X164150016Y-86375498D01*
X164150019Y-86375498D01*
X164212895Y-86369075D01*
X164252797Y-86364999D01*
X164419334Y-86309814D01*
X164568656Y-86217712D01*
X164692712Y-86093656D01*
X164784814Y-85944334D01*
X164839999Y-85777797D01*
X164850500Y-85675009D01*
X164850499Y-84324992D01*
X164849427Y-84314502D01*
X164839999Y-84222203D01*
X164839998Y-84222200D01*
X164817178Y-84153334D01*
X164784814Y-84055666D01*
X164692712Y-83906344D01*
X164568656Y-83782288D01*
X164456351Y-83713018D01*
X164419336Y-83690187D01*
X164419331Y-83690185D01*
X164381340Y-83677596D01*
X164252797Y-83635001D01*
X164252795Y-83635000D01*
X164150010Y-83624500D01*
X163249998Y-83624500D01*
X163249980Y-83624501D01*
X163147203Y-83635000D01*
X163147200Y-83635001D01*
X162980668Y-83690185D01*
X162980663Y-83690187D01*
X162831342Y-83782289D01*
X162707289Y-83906342D01*
X162615187Y-84055663D01*
X162615185Y-84055668D01*
X162604510Y-84087883D01*
X162563158Y-84212678D01*
X162560001Y-84222204D01*
X162554829Y-84272821D01*
X162528432Y-84337512D01*
X162478931Y-84374774D01*
X162468196Y-84379221D01*
X162468182Y-84379228D01*
X162353456Y-84455885D01*
X161805888Y-85003453D01*
X161786804Y-85032015D01*
X161733191Y-85076819D01*
X161663866Y-85085526D01*
X161610818Y-85063442D01*
X161516096Y-84994622D01*
X161473635Y-84972987D01*
X161351235Y-84910620D01*
X161351232Y-84910619D01*
X161175265Y-84853445D01*
X161057621Y-84834812D01*
X160992514Y-84824500D01*
X160807486Y-84824500D01*
X160746569Y-84834148D01*
X160624734Y-84853445D01*
X160448767Y-84910619D01*
X160448764Y-84910620D01*
X160283903Y-84994622D01*
X160232437Y-85032015D01*
X160134213Y-85103379D01*
X160134211Y-85103381D01*
X160134210Y-85103381D01*
X160003381Y-85234210D01*
X160003381Y-85234211D01*
X160003379Y-85234213D01*
X159962471Y-85290518D01*
X159894620Y-85383906D01*
X159819578Y-85531182D01*
X159796775Y-85562567D01*
X158621161Y-86738181D01*
X158559838Y-86771666D01*
X158533480Y-86774500D01*
X158049998Y-86774500D01*
X158049980Y-86774501D01*
X157947203Y-86785000D01*
X157947200Y-86785001D01*
X157780668Y-86840185D01*
X157780663Y-86840187D01*
X157631342Y-86932289D01*
X157507285Y-87056346D01*
X157505537Y-87059182D01*
X157503829Y-87060717D01*
X157502807Y-87062011D01*
X157502585Y-87061836D01*
X157453589Y-87105905D01*
X157384626Y-87117126D01*
X157320544Y-87089282D01*
X157294463Y-87059182D01*
X157292714Y-87056346D01*
X157168657Y-86932289D01*
X157168656Y-86932288D01*
X157048365Y-86858092D01*
X157001642Y-86806145D01*
X156990419Y-86737182D01*
X157018263Y-86673100D01*
X157025770Y-86664885D01*
X159944114Y-83746543D01*
X160020775Y-83631811D01*
X160023804Y-83624500D01*
X160073578Y-83504332D01*
X160073580Y-83504328D01*
X160100500Y-83368994D01*
X160100500Y-83231006D01*
X160100500Y-78431007D01*
X160100500Y-78431004D01*
X160073581Y-78295677D01*
X160073580Y-78295676D01*
X160073580Y-78295672D01*
X160066176Y-78277797D01*
X160056094Y-78253457D01*
X160056094Y-78253458D01*
X160041288Y-78217712D01*
X160020775Y-78168189D01*
X160020771Y-78168182D01*
X159944115Y-78053459D01*
X159896033Y-78005377D01*
X159846542Y-77955886D01*
X159493108Y-77602452D01*
X158346546Y-76455888D01*
X158346545Y-76455887D01*
X158231807Y-76379222D01*
X158104332Y-76326421D01*
X158104322Y-76326418D01*
X157968996Y-76299500D01*
X157968994Y-76299500D01*
X157968993Y-76299500D01*
X154468994Y-76299500D01*
X154331006Y-76299500D01*
X154331004Y-76299500D01*
X154195677Y-76326418D01*
X154195667Y-76326421D01*
X154068192Y-76379222D01*
X153953454Y-76455887D01*
X153077634Y-77331707D01*
X153024550Y-77363102D01*
X152989603Y-77373255D01*
X152848137Y-77456917D01*
X152848129Y-77456923D01*
X152731923Y-77573129D01*
X152731917Y-77573137D01*
X152648256Y-77714600D01*
X152645157Y-77721764D01*
X152642772Y-77720732D01*
X152611957Y-77768982D01*
X152548484Y-77798187D01*
X152530489Y-77799500D01*
X151708020Y-77799500D01*
X151640981Y-77779815D01*
X151595226Y-77727011D01*
X151593459Y-77722952D01*
X151570777Y-77668192D01*
X151494112Y-77553454D01*
X150896545Y-76955887D01*
X150839177Y-76917555D01*
X150781811Y-76879225D01*
X150781809Y-76879224D01*
X150666656Y-76831526D01*
X150612253Y-76787685D01*
X150590751Y-76729565D01*
X150589999Y-76722203D01*
X150589998Y-76722200D01*
X150534814Y-76555666D01*
X150442712Y-76406344D01*
X150318656Y-76282288D01*
X150209402Y-76214900D01*
X150162679Y-76162953D01*
X150150500Y-76109362D01*
X150150500Y-75981004D01*
X150123581Y-75845676D01*
X150123580Y-75845674D01*
X150123580Y-75845672D01*
X150114810Y-75824500D01*
X150101707Y-75792866D01*
X150096884Y-75781222D01*
X150070778Y-75718194D01*
X150070771Y-75718182D01*
X149994115Y-75603459D01*
X149994114Y-75603458D01*
X149896542Y-75505886D01*
X149602838Y-75212181D01*
X149569353Y-75150858D01*
X149574337Y-75081166D01*
X149616209Y-75025233D01*
X149681673Y-75000816D01*
X149690519Y-75000500D01*
X168334108Y-75000500D01*
X168395572Y-75000500D01*
X168404418Y-75000816D01*
G37*
%TD.AperFunction*%
%TA.AperFunction,Conductor*%
G36*
X130143039Y-76220185D02*
G01*
X130188794Y-76272989D01*
X130200000Y-76324500D01*
X130200000Y-76750000D01*
X132499999Y-76750000D01*
X132499999Y-76324500D01*
X132519684Y-76257461D01*
X132572488Y-76211706D01*
X132623999Y-76200500D01*
X133175500Y-76200500D01*
X133242539Y-76220185D01*
X133288294Y-76272989D01*
X133299500Y-76324500D01*
X133299500Y-77675001D01*
X133299501Y-77675018D01*
X133310000Y-77777796D01*
X133310001Y-77777799D01*
X133356237Y-77917328D01*
X133365186Y-77944334D01*
X133457096Y-78093345D01*
X133457289Y-78093657D01*
X133525951Y-78162319D01*
X133559436Y-78223642D01*
X133554452Y-78293334D01*
X133525951Y-78337681D01*
X133457289Y-78406342D01*
X133365187Y-78555663D01*
X133365185Y-78555668D01*
X133365115Y-78555880D01*
X133310001Y-78722203D01*
X133310001Y-78722204D01*
X133310000Y-78722204D01*
X133299500Y-78824983D01*
X133299500Y-80175001D01*
X133299502Y-80175021D01*
X133305473Y-80233478D01*
X133292703Y-80302170D01*
X133244821Y-80353054D01*
X133177031Y-80369974D01*
X133172389Y-80369696D01*
X133130101Y-80366368D01*
X133130089Y-80366368D01*
X132698701Y-80366368D01*
X132698693Y-80366368D01*
X132661827Y-80369269D01*
X132661821Y-80369270D01*
X132651239Y-80372345D01*
X132581369Y-80372144D01*
X132522700Y-80334200D01*
X132493859Y-80270561D01*
X132493289Y-80240665D01*
X132499999Y-80174985D01*
X132500000Y-80174973D01*
X132500000Y-79750000D01*
X130200001Y-79750000D01*
X130200001Y-80174986D01*
X130210494Y-80277697D01*
X130265641Y-80444119D01*
X130265645Y-80444128D01*
X130319394Y-80531269D01*
X130337834Y-80598661D01*
X130320587Y-80659486D01*
X130263112Y-80756671D01*
X130263111Y-80756674D01*
X130217295Y-80914372D01*
X130217294Y-80914378D01*
X130214395Y-80951218D01*
X130214395Y-81354368D01*
X131814395Y-81354368D01*
X131814395Y-80983307D01*
X131821259Y-80959930D01*
X131823896Y-80935704D01*
X131830928Y-80927000D01*
X131834080Y-80916268D01*
X131852490Y-80900315D01*
X131867808Y-80881358D01*
X131883272Y-80873642D01*
X131886884Y-80870513D01*
X131899390Y-80865601D01*
X131950890Y-80848535D01*
X132020718Y-80846133D01*
X132080760Y-80881864D01*
X132111954Y-80944384D01*
X132113895Y-80966241D01*
X132113895Y-82117368D01*
X132094210Y-82184407D01*
X132041406Y-82230162D01*
X131989895Y-82241368D01*
X131938395Y-82241368D01*
X131871356Y-82221683D01*
X131825601Y-82168879D01*
X131814395Y-82117368D01*
X131814395Y-81854368D01*
X131264395Y-81854368D01*
X131264395Y-82510052D01*
X131247128Y-82573172D01*
X131212649Y-82631473D01*
X131212649Y-82631474D01*
X131166797Y-82789294D01*
X131166796Y-82789300D01*
X131163895Y-82826166D01*
X131163895Y-83877905D01*
X131144210Y-83944944D01*
X131091406Y-83990699D01*
X131087349Y-83992466D01*
X131032036Y-84015377D01*
X130917301Y-84092040D01*
X129780885Y-85228456D01*
X129710917Y-85333173D01*
X129704229Y-85343182D01*
X129704223Y-85343192D01*
X129651420Y-85470671D01*
X129651418Y-85470677D01*
X129624500Y-85606004D01*
X129624500Y-86282980D01*
X129604815Y-86350019D01*
X129552011Y-86395774D01*
X129482853Y-86405718D01*
X129419297Y-86376693D01*
X129384318Y-86326313D01*
X129343797Y-86217671D01*
X129343793Y-86217664D01*
X129257547Y-86102455D01*
X129257544Y-86102452D01*
X129142335Y-86016206D01*
X129142328Y-86016202D01*
X129007482Y-85965908D01*
X129007483Y-85965908D01*
X128947883Y-85959501D01*
X128947881Y-85959500D01*
X128947873Y-85959500D01*
X128947864Y-85959500D01*
X125852129Y-85959500D01*
X125852123Y-85959501D01*
X125792516Y-85965908D01*
X125657671Y-86016202D01*
X125657664Y-86016206D01*
X125542455Y-86102452D01*
X125542452Y-86102455D01*
X125456206Y-86217664D01*
X125456202Y-86217671D01*
X125405908Y-86352517D01*
X125399501Y-86412116D01*
X125399500Y-86412135D01*
X125399500Y-87507870D01*
X125399501Y-87507876D01*
X125405908Y-87567483D01*
X125456202Y-87702328D01*
X125456206Y-87702335D01*
X125542452Y-87817544D01*
X125542455Y-87817547D01*
X125657664Y-87903793D01*
X125657671Y-87903797D01*
X125792517Y-87954091D01*
X125792516Y-87954091D01*
X125799444Y-87954835D01*
X125852127Y-87960500D01*
X128399480Y-87960499D01*
X128466519Y-87980184D01*
X128512274Y-88032987D01*
X128522218Y-88102146D01*
X128493193Y-88165702D01*
X128487161Y-88172180D01*
X127355887Y-89303454D01*
X127279222Y-89418192D01*
X127226421Y-89545667D01*
X127226418Y-89545679D01*
X127202050Y-89668186D01*
X127202049Y-89668191D01*
X127199500Y-89681002D01*
X127199500Y-90915500D01*
X127179815Y-90982539D01*
X127127011Y-91028294D01*
X127075500Y-91039500D01*
X125852129Y-91039500D01*
X125852123Y-91039501D01*
X125792516Y-91045908D01*
X125657671Y-91096202D01*
X125657664Y-91096206D01*
X125542456Y-91182452D01*
X125542455Y-91182453D01*
X125542454Y-91182454D01*
X125468238Y-91281594D01*
X125462087Y-91289811D01*
X125406153Y-91331682D01*
X125362820Y-91339500D01*
X124590805Y-91339500D01*
X124523766Y-91319815D01*
X124490487Y-91288385D01*
X124451260Y-91234393D01*
X124391969Y-91152784D01*
X124247213Y-91008028D01*
X124081613Y-90887715D01*
X124081612Y-90887714D01*
X124081610Y-90887713D01*
X124024653Y-90858691D01*
X123899223Y-90794781D01*
X123704534Y-90731522D01*
X123529995Y-90703878D01*
X123502352Y-90699500D01*
X123297648Y-90699500D01*
X123273329Y-90703351D01*
X123095465Y-90731522D01*
X122900776Y-90794781D01*
X122718386Y-90887715D01*
X122552786Y-91008028D01*
X122408028Y-91152786D01*
X122287715Y-91318386D01*
X122194781Y-91500776D01*
X122131522Y-91695465D01*
X122099500Y-91897648D01*
X122099500Y-92102351D01*
X122131522Y-92304534D01*
X122194781Y-92499223D01*
X122249352Y-92606322D01*
X122287577Y-92681344D01*
X122287715Y-92681613D01*
X122408028Y-92847213D01*
X122552786Y-92991971D01*
X122663872Y-93072678D01*
X122718390Y-93112287D01*
X122804735Y-93156282D01*
X122821874Y-93165015D01*
X122872670Y-93212990D01*
X122889465Y-93280811D01*
X122866927Y-93346946D01*
X122812212Y-93390397D01*
X122765579Y-93399500D01*
X118425316Y-93399500D01*
X118417137Y-93397873D01*
X118412061Y-93398789D01*
X118377863Y-93390061D01*
X118234812Y-93330807D01*
X118194584Y-93303927D01*
X118142837Y-93252180D01*
X118109352Y-93190857D01*
X118114336Y-93121165D01*
X118156208Y-93065232D01*
X118221672Y-93040815D01*
X118230518Y-93040499D01*
X120947871Y-93040499D01*
X120947872Y-93040499D01*
X121007483Y-93034091D01*
X121142331Y-92983796D01*
X121257546Y-92897546D01*
X121343796Y-92782331D01*
X121394091Y-92647483D01*
X121400500Y-92587873D01*
X121400499Y-91492128D01*
X121394091Y-91432517D01*
X121389734Y-91420836D01*
X121343797Y-91297671D01*
X121343793Y-91297664D01*
X121257547Y-91182455D01*
X121257544Y-91182452D01*
X121142335Y-91096206D01*
X121142328Y-91096202D01*
X121007482Y-91045908D01*
X121007483Y-91045908D01*
X120947883Y-91039501D01*
X120947881Y-91039500D01*
X120947873Y-91039500D01*
X120947864Y-91039500D01*
X117852129Y-91039500D01*
X117852123Y-91039501D01*
X117792516Y-91045908D01*
X117657671Y-91096202D01*
X117657664Y-91096206D01*
X117542455Y-91182452D01*
X117542452Y-91182455D01*
X117456206Y-91297664D01*
X117456202Y-91297671D01*
X117405908Y-91432517D01*
X117400286Y-91484814D01*
X117399501Y-91492123D01*
X117399500Y-91492135D01*
X117399500Y-92209481D01*
X117379815Y-92276520D01*
X117327011Y-92322275D01*
X117257853Y-92332219D01*
X117194297Y-92303194D01*
X117187819Y-92297162D01*
X116636819Y-91746162D01*
X116603334Y-91684839D01*
X116600500Y-91658481D01*
X116600500Y-88952135D01*
X117399500Y-88952135D01*
X117399500Y-90047870D01*
X117399501Y-90047876D01*
X117405908Y-90107483D01*
X117456202Y-90242328D01*
X117456206Y-90242335D01*
X117542452Y-90357544D01*
X117542455Y-90357547D01*
X117657664Y-90443793D01*
X117657671Y-90443797D01*
X117792517Y-90494091D01*
X117792516Y-90494091D01*
X117799444Y-90494835D01*
X117852127Y-90500500D01*
X120947872Y-90500499D01*
X121007483Y-90494091D01*
X121142331Y-90443796D01*
X121257546Y-90357546D01*
X121343796Y-90242331D01*
X121394091Y-90107483D01*
X121400500Y-90047873D01*
X121400499Y-88952128D01*
X121394091Y-88892517D01*
X121384884Y-88867833D01*
X121343797Y-88757671D01*
X121343793Y-88757664D01*
X121257547Y-88642455D01*
X121257544Y-88642452D01*
X121142335Y-88556206D01*
X121142328Y-88556202D01*
X121007482Y-88505908D01*
X121007483Y-88505908D01*
X120947883Y-88499501D01*
X120947881Y-88499500D01*
X120947873Y-88499500D01*
X120947864Y-88499500D01*
X117852129Y-88499500D01*
X117852123Y-88499501D01*
X117792516Y-88505908D01*
X117657671Y-88556202D01*
X117657664Y-88556206D01*
X117542455Y-88642452D01*
X117542452Y-88642455D01*
X117456206Y-88757664D01*
X117456202Y-88757671D01*
X117405908Y-88892517D01*
X117399501Y-88952116D01*
X117399501Y-88952123D01*
X117399500Y-88952135D01*
X116600500Y-88952135D01*
X116600500Y-87507844D01*
X117400000Y-87507844D01*
X117406401Y-87567372D01*
X117406403Y-87567379D01*
X117456645Y-87702086D01*
X117456649Y-87702093D01*
X117542809Y-87817187D01*
X117542812Y-87817190D01*
X117657906Y-87903350D01*
X117657913Y-87903354D01*
X117792620Y-87953596D01*
X117792627Y-87953598D01*
X117852155Y-87959999D01*
X117852172Y-87960000D01*
X119150000Y-87960000D01*
X119650000Y-87960000D01*
X120947828Y-87960000D01*
X120947844Y-87959999D01*
X121007372Y-87953598D01*
X121007379Y-87953596D01*
X121142086Y-87903354D01*
X121142093Y-87903350D01*
X121257187Y-87817190D01*
X121257190Y-87817187D01*
X121343350Y-87702093D01*
X121343354Y-87702086D01*
X121393596Y-87567379D01*
X121393598Y-87567372D01*
X121399999Y-87507844D01*
X121400000Y-87507827D01*
X121400000Y-87210000D01*
X119650000Y-87210000D01*
X119650000Y-87960000D01*
X119150000Y-87960000D01*
X119150000Y-87210000D01*
X117400000Y-87210000D01*
X117400000Y-87507844D01*
X116600500Y-87507844D01*
X116600500Y-87173683D01*
X116600814Y-87172610D01*
X116600519Y-87171535D01*
X116610637Y-87139159D01*
X116620185Y-87106644D01*
X116621027Y-87105913D01*
X116621361Y-87104847D01*
X116647398Y-87083063D01*
X116672989Y-87060889D01*
X116674373Y-87060495D01*
X116674950Y-87060013D01*
X116679153Y-87059136D01*
X116708981Y-87050658D01*
X116716710Y-87049683D01*
X116738630Y-87049683D01*
X116798241Y-87043275D01*
X116933089Y-86992980D01*
X117048304Y-86906730D01*
X117134554Y-86791515D01*
X117161380Y-86719591D01*
X117203251Y-86663657D01*
X117268715Y-86639240D01*
X117336988Y-86654091D01*
X117365243Y-86675243D01*
X117400000Y-86710000D01*
X119150000Y-86710000D01*
X119650000Y-86710000D01*
X121400000Y-86710000D01*
X121400000Y-86412172D01*
X121399999Y-86412155D01*
X121393598Y-86352627D01*
X121393596Y-86352620D01*
X121343354Y-86217913D01*
X121343350Y-86217906D01*
X121257190Y-86102812D01*
X121257187Y-86102809D01*
X121142093Y-86016649D01*
X121142086Y-86016645D01*
X121007379Y-85966403D01*
X121007372Y-85966401D01*
X120947844Y-85960000D01*
X119650000Y-85960000D01*
X119650000Y-86710000D01*
X119150000Y-86710000D01*
X119150000Y-85960000D01*
X117852155Y-85960000D01*
X117792627Y-85966401D01*
X117792620Y-85966403D01*
X117657913Y-86016645D01*
X117657906Y-86016649D01*
X117542812Y-86102809D01*
X117542809Y-86102812D01*
X117456649Y-86217906D01*
X117456644Y-86217915D01*
X117431438Y-86285495D01*
X117389567Y-86341428D01*
X117324102Y-86365844D01*
X117255829Y-86350992D01*
X117206424Y-86301586D01*
X117191257Y-86242163D01*
X117191257Y-84801312D01*
X117184958Y-84742712D01*
X117184849Y-84741700D01*
X117134555Y-84606855D01*
X117134551Y-84606848D01*
X117048305Y-84491639D01*
X117048302Y-84491636D01*
X116933093Y-84405390D01*
X116933086Y-84405386D01*
X116801675Y-84356373D01*
X116745741Y-84314502D01*
X116721324Y-84249037D01*
X116736176Y-84180764D01*
X116757321Y-84152516D01*
X116870862Y-84038976D01*
X116927005Y-83961702D01*
X116995806Y-83867004D01*
X116995805Y-83867004D01*
X116995809Y-83867000D01*
X117092315Y-83677596D01*
X117157570Y-83476760D01*
X117197006Y-83419088D01*
X117261365Y-83391889D01*
X117330211Y-83403804D01*
X117381687Y-83451048D01*
X117399500Y-83515081D01*
X117399500Y-84087870D01*
X117399501Y-84087876D01*
X117405908Y-84147483D01*
X117456202Y-84282328D01*
X117456206Y-84282335D01*
X117542452Y-84397544D01*
X117542455Y-84397547D01*
X117657664Y-84483793D01*
X117657671Y-84483797D01*
X117792517Y-84534091D01*
X117792516Y-84534091D01*
X117799444Y-84534835D01*
X117852127Y-84540500D01*
X120947872Y-84540499D01*
X121007483Y-84534091D01*
X121142331Y-84483796D01*
X121257546Y-84397546D01*
X121343796Y-84282331D01*
X121394091Y-84147483D01*
X121400500Y-84087873D01*
X121400500Y-84087844D01*
X125400000Y-84087844D01*
X125406401Y-84147372D01*
X125406403Y-84147379D01*
X125456645Y-84282086D01*
X125456649Y-84282093D01*
X125542809Y-84397187D01*
X125542812Y-84397190D01*
X125657906Y-84483350D01*
X125657913Y-84483354D01*
X125792620Y-84533596D01*
X125792627Y-84533598D01*
X125852155Y-84539999D01*
X125852172Y-84540000D01*
X127150000Y-84540000D01*
X127650000Y-84540000D01*
X128947828Y-84540000D01*
X128947844Y-84539999D01*
X129007372Y-84533598D01*
X129007379Y-84533596D01*
X129142086Y-84483354D01*
X129142093Y-84483350D01*
X129257187Y-84397190D01*
X129257190Y-84397187D01*
X129343350Y-84282093D01*
X129343354Y-84282086D01*
X129393596Y-84147379D01*
X129393598Y-84147372D01*
X129399999Y-84087844D01*
X129400000Y-84087827D01*
X129400000Y-83790000D01*
X127650000Y-83790000D01*
X127650000Y-84540000D01*
X127150000Y-84540000D01*
X127150000Y-83790000D01*
X125400000Y-83790000D01*
X125400000Y-84087844D01*
X121400500Y-84087844D01*
X121400499Y-83515081D01*
X121400499Y-82992155D01*
X125400000Y-82992155D01*
X125400000Y-83290000D01*
X127150000Y-83290000D01*
X127650000Y-83290000D01*
X129400000Y-83290000D01*
X129400000Y-82992172D01*
X129399999Y-82992155D01*
X129393598Y-82932627D01*
X129393596Y-82932620D01*
X129343354Y-82797913D01*
X129343350Y-82797906D01*
X129257190Y-82682812D01*
X129257187Y-82682809D01*
X129142093Y-82596649D01*
X129142086Y-82596645D01*
X129007379Y-82546403D01*
X129007372Y-82546401D01*
X128947844Y-82540000D01*
X127650000Y-82540000D01*
X127650000Y-83290000D01*
X127150000Y-83290000D01*
X127150000Y-82540000D01*
X125852155Y-82540000D01*
X125792627Y-82546401D01*
X125792620Y-82546403D01*
X125657913Y-82596645D01*
X125657906Y-82596649D01*
X125542812Y-82682809D01*
X125542809Y-82682812D01*
X125456649Y-82797906D01*
X125456645Y-82797913D01*
X125406403Y-82932620D01*
X125406401Y-82932627D01*
X125400000Y-82992155D01*
X121400499Y-82992155D01*
X121400499Y-82992129D01*
X121400498Y-82992123D01*
X121399871Y-82986292D01*
X121394091Y-82932517D01*
X121384358Y-82906422D01*
X121343797Y-82797671D01*
X121343793Y-82797664D01*
X121257547Y-82682455D01*
X121257544Y-82682452D01*
X121142335Y-82596206D01*
X121142328Y-82596202D01*
X121007482Y-82545908D01*
X121007483Y-82545908D01*
X120947883Y-82539501D01*
X120947881Y-82539500D01*
X120947873Y-82539500D01*
X120947864Y-82539500D01*
X117852129Y-82539500D01*
X117852123Y-82539501D01*
X117792516Y-82545908D01*
X117657671Y-82596202D01*
X117657664Y-82596206D01*
X117542455Y-82682452D01*
X117542452Y-82682455D01*
X117456206Y-82797664D01*
X117456203Y-82797669D01*
X117406713Y-82930359D01*
X117364841Y-82986292D01*
X117299377Y-83010709D01*
X117231104Y-82995857D01*
X117181699Y-82946452D01*
X117168059Y-82906430D01*
X117158004Y-82842941D01*
X117092315Y-82640772D01*
X116995809Y-82451368D01*
X116995807Y-82451365D01*
X116995806Y-82451363D01*
X116870867Y-82279397D01*
X116848987Y-82257517D01*
X130214395Y-82257517D01*
X130217294Y-82294357D01*
X130217295Y-82294363D01*
X130263111Y-82452061D01*
X130263112Y-82452064D01*
X130346709Y-82593420D01*
X130346716Y-82593429D01*
X130462833Y-82709546D01*
X130462842Y-82709553D01*
X130604196Y-82793149D01*
X130761909Y-82838968D01*
X130761906Y-82838968D01*
X130764393Y-82839163D01*
X130764395Y-82839163D01*
X130764395Y-81854368D01*
X130214395Y-81854368D01*
X130214395Y-82257517D01*
X116848987Y-82257517D01*
X116720548Y-82129078D01*
X116720543Y-82129074D01*
X116651615Y-82078995D01*
X116608949Y-82023665D01*
X116600500Y-81978677D01*
X116600500Y-80452135D01*
X117399500Y-80452135D01*
X117399501Y-81547861D01*
X117399501Y-81547876D01*
X117405908Y-81607483D01*
X117456202Y-81742328D01*
X117456206Y-81742335D01*
X117542452Y-81857544D01*
X117542455Y-81857547D01*
X117657664Y-81943793D01*
X117657671Y-81943797D01*
X117792517Y-81994091D01*
X117792516Y-81994091D01*
X117799444Y-81994835D01*
X117852127Y-82000500D01*
X120947872Y-82000499D01*
X121007483Y-81994091D01*
X121142331Y-81943796D01*
X121257546Y-81857546D01*
X121343796Y-81742331D01*
X121394091Y-81607483D01*
X121400500Y-81547873D01*
X121400499Y-80452128D01*
X121394091Y-80392517D01*
X121386567Y-80372345D01*
X121343797Y-80257671D01*
X121343793Y-80257664D01*
X121257547Y-80142455D01*
X121257544Y-80142452D01*
X121142335Y-80056206D01*
X121142328Y-80056202D01*
X121007482Y-80005908D01*
X121007483Y-80005908D01*
X120947883Y-79999501D01*
X120947881Y-79999500D01*
X120947873Y-79999500D01*
X120947864Y-79999500D01*
X117852129Y-79999500D01*
X117852123Y-79999501D01*
X117792516Y-80005908D01*
X117657671Y-80056202D01*
X117657664Y-80056206D01*
X117542455Y-80142452D01*
X117542452Y-80142455D01*
X117456206Y-80257664D01*
X117456202Y-80257671D01*
X117405908Y-80392517D01*
X117400361Y-80444119D01*
X117399501Y-80452123D01*
X117399500Y-80452135D01*
X116600500Y-80452135D01*
X116600500Y-80341518D01*
X116620185Y-80274479D01*
X116636815Y-80253841D01*
X117484009Y-79406646D01*
X117545332Y-79373162D01*
X117615024Y-79378146D01*
X117646002Y-79395062D01*
X117657668Y-79403795D01*
X117657671Y-79403797D01*
X117792517Y-79454091D01*
X117792516Y-79454091D01*
X117799444Y-79454835D01*
X117852127Y-79460500D01*
X120947872Y-79460499D01*
X121007483Y-79454091D01*
X121142331Y-79403796D01*
X121257546Y-79317546D01*
X121307970Y-79250188D01*
X121363903Y-79208318D01*
X121407236Y-79200500D01*
X122238256Y-79200500D01*
X122305295Y-79220185D01*
X122338575Y-79251616D01*
X122408030Y-79347215D01*
X122552786Y-79491971D01*
X122687173Y-79589607D01*
X122718390Y-79612287D01*
X122820885Y-79664511D01*
X122900776Y-79705218D01*
X122900778Y-79705218D01*
X122900781Y-79705220D01*
X122953059Y-79722206D01*
X123095465Y-79768477D01*
X123167050Y-79779815D01*
X123297648Y-79800500D01*
X123297649Y-79800500D01*
X123502351Y-79800500D01*
X123502352Y-79800500D01*
X123704534Y-79768477D01*
X123899219Y-79705220D01*
X124081610Y-79612287D01*
X124199143Y-79526895D01*
X124247213Y-79491971D01*
X124247215Y-79491968D01*
X124247219Y-79491966D01*
X124391966Y-79347219D01*
X124391968Y-79347215D01*
X124391971Y-79347213D01*
X124463867Y-79248255D01*
X124512287Y-79181610D01*
X124605220Y-78999219D01*
X124668477Y-78804534D01*
X124700500Y-78602352D01*
X124700500Y-78397648D01*
X124693384Y-78352723D01*
X124668477Y-78195465D01*
X124634008Y-78089381D01*
X124605220Y-78000781D01*
X124605217Y-78000776D01*
X124605216Y-78000771D01*
X124587042Y-77965103D01*
X124587040Y-77965101D01*
X124576349Y-77944119D01*
X124560052Y-77912135D01*
X125399500Y-77912135D01*
X125399500Y-79007870D01*
X125399501Y-79007876D01*
X125405908Y-79067483D01*
X125456202Y-79202328D01*
X125456206Y-79202335D01*
X125542452Y-79317544D01*
X125542455Y-79317547D01*
X125657664Y-79403793D01*
X125657671Y-79403797D01*
X125792517Y-79454091D01*
X125792516Y-79454091D01*
X125799444Y-79454835D01*
X125852127Y-79460500D01*
X128947872Y-79460499D01*
X129007483Y-79454091D01*
X129142331Y-79403796D01*
X129257546Y-79317546D01*
X129343796Y-79202331D01*
X129394091Y-79067483D01*
X129400500Y-79007873D01*
X129400500Y-78825013D01*
X130200000Y-78825013D01*
X130200000Y-79250000D01*
X131100000Y-79250000D01*
X131600000Y-79250000D01*
X132499999Y-79250000D01*
X132499999Y-78825028D01*
X132499998Y-78825013D01*
X132489505Y-78722302D01*
X132434358Y-78555880D01*
X132434356Y-78555875D01*
X132342315Y-78406654D01*
X132273342Y-78337681D01*
X132239857Y-78276358D01*
X132244841Y-78206666D01*
X132273342Y-78162319D01*
X132342315Y-78093345D01*
X132434356Y-77944124D01*
X132434358Y-77944119D01*
X132489505Y-77777697D01*
X132489506Y-77777690D01*
X132499999Y-77674986D01*
X132500000Y-77674973D01*
X132500000Y-77250000D01*
X131600000Y-77250000D01*
X131600000Y-79250000D01*
X131100000Y-79250000D01*
X131100000Y-77250000D01*
X130200001Y-77250000D01*
X130200001Y-77674986D01*
X130210494Y-77777697D01*
X130265641Y-77944119D01*
X130265643Y-77944124D01*
X130357684Y-78093345D01*
X130426658Y-78162319D01*
X130460143Y-78223642D01*
X130455159Y-78293334D01*
X130426658Y-78337681D01*
X130357684Y-78406654D01*
X130265643Y-78555875D01*
X130265641Y-78555880D01*
X130210494Y-78722302D01*
X130210493Y-78722309D01*
X130200000Y-78825013D01*
X129400500Y-78825013D01*
X129400499Y-78444336D01*
X129400499Y-77912129D01*
X129400498Y-77912123D01*
X129400497Y-77912116D01*
X129394091Y-77852517D01*
X129389133Y-77839225D01*
X129343797Y-77717671D01*
X129343793Y-77717664D01*
X129257547Y-77602455D01*
X129257544Y-77602452D01*
X129142335Y-77516206D01*
X129142328Y-77516202D01*
X129007482Y-77465908D01*
X129007483Y-77465908D01*
X128947883Y-77459501D01*
X128947881Y-77459500D01*
X128947873Y-77459500D01*
X128947864Y-77459500D01*
X125852129Y-77459500D01*
X125852123Y-77459501D01*
X125792516Y-77465908D01*
X125657671Y-77516202D01*
X125657664Y-77516206D01*
X125542455Y-77602452D01*
X125542452Y-77602455D01*
X125456206Y-77717664D01*
X125456202Y-77717671D01*
X125405908Y-77852517D01*
X125401167Y-77896618D01*
X125399501Y-77912123D01*
X125399500Y-77912135D01*
X124560052Y-77912135D01*
X124512287Y-77818390D01*
X124512285Y-77818387D01*
X124512284Y-77818385D01*
X124391971Y-77652786D01*
X124247213Y-77508028D01*
X124081613Y-77387715D01*
X124081612Y-77387714D01*
X124081610Y-77387713D01*
X124024653Y-77358691D01*
X123899223Y-77294781D01*
X123704534Y-77231522D01*
X123529995Y-77203878D01*
X123502352Y-77199500D01*
X123297648Y-77199500D01*
X123273329Y-77203351D01*
X123095465Y-77231522D01*
X122900776Y-77294781D01*
X122718386Y-77387715D01*
X122552786Y-77508028D01*
X122408030Y-77652784D01*
X122338575Y-77748384D01*
X122283245Y-77791051D01*
X122238256Y-77799500D01*
X121460413Y-77799500D01*
X121393374Y-77779815D01*
X121347619Y-77727011D01*
X121344233Y-77718838D01*
X121343799Y-77717674D01*
X121343793Y-77717664D01*
X121257547Y-77602455D01*
X121257544Y-77602452D01*
X121142335Y-77516206D01*
X121142328Y-77516202D01*
X121007482Y-77465908D01*
X121007483Y-77465908D01*
X120947883Y-77459501D01*
X120947881Y-77459500D01*
X120947873Y-77459500D01*
X120947864Y-77459500D01*
X117852129Y-77459500D01*
X117852123Y-77459501D01*
X117792516Y-77465908D01*
X117657671Y-77516202D01*
X117657664Y-77516206D01*
X117542455Y-77602452D01*
X117461918Y-77710034D01*
X117405984Y-77751905D01*
X117374813Y-77759124D01*
X117371009Y-77759498D01*
X117235677Y-77786418D01*
X117235667Y-77786421D01*
X117108192Y-77839222D01*
X116993454Y-77915887D01*
X115355888Y-79553453D01*
X115355885Y-79553457D01*
X115327602Y-79595786D01*
X115273989Y-79640591D01*
X115204664Y-79649298D01*
X115141637Y-79619143D01*
X115104918Y-79559700D01*
X115100500Y-79526895D01*
X115100500Y-79041518D01*
X115120185Y-78974479D01*
X115136819Y-78953837D01*
X117853837Y-76236819D01*
X117915160Y-76203334D01*
X117941518Y-76200500D01*
X130076000Y-76200500D01*
X130143039Y-76220185D01*
G37*
%TD.AperFunction*%
%TD*%
M02*
