  0
SECTION
  2
HEADER
  9
$ANGBASE
  50
0.0
  9
$ANGDIR
  70
1
  9
$MEASUREMENT
  70
0
  0
ENDSEC
  0
SECTION
  2
TABLES
  0
TABLE
  2
LTYPE
  70
4
  0
LTYPE
  5
40F
  2
CONTINUOUS
  70
0
  3
Solid line
  72
65
  73
0
  40
0.0
  0
LTYPE
  5
410
  2
DASHDOT
 70
0
  3
Dash Dot ____ _ ____ _
 72
65
 73
4
 40
2.0
 49
1.25
 49
-0.25
 49
0.25
 49
-0.25
  0
LTYPE
  5
411
  2
DASHED
 70
0
  3
Dashed __ __ __ __ __
 72
65
 73
2
 40
0.75
 49
0.5
 49
-0.25
  0
LTYPE
  5
43B
  2
DOTTED
 70
0
  3
Dotted .  .  .  .
 72
65
 73
2
 40
0.2
 49
0.0
 49
-0.2
  0
ENDTAB
  0
TABLE
  2
STYLE
  70
4
  0
STYLE
  2
KICAD
  70
0
  40
0
  41
1
  42
1
  50
0
  71
0
  3
isocp.shx
  0
STYLE
  2
KICADB
  70
0
  40
0
  41
1
  42
1
  50
0
  71
0
  3
isocp.shx
  0
STYLE
  2
KICADI
  70
0
  40
0
  41
1
  42
1
  50
15
  71
0
  3
isocp.shx
  0
STYLE
  2
KICADBI
  70
0
  40
0
  41
1
  42
1
  50
15
  71
0
  3
isocp.shx
  0
ENDTAB
  0
TABLE
  2
LAYER
  70
1
  0
LAYER
  2
BLACK
  70
0
  62
7
  6
CONTINUOUS
  0
ENDTAB
  0
ENDSEC
  0
SECTION
  2
ENTITIES
0
LINE
8
BLACK
6
CONTINUOUS
10
6.6299212598425195
20
-2.9320866141732282
11
6.6403274015748028
21
-2.932768661417323
0
LINE
8
BLACK
6
CONTINUOUS
10
6.6403274015748028
20
-2.932768661417323
11
6.6505554724409448
21
-2.934803149606299
0
LINE
8
BLACK
6
CONTINUOUS
10
6.6505554724409448
20
-2.934803149606299
11
6.6604304724409449
21
-2.9381552755905509
0
LINE
8
BLACK
6
CONTINUOUS
10
6.6604304724409449
20
-2.9381552755905509
11
6.6697834645669287
21
-2.9427676771653544
0
LINE
8
BLACK
6
CONTINUOUS
10
6.6697834645669287
20
-2.9427676771653544
11
6.6784544094488192
21
-2.948561377952756
0
LINE
8
BLACK
6
CONTINUOUS
10
6.6784544094488192
20
-2.948561377952756
11
6.6862949212598419
21
-2.9554373622047243
0
LINE
8
BLACK
6
CONTINUOUS
10
6.6862949212598419
20
-2.9554373622047243
11
6.6931709055118107
21
-2.9632778740157479
0
LINE
8
BLACK
6
CONTINUOUS
10
6.6931709055118107
20
-2.9632778740157479
11
6.6989646062992128
21
-2.9719488188976375
0
LINE
8
BLACK
6
CONTINUOUS
10
6.6989646062992128
20
-2.9719488188976375
11
6.7035770078740153
21
-2.9813018110236218
0
LINE
8
BLACK
6
CONTINUOUS
10
6.7035770078740153
20
-2.9813018110236218
11
6.7069291338582673
21
-2.9911768110236219
0
LINE
8
BLACK
6
CONTINUOUS
10
6.7069291338582673
20
-2.9911768110236219
11
6.7089636220472437
21
-3.0014048818897638
0
LINE
8
BLACK
6
CONTINUOUS
10
6.7089636220472437
20
-3.0014048818897638
11
6.709645669291338
21
-3.0118110236220472
0
LINE
8
BLACK
6
CONTINUOUS
10
6.709645669291338
20
-3.0118110236220472
11
6.709645669291338
21
-4.3700787401574805
0
LINE
8
BLACK
6
CONTINUOUS
10
6.709645669291338
20
-4.3700787401574805
11
6.7089636220472437
21
-4.3804848818897639
0
LINE
8
BLACK
6
CONTINUOUS
10
6.7089636220472437
20
-4.3804848818897639
11
6.7069291338582673
21
-4.390712952755905
0
LINE
8
BLACK
6
CONTINUOUS
10
6.7069291338582673
20
-4.390712952755905
11
6.7035770078740153
21
-4.4005879527559051
0
LINE
8
BLACK
6
CONTINUOUS
10
6.7035770078740153
20
-4.4005879527559051
11
6.6989646062992128
21
-4.4099409448818898
0
LINE
8
BLACK
6
CONTINUOUS
10
6.6989646062992128
20
-4.4099409448818898
11
6.6931709055118107
21
-4.4186118897637794
0
LINE
8
BLACK
6
CONTINUOUS
10
6.6931709055118107
20
-4.4186118897637794
11
6.6862949212598419
21
-4.426452401574803
0
LINE
8
BLACK
6
CONTINUOUS
10
6.6862949212598419
20
-4.426452401574803
11
6.6784544094488192
21
-4.4333283858267718
0
LINE
8
BLACK
6
CONTINUOUS
10
6.6784544094488192
20
-4.4333283858267718
11
6.6697834645669287
21
-4.439122086614173
0
LINE
8
BLACK
6
CONTINUOUS
10
6.6697834645669287
20
-4.439122086614173
11
6.6604304724409449
21
-4.4437344881889764
0
LINE
8
BLACK
6
CONTINUOUS
10
6.6604304724409449
20
-4.4437344881889764
11
6.6505554724409448
21
-4.4470866141732284
0
LINE
8
BLACK
6
CONTINUOUS
10
6.6505554724409448
20
-4.4470866141732284
11
6.6403274015748028
21
-4.4491211023622048
0
LINE
8
BLACK
6
CONTINUOUS
10
6.6403274015748028
20
-4.4491211023622048
11
6.6299212598425195
21
-4.4498031496062991
0
LINE
8
BLACK
6
CONTINUOUS
10
6.6299212598425195
20
-4.4498031496062991
11
4.5433070866141732
21
-4.4498031496062991
0
LINE
8
BLACK
6
CONTINUOUS
10
4.5433070866141732
20
-4.4498031496062991
11
4.5329009448818898
21
-4.4491211023622048
0
LINE
8
BLACK
6
CONTINUOUS
10
4.5329009448818898
20
-4.4491211023622048
11
4.5226728740157478
21
-4.4470866141732284
0
LINE
8
BLACK
6
CONTINUOUS
10
4.5226728740157478
20
-4.4470866141732284
11
4.5127978740157477
21
-4.4437344881889764
0
LINE
8
BLACK
6
CONTINUOUS
10
4.5127978740157477
20
-4.4437344881889764
11
4.5034448818897639
21
-4.439122086614173
0
LINE
8
BLACK
6
CONTINUOUS
10
4.5034448818897639
20
-4.439122086614173
11
4.4947739370078743
21
-4.4333283858267718
0
LINE
8
BLACK
6
CONTINUOUS
10
4.4947739370078743
20
-4.4333283858267718
11
4.4869334251968507
21
-4.426452401574803
0
LINE
8
BLACK
6
CONTINUOUS
10
4.4869334251968507
20
-4.426452401574803
11
4.4800574409448819
21
-4.4186118897637794
0
LINE
8
BLACK
6
CONTINUOUS
10
4.4800574409448819
20
-4.4186118897637794
11
4.4742637401574799
21
-4.4099409448818898
0
LINE
8
BLACK
6
CONTINUOUS
10
4.4742637401574799
20
-4.4099409448818898
11
4.4696513385826773
21
-4.4005879527559051
0
LINE
8
BLACK
6
CONTINUOUS
10
4.4696513385826773
20
-4.4005879527559051
11
4.4662992125984253
21
-4.390712952755905
0
LINE
8
BLACK
6
CONTINUOUS
10
4.4662992125984253
20
-4.390712952755905
11
4.4642647244094489
21
-4.3804848818897639
0
LINE
8
BLACK
6
CONTINUOUS
10
4.4642647244094489
20
-4.3804848818897639
11
4.4635826771653546
21
-4.3700787401574805
0
LINE
8
BLACK
6
CONTINUOUS
10
4.4635826771653546
20
-4.3700787401574805
11
4.4635826771653546
21
-3.0118110236220472
0
LINE
8
BLACK
6
CONTINUOUS
10
4.4635826771653546
20
-3.0118110236220472
11
4.4642647244094489
21
-3.0014048818897638
0
LINE
8
BLACK
6
CONTINUOUS
10
4.4642647244094489
20
-3.0014048818897638
11
4.4662992125984253
21
-2.9911768110236219
0
LINE
8
BLACK
6
CONTINUOUS
10
4.4662992125984253
20
-2.9911768110236219
11
4.4696513385826773
21
-2.9813018110236218
0
LINE
8
BLACK
6
CONTINUOUS
10
4.4696513385826773
20
-2.9813018110236218
11
4.4742637401574799
21
-2.9719488188976375
0
LINE
8
BLACK
6
CONTINUOUS
10
4.4742637401574799
20
-2.9719488188976375
11
4.4800574409448819
21
-2.9632778740157479
0
LINE
8
BLACK
6
CONTINUOUS
10
4.4800574409448819
20
-2.9632778740157479
11
4.4869334251968507
21
-2.9554373622047243
0
LINE
8
BLACK
6
CONTINUOUS
10
4.4869334251968507
20
-2.9554373622047243
11
4.4947739370078743
21
-2.948561377952756
0
LINE
8
BLACK
6
CONTINUOUS
10
4.4947739370078743
20
-2.948561377952756
11
4.5034448818897639
21
-2.9427676771653544
0
LINE
8
BLACK
6
CONTINUOUS
10
4.5034448818897639
20
-2.9427676771653544
11
4.5127978740157477
21
-2.9381552755905509
0
LINE
8
BLACK
6
CONTINUOUS
10
4.5127978740157477
20
-2.9381552755905509
11
4.5226728740157478
21
-2.934803149606299
0
LINE
8
BLACK
6
CONTINUOUS
10
4.5226728740157478
20
-2.934803149606299
11
4.5329009448818898
21
-2.932768661417323
0
LINE
8
BLACK
6
CONTINUOUS
10
4.5329009448818898
20
-2.932768661417323
11
4.5433070866141732
21
-2.9320866141732282
0
LINE
8
BLACK
6
CONTINUOUS
10
4.5433070866141732
20
-2.9320866141732282
11
6.6299212598425195
21
-2.9320866141732282
0
LINE
8
BLACK
6
CONTINUOUS
10
4.5433070866141732
20
-2.9340551181102361
11
4.538210708661417
21
-2.9340551181102361
0
LINE
8
BLACK
6
CONTINUOUS
10
4.538210708661417
20
-2.9340551181102361
11
4.5281051181102363
21
-2.9353855511811022
0
LINE
8
BLACK
6
CONTINUOUS
10
4.5281051181102363
20
-2.9353855511811022
11
4.5182596456692909
21
-2.9380236220472442
0
LINE
8
BLACK
6
CONTINUOUS
10
4.5182596456692909
20
-2.9380236220472442
11
4.5088427165354332
21
-2.9419242125984253
0
LINE
8
BLACK
6
CONTINUOUS
10
4.5088427165354332
20
-2.9419242125984253
11
4.5000155118110232
21
-2.9470206299212598
0
LINE
8
BLACK
6
CONTINUOUS
10
4.5000155118110232
20
-2.9470206299212598
11
4.4919290551181099
21
-2.9532255905511811
0
LINE
8
BLACK
6
CONTINUOUS
10
4.4919290551181099
20
-2.9532255905511811
11
4.484721653543307
21
-2.960432992125984
0
LINE
8
BLACK
6
CONTINUOUS
10
4.484721653543307
20
-2.960432992125984
11
4.4785166929133862
21
-2.9685194488188977
0
LINE
8
BLACK
6
CONTINUOUS
10
4.4785166929133862
20
-2.9685194488188977
11
4.4734202755905512
21
-2.9773466535433069
0
LINE
8
BLACK
6
CONTINUOUS
10
4.4734202755905512
20
-2.9773466535433069
11
4.4695196850393701
21
-2.9867635826771655
0
LINE
8
BLACK
6
CONTINUOUS
10
4.4695196850393701
20
-2.9867635826771655
11
4.4668816141732286
21
-2.9966090551181104
0
LINE
8
BLACK
6
CONTINUOUS
10
4.4668816141732286
20
-2.9966090551181104
11
4.465551181102362
21
-3.0067146456692915
0
LINE
8
BLACK
6
CONTINUOUS
10
4.465551181102362
20
-3.0067146456692915
11
4.465551181102362
21
-3.0118110236220472
0
LINE
8
BLACK
6
CONTINUOUS
10
4.465551181102362
20
-3.0118110236220472
11
4.465551181102362
21
-4.3700787401574805
0
LINE
8
BLACK
6
CONTINUOUS
10
4.465551181102362
20
-4.3700787401574805
11
4.465551181102362
21
-4.3751751181102359
0
LINE
8
BLACK
6
CONTINUOUS
10
4.465551181102362
20
-4.3751751181102359
11
4.4668816141732286
21
-4.3852807086614174
0
LINE
8
BLACK
6
CONTINUOUS
10
4.4668816141732286
20
-4.3852807086614174
11
4.4695196850393701
21
-4.3951261811023619
0
LINE
8
BLACK
6
CONTINUOUS
10
4.4695196850393701
20
-4.3951261811023619
11
4.4734202755905512
21
-4.4045431102362205
0
LINE
8
BLACK
6
CONTINUOUS
10
4.4734202755905512
20
-4.4045431102362205
11
4.4785166929133862
21
-4.4133703149606296
0
LINE
8
BLACK
6
CONTINUOUS
10
4.4785166929133862
20
-4.4133703149606296
11
4.484721653543307
21
-4.4214567716535429
0
LINE
8
BLACK
6
CONTINUOUS
10
4.484721653543307
20
-4.4214567716535429
11
4.4919290551181099
21
-4.4286641732283467
0
LINE
8
BLACK
6
CONTINUOUS
10
4.4919290551181099
20
-4.4286641732283467
11
4.5000155118110232
21
-4.4348691338582675
0
LINE
8
BLACK
6
CONTINUOUS
10
4.5000155118110232
20
-4.4348691338582675
11
4.5088427165354332
21
-4.4399655511811025
0
LINE
8
BLACK
6
CONTINUOUS
10
4.5088427165354332
20
-4.4399655511811025
11
4.5182596456692909
21
-4.4438661417322836
0
LINE
8
BLACK
6
CONTINUOUS
10
4.5182596456692909
20
-4.4438661417322836
11
4.5281051181102363
21
-4.4465042125984251
0
LINE
8
BLACK
6
CONTINUOUS
10
4.5281051181102363
20
-4.4465042125984251
11
4.538210708661417
21
-4.4478346456692917
0
LINE
8
BLACK
6
CONTINUOUS
10
4.538210708661417
20
-4.4478346456692917
11
4.5433070866141732
21
-4.4478346456692917
0
LINE
8
BLACK
6
CONTINUOUS
10
4.5433070866141732
20
-4.4478346456692917
11
6.6299212598425195
21
-4.4478346456692917
0
LINE
8
BLACK
6
CONTINUOUS
10
6.6299212598425195
20
-4.4478346456692917
11
6.6350176377952756
21
-4.4478346456692917
0
LINE
8
BLACK
6
CONTINUOUS
10
6.6350176377952756
20
-4.4478346456692917
11
6.6451232283464563
21
-4.4465042125984251
0
LINE
8
BLACK
6
CONTINUOUS
10
6.6451232283464563
20
-4.4465042125984251
11
6.6549687007874017
21
-4.4438661417322836
0
LINE
8
BLACK
6
CONTINUOUS
10
6.6549687007874017
20
-4.4438661417322836
11
6.6643856299212594
21
-4.4399655511811025
0
LINE
8
BLACK
6
CONTINUOUS
10
6.6643856299212594
20
-4.4399655511811025
11
6.6732128346456694
21
-4.4348691338582675
0
LINE
8
BLACK
6
CONTINUOUS
10
6.6732128346456694
20
-4.4348691338582675
11
6.6812992913385827
21
-4.4286641732283467
0
LINE
8
BLACK
6
CONTINUOUS
10
6.6812992913385827
20
-4.4286641732283467
11
6.6885066929133856
21
-4.4214567716535429
0
LINE
8
BLACK
6
CONTINUOUS
10
6.6885066929133856
20
-4.4214567716535429
11
6.6947116535433073
21
-4.4133703149606296
0
LINE
8
BLACK
6
CONTINUOUS
10
6.6947116535433073
20
-4.4133703149606296
11
6.6998080708661414
21
-4.4045431102362205
0
LINE
8
BLACK
6
CONTINUOUS
10
6.6998080708661414
20
-4.4045431102362205
11
6.7037086614173225
21
-4.3951261811023619
0
LINE
8
BLACK
6
CONTINUOUS
10
6.7037086614173225
20
-4.3951261811023619
11
6.706346732283464
21
-4.3852807086614174
0
LINE
8
BLACK
6
CONTINUOUS
10
6.706346732283464
20
-4.3852807086614174
11
6.7076771653543306
21
-4.3751751181102359
0
LINE
8
BLACK
6
CONTINUOUS
10
6.7076771653543306
20
-4.3751751181102359
11
6.7076771653543306
21
-4.3700787401574805
0
LINE
8
BLACK
6
CONTINUOUS
10
6.7076771653543306
20
-4.3700787401574805
11
6.7076771653543306
21
-3.0118110236220472
0
LINE
8
BLACK
6
CONTINUOUS
10
6.7076771653543306
20
-3.0118110236220472
11
6.7076771653543306
21
-3.0067146456692915
0
LINE
8
BLACK
6
CONTINUOUS
10
6.7076771653543306
20
-3.0067146456692915
11
6.706346732283464
21
-2.9966090551181104
0
LINE
8
BLACK
6
CONTINUOUS
10
6.706346732283464
20
-2.9966090551181104
11
6.7037086614173225
21
-2.9867635826771655
0
LINE
8
BLACK
6
CONTINUOUS
10
6.7037086614173225
20
-2.9867635826771655
11
6.6998080708661414
21
-2.9773466535433069
0
LINE
8
BLACK
6
CONTINUOUS
10
6.6998080708661414
20
-2.9773466535433069
11
6.6947116535433073
21
-2.9685194488188977
0
LINE
8
BLACK
6
CONTINUOUS
10
6.6947116535433073
20
-2.9685194488188977
11
6.6885066929133856
21
-2.960432992125984
0
LINE
8
BLACK
6
CONTINUOUS
10
6.6885066929133856
20
-2.960432992125984
11
6.6812992913385827
21
-2.9532255905511811
0
LINE
8
BLACK
6
CONTINUOUS
10
6.6812992913385827
20
-2.9532255905511811
11
6.6732128346456694
21
-2.9470206299212598
0
LINE
8
BLACK
6
CONTINUOUS
10
6.6732128346456694
20
-2.9470206299212598
11
6.6643856299212594
21
-2.9419242125984253
0
LINE
8
BLACK
6
CONTINUOUS
10
6.6643856299212594
20
-2.9419242125984253
11
6.6549687007874017
21
-2.9380236220472442
0
LINE
8
BLACK
6
CONTINUOUS
10
6.6549687007874017
20
-2.9380236220472442
11
6.6451232283464563
21
-2.9353855511811022
0
LINE
8
BLACK
6
CONTINUOUS
10
6.6451232283464563
20
-2.9353855511811022
11
6.6350176377952756
21
-2.9340551181102361
0
LINE
8
BLACK
6
CONTINUOUS
10
6.6350176377952756
20
-2.9340551181102361
11
6.6299212598425195
21
-2.9340551181102361
0
LINE
8
BLACK
6
CONTINUOUS
10
6.6299212598425195
20
-2.9340551181102361
11
4.5433070866141732
21
-2.9340551181102361
  0
ENDSEC
  0
EOF
