M48
; DRILL file {KiCad 9.0.3+1} date 2025-11-18T09:18:20+0100
; FORMAT={-:-/ absolute / metric / decimal}
; #@! TF.CreationDate,2025-11-18T09:18:20+01:00
; #@! TF.GenerationSoftware,Kicad,Pcbnew,9.0.3+1
; #@! TF.FileFunction,MixedPlating,1,2
FMAT,2
METRIC
; #@! TA.AperFunction,Plated,PTH,ViaDrill
T1C0.400
; #@! TA.AperFunction,Plated,PTH,ViaDrill
T2C0.800
; #@! TA.AperFunction,Plated,PTH,ComponentDrill
T3C0.800
; #@! TA.AperFunction,Plated,PTH,ComponentDrill
T4C1.000
%
G90
G05
T1
X114.6Y-87.9
X115.0Y-89.0
X115.0Y-92.0
X115.0Y-95.0
X115.0Y-99.0
X115.271Y-79.358
X117.0Y-81.0
X117.0Y-89.0
X118.0Y-94.1
X118.0Y-95.0
X118.632Y-99.003
X119.0Y-77.0
X121.0Y-95.0
X124.0Y-95.0
X125.0Y-77.0
X127.0Y-95.0
X129.0Y-77.0
X130.0Y-89.0
X130.0Y-92.0
X130.0Y-95.0
X130.325Y-87.325
X132.9Y-77.0
X136.0Y-95.613
X142.0Y-95.0
X145.0Y-95.0
X148.0Y-95.0
X148.4Y-87.4
X151.0Y-95.0
X151.9Y-88.0
X152.0Y-76.0
X154.0Y-95.0
X156.0Y-76.0
X157.0Y-95.0
X158.0Y-86.0
X158.55Y-90.55
X159.0Y-76.0
X160.0Y-95.0
X162.0Y-76.0
X163.0Y-95.0
X165.0Y-76.0
X167.0Y-76.0
X168.0Y-95.0
X169.0Y-77.0
X169.0Y-80.0
X169.0Y-85.0
X169.0Y-89.0
X169.0Y-93.0
X169.483Y-98.563
T2
X123.4Y-78.5
X123.4Y-83.5
X123.4Y-87.0
X123.4Y-92.0
T3
X138.4Y-77.0
X140.4Y-77.0
X142.4Y-77.0
X156.9Y-78.5
X160.9Y-86.0
X160.9Y-88.0
X160.9Y-90.0
X163.9Y-88.0
X163.9Y-90.0
X166.9Y-88.0
X166.9Y-90.0
T4
X115.841Y-83.159
X115.841Y-85.699
M30
